<?xml version="1.0" encoding="UTF-8" standalone="no"?>
<!-- Created with Inkscape (http://www.inkscape.org/) -->

<svg
   xmlns:dc="http://purl.org/dc/elements/1.1/"
   xmlns:cc="http://creativecommons.org/ns#"
   xmlns:rdf="http://www.w3.org/1999/02/22-rdf-syntax-ns#"
   xmlns:svg="http://www.w3.org/2000/svg"
   xmlns="http://www.w3.org/2000/svg"
   xmlns:sodipodi="http://sodipodi.sourceforge.net/DTD/sodipodi-0.dtd"
   xmlns:inkscape="http://www.inkscape.org/namespaces/inkscape"
   width="744.09448819"
   height="1052.3622047"
   id="svg2"
   version="1.1"
   inkscape:version="0.48.4 r9939"
   sodipodi:docname="C.svg">
  <defs
     id="defs4" />
  <sodipodi:namedview
     id="base"
     pagecolor="#ffffff"
     bordercolor="#666666"
     borderopacity="1.0"
     inkscape:pageopacity="0.0"
     inkscape:pageshadow="2"
     inkscape:zoom="1.4"
     inkscape:cx="375"
     inkscape:cy="634.28571"
     inkscape:document-units="px"
     inkscape:current-layer="g3023"
     showgrid="false"
     showguides="true"
     inkscape:guide-bbox="true"
     inkscape:window-width="1853"
     inkscape:window-height="1056"
     inkscape:window-x="67"
     inkscape:window-y="24"
     inkscape:window-maximized="1" />
  <metadata
     id="metadata7">
    <rdf:RDF>
      <cc:Work
         rdf:about="">
        <dc:format>image/svg+xml</dc:format>
        <dc:type
           rdf:resource="http://purl.org/dc/dcmitype/StillImage" />
        <dc:title />
      </cc:Work>
    </rdf:RDF>
  </metadata>
  <g
     inkscape:label="Layer 1"
     inkscape:groupmode="layer"
     id="layer1">
    <g
       id="g2999"
       transform="translate(160,330)">
      <g
         id="g3023"
         transform="matrix(2.4956522,0,0,2.4956522,-270.09939,-407.22245)">
        <path
           style="fill:#000000;fill-opacity:1;fill-rule:evenodd;stroke-width:1;stroke-miterlimit:4"
           d="m 249.38575,287.57159 c -2.84093,3.37322 -2.22615,6.738 -5.53362,8.99232 -3.30747,2.25433 -13.1131,5.68789 -16.76001,6.90899 -3.64691,1.2211 -7.43177,1.947 -11.29102,2.22055 -3.85925,0.27354 -7.79289,0.0947 -11.73737,-0.49361 -3.94448,-0.58833 -7.8998,-1.58619 -11.80241,-2.95073 -3.90261,-1.36455 -7.75251,-3.09578 -11.48614,-5.15085 -3.73363,-2.05508 -7.351,-4.43401 -10.78856,-7.09395 -3.43755,-2.65994 -6.69529,-5.6009 -9.70966,-8.78003 -24.11496,-25.43306 -26.01097,-68.59573 -2.51238,-94.91272 22.14473,-24.80075 54.72412,-31.23385 81.09485,-14.25995 0.26379,0.16979 4.15096,11.90557 4.36377,12.13678 -29.64237,-10.0128 -71.96799,-15.21441 -83.29538,48.17379 9.69607,61.97799 52.52704,59.47828 89.45793,55.20941 z"
           inkscape:connector-curvature="0"
           sodipodi:nodetypes="cssssssssssccc"
           id="path2993" />
      </g>
    </g>
  </g>
</svg>
