<?xml version="1.0" encoding="UTF-8" standalone="no"?>
<!-- Created with Inkscape (http://www.inkscape.org/) -->

<svg
   xmlns:dc="http://purl.org/dc/elements/1.1/"
   xmlns:cc="http://creativecommons.org/ns#"
   xmlns:rdf="http://www.w3.org/1999/02/22-rdf-syntax-ns#"
   xmlns:svg="http://www.w3.org/2000/svg"
   xmlns="http://www.w3.org/2000/svg"
   xmlns:sodipodi="http://sodipodi.sourceforge.net/DTD/sodipodi-0.dtd"
   xmlns:inkscape="http://www.inkscape.org/namespaces/inkscape"
   width="744.09448819"
   height="1052.3622047"
   id="svg2"
   version="1.1"
   inkscape:version="0.48.4 r9939"
   sodipodi:docname="D.png">
  <defs
     id="defs4" />
  <sodipodi:namedview
     id="base"
     pagecolor="#ffffff"
     bordercolor="#666666"
     borderopacity="1.0"
     inkscape:pageopacity="0.0"
     inkscape:pageshadow="2"
     inkscape:zoom="1.4"
     inkscape:cx="375"
     inkscape:cy="593.87961"
     inkscape:document-units="px"
     inkscape:current-layer="g2987"
     showgrid="false"
     showguides="true"
     inkscape:guide-bbox="true"
     inkscape:window-width="1853"
     inkscape:window-height="1056"
     inkscape:window-x="67"
     inkscape:window-y="24"
     inkscape:window-maximized="1" />
  <metadata
     id="metadata7">
    <rdf:RDF>
      <cc:Work
         rdf:about="">
        <dc:format>image/svg+xml</dc:format>
        <dc:type
           rdf:resource="http://purl.org/dc/dcmitype/StillImage" />
        <dc:title></dc:title>
      </cc:Work>
    </rdf:RDF>
  </metadata>
  <g
     inkscape:label="Layer 1"
     inkscape:groupmode="layer"
     id="layer1">
    <g
       id="g2999"
       transform="translate(160,330)">
      <g
         id="g3023"
         transform="matrix(2.4956522,0,0,2.4956522,-270.09939,-407.22245)">
        <g
           id="g2987">
          <g
             id="g3012">
            <rect
               style="fill:#000000;fill-opacity:1;fill-rule:evenodd;stroke-width:1;stroke-miterlimit:4;stroke-dasharray:none"
               id="rect2985"
               width="23.61249"
               height="144.25085"
               x="159.45996"
               y="139.64818" />
            <g
               id="g2991"
               transform="matrix(-0.24557188,0,0,0.23401317,299.32177,107.20335)">
              <rect
                 ry="95.215263"
                 rx="0"
                 y="158.74068"
                 x="245.21535"
                 height="95.215263"
                 width="275.36584"
                 id="rect2985-6-2"
                 style="fill:#000000;fill-opacity:1;fill-rule:evenodd;stroke-width:1;stroke-miterlimit:4;stroke-dasharray:none" />
              <rect
                 transform="matrix(0,-1,1,0,0,0)"
                 ry="92.275978"
                 rx="0"
                 y="191.10564"
                 x="-701.75647"
                 height="92.275978"
                 width="485.09317"
                 id="rect2985-6-1"
                 style="fill:#000000;fill-opacity:1;fill-rule:evenodd;stroke-width:1;stroke-miterlimit:4;stroke-dasharray:none" />
              <rect
                 ry="0"
                 y="215.45947"
                 x="475.13138"
                 height="70.565742"
                 width="92.686157"
                 id="rect3089"
                 style="fill:#000000;fill-opacity:1;fill-rule:evenodd;stroke-width:1;stroke-miterlimit:4;stroke-dasharray:none" />
              <path
                 transform="matrix(1.9090797,0,0,1.887211,29.968861,-382.87001)"
                 d="m 282.33764,314.82455 c 0,15.41177 -12.4937,27.90547 -27.90547,27.90547 -15.41176,0 -27.90546,-12.4937 -27.90546,-27.90547 0,-15.41176 12.4937,-27.90546 27.90546,-27.90546 15.41177,0 27.90547,12.4937 27.90547,27.90546 z"
                 sodipodi:ry="27.905464"
                 sodipodi:rx="27.905464"
                 sodipodi:cy="314.82455"
                 sodipodi:cx="254.43217"
                 id="path3237-8-2"
                 style="fill:#000000;fill-opacity:1;fill-rule:evenodd;stroke-width:1;stroke-miterlimit:4;stroke-dasharray:none"
                 sodipodi:type="arc" />
              <path
                 transform="matrix(1.9090797,0,0,1.887211,-241.43146,-381.74318)"
                 d="m 282.33764,314.82455 c 0,15.41177 -12.4937,27.90547 -27.90547,27.90547 -15.41176,0 -27.90546,-12.4937 -27.90546,-27.90547 0,-15.41176 12.4937,-27.90546 27.90546,-27.90546 15.41177,0 27.90547,12.4937 27.90547,27.90546 z"
                 sodipodi:ry="27.905464"
                 sodipodi:rx="27.905464"
                 sodipodi:cy="314.82455"
                 sodipodi:cx="254.43217"
                 id="path3237-8-2-2"
                 style="fill:#000000;fill-opacity:1;fill-rule:evenodd;stroke-width:1;stroke-miterlimit:4;stroke-dasharray:none"
                 sodipodi:type="arc" />
              <path
                 transform="matrix(1.9090797,0,0,1.887211,-240.45123,103.46699)"
                 d="m 282.33764,314.82455 c 0,15.41177 -12.4937,27.90547 -27.90547,27.90547 -15.41176,0 -27.90546,-12.4937 -27.90546,-27.90547 0,-15.41176 12.4937,-27.90546 27.90546,-27.90546 15.41177,0 27.90547,12.4937 27.90547,27.90546 z"
                 sodipodi:ry="27.905464"
                 sodipodi:rx="27.905464"
                 sodipodi:cy="314.82455"
                 sodipodi:cx="254.43217"
                 id="path3237-8-2-8"
                 style="fill:#000000;fill-opacity:1;fill-rule:evenodd;stroke-width:1;stroke-miterlimit:4;stroke-dasharray:none"
                 sodipodi:type="arc" />
              <rect
                 style="fill:#000000;fill-opacity:1;fill-rule:evenodd;stroke-width:1;stroke-miterlimit:4;stroke-dasharray:none"
                 id="rect3009"
                 width="275.36584"
                 height="95.215263"
                 x="244.96281"
                 y="655.75079"
                 rx="0"
                 ry="95.215263" />
              <path
                 sodipodi:type="arc"
                 style="fill:#000000;fill-opacity:1;fill-rule:evenodd;stroke-width:1;stroke-miterlimit:4;stroke-dasharray:none"
                 id="path3024"
                 sodipodi:cx="254.43217"
                 sodipodi:cy="314.82455"
                 sodipodi:rx="27.905464"
                 sodipodi:ry="27.905464"
                 d="m 282.33764,314.82455 c 0,15.41177 -12.4937,27.90547 -27.90547,27.90547 -15.41176,0 -27.90546,-12.4937 -27.90546,-27.90547 0,-15.41176 12.4937,-27.90546 27.90546,-27.90546 15.41177,0 27.90547,12.4937 27.90547,27.90546 z"
                 transform="matrix(1.9090797,0,0,1.887211,30.254575,104.20142)" />
              <rect
                 style="fill:#000000;fill-opacity:1;fill-rule:evenodd;stroke-width:1;stroke-miterlimit:4;stroke-dasharray:none"
                 id="rect3037"
                 width="92.686157"
                 height="70.565742"
                 x="475.13138"
                 y="621.45947"
                 ry="0" />
            </g>
          </g>
        </g>
      </g>
    </g>
  </g>
</svg>
