<?xml version="1.0" encoding="UTF-8" standalone="no"?>
<!-- Created with Inkscape (http://www.inkscape.org/) -->

<svg
   xmlns:dc="http://purl.org/dc/elements/1.1/"
   xmlns:cc="http://creativecommons.org/ns#"
   xmlns:rdf="http://www.w3.org/1999/02/22-rdf-syntax-ns#"
   xmlns:svg="http://www.w3.org/2000/svg"
   xmlns="http://www.w3.org/2000/svg"
   xmlns:sodipodi="http://sodipodi.sourceforge.net/DTD/sodipodi-0.dtd"
   xmlns:inkscape="http://www.inkscape.org/namespaces/inkscape"
   width="744.09448819"
   height="1052.3622047"
   id="svg2"
   version="1.1"
   inkscape:version="0.48.4 r9939"
   sodipodi:docname="P.png">
  <defs
     id="defs4" />
  <sodipodi:namedview
     id="base"
     pagecolor="#ffffff"
     bordercolor="#666666"
     borderopacity="1.0"
     inkscape:pageopacity="0.0"
     inkscape:pageshadow="2"
     inkscape:zoom="0.7"
     inkscape:cx="375"
     inkscape:cy="520"
     inkscape:document-units="px"
     inkscape:current-layer="layer1"
     showgrid="false"
     inkscape:window-width="1853"
     inkscape:window-height="1056"
     inkscape:window-x="67"
     inkscape:window-y="24"
     inkscape:window-maximized="1" />
  <metadata
     id="metadata7">
    <rdf:RDF>
      <cc:Work
         rdf:about="">
        <dc:format>image/svg+xml</dc:format>
        <dc:type
           rdf:resource="http://purl.org/dc/dcmitype/StillImage" />
        <dc:title></dc:title>
      </cc:Work>
    </rdf:RDF>
  </metadata>
  <g
     inkscape:label="Layer 1"
     inkscape:groupmode="layer"
     id="layer1">
    <path
       style="fill:#000000;fill-opacity:1;fill-rule:evenodd;stroke-width:1;stroke-miterlimit:4"
       d="m 297.76963,253.43 c 7.08997,-8.41838 5.55569,-16.8157 13.80999,-22.4417 8.25429,-5.62602 32.72574,-14.195 41.82715,-17.24244 9.10142,-3.04744 18.54712,-4.85903 28.17846,-5.54172 9.63135,-0.68266 19.44835,-0.23634 29.2924,1.23188 9.84405,1.46827 19.71515,3.95858 29.45471,7.364 9.73955,3.40544 19.34757,7.72599 28.66541,12.85473 9.31784,5.12876 18.34554,11.06574 26.92449,17.70403 8.57893,6.63828 16.70912,13.9779 24.23193,21.9119 60.18256,63.47207 64.91434,171.19109 6.27003,236.86914 -55.26554,61.89405 -136.57237,77.94883 -202.38454,35.58788 -0.65833,-0.42374 -10.35935,-29.71217 -10.89045,-30.28919 73.97705,24.98847 179.60707,37.96988 207.8763,-120.22502 C 496.82749,236.53798 389.93629,242.77639 297.76963,253.43 z"
       inkscape:connector-curvature="0"
       sodipodi:nodetypes="cssssssssssccc"
       id="path2993" />
    <rect
       style="fill:#000000;fill-opacity:1;fill-rule:evenodd;stroke-width:1;stroke-miterlimit:4;stroke-dasharray:none"
       id="rect2992"
       width="77.14286"
       height="695.71429"
       x="264.28574"
       y="168.07646" />
  </g>
</svg>
