  0
SECTION
  2
HEADER
  9
$ACADVER
  1
AC1024
  9
$ACADMAINTVER
 70
     6
  9
$DWGCODEPAGE
  3
ANSI_1252
  9
$LASTSAVEDBY
  1
Simon
  9
$INSBASE
 10
0.0
 20
0.0
 30
0.0
  9
$EXTMIN
 10
0.0
 20
0.0
 30
0.0
  9
$EXTMAX
 10
230.0
 20
229.9999999999999
 30
0.0
  9
$LIMMIN
 10
-108.5
 20
-121.0
  9
$LIMMAX
 10
383.5
 20
323.0
  9
$ORTHOMODE
 70
     0
  9
$REGENMODE
 70
     1
  9
$FILLMODE
 70
     1
  9
$QTEXTMODE
 70
     0
  9
$MIRRTEXT
 70
     0
  9
$LTSCALE
 40
1.0
  9
$ATTMODE
 70
     1
  9
$TEXTSIZE
 40
0.2
  9
$TRACEWID
 40
0.05
  9
$TEXTSTYLE
  7
Standard
  9
$CLAYER
  8
0
  9
$CELTYPE
  6
ByLayer
  9
$CECOLOR
 62
   256
  9
$CELTSCALE
 40
1.0
  9
$DISPSILH
 70
     0
  9
$DIMSCALE
 40
1.0
  9
$DIMASZ
 40
0.1
  9
$DIMEXO
 40
0.0625
  9
$DIMDLI
 40
0.38
  9
$DIMRND
 40
0.0
  9
$DIMDLE
 40
0.0
  9
$DIMEXE
 40
0.18
  9
$DIMTP
 40
0.0
  9
$DIMTM
 40
0.0
  9
$DIMTXT
 40
0.18
  9
$DIMCEN
 40
0.0
  9
$DIMTSZ
 40
0.0
  9
$DIMTOL
 70
     0
  9
$DIMLIM
 70
     0
  9
$DIMTIH
 70
     0
  9
$DIMTOH
 70
     0
  9
$DIMSE1
 70
     0
  9
$DIMSE2
 70
     0
  9
$DIMTAD
 70
     0
  9
$DIMZIN
 70
     0
  9
$DIMBLK
  1

  9
$DIMASO
 70
     1
  9
$DIMSHO
 70
     1
  9
$DIMPOST
  1
<>mm
  9
$DIMAPOST
  1

  9
$DIMALT
 70
     0
  9
$DIMALTD
 70
     2
  9
$DIMALTF
 40
25.4
  9
$DIMLFAC
 40
1.0
  9
$DIMTOFL
 70
     0
  9
$DIMTVP
 40
0.0
  9
$DIMTIX
 70
     0
  9
$DIMSOXD
 70
     0
  9
$DIMSAH
 70
     0
  9
$DIMBLK1
  1

  9
$DIMBLK2
  1

  9
$DIMSTYLE
  2
Standard
  9
$DIMCLRD
 70
     0
  9
$DIMCLRE
 70
     0
  9
$DIMCLRT
 70
     0
  9
$DIMTFAC
 40
1.0
  9
$DIMGAP
 40
0.09
  9
$DIMJUST
 70
     0
  9
$DIMSD1
 70
     0
  9
$DIMSD2
 70
     0
  9
$DIMTOLJ
 70
     1
  9
$DIMTZIN
 70
     0
  9
$DIMALTZ
 70
     0
  9
$DIMALTTZ
 70
     0
  9
$DIMUPT
 70
     0
  9
$DIMDEC
 70
     0
  9
$DIMTDEC
 70
     4
  9
$DIMALTU
 70
     2
  9
$DIMALTTD
 70
     2
  9
$DIMTXSTY
  7
Standard
  9
$DIMAUNIT
 70
     0
  9
$DIMADEC
 70
     0
  9
$DIMALTRND
 40
0.0
  9
$DIMAZIN
 70
     0
  9
$DIMDSEP
 70
    46
  9
$DIMATFIT
 70
     3
  9
$DIMFRAC
 70
     0
  9
$DIMLDRBLK
  1

  9
$DIMLUNIT
 70
     2
  9
$DIMLWD
 70
    -2
  9
$DIMLWE
 70
    -2
  9
$DIMTMOVE
 70
     0
  9
$DIMFXL
 40
1.0
  9
$DIMFXLON
 70
     0
  9
$DIMJOGANG
 40
0.7853981633974483
  9
$DIMTFILL
 70
     0
  9
$DIMTFILLCLR
 70
     0
  9
$DIMARCSYM
 70
     0
  9
$DIMLTYPE
  6

  9
$DIMLTEX1
  6

  9
$DIMLTEX2
  6

  9
$DIMTXTDIRECTION
 70
     0
  9
$LUNITS
 70
     2
  9
$LUPREC
 70
     4
  9
$SKETCHINC
 40
0.1
  9
$FILLETRAD
 40
20.0
  9
$AUNITS
 70
     0
  9
$AUPREC
 70
     0
  9
$MENU
  1
.
  9
$ELEVATION
 40
0.0
  9
$PELEVATION
 40
0.0
  9
$THICKNESS
 40
0.0
  9
$LIMCHECK
 70
     0
  9
$CHAMFERA
 40
0.0
  9
$CHAMFERB
 40
0.0
  9
$CHAMFERC
 40
0.0
  9
$CHAMFERD
 40
0.0
  9
$SKPOLY
 70
     0
  9
$TDCREATE
 40
2452643.605050937
  9
$TDUCREATE
 40
2452643.063384271
  9
$TDUPDATE
 40
2456287.511644306
  9
$TDUUPDATE
 40
2456286.969977639
  9
$TDINDWG
 40
0.175824537
  9
$TDUSRTIMER
 40
2456286.968902222
  9
$USRTIMER
 70
     1
  9
$ANGBASE
 50
0.0
  9
$ANGDIR
 70
     0
  9
$PDMODE
 70
     0
  9
$PDSIZE
 40
-5.0
  9
$PLINEWID
 40
0.0
  9
$SPLFRAME
 70
     0
  9
$SPLINETYPE
 70
     6
  9
$SPLINESEGS
 70
     8
  9
$HANDSEED
  5
64A
  9
$SURFTAB1
 70
     6
  9
$SURFTAB2
 70
     6
  9
$SURFTYPE
 70
     6
  9
$SURFU
 70
     6
  9
$SURFV
 70
     6
  9
$UCSBASE
  2

  9
$UCSNAME
  2

  9
$UCSORG
 10
0.0
 20
0.0
 30
0.0
  9
$UCSXDIR
 10
1.0
 20
0.0
 30
0.0
  9
$UCSYDIR
 10
0.0
 20
1.0
 30
0.0
  9
$UCSORTHOREF
  2

  9
$UCSORTHOVIEW
 70
     0
  9
$UCSORGTOP
 10
0.0
 20
0.0
 30
0.0
  9
$UCSORGBOTTOM
 10
0.0
 20
0.0
 30
0.0
  9
$UCSORGLEFT
 10
0.0
 20
0.0
 30
0.0
  9
$UCSORGRIGHT
 10
0.0
 20
0.0
 30
0.0
  9
$UCSORGFRONT
 10
0.0
 20
0.0
 30
0.0
  9
$UCSORGBACK
 10
0.0
 20
0.0
 30
0.0
  9
$PUCSBASE
  2

  9
$PUCSNAME
  2

  9
$PUCSORG
 10
0.0
 20
0.0
 30
0.0
  9
$PUCSXDIR
 10
1.0
 20
0.0
 30
0.0
  9
$PUCSYDIR
 10
0.0
 20
1.0
 30
0.0
  9
$PUCSORTHOREF
  2

  9
$PUCSORTHOVIEW
 70
     0
  9
$PUCSORGTOP
 10
0.0
 20
0.0
 30
0.0
  9
$PUCSORGBOTTOM
 10
0.0
 20
0.0
 30
0.0
  9
$PUCSORGLEFT
 10
0.0
 20
0.0
 30
0.0
  9
$PUCSORGRIGHT
 10
0.0
 20
0.0
 30
0.0
  9
$PUCSORGFRONT
 10
0.0
 20
0.0
 30
0.0
  9
$PUCSORGBACK
 10
0.0
 20
0.0
 30
0.0
  9
$USERI1
 70
     0
  9
$USERI2
 70
     0
  9
$USERI3
 70
     0
  9
$USERI4
 70
     0
  9
$USERI5
 70
     0
  9
$USERR1
 40
0.0
  9
$USERR2
 40
0.0
  9
$USERR3
 40
0.0
  9
$USERR4
 40
0.0
  9
$USERR5
 40
0.0
  9
$WORLDVIEW
 70
     1
  9
$SHADEDGE
 70
     3
  9
$SHADEDIF
 70
    70
  9
$TILEMODE
 70
     1
  9
$MAXACTVP
 70
    64
  9
$PINSBASE
 10
0.0
 20
0.0
 30
0.0
  9
$PLIMCHECK
 70
     0
  9
$PEXTMIN
 10
1.05
 20
-20.16669784480268
 30
0.0
  9
$PEXTMAX
 10
309.8582313254469
 20
92.0914601331445
 30
0.0
  9
$PLIMMIN
 10
-0.25
 20
-0.25
  9
$PLIMMAX
 10
10.75
 20
8.25
  9
$UNITMODE
 70
     0
  9
$VISRETAIN
 70
     1
  9
$PLINEGEN
 70
     0
  9
$PSLTSCALE
 70
     1
  9
$TREEDEPTH
 70
  3020
  9
$CMLSTYLE
  2
Standard
  9
$CMLJUST
 70
     1
  9
$CMLSCALE
 40
40.0
  9
$PROXYGRAPHICS
 70
     1
  9
$MEASUREMENT
 70
     0
  9
$CELWEIGHT
370
    -1
  9
$ENDCAPS
280
     0
  9
$JOINSTYLE
280
     0
  9
$LWDISPLAY
290
     0
  9
$INSUNITS
 70
     4
  9
$HYPERLINKBASE
  1

  9
$STYLESHEET
  1

  9
$XEDIT
290
     1
  9
$CEPSNTYPE
380
     0
  9
$PSTYLEMODE
290
     1
  9
$FINGERPRINTGUID
  2
{FDEAD576-A652-11D2-9A35-0060089B3A3F}
  9
$VERSIONGUID
  2
{FBC2AE19-5C5C-49EC-81BC-71B1A3362A02}
  9
$EXTNAMES
290
     1
  9
$PSVPSCALE
 40
0.0
  9
$OLESTARTUP
290
     0
  9
$SORTENTS
280
   127
  9
$INDEXCTL
280
     0
  9
$HIDETEXT
280
     1
  9
$XCLIPFRAME
280
     0
  9
$HALOGAP
280
     0
  9
$OBSCOLOR
 70
   257
  9
$OBSLTYPE
280
     0
  9
$INTERSECTIONDISPLAY
280
     0
  9
$INTERSECTIONCOLOR
 70
   257
  9
$DIMASSOC
280
     2
  9
$PROJECTNAME
  1

  9
$CAMERADISPLAY
290
     0
  9
$LENSLENGTH
 40
50.0
  9
$CAMERAHEIGHT
 40
0.0
  9
$STEPSPERSEC
 40
2.0
  9
$STEPSIZE
 40
6.0
  9
$3DDWFPREC
 40
2.0
  9
$PSOLWIDTH
 40
0.25
  9
$PSOLHEIGHT
 40
4.0
  9
$LOFTANG1
 40
1.570796326794897
  9
$LOFTANG2
 40
1.570796326794897
  9
$LOFTMAG1
 40
0.0
  9
$LOFTMAG2
 40
0.0
  9
$LOFTPARAM
 70
     7
  9
$LOFTNORMALS
280
     1
  9
$LATITUDE
 40
37.795
  9
$LONGITUDE
 40
-122.394
  9
$NORTHDIRECTION
 40
0.0
  9
$TIMEZONE
 70
 -8000
  9
$LIGHTGLYPHDISPLAY
280
     1
  9
$TILEMODELIGHTSYNCH
280
     1
  9
$SOLIDHIST
280
     1
  9
$SHOWHIST
280
     1
  9
$DWFFRAME
280
     2
  9
$DGNFRAME
280
     0
  9
$REALWORLDSCALE
290
     1
  9
$INTERFERECOLOR
 62
     1
  9
$CSHADOW
280
     0
  9
$SHADOWPLANELOCATION
 40
0.0
  0
ENDSEC
  0
SECTION
  2
CLASSES
  0
CLASS
  1
ACDBDICTIONARYWDFLT
  2
AcDbDictionaryWithDefault
  3
ObjectDBX Classes
 90
        0
 91
        5
280
     0
281
     0
  0
CLASS
  1
ACDBPLACEHOLDER
  2
AcDbPlaceHolder
  3
ObjectDBX Classes
 90
        0
 91
        1
280
     0
281
     0
  0
CLASS
  1
LAYOUT
  2
AcDbLayout
  3
ObjectDBX Classes
 90
        0
 91
        1
280
     0
281
     0
  0
CLASS
  1
DICTIONARYVAR
  2
AcDbDictionaryVar
  3
ObjectDBX Classes
 90
        0
 91
        5
280
     0
281
     0
  0
CLASS
  1
TABLESTYLE
  2
AcDbTableStyle
  3
ObjectDBX Classes
 90
     4095
 91
        5
280
     0
281
     0
  0
CLASS
  1
MATERIAL
  2
AcDbMaterial
  3
ObjectDBX Classes
 90
     1153
 91
        5
280
     0
281
     0
  0
CLASS
  1
VISUALSTYLE
  2
AcDbVisualStyle
  3
ObjectDBX Classes
 90
     4095
 91
        5
280
     0
281
     0
  0
CLASS
  1
SCALE
  2
AcDbScale
  3
ObjectDBX Classes
 90
     1153
 91
        5
280
     0
281
     0
  0
CLASS
  1
CELLSTYLEMAP
  2
AcDbCellStyleMap
  3
ObjectDBX Classes
 90
     1152
 91
        5
280
     0
281
     0
  0
CLASS
  1
RASTERVARIABLES
  2
AcDbRasterVariables
  3
ISM
 90
        0
 91
        5
280
     0
281
     0
  0
CLASS
  1
DIMASSOC
  2
AcDbDimAssoc
  3
"AcDbDimAssoc|Product Desc:     AcDim ARX App For Dimension|Company:          Autodesk, Inc.|WEB Address:      www.autodesk.com"
 90
        0
 91
        4
280
     0
281
     0
  0
CLASS
  1
IMAGEDEF
  2
AcDbRasterImageDef
  3
ISM
 90
        0
 91
        4
280
     0
281
     0
  0
CLASS
  1
IMAGE
  2
AcDbRasterImage
  3
ISM
 90
      127
 91
        5
280
     0
281
     1
  0
CLASS
  1
IMAGEDEF_REACTOR
  2
AcDbRasterImageDefReactor
  3
ISM
 90
        1
 91
        4
280
     0
281
     0
  0
ENDSEC
  0
SECTION
  2
TABLES
  0
TABLE
  2
VPORT
  5
8
330
0
100
AcDbSymbolTable
 70
     1
  0
VPORT
  5
94
330
8
100
AcDbSymbolTableRecord
100
AcDbViewportTableRecord
  2
*Active
 70
     0
 10
0.0
 20
0.0
 11
1.0
 21
1.0
 12
254.4153477584531
 22
89.87957072446926
 13
0.0
 23
0.0
 14
0.5
 24
0.5
 15
5.0
 25
5.0
 16
0.0
 26
0.0
 36
1.0
 17
-27.66959356597869
 27
-19.53870295786179
 37
0.0
 40
346.0433933275887
 41
1.865047233468286
 42
50.0
 43
0.0
 44
0.0
 50
0.0
 51
0.0
 71
    16
 72
  1000
 73
     1
 74
     3
 75
     1
 76
     1
 77
     0
 78
     0
281
     0
 65
     1
110
0.0
120
0.0
130
0.0
111
1.0
121
0.0
131
0.0
112
0.0
122
1.0
132
0.0
 79
     0
146
0.0
348
9F
 60
     2
 61
     5
292
     1
282
     1
141
0.0
142
0.0
 63
   250
421
  3355443
  0
ENDTAB
  0
TABLE
  2
LTYPE
  5
5
330
0
100
AcDbSymbolTable
 70
     1
  0
LTYPE
  5
14
330
5
100
AcDbSymbolTableRecord
100
AcDbLinetypeTableRecord
  2
ByBlock
 70
     0
  3

 72
    65
 73
     0
 40
0.0
  0
LTYPE
  5
15
330
5
100
AcDbSymbolTableRecord
100
AcDbLinetypeTableRecord
  2
ByLayer
 70
     0
  3

 72
    65
 73
     0
 40
0.0
  0
LTYPE
  5
16
330
5
100
AcDbSymbolTableRecord
100
AcDbLinetypeTableRecord
  2
Continuous
 70
     0
  3
Solid line
 72
    65
 73
     0
 40
0.0
  0
ENDTAB
  0
TABLE
  2
LAYER
  5
2
330
0
100
AcDbSymbolTable
 70
     2
  0
LAYER
  5
10
330
2
100
AcDbSymbolTableRecord
100
AcDbLayerTableRecord
  2
0
 70
     0
 62
     7
  6
Continuous
370
    -3
390
F
347
98
  0
LAYER
  5
EA
330
2
100
AcDbSymbolTableRecord
100
AcDbLayerTableRecord
  2
Defpoints
 70
     0
 62
     7
  6
Continuous
290
     0
370
    -3
390
F
347
98
  0
ENDTAB
  0
TABLE
  2
STYLE
  5
3
330
0
100
AcDbSymbolTable
 70
     1
  0
STYLE
  5
11
330
3
100
AcDbSymbolTableRecord
100
AcDbTextStyleTableRecord
  2
Standard
 70
     0
 40
0.1
 41
1.0
 50
0.0
 71
     0
 42
0.2
  3
arial.ttf
  4

1001
ACAD
1000
Arial
1071
        0
  0
ENDTAB
  0
TABLE
  2
VIEW
  5
6
330
0
100
AcDbSymbolTable
 70
     0
  0
ENDTAB
  0
TABLE
  2
UCS
  5
7
330
0
100
AcDbSymbolTable
 70
     0
  0
ENDTAB
  0
TABLE
  2
APPID
  5
9
330
0
100
AcDbSymbolTable
 70
     5
  0
APPID
  5
12
330
9
100
AcDbSymbolTableRecord
100
AcDbRegAppTableRecord
  2
ACAD
 70
     0
  0
APPID
  5
166
330
9
100
AcDbSymbolTableRecord
100
AcDbRegAppTableRecord
  2
ACAD_DSTYLE_DIMRADIAL_EXTENSION
 70
     0
  0
APPID
  5
4AF
330
9
100
AcDbSymbolTableRecord
100
AcDbRegAppTableRecord
  2
ACAD_DIMASSOC_DIMLFAC
 70
     0
  0
APPID
  5
4B0
330
9
100
AcDbSymbolTableRecord
100
AcDbRegAppTableRecord
  2
ACAD_DIMASSOC_CALC_DIMLFAC
 70
     0
  0
APPID
  5
4B1
330
9
100
AcDbSymbolTableRecord
100
AcDbRegAppTableRecord
  2
ACAD_DIMASSOC_OVERRIDDEN_DIMLFAC
 70
     0
  0
ENDTAB
  0
TABLE
  2
DIMSTYLE
  5
A
330
0
100
AcDbSymbolTable
 70
     2
100
AcDbDimStyleTable
  0
DIMSTYLE
105
27
102
{ACAD_REACTORS
330
4FF
330
512
330
522
330
534
330
544
330
554
330
564
330
574
330
584
330
594
330
5A4
330
5B4
330
5C4
330
5CF
330
5DC
330
5E9
330
610
330
61B
330
626
330
631
102
}
330
A
100
AcDbSymbolTableRecord
100
AcDbDimStyleTableRecord
  2
Standard
 70
     0
  3
<>mm
 41
0.1
 73
     0
 74
     0
141
0.0
178
     0
271
     0
340
11
  0
DIMSTYLE
105
E1
330
A
100
AcDbSymbolTableRecord
100
AcDbDimStyleTableRecord
  2
Ansi1
 70
     0
178
     0
340
11
  0
ENDTAB
  0
TABLE
  2
BLOCK_RECORD
  5
1
330
0
100
AcDbSymbolTable
 70
    65
  0
BLOCK_RECORD
  5
1F
330
1
100
AcDbSymbolTableRecord
100
AcDbBlockTableRecord
  2
*Model_Space
340
22
 70
     0
280
     1
281
     0
  0
BLOCK_RECORD
  5
58
330
1
100
AcDbSymbolTableRecord
100
AcDbBlockTableRecord
  2
*Paper_Space
340
59
 70
     0
280
     1
281
     0
  0
BLOCK_RECORD
  5
5D
330
1
100
AcDbSymbolTableRecord
100
AcDbBlockTableRecord
  2
*Paper_Space0
340
5E
 70
     0
280
     1
281
     0
  0
BLOCK_RECORD
  5
502
330
1
100
AcDbSymbolTableRecord
100
AcDbBlockTableRecord
  2
*D43
340
0
 70
     0
280
     1
281
     0
  0
BLOCK_RECORD
  5
515
330
1
100
AcDbSymbolTableRecord
100
AcDbBlockTableRecord
  2
*D44
340
0
 70
     0
280
     1
281
     0
  0
BLOCK_RECORD
  5
525
330
1
100
AcDbSymbolTableRecord
100
AcDbBlockTableRecord
  2
*D45
340
0
 70
     0
280
     1
281
     0
  0
BLOCK_RECORD
  5
537
330
1
100
AcDbSymbolTableRecord
100
AcDbBlockTableRecord
  2
*D46
340
0
 70
     0
280
     1
281
     0
  0
BLOCK_RECORD
  5
547
330
1
100
AcDbSymbolTableRecord
100
AcDbBlockTableRecord
  2
*D47
340
0
 70
     0
280
     1
281
     0
  0
BLOCK_RECORD
  5
557
330
1
100
AcDbSymbolTableRecord
100
AcDbBlockTableRecord
  2
*D48
340
0
 70
     0
280
     1
281
     0
  0
BLOCK_RECORD
  5
567
330
1
100
AcDbSymbolTableRecord
100
AcDbBlockTableRecord
  2
*D49
340
0
 70
     0
280
     1
281
     0
  0
BLOCK_RECORD
  5
577
330
1
100
AcDbSymbolTableRecord
100
AcDbBlockTableRecord
  2
*D50
340
0
 70
     0
280
     1
281
     0
  0
BLOCK_RECORD
  5
587
330
1
100
AcDbSymbolTableRecord
100
AcDbBlockTableRecord
  2
*D51
340
0
 70
     0
280
     1
281
     0
  0
BLOCK_RECORD
  5
597
330
1
100
AcDbSymbolTableRecord
100
AcDbBlockTableRecord
  2
*D52
340
0
 70
     0
280
     1
281
     0
  0
BLOCK_RECORD
  5
5A7
330
1
100
AcDbSymbolTableRecord
100
AcDbBlockTableRecord
  2
*D53
340
0
 70
     0
280
     1
281
     0
  0
BLOCK_RECORD
  5
5B7
330
1
100
AcDbSymbolTableRecord
100
AcDbBlockTableRecord
  2
*D54
340
0
 70
     0
280
     1
281
     0
  0
BLOCK_RECORD
  5
5C7
330
1
100
AcDbSymbolTableRecord
100
AcDbBlockTableRecord
  2
*D55
340
0
 70
     0
280
     1
281
     0
  0
BLOCK_RECORD
  5
5D2
330
1
100
AcDbSymbolTableRecord
100
AcDbBlockTableRecord
  2
*D56
340
0
 70
     0
280
     1
281
     0
  0
BLOCK_RECORD
  5
5DF
330
1
100
AcDbSymbolTableRecord
100
AcDbBlockTableRecord
  2
*D57
340
0
 70
     0
280
     1
281
     0
  0
BLOCK_RECORD
  5
5EC
330
1
100
AcDbSymbolTableRecord
100
AcDbBlockTableRecord
  2
*D58
340
0
 70
     0
280
     1
281
     0
  0
BLOCK_RECORD
  5
613
330
1
100
AcDbSymbolTableRecord
100
AcDbBlockTableRecord
  2
*D61
340
0
 70
     0
280
     1
281
     0
  0
BLOCK_RECORD
  5
61E
330
1
100
AcDbSymbolTableRecord
100
AcDbBlockTableRecord
  2
*D62
340
0
 70
     0
280
     1
281
     0
  0
BLOCK_RECORD
  5
629
330
1
100
AcDbSymbolTableRecord
100
AcDbBlockTableRecord
  2
*D63
340
0
 70
     0
280
     1
281
     0
  0
BLOCK_RECORD
  5
634
330
1
100
AcDbSymbolTableRecord
100
AcDbBlockTableRecord
  2
*D64
340
0
 70
     0
280
     1
281
     0
  0
ENDTAB
  0
ENDSEC
  0
SECTION
  2
BLOCKS
  0
BLOCK
  5
20
330
1F
100
AcDbEntity
  8
0
100
AcDbBlockBegin
  2
*Model_Space
 70
     0
 10
0.0
 20
0.0
 30
0.0
  3
*Model_Space
  1

  0
ENDBLK
  5
21
330
1F
100
AcDbEntity
  8
0
100
AcDbBlockEnd
  0
BLOCK
  5
5A
330
58
100
AcDbEntity
 67
     1
  8
0
100
AcDbBlockBegin
  2
*Paper_Space
 70
     0
 10
0.0
 20
0.0
 30
0.0
  3
*Paper_Space
  1

  0
ENDBLK
  5
5B
330
58
100
AcDbEntity
 67
     1
  8
0
100
AcDbBlockEnd
  0
BLOCK
  5
5F
330
5D
100
AcDbEntity
  8
0
100
AcDbBlockBegin
  2
*Paper_Space0
 70
     0
 10
0.0
 20
0.0
 30
0.0
  3
*Paper_Space0
  1

  0
VIEWPORT
  5
4C2
330
5D
100
AcDbEntity
  8
0
100
AcDbViewport
 10
0.0
 20
0.0
 30
0.0
 40
14.32356275303642
 41
7.67999999999999
 68
     1
 69
     1
 12
8.93831545636373
 22
4.262730654331194
 13
0.0
 23
0.0
 14
0.5
 24
0.5
 15
0.0
 25
0.0
 16
0.0
 26
0.0
 36
1.0
 17
0.0
 27
0.0
 37
0.0
 42
50.0
 43
0.0
 44
0.0
 45
7.67999999999999
 50
0.0
 51
0.0
 72
   100
 90
   557168
  1

281
     0
 71
     1
 74
     0
110
0.0
120
0.0
130
0.0
111
1.0
121
0.0
131
0.0
112
0.0
122
1.0
132
0.0
 79
     0
146
0.0
170
     0
 61
     5
292
     1
282
     1
141
0.0
142
0.0
 63
   256
  0
VIEWPORT
  5
4C3
330
5D
100
AcDbEntity
  8
0
100
AcDbViewport
 10
5.25
 20
4.0
 30
0.0
 40
8.4
 41
6.4
 68
     2
 69
     2
 12
109.7325
 22
147.086614376269
 13
0.0
 23
0.0
 14
0.5
 24
0.5
 15
0.0
 25
0.0
 16
0.0
 26
0.0
 36
1.0
 17
0.0
 27
0.0
 37
0.0
 42
50.0
 43
0.0
 44
0.0
 45
346.0433933275888
 50
0.0
 51
0.0
 72
   100
 90
   557152
  1

281
     0
 71
     1
 74
     0
110
0.0
120
0.0
130
0.0
111
1.0
121
0.0
131
0.0
112
0.0
122
1.0
132
0.0
 79
     0
146
0.0
170
     0
 61
     5
292
     1
282
     1
141
0.0
142
0.0
 63
   256
  0
ENDBLK
  5
60
330
5D
100
AcDbEntity
  8
0
100
AcDbBlockEnd
  0
BLOCK
  5
50D
330
502
100
AcDbEntity
  8
0
100
AcDbBlockBegin
  2
*D43
 70
     1
 10
0.0
 20
0.0
 30
0.0
  3
*D43
  1

  0
LINE
  5
503
330
502
100
AcDbEntity
  8
0
 62
     0
370
    -2
100
AcDbLine
 10
3.342968324760785
 20
5.533465681541077
 30
0.0
 11
1.438883134714196
 21
5.533465681541077
 31
0.0
  0
LINE
  5
504
330
502
100
AcDbEntity
  8
0
 62
     0
370
    -2
100
AcDbLine
 10
3.342968324760785
 20
1.279663908748664
 30
0.0
 11
1.438883134714196
 21
1.279663908748664
 31
0.0
  0
LINE
  5
505
330
502
100
AcDbEntity
  8
0
 62
     0
370
    -2
100
AcDbLine
 10
1.618883134714196
 20
5.433465681541078
 30
0.0
 11
1.618883134714196
 21
3.722764795144871
 31
0.0
  0
LINE
  5
506
330
502
100
AcDbEntity
  8
0
 62
     0
370
    -2
100
AcDbLine
 10
1.618883134714196
 20
1.379663908748664
 30
0.0
 11
1.618883134714196
 21
3.090364795144871
 31
0.0
  0
SOLID
  5
507
330
502
100
AcDbEntity
  8
0
 62
     0
100
AcDbTrace
 10
1.635549801380862
 20
5.433465681541078
 30
0.0
 11
1.602216468047529
 21
5.433465681541078
 31
0.0
 12
1.618883134714196
 22
5.533465681541077
 32
0.0
 13
1.618883134714196
 23
5.533465681541077
 33
0.0
  0
SOLID
  5
508
330
502
100
AcDbEntity
  8
0
 62
     0
100
AcDbTrace
 10
1.602216468047529
 20
1.379663908748664
 30
0.0
 11
1.635549801380862
 21
1.379663908748664
 31
0.0
 12
1.618883134714196
 22
1.279663908748664
 32
0.0
 13
1.618883134714196
 23
1.279663908748664
 33
0.0
  0
MTEXT
  5
509
330
502
100
AcDbEntity
  8
0
 62
     0
100
AcDbMText
 10
1.618883134714196
 20
3.40656479514487
 30
0.0
 40
0.1
 41
0.0
 46
0.0
 71
     5
 72
     1
  1
\A1;230mm
 11
5.219909548800386E-17
 21
1.0
 31
0.0
 73
     1
 44
1.0
  0
POINT
  5
50A
330
502
100
AcDbEntity
  8
Defpoints
 62
     0
100
AcDbPoint
 10
3.405468324760785
 20
5.533465681541077
 30
0.0
  0
POINT
  5
50B
330
502
100
AcDbEntity
  8
Defpoints
 62
     0
100
AcDbPoint
 10
3.405468324760785
 20
1.279663908748664
 30
0.0
  0
POINT
  5
50C
330
502
100
AcDbEntity
  8
Defpoints
 62
     0
100
AcDbPoint
 10
1.618883134714196
 20
1.279663908748664
 30
0.0
  0
ENDBLK
  5
50E
330
502
100
AcDbEntity
  8
0
100
AcDbBlockEnd
  0
BLOCK
  5
520
330
515
100
AcDbEntity
  8
0
100
AcDbBlockBegin
  2
*D44
 70
     1
 10
0.0
 20
0.0
 30
0.0
  3
*D44
  1

  0
LINE
  5
516
330
515
100
AcDbEntity
  8
0
 62
     0
370
    -2
100
AcDbLine
 10
3.361463115077274
 20
5.330022988059701
 30
0.0
 11
2.015117291657823
 21
5.330022988059701
 31
0.0
  0
LINE
  5
517
330
515
100
AcDbEntity
  8
0
 62
     0
370
    -2
100
AcDbLine
 10
3.361463115077274
 20
1.48310660223004
 30
0.0
 11
2.015117291657823
 21
1.48310660223004
 31
0.0
  0
LINE
  5
518
330
515
100
AcDbEntity
  8
0
 62
     0
370
    -2
100
AcDbLine
 10
2.195117291657823
 20
5.230022988059702
 30
0.0
 11
2.195117291657823
 21
3.722764795144871
 31
0.0
  0
LINE
  5
519
330
515
100
AcDbEntity
  8
0
 62
     0
370
    -2
100
AcDbLine
 10
2.195117291657823
 20
1.58310660223004
 30
0.0
 11
2.195117291657823
 21
3.090364795144871
 31
0.0
  0
SOLID
  5
51A
330
515
100
AcDbEntity
  8
0
 62
     0
100
AcDbTrace
 10
2.21178395832449
 20
5.230022988059702
 30
0.0
 11
2.178450624991157
 21
5.230022988059702
 31
0.0
 12
2.195117291657823
 22
5.330022988059701
 32
0.0
 13
2.195117291657823
 23
5.330022988059701
 33
0.0
  0
SOLID
  5
51B
330
515
100
AcDbEntity
  8
0
 62
     0
100
AcDbTrace
 10
2.178450624991156
 20
1.58310660223004
 30
0.0
 11
2.21178395832449
 21
1.58310660223004
 31
0.0
 12
2.195117291657823
 22
1.48310660223004
 32
0.0
 13
2.195117291657823
 23
1.48310660223004
 33
0.0
  0
MTEXT
  5
51C
330
515
100
AcDbEntity
  8
0
 62
     0
100
AcDbMText
 10
2.195117291657823
 20
3.406564795144871
 30
0.0
 40
0.1
 41
0.0
 46
0.0
 71
     5
 72
     1
  1
\A1;208mm
 11
1.154403073292393E-16
 21
1.0
 31
0.0
 73
     1
 44
1.0
  0
POINT
  5
51D
330
515
100
AcDbEntity
  8
Defpoints
 62
     0
100
AcDbPoint
 10
3.423963115077274
 20
5.330022988059701
 30
0.0
  0
POINT
  5
51E
330
515
100
AcDbEntity
  8
Defpoints
 62
     0
100
AcDbPoint
 10
3.423963115077274
 20
1.48310660223004
 30
0.0
  0
POINT
  5
51F
330
515
100
AcDbEntity
  8
Defpoints
 62
     0
100
AcDbPoint
 10
2.195117291657823
 20
1.48310660223004
 30
0.0
  0
ENDBLK
  5
521
330
515
100
AcDbEntity
  8
0
100
AcDbBlockEnd
  0
BLOCK
  5
530
330
525
100
AcDbEntity
  8
0
100
AcDbBlockBegin
  2
*D45
 70
     1
 10
0.0
 20
0.0
 30
0.0
  3
*D45
  1

  0
LINE
  5
526
330
525
100
AcDbEntity
  8
0
 62
     0
370
    -2
100
AcDbLine
 10
5.062983824194239
 20
4.60872616571664
 30
0.0
 11
2.552704393196285
 21
4.60872616571664
 31
0.0
  0
LINE
  5
527
330
525
100
AcDbEntity
  8
0
 62
     0
370
    -2
100
AcDbLine
 10
5.062983824194239
 20
2.204403424573102
 30
0.0
 11
2.552704393196285
 21
2.204403424573102
 31
0.0
  0
LINE
  5
528
330
525
100
AcDbEntity
  8
0
 62
     0
370
    -2
100
AcDbLine
 10
2.732704393196285
 20
4.508726165716641
 30
0.0
 11
2.732704393196285
 21
3.717214795144871
 31
0.0
  0
LINE
  5
529
330
525
100
AcDbEntity
  8
0
 62
     0
370
    -2
100
AcDbLine
 10
2.732704393196285
 20
2.304403424573102
 30
0.0
 11
2.732704393196285
 21
3.095914795144871
 31
0.0
  0
SOLID
  5
52A
330
525
100
AcDbEntity
  8
0
 62
     0
100
AcDbTrace
 10
2.749371059862951
 20
4.508726165716641
 30
0.0
 11
2.716037726529618
 21
4.508726165716641
 31
0.0
 12
2.732704393196285
 22
4.60872616571664
 32
0.0
 13
2.732704393196285
 23
4.60872616571664
 33
0.0
  0
SOLID
  5
52B
330
525
100
AcDbEntity
  8
0
 62
     0
100
AcDbTrace
 10
2.716037726529618
 20
2.304403424573102
 30
0.0
 11
2.749371059862951
 21
2.304403424573102
 31
0.0
 12
2.732704393196285
 22
2.204403424573102
 32
0.0
 13
2.732704393196285
 23
2.204403424573102
 33
0.0
  0
MTEXT
  5
52C
330
525
100
AcDbEntity
  8
0
 62
     0
100
AcDbMText
 10
2.732704393196285
 20
3.406564795144871
 30
0.0
 40
0.1
 41
0.0
 46
0.0
 71
     5
 72
     1
  1
\A1;130mm
 11
0.0
 21
1.0
 31
0.0
 73
     1
 44
1.0
  0
POINT
  5
52D
330
525
100
AcDbEntity
  8
Defpoints
 62
     0
100
AcDbPoint
 10
5.125483824194239
 20
4.60872616571664
 30
0.0
  0
POINT
  5
52E
330
525
100
AcDbEntity
  8
Defpoints
 62
     0
100
AcDbPoint
 10
5.125483824194239
 20
2.204403424573102
 30
0.0
  0
POINT
  5
52F
330
525
100
AcDbEntity
  8
Defpoints
 62
     0
100
AcDbPoint
 10
2.732704393196285
 20
2.204403424573102
 30
0.0
  0
ENDBLK
  5
531
330
525
100
AcDbEntity
  8
0
100
AcDbBlockEnd
  0
BLOCK
  5
542
330
537
100
AcDbEntity
  8
0
100
AcDbBlockBegin
  2
*D46
 70
     1
 10
0.0
 20
0.0
 30
0.0
  3
*D46
  1

  0
LINE
  5
538
330
537
100
AcDbEntity
  8
0
 62
     0
370
    -2
100
AcDbLine
 10
3.897812034255448
 20
4.331304310969308
 30
0.0
 11
2.836307248062677
 21
4.331304310969308
 31
0.0
  0
LINE
  5
539
330
537
100
AcDbEntity
  8
0
 62
     0
370
    -2
100
AcDbLine
 10
3.897812034255448
 20
2.481825279320433
 30
0.0
 11
2.836307248062677
 21
2.481825279320433
 31
0.0
  0
LINE
  5
53A
330
537
100
AcDbEntity
  8
0
 62
     0
370
    -2
100
AcDbLine
 10
3.016307248062677
 20
4.231304310969309
 30
0.0
 11
3.016307248062677
 21
3.71721479514487
 31
0.0
  0
LINE
  5
53B
330
537
100
AcDbEntity
  8
0
 62
     0
370
    -2
100
AcDbLine
 10
3.016307248062677
 20
2.581825279320433
 30
0.0
 11
3.016307248062677
 21
3.09591479514487
 31
0.0
  0
SOLID
  5
53C
330
537
100
AcDbEntity
  8
0
 62
     0
100
AcDbTrace
 10
3.032973914729344
 20
4.231304310969309
 30
0.0
 11
2.999640581396011
 21
4.231304310969309
 31
0.0
 12
3.016307248062677
 22
4.331304310969308
 32
0.0
 13
3.016307248062677
 23
4.331304310969308
 33
0.0
  0
SOLID
  5
53D
330
537
100
AcDbEntity
  8
0
 62
     0
100
AcDbTrace
 10
2.999640581396011
 20
2.581825279320433
 30
0.0
 11
3.032973914729344
 21
2.581825279320433
 31
0.0
 12
3.016307248062677
 22
2.481825279320433
 32
0.0
 13
3.016307248062677
 23
2.481825279320433
 33
0.0
  0
MTEXT
  5
53E
330
537
100
AcDbEntity
  8
0
 62
     0
100
AcDbMText
 10
3.016307248062677
 20
3.406564795144871
 30
0.0
 40
0.1
 41
0.0
 46
0.0
 71
     5
 72
     1
  1
\A1;100mm
 11
0.0
 21
1.0
 31
0.0
 73
     1
 44
1.0
  0
POINT
  5
53F
330
537
100
AcDbEntity
  8
Defpoints
 62
     0
100
AcDbPoint
 10
3.960312034255448
 20
4.331304310969308
 30
0.0
  0
POINT
  5
540
330
537
100
AcDbEntity
  8
Defpoints
 62
     0
100
AcDbPoint
 10
3.960312034255448
 20
2.481825279320433
 30
0.0
  0
POINT
  5
541
330
537
100
AcDbEntity
  8
Defpoints
 62
     0
100
AcDbPoint
 10
3.016307248062677
 20
2.481825279320433
 30
0.0
  0
ENDBLK
  5
543
330
537
100
AcDbEntity
  8
0
100
AcDbBlockEnd
  0
BLOCK
  5
552
330
547
100
AcDbEntity
  8
0
100
AcDbBlockBegin
  2
*D47
 70
     1
 10
0.0
 20
0.0
 30
0.0
  3
*D47
  1

  0
LINE
  5
548
330
547
100
AcDbEntity
  8
0
 62
     0
370
    -2
100
AcDbLine
 10
4.545129695332554
 20
4.146356407804421
 30
0.0
 11
3.115417005147695
 21
4.146356407804421
 31
0.0
  0
LINE
  5
549
330
547
100
AcDbEntity
  8
0
 62
     0
370
    -2
100
AcDbLine
 10
4.545129695332554
 20
2.666773182485321
 30
0.0
 11
3.115417005147695
 21
2.666773182485321
 31
0.0
  0
LINE
  5
54A
330
547
100
AcDbEntity
  8
0
 62
     0
370
    -2
100
AcDbLine
 10
3.295417005147695
 20
4.046356407804422
 30
0.0
 11
3.295417005147695
 21
3.683164795144871
 31
0.0
  0
LINE
  5
54B
330
547
100
AcDbEntity
  8
0
 62
     0
370
    -2
100
AcDbLine
 10
3.295417005147695
 20
2.766773182485321
 30
0.0
 11
3.295417005147695
 21
3.129964795144871
 31
0.0
  0
SOLID
  5
54C
330
547
100
AcDbEntity
  8
0
 62
     0
100
AcDbTrace
 10
3.312083671814362
 20
4.046356407804422
 30
0.0
 11
3.278750338481029
 21
4.046356407804422
 31
0.0
 12
3.295417005147695
 22
4.146356407804421
 32
0.0
 13
3.295417005147695
 23
4.146356407804421
 33
0.0
  0
SOLID
  5
54D
330
547
100
AcDbEntity
  8
0
 62
     0
100
AcDbTrace
 10
3.278750338481029
 20
2.766773182485321
 30
0.0
 11
3.312083671814362
 21
2.766773182485321
 31
0.0
 12
3.295417005147695
 22
2.666773182485321
 32
0.0
 13
3.295417005147695
 23
2.666773182485321
 33
0.0
  0
MTEXT
  5
54E
330
547
100
AcDbEntity
  8
0
 62
     0
100
AcDbMText
 10
3.295417005147695
 20
3.406564795144871
 30
0.0
 40
0.1
 41
0.0
 46
0.0
 71
     5
 72
     1
  1
\A1;80mm
 11
0.0
 21
1.0
 31
0.0
 73
     1
 44
1.0
  0
POINT
  5
54F
330
547
100
AcDbEntity
  8
Defpoints
 62
     0
100
AcDbPoint
 10
4.607629695332554
 20
4.146356407804421
 30
0.0
  0
POINT
  5
550
330
547
100
AcDbEntity
  8
Defpoints
 62
     0
100
AcDbPoint
 10
4.607629695332554
 20
2.666773182485321
 30
0.0
  0
POINT
  5
551
330
547
100
AcDbEntity
  8
Defpoints
 62
     0
100
AcDbPoint
 10
3.295417005147695
 20
2.666773182485321
 30
0.0
  0
ENDBLK
  5
553
330
547
100
AcDbEntity
  8
0
100
AcDbBlockEnd
  0
BLOCK
  5
562
330
557
100
AcDbEntity
  8
0
100
AcDbBlockBegin
  2
*D48
 70
     1
 10
0.0
 20
0.0
 30
0.0
  3
*D48
  1

  0
LINE
  5
558
330
557
100
AcDbEntity
  8
0
 62
     0
370
    -2
100
AcDbLine
 10
3.220520421595897
 20
5.411017778376189
 30
0.0
 11
3.220520421595897
 21
6.547378327209143
 31
0.0
  0
LINE
  5
559
330
557
100
AcDbEntity
  8
0
 62
     0
370
    -2
100
AcDbLine
 10
7.474322194388312
 20
5.411017778376189
 30
0.0
 11
7.474322194388312
 21
6.547378327209143
 31
0.0
  0
LINE
  5
55A
330
557
100
AcDbEntity
  8
0
 62
     0
370
    -2
100
AcDbLine
 10
3.320520421595897
 20
6.367378327209144
 30
0.0
 11
5.031221307992105
 21
6.367378327209144
 31
0.0
  0
LINE
  5
55B
330
557
100
AcDbEntity
  8
0
 62
     0
370
    -2
100
AcDbLine
 10
7.374322194388313
 20
6.367378327209144
 30
0.0
 11
5.663621307992106
 21
6.367378327209144
 31
0.0
  0
SOLID
  5
55C
330
557
100
AcDbEntity
  8
0
 62
     0
100
AcDbTrace
 10
3.320520421595897
 20
6.38404499387581
 30
0.0
 11
3.320520421595897
 21
6.350711660542477
 31
0.0
 12
3.220520421595897
 22
6.367378327209144
 32
0.0
 13
3.220520421595897
 23
6.367378327209144
 33
0.0
  0
SOLID
  5
55D
330
557
100
AcDbEntity
  8
0
 62
     0
100
AcDbTrace
 10
7.374322194388313
 20
6.350711660542477
 30
0.0
 11
7.374322194388313
 21
6.38404499387581
 31
0.0
 12
7.474322194388312
 22
6.367378327209144
 32
0.0
 13
7.474322194388312
 23
6.367378327209144
 33
0.0
  0
MTEXT
  5
55E
330
557
100
AcDbEntity
  8
0
 62
     0
100
AcDbMText
 10
5.347421307992105
 20
6.367378327209144
 30
0.0
 40
0.1
 41
0.0
 46
0.0
 71
     5
 72
     1
  1
\A1;230mm
 73
     1
 44
1.0
  0
POINT
  5
55F
330
557
100
AcDbEntity
  8
Defpoints
 62
     0
100
AcDbPoint
 10
3.220520421595897
 20
5.348517778376189
 30
0.0
  0
POINT
  5
560
330
557
100
AcDbEntity
  8
Defpoints
 62
     0
100
AcDbPoint
 10
7.474322194388312
 20
5.348517778376189
 30
0.0
  0
POINT
  5
561
330
557
100
AcDbEntity
  8
Defpoints
 62
     0
100
AcDbPoint
 10
7.474322194388312
 20
6.367378327209144
 30
0.0
  0
ENDBLK
  5
563
330
557
100
AcDbEntity
  8
0
100
AcDbBlockEnd
  0
BLOCK
  5
572
330
567
100
AcDbEntity
  8
0
100
AcDbBlockBegin
  2
*D49
 70
     1
 10
0.0
 20
0.0
 30
0.0
  3
*D49
  1

  0
LINE
  5
568
330
567
100
AcDbEntity
  8
0
 62
     0
370
    -2
100
AcDbLine
 10
3.423963115077274
 20
5.392522988059701
 30
0.0
 11
3.423963115077274
 21
6.335115979031006
 31
0.0
  0
LINE
  5
569
330
567
100
AcDbEntity
  8
0
 62
     0
370
    -2
100
AcDbLine
 10
7.270879500906935
 20
5.392522988059701
 30
0.0
 11
7.270879500906935
 21
6.335115979031006
 31
0.0
  0
LINE
  5
56A
330
567
100
AcDbEntity
  8
0
 62
     0
370
    -2
100
AcDbLine
 10
3.523963115077274
 20
6.155115979031006
 30
0.0
 11
5.031221307992104
 21
6.155115979031006
 31
0.0
  0
LINE
  5
56B
330
567
100
AcDbEntity
  8
0
 62
     0
370
    -2
100
AcDbLine
 10
7.170879500906936
 20
6.155115979031006
 30
0.0
 11
5.663621307992106
 21
6.155115979031006
 31
0.0
  0
SOLID
  5
56C
330
567
100
AcDbEntity
  8
0
 62
     0
100
AcDbTrace
 10
3.523963115077274
 20
6.171782645697673
 30
0.0
 11
3.523963115077274
 21
6.138449312364339
 31
0.0
 12
3.423963115077274
 22
6.155115979031006
 32
0.0
 13
3.423963115077274
 23
6.155115979031006
 33
0.0
  0
SOLID
  5
56D
330
567
100
AcDbEntity
  8
0
 62
     0
100
AcDbTrace
 10
7.170879500906936
 20
6.138449312364339
 30
0.0
 11
7.170879500906936
 21
6.171782645697673
 31
0.0
 12
7.270879500906935
 22
6.155115979031006
 32
0.0
 13
7.270879500906935
 23
6.155115979031006
 33
0.0
  0
MTEXT
  5
56E
330
567
100
AcDbEntity
  8
0
 62
     0
100
AcDbMText
 10
5.347421307992104
 20
6.155115979031006
 30
0.0
 40
0.1
 41
0.0
 46
0.0
 71
     5
 72
     1
  1
\A1;208mm
 73
     1
 44
1.0
  0
POINT
  5
56F
330
567
100
AcDbEntity
  8
Defpoints
 62
     0
100
AcDbPoint
 10
3.423963115077274
 20
5.330022988059701
 30
0.0
  0
POINT
  5
570
330
567
100
AcDbEntity
  8
Defpoints
 62
     0
100
AcDbPoint
 10
7.270879500906935
 20
5.330022988059701
 30
0.0
  0
POINT
  5
571
330
567
100
AcDbEntity
  8
Defpoints
 62
     0
100
AcDbPoint
 10
7.270879500906935
 20
6.155115979031006
 30
0.0
  0
ENDBLK
  5
573
330
567
100
AcDbEntity
  8
0
100
AcDbBlockEnd
  0
BLOCK
  5
582
330
577
100
AcDbEntity
  8
0
100
AcDbBlockBegin
  2
*D50
 70
     1
 10
0.0
 20
0.0
 30
0.0
  3
*D50
  1

  0
LINE
  5
578
330
577
100
AcDbEntity
  8
0
 62
     0
370
    -2
100
AcDbLine
 10
3.960312034255448
 20
4.393804310969308
 30
0.0
 11
3.960312034255448
 21
6.116220432472302
 31
0.0
  0
LINE
  5
579
330
577
100
AcDbEntity
  8
0
 62
     0
370
    -2
100
AcDbLine
 10
6.734530581728762
 20
4.393804310969308
 30
0.0
 11
6.734530581728762
 21
6.116220432472302
 31
0.0
  0
LINE
  5
57A
330
577
100
AcDbEntity
  8
0
 62
     0
370
    -2
100
AcDbLine
 10
4.060312034255448
 20
5.936220432472302
 30
0.0
 11
5.036771307992105
 21
5.936220432472302
 31
0.0
  0
LINE
  5
57B
330
577
100
AcDbEntity
  8
0
 62
     0
370
    -2
100
AcDbLine
 10
6.634530581728762
 20
5.936220432472302
 30
0.0
 11
5.658071307992104
 21
5.936220432472302
 31
0.0
  0
SOLID
  5
57C
330
577
100
AcDbEntity
  8
0
 62
     0
100
AcDbTrace
 10
4.060312034255448
 20
5.952887099138969
 30
0.0
 11
4.060312034255448
 21
5.919553765805635
 31
0.0
 12
3.960312034255448
 22
5.936220432472302
 32
0.0
 13
3.960312034255448
 23
5.936220432472302
 33
0.0
  0
SOLID
  5
57D
330
577
100
AcDbEntity
  8
0
 62
     0
100
AcDbTrace
 10
6.634530581728762
 20
5.919553765805635
 30
0.0
 11
6.634530581728762
 21
5.952887099138969
 31
0.0
 12
6.734530581728762
 22
5.936220432472302
 32
0.0
 13
6.734530581728762
 23
5.936220432472302
 33
0.0
  0
MTEXT
  5
57E
330
577
100
AcDbEntity
  8
0
 62
     0
100
AcDbMText
 10
5.347421307992104
 20
5.936220432472302
 30
0.0
 40
0.1
 41
0.0
 46
0.0
 71
     5
 72
     1
  1
\A1;150mm
 73
     1
 44
1.0
  0
POINT
  5
57F
330
577
100
AcDbEntity
  8
Defpoints
 62
     0
100
AcDbPoint
 10
3.960312034255448
 20
4.331304310969308
 30
0.0
  0
POINT
  5
580
330
577
100
AcDbEntity
  8
Defpoints
 62
     0
100
AcDbPoint
 10
6.734530581728762
 20
4.331304310969308
 30
0.0
  0
POINT
  5
581
330
577
100
AcDbEntity
  8
Defpoints
 62
     0
100
AcDbPoint
 10
6.734530581728762
 20
5.936220432472302
 30
0.0
  0
ENDBLK
  5
583
330
577
100
AcDbEntity
  8
0
100
AcDbBlockEnd
  0
BLOCK
  5
592
330
587
100
AcDbEntity
  8
0
100
AcDbBlockBegin
  2
*D51
 70
     1
 10
0.0
 20
0.0
 30
0.0
  3
*D51
  1

  0
LINE
  5
588
330
587
100
AcDbEntity
  8
0
 62
     0
370
    -2
100
AcDbLine
 10
4.237733889002779
 20
3.713960601474646
 30
0.0
 11
4.237733889002779
 21
3.023342699678783
 31
0.0
  0
LINE
  5
589
330
587
100
AcDbEntity
  8
0
 62
     0
370
    -2
100
AcDbLine
 10
6.45710872698143
 20
3.713960601474646
 30
0.0
 11
6.45710872698143
 21
3.023342699678783
 31
0.0
  0
LINE
  5
58A
330
587
100
AcDbEntity
  8
0
 62
     0
370
    -2
100
AcDbLine
 10
4.337733889002779
 20
3.203342699678783
 30
0.0
 11
5.036771307992105
 21
3.203342699678783
 31
0.0
  0
LINE
  5
58B
330
587
100
AcDbEntity
  8
0
 62
     0
370
    -2
100
AcDbLine
 10
6.357108726981431
 20
3.203342699678783
 30
0.0
 11
5.658071307992105
 21
3.203342699678783
 31
0.0
  0
SOLID
  5
58C
330
587
100
AcDbEntity
  8
0
 62
     0
100
AcDbTrace
 10
4.337733889002779
 20
3.22000936634545
 30
0.0
 11
4.337733889002779
 21
3.186676033012116
 31
0.0
 12
4.237733889002779
 22
3.203342699678783
 32
0.0
 13
4.237733889002779
 23
3.203342699678783
 33
0.0
  0
SOLID
  5
58D
330
587
100
AcDbEntity
  8
0
 62
     0
100
AcDbTrace
 10
6.357108726981431
 20
3.186676033012116
 30
0.0
 11
6.357108726981431
 21
3.22000936634545
 31
0.0
 12
6.45710872698143
 22
3.203342699678783
 32
0.0
 13
6.45710872698143
 23
3.203342699678783
 33
0.0
  0
MTEXT
  5
58E
330
587
100
AcDbEntity
  8
0
 62
     0
100
AcDbMText
 10
5.347421307992105
 20
3.203342699678783
 30
0.0
 40
0.1
 41
0.0
 46
0.0
 71
     5
 72
     1
  1
\A1;120mm
 73
     1
 44
1.0
  0
POINT
  5
58F
330
587
100
AcDbEntity
  8
Defpoints
 62
     0
100
AcDbPoint
 10
4.237733889002779
 20
3.776460601474646
 30
0.0
  0
POINT
  5
590
330
587
100
AcDbEntity
  8
Defpoints
 62
     0
100
AcDbPoint
 10
6.45710872698143
 20
3.776460601474646
 30
0.0
  0
POINT
  5
591
330
587
100
AcDbEntity
  8
Defpoints
 62
     0
100
AcDbPoint
 10
6.45710872698143
 20
3.203342699678783
 30
0.0
  0
ENDBLK
  5
593
330
587
100
AcDbEntity
  8
0
100
AcDbBlockEnd
  0
BLOCK
  5
5A2
330
597
100
AcDbEntity
  8
0
100
AcDbBlockBegin
  2
*D52
 70
     1
 10
0.0
 20
0.0
 30
0.0
  3
*D52
  1

  0
LINE
  5
598
330
597
100
AcDbEntity
  8
0
 62
     0
370
    -2
100
AcDbLine
 10
6.024712920651655
 20
4.146356407804421
 30
0.0
 11
5.71196609645724
 21
4.146356407804421
 31
0.0
  0
LINE
  5
599
330
597
100
AcDbEntity
  8
0
 62
     0
370
    -2
100
AcDbLine
 10
6.024712920651655
 20
2.666773182485321
 30
0.0
 11
5.71196609645724
 21
2.666773182485321
 31
0.0
  0
LINE
  5
59A
330
597
100
AcDbEntity
  8
0
 62
     0
370
    -2
100
AcDbLine
 10
5.89196609645724
 20
4.046356407804422
 30
0.0
 11
5.89196609645724
 21
3.683164795144871
 31
0.0
  0
LINE
  5
59B
330
597
100
AcDbEntity
  8
0
 62
     0
370
    -2
100
AcDbLine
 10
5.89196609645724
 20
2.766773182485321
 30
0.0
 11
5.89196609645724
 21
3.129964795144871
 31
0.0
  0
SOLID
  5
59C
330
597
100
AcDbEntity
  8
0
 62
     0
100
AcDbTrace
 10
5.908632763123906
 20
4.046356407804422
 30
0.0
 11
5.875299429790573
 21
4.046356407804422
 31
0.0
 12
5.89196609645724
 22
4.146356407804421
 32
0.0
 13
5.89196609645724
 23
4.146356407804421
 33
0.0
  0
SOLID
  5
59D
330
597
100
AcDbEntity
  8
0
 62
     0
100
AcDbTrace
 10
5.875299429790573
 20
2.766773182485321
 30
0.0
 11
5.908632763123906
 21
2.766773182485321
 31
0.0
 12
5.89196609645724
 22
2.666773182485321
 32
0.0
 13
5.89196609645724
 23
2.666773182485321
 33
0.0
  0
MTEXT
  5
59E
330
597
100
AcDbEntity
  8
0
 62
     0
100
AcDbMText
 10
5.89196609645724
 20
3.406564795144871
 30
0.0
 40
0.1
 41
0.0
 46
0.0
 71
     5
 72
     1
  1
\A1;80mm
 11
0.0
 21
1.0
 31
0.0
 73
     1
 44
1.0
  0
POINT
  5
59F
330
597
100
AcDbEntity
  8
Defpoints
 62
     0
100
AcDbPoint
 10
6.087212920651655
 20
4.146356407804421
 30
0.0
  0
POINT
  5
5A0
330
597
100
AcDbEntity
  8
Defpoints
 62
     0
100
AcDbPoint
 10
6.087212920651655
 20
2.666773182485321
 30
0.0
  0
POINT
  5
5A1
330
597
100
AcDbEntity
  8
Defpoints
 62
     0
100
AcDbPoint
 10
5.89196609645724
 20
2.666773182485321
 30
0.0
  0
ENDBLK
  5
5A3
330
597
100
AcDbEntity
  8
0
100
AcDbBlockEnd
  0
BLOCK
  5
5B2
330
5A7
100
AcDbEntity
  8
0
100
AcDbBlockBegin
  2
*D53
 70
     1
 10
0.0
 20
0.0
 30
0.0
  3
*D53
  1

  0
LINE
  5
5A8
330
5A7
100
AcDbEntity
  8
0
 62
     0
370
    -2
100
AcDbLine
 10
5.125483824194239
 20
4.67122616571664
 30
0.0
 11
5.125483824194239
 21
5.791193711824529
 31
0.0
  0
LINE
  5
5A9
330
5A7
100
AcDbEntity
  8
0
 62
     0
370
    -2
100
AcDbLine
 10
5.56935879178997
 20
4.67122616571664
 30
0.0
 11
5.56935879178997
 21
5.791193711824529
 31
0.0
  0
LINE
  5
5AA
330
5A7
100
AcDbEntity
  8
0
 62
     0
370
    -2
100
AcDbLine
 10
5.56935879178997
 20
5.611193711824529
 30
0.0
 11
5.669358791789969
 21
5.611193711824529
 31
0.0
  0
LINE
  5
5AB
330
5A7
100
AcDbEntity
  8
0
 62
     0
370
    -2
100
AcDbLine
 10
5.225483824194239
 20
5.611193711824529
 30
0.0
 11
5.46935879178997
 21
5.611193711824529
 31
0.0
  0
SOLID
  5
5AC
330
5A7
100
AcDbEntity
  8
0
 62
     0
100
AcDbTrace
 10
5.225483824194239
 20
5.627860378491196
 30
0.0
 11
5.225483824194239
 21
5.594527045157863
 31
0.0
 12
5.125483824194239
 22
5.611193711824529
 32
0.0
 13
5.125483824194239
 23
5.611193711824529
 33
0.0
  0
SOLID
  5
5AD
330
5A7
100
AcDbEntity
  8
0
 62
     0
100
AcDbTrace
 10
5.46935879178997
 20
5.594527045157863
 30
0.0
 11
5.46935879178997
 21
5.627860378491196
 31
0.0
 12
5.56935879178997
 22
5.611193711824529
 32
0.0
 13
5.56935879178997
 23
5.611193711824529
 33
0.0
  0
MTEXT
  5
5AE
330
5A7
100
AcDbEntity
  8
0
 62
     0
100
AcDbMText
 10
5.94675879178997
 20
5.611193711824529
 30
0.0
 40
0.1
 41
0.0
 46
0.0
 71
     5
 72
     1
  1
\A1;24mm
 73
     1
 44
1.0
  0
POINT
  5
5AF
330
5A7
100
AcDbEntity
  8
Defpoints
 62
     0
100
AcDbPoint
 10
5.125483824194239
 20
4.60872616571664
 30
0.0
  0
POINT
  5
5B0
330
5A7
100
AcDbEntity
  8
Defpoints
 62
     0
100
AcDbPoint
 10
5.56935879178997
 20
4.60872616571664
 30
0.0
  0
POINT
  5
5B1
330
5A7
100
AcDbEntity
  8
Defpoints
 62
     0
100
AcDbPoint
 10
5.56935879178997
 20
5.611193711824529
 30
0.0
  0
ENDBLK
  5
5B3
330
5A7
100
AcDbEntity
  8
0
100
AcDbBlockEnd
  0
BLOCK
  5
5C2
330
5B7
100
AcDbEntity
  8
0
100
AcDbBlockBegin
  2
*D54
 70
     1
 10
0.0
 20
0.0
 30
0.0
  3
*D54
  1

  0
LINE
  5
5B8
330
5B7
100
AcDbEntity
  8
0
 62
     0
370
    -2
100
AcDbLine
 10
5.236452566093172
 20
4.421546496444042
 30
0.0
 11
5.236452566093172
 21
5.446267396035056
 31
0.0
  0
LINE
  5
5B9
330
5B7
100
AcDbEntity
  8
0
 62
     0
370
    -2
100
AcDbLine
 10
5.458390049891037
 20
4.421546496444042
 30
0.0
 11
5.458390049891037
 21
5.446267396035056
 31
0.0
  0
LINE
  5
5BA
330
5B7
100
AcDbEntity
  8
0
 62
     0
370
    -2
100
AcDbLine
 10
5.558390049891036
 20
5.266267396035056
 30
0.0
 11
5.658390049891036
 21
5.266267396035056
 31
0.0
  0
LINE
  5
5BB
330
5B7
100
AcDbEntity
  8
0
 62
     0
370
    -2
100
AcDbLine
 10
5.236452566093172
 20
5.266267396035056
 30
0.0
 11
5.036452566093172
 21
5.266267396035056
 31
0.0
  0
SOLID
  5
5BC
330
5B7
100
AcDbEntity
  8
0
 62
     0
100
AcDbTrace
 10
5.136452566093173
 20
5.24960072936839
 30
0.0
 11
5.136452566093173
 21
5.282934062701723
 31
0.0
 12
5.236452566093172
 22
5.266267396035056
 32
0.0
 13
5.236452566093172
 23
5.266267396035056
 33
0.0
  0
SOLID
  5
5BD
330
5B7
100
AcDbEntity
  8
0
 62
     0
100
AcDbTrace
 10
5.558390049891036
 20
5.282934062701723
 30
0.0
 11
5.558390049891036
 21
5.24960072936839
 31
0.0
 12
5.458390049891037
 22
5.266267396035056
 32
0.0
 13
5.458390049891037
 23
5.266267396035056
 33
0.0
  0
MTEXT
  5
5BE
330
5B7
100
AcDbEntity
  8
0
 62
     0
100
AcDbMText
 10
5.930240049891037
 20
5.266267396035056
 30
0.0
 40
0.1
 41
0.0
 46
0.0
 71
     5
 72
     1
  1
\A1;12mm
 73
     1
 44
1.0
  0
POINT
  5
5BF
330
5B7
100
AcDbEntity
  8
Defpoints
 62
     0
100
AcDbPoint
 10
5.236452566093172
 20
4.359046496444042
 30
0.0
  0
POINT
  5
5C0
330
5B7
100
AcDbEntity
  8
Defpoints
 62
     0
100
AcDbPoint
 10
5.458390049891037
 20
4.359046496444042
 30
0.0
  0
POINT
  5
5C1
330
5B7
100
AcDbEntity
  8
Defpoints
 62
     0
100
AcDbPoint
 10
5.458390049891037
 20
5.266267396035056
 30
0.0
  0
ENDBLK
  5
5C3
330
5B7
100
AcDbEntity
  8
0
100
AcDbBlockEnd
  0
BLOCK
  5
5CD
330
5C7
100
AcDbEntity
  8
0
100
AcDbBlockBegin
  2
*D55
 70
     1
 10
0.0
 20
0.0
 30
0.0
  3
*D55
  1

  0
LINE
  5
5C8
330
5C7
100
AcDbEntity
  8
0
 62
     0
370
    -2
100
AcDbLine
 10
7.247241482918237
 20
4.567846382973483
 30
0.0
 11
7.769413550591032
 21
4.236643823302349
 31
0.0
  0
MTEXT
  5
5C9
330
5C7
100
AcDbEntity
  8
0
 62
     0
100
AcDbMText
 10
8.076078498076669
 20
4.042132814658542
 30
0.0
 40
0.1
 41
0.0
 46
0.0
 71
     5
 72
     1
  1
\A1;R123mm
 11
0.8444580682517904
 21
-0.5356216677510858
 31
0.0
 73
     1
 44
1.0
  0
SOLID
  5
5CA
330
5C7
100
AcDbEntity
  8
0
 62
     0
100
AcDbTrace
 10
7.256168510714089
 20
4.581920684111013
 30
0.0
 11
7.238314455122385
 21
4.553772081835954
 31
0.0
 12
7.162795676093058
 22
4.621408549748592
 32
0.0
 13
7.162795676093058
 23
4.621408549748592
 33
0.0
  0
POINT
  5
5CB
330
5C7
100
AcDbEntity
  8
Defpoints
 62
     0
100
AcDbPoint
 10
7.162795676093058
 20
4.621408549748592
 30
0.0
  0
POINT
  5
5CC
330
5C7
100
AcDbEntity
  8
Defpoints
 62
     0
100
AcDbPoint
 10
9.07811141480802
 20
3.40656479514487
 30
0.0
  0
ENDBLK
  5
5CE
330
5C7
100
AcDbEntity
  8
0
100
AcDbBlockEnd
  0
BLOCK
  5
5DA
330
5D2
100
AcDbEntity
  8
0
100
AcDbBlockBegin
  2
*D56
 70
     1
 10
0.0
 20
0.0
 30
0.0
  3
*D56
  1

  0
LINE
  5
5D3
330
5D2
100
AcDbEntity
  8
0
 62
     0
370
    -2
100
AcDbLine
 10
7.550934441729303
 20
1.351556094740963
 30
0.0
 11
7.789594345438706
 21
1.248398688989275
 31
0.0
  0
MTEXT
  5
5D4
330
5D2
100
AcDbEntity
  8
0
 62
     0
100
AcDbMText
 10
8.087322575316186
 20
1.119709825314045
 30
0.0
 40
0.1
 41
0.0
 46
0.0
 71
     5
 72
     1
  1
\A1;R10mm
 11
0.917922706574628
 21
-0.396759252891107
 31
0.0
 73
     1
 44
1.0
  0
SOLID
  5
5D5
330
5D2
100
AcDbEntity
  8
0
 62
     0
100
AcDbTrace
 10
7.557547095944154
 20
1.366854806517207
 30
0.0
 11
7.544321787514451
 21
1.336257382964719
 31
0.0
 12
7.45914217107184
 22
1.391232020030074
 32
0.0
 13
7.45914217107184
 23
1.391232020030074
 33
0.0
  0
POINT
  5
5D6
330
5D2
100
AcDbEntity
  8
Defpoints
 62
     0
100
AcDbPoint
 10
7.45914217107184
 20
1.391232020030074
 30
0.0
  0
POINT
  5
5D7
330
5D2
100
AcDbEntity
  8
Defpoints
 62
     0
100
AcDbPoint
 10
7.289374291223425
 20
1.464611811913551
 30
0.0
  0
ENDBLK
  5
5DB
330
5D2
100
AcDbEntity
  8
0
100
AcDbBlockEnd
  0
BLOCK
  5
5E7
330
5DF
100
AcDbEntity
  8
0
100
AcDbBlockBegin
  2
*D57
 70
     1
 10
0.0
 20
0.0
 30
0.0
  3
*D57
  1

  0
LINE
  5
5E0
330
5DF
100
AcDbEntity
  8
0
 62
     0
370
    -2
100
AcDbLine
 10
7.545901946988764
 20
1.851966681242011
 30
0.0
 11
7.808214275026136
 21
1.978815920092747
 31
0.0
  0
MTEXT
  5
5E1
330
5DF
100
AcDbEntity
  8
0
 62
     0
100
AcDbMText
 10
8.100214125607035
 20
2.120021478626156
 30
0.0
 40
0.1
 41
0.0
 46
0.0
 71
     5
 72
     1
  1
\A1;R10mm
 11
0.9002616019142902
 21
0.4353493403219027
 31
0.0
 73
     1
 44
1.0
  0
SOLID
  5
5E2
330
5DF
100
AcDbEntity
  8
0
 62
     0
100
AcDbTrace
 10
7.538646124650066
 20
1.866971041273915
 30
0.0
 11
7.553157769327463
 21
1.836962321210106
 31
0.0
 12
7.455875786797336
 22
1.80843174720982
 32
0.0
 13
7.455875786797336
 23
1.80843174720982
 33
0.0
  0
POINT
  5
5E3
330
5DF
100
AcDbEntity
  8
Defpoints
 62
     0
100
AcDbPoint
 10
7.455875786797336
 20
1.80843174720982
 30
0.0
  0
POINT
  5
5E4
330
5DF
100
AcDbEntity
  8
Defpoints
 62
     0
100
AcDbPoint
 10
7.289374291223425
 20
1.727914799573067
 30
0.0
  0
ENDBLK
  5
5E8
330
5DF
100
AcDbEntity
  8
0
100
AcDbBlockEnd
  0
BLOCK
  5
5F2
330
5EC
100
AcDbEntity
  8
0
100
AcDbBlockBegin
  2
*D58
 70
     1
 10
0.0
 20
0.0
 30
0.0
  3
*D58
  1

  0
LINE
  5
5ED
330
5EC
100
AcDbEntity
  8
0
 62
     0
370
    -2
100
AcDbLine
 10
4.390539837322524
 20
3.936821880540337
 30
0.0
 11
4.599670034083129
 21
3.782340293278712
 31
0.0
  0
MTEXT
  5
5EE
330
5EC
100
AcDbEntity
  8
0
 62
     0
100
AcDbMText
 10
4.860559954541984
 20
3.589624513169837
 30
0.0
 40
0.1
 41
0.0
 46
0.0
 71
     5
 72
     1
  1
\A1;R20mm
 11
0.8043469106177105
 21
-0.5941599510062463
 31
0.0
 73
     1
 44
1.0
  0
SOLID
  5
5EF
330
5EC
100
AcDbEntity
  8
0
 62
     0
100
AcDbTrace
 10
4.400442503172628
 20
3.950227662383965
 30
0.0
 11
4.380637171472419
 21
3.923416098696708
 31
0.0
 12
4.310105146260753
 22
3.996237875640961
 32
0.0
 13
4.310105146260753
 23
3.996237875640961
 33
0.0
  0
POINT
  5
5F0
330
5EC
100
AcDbEntity
  8
Defpoints
 62
     0
100
AcDbPoint
 10
4.310105146260753
 20
3.996237875640961
 30
0.0
  0
POINT
  5
5F1
330
5EC
100
AcDbEntity
  8
Defpoints
 62
     0
100
AcDbPoint
 10
4.607629695332554
 20
3.776460601474646
 30
0.0
  0
ENDBLK
  5
5F3
330
5EC
100
AcDbEntity
  8
0
100
AcDbBlockEnd
  0
BLOCK
  5
619
330
613
100
AcDbEntity
  8
0
100
AcDbBlockBegin
  2
*D61
 70
     1
 10
0.0
 20
0.0
 30
0.0
  3
*D61
  1

  0
LINE
  5
614
330
613
100
AcDbEntity
  8
0
 62
     0
370
    -2
100
AcDbLine
 10
5.706339641718066
 20
4.607179571078273
 30
0.0
 11
5.806333268456069
 21
4.606050584018657
 31
0.0
  0
MTEXT
  5
615
330
613
100
AcDbEntity
  8
0
 62
     0
100
AcDbMText
 10
6.085215493428362
 20
4.60290183910939
 30
0.0
 40
0.1
 41
0.0
 46
0.0
 71
     5
 72
     1
  1
\A1;%%c4mm
 11
0.9999362673800376
 21
-0.01128987059615385
 31
0.0
 73
     1
 44
1.0
  0
SOLID
  5
616
330
613
100
AcDbEntity
  8
0
 62
     0
100
AcDbTrace
 10
5.706527806228002
 20
4.623845175534607
 30
0.0
 11
5.70615147720813
 21
4.590513966621939
 31
0.0
 12
5.606346014980062
 22
4.608308558137888
 32
0.0
 13
5.606346014980062
 23
4.608308558137888
 33
0.0
  0
POINT
  5
617
330
613
100
AcDbEntity
  8
Defpoints
 62
     0
100
AcDbPoint
 10
5.606346014980062
 20
4.608308558137888
 30
0.0
  0
POINT
  5
618
330
613
100
AcDbEntity
  8
Defpoints
 62
     0
100
AcDbPoint
 10
5.532371568599878
 20
4.609143773295393
 30
0.0
  0
ENDBLK
  5
61A
330
613
100
AcDbEntity
  8
0
100
AcDbBlockEnd
  0
BLOCK
  5
624
330
61E
100
AcDbEntity
  8
0
100
AcDbBlockBegin
  2
*D62
 70
     1
 10
0.0
 20
0.0
 30
0.0
  3
*D62
  1

  0
LINE
  5
61F
330
61E
100
AcDbEntity
  8
0
 62
     0
370
    -2
100
AcDbLine
 10
5.586131595959476
 20
4.330900135381509
 30
0.0
 11
5.686131095415126
 21
4.330583735919346
 31
0.0
  0
MTEXT
  5
620
330
61E
100
AcDbEntity
  8
0
 62
     0
100
AcDbMText
 10
5.965029699396931
 20
4.32970129781937
 30
0.0
 40
0.1
 41
0.0
 46
0.0
 71
     5
 72
     1
  1
\A1;%%c3mm
 11
0.9999949945564899
 21
-0.003163994621640098
 31
0.0
 73
     1
 44
1.0
  0
SOLID
  5
621
330
61E
100
AcDbEntity
  8
0
 62
     0
100
AcDbTrace
 10
5.586184329203171
 20
4.347566718624117
 30
0.0
 11
5.586078862715782
 21
4.314233552138901
 31
0.0
 12
5.486132096503828
 22
4.331216534843674
 32
0.0
 13
5.486132096503828
 23
4.331216534843674
 33
0.0
  0
POINT
  5
622
330
61E
100
AcDbEntity
  8
Defpoints
 62
     0
100
AcDbPoint
 10
5.486132096503828
 20
4.331216534843674
 30
0.0
  0
POINT
  5
623
330
61E
100
AcDbEntity
  8
Defpoints
 62
     0
100
AcDbPoint
 10
5.430648003278246
 20
4.331392087094943
 30
0.0
  0
ENDBLK
  5
625
330
61E
100
AcDbEntity
  8
0
100
AcDbBlockEnd
  0
BLOCK
  5
62F
330
629
100
AcDbEntity
  8
0
100
AcDbBlockBegin
  2
*D63
 70
     1
 10
0.0
 20
0.0
 30
0.0
  3
*D63
  1

  0
LINE
  5
62A
330
629
100
AcDbEntity
  8
0
 62
     0
370
    -2
100
AcDbLine
 10
7.398621141296288
 20
5.3296498118298
 30
0.0
 11
7.49862071458887
 21
5.329357679494255
 31
0.0
  0
MTEXT
  5
62B
330
629
100
AcDbEntity
  8
0
 62
     0
100
AcDbMText
 10
7.777519524501882
 20
5.328542922410425
 30
0.0
 40
0.1
 41
0.0
 46
0.0
 71
     5
 72
     1
  1
\A1;%%c3mm
 11
0.9999957329258226
 21
-0.002921323355434946
 31
0.0
 73
     1
 44
1.0
  0
SOLID
  5
62C
330
629
100
AcDbEntity
  8
0
 62
     0
100
AcDbTrace
 10
7.398669830018878
 20
5.346316407378564
 30
0.0
 11
7.398572452573697
 21
5.312983216281036
 31
0.0
 12
7.298621568003705
 22
5.329941944165343
 32
0.0
 13
7.298621568003705
 23
5.329941944165343
 33
0.0
  0
POINT
  5
62D
330
629
100
AcDbEntity
  8
Defpoints
 62
     0
100
AcDbPoint
 10
7.298621568003705
 20
5.329941944165343
 30
0.0
  0
POINT
  5
62E
330
629
100
AcDbEntity
  8
Defpoints
 62
     0
100
AcDbPoint
 10
7.243137433810166
 20
5.330104031954059
 30
0.0
  0
ENDBLK
  5
630
330
629
100
AcDbEntity
  8
0
100
AcDbBlockEnd
  0
BLOCK
  5
63A
330
634
100
AcDbEntity
  8
0
100
AcDbBlockBegin
  2
*D64
 70
     1
 10
0.0
 20
0.0
 30
0.0
  3
*D64
  1

  0
LINE
  5
635
330
634
100
AcDbEntity
  8
0
 62
     0
370
    -2
100
AcDbLine
 10
4.08805400319668
 20
4.331069107061343
 30
0.0
 11
4.188053833688463
 21
4.330884983150287
 31
0.0
  0
MTEXT
  5
636
330
634
100
AcDbEntity
  8
0
 62
     0
100
AcDbMText
 10
4.466953360930047
 20
4.33037146156235
 30
0.0
 40
0.1
 41
0.0
 46
0.0
 71
     5
 72
     1
  1
\A1;%%c3mm
 11
0.9999983049178323
 21
-0.00184123911056678
 31
0.0
 73
     1
 44
1.0
  0
SOLID
  5
637
330
634
100
AcDbEntity
  8
0
 62
     0
100
AcDbTrace
 10
4.088084690515189
 20
4.347735745476641
 30
0.0
 11
4.08802331587817
 21
4.314402468646046
 31
0.0
 12
3.988054172704897
 22
4.3312532309724
 32
0.0
 13
3.988054172704897
 23
4.3312532309724
 33
0.0
  0
POINT
  5
638
330
634
100
AcDbEntity
  8
Defpoints
 62
     0
100
AcDbPoint
 10
3.988054172704897
 20
4.3312532309724
 30
0.0
  0
POINT
  5
639
330
634
100
AcDbEntity
  8
Defpoints
 62
     0
100
AcDbPoint
 10
3.932569895805999
 20
4.331355390966217
 30
0.0
  0
ENDBLK
  5
63B
330
634
100
AcDbEntity
  8
0
100
AcDbBlockEnd
  0
ENDSEC
  0
SECTION
  2
ENTITIES
  0
CIRCLE
  5
FA
102
{ACAD_REACTORS
330
514
330
566
102
}
330
1F
100
AcDbEntity
  8
0
100
AcDbCircle
 10
11.0
 20
219.0
 30
0.0
 40
1.5
  0
CIRCLE
  5
FB
102
{ACAD_REACTORS
330
566
330
628
102
}
330
1F
100
AcDbEntity
  8
0
100
AcDbCircle
 10
219.0
 20
219.0
 30
0.0
 40
1.5
  0
CIRCLE
  5
FC
330
1F
100
AcDbEntity
  8
0
100
AcDbCircle
 10
219.0
 20
11.0
 30
0.0
 40
1.5
  0
CIRCLE
  5
FD
102
{ACAD_REACTORS
330
514
102
}
330
1F
100
AcDbEntity
  8
0
100
AcDbCircle
 10
11.0
 20
11.0
 30
0.0
 40
1.5
  0
LINE
  5
15E
330
1F
100
AcDbEntity
  8
0
100
AcDbLine
 10
0.0
 20
10.0
 30
0.0
 11
0.0
 21
24.23660301921751
 31
0.0
  0
LINE
  5
15F
330
1F
100
AcDbEntity
  8
0
100
AcDbLine
 10
10.0
 20
229.9999999999999
 30
0.0
 11
24.23660301921758
 21
229.9999999999999
 31
0.0
  0
LINE
  5
160
102
{ACAD_REACTORS
330
556
102
}
330
1F
100
AcDbEntity
  8
0
100
AcDbLine
 10
230.0
 20
219.9999999999999
 30
0.0
 11
230.0
 21
205.7633969807825
 31
0.0
  0
LINE
  5
161
330
1F
100
AcDbEntity
  8
0
100
AcDbLine
 10
220.0
 20
0.0
 30
0.0
 11
205.7633969807825
 21
0.0
 31
0.0
  0
ARC
  5
162
102
{ACAD_REACTORS
330
501
330
556
102
}
330
1F
100
AcDbEntity
  8
0
100
AcDbCircle
 10
10.0
 20
219.9999999999999
 30
0.0
 40
10.0
100
AcDbArc
 50
90.0
 51
180.0
  0
ARC
  5
163
330
1F
100
AcDbEntity
  8
0
100
AcDbCircle
 10
220.0
 20
219.9999999999999
 30
0.0
 40
10.0
100
AcDbArc
 50
0.0
 51
90.0
  0
ARC
  5
164
102
{ACAD_REACTORS
330
5D1
102
}
330
1F
100
AcDbEntity
  8
0
100
AcDbCircle
 10
220.0
 20
10.0
 30
0.0
 40
10.0
100
AcDbArc
 50
270.0
 51
360.0
  0
ARC
  5
165
330
1F
100
AcDbEntity
  8
0
100
AcDbCircle
 10
10.0
 20
10.0
 30
0.0
 40
10.0
100
AcDbArc
 50
180.0
 51
270.0
  0
CIRCLE
  5
1B1
102
{ACAD_REACTORS
330
536
330
576
330
633
102
}
330
1F
100
AcDbEntity
  8
0
100
AcDbCircle
 10
40.0
 20
165.0
 30
0.0
 40
1.5
  0
CIRCLE
  5
1CF
102
{ACAD_REACTORS
330
576
102
}
330
1F
100
AcDbEntity
  8
0
100
AcDbCircle
 10
190.0
 20
165.0
 30
0.0
 40
1.5
  0
CIRCLE
  5
1ED
330
1F
100
AcDbEntity
  8
0
100
AcDbCircle
 10
190.0
 20
65.0
 30
0.0
 40
1.5
  0
CIRCLE
  5
20B
102
{ACAD_REACTORS
330
536
102
}
330
1F
100
AcDbEntity
  8
0
100
AcDbCircle
 10
40.0
 20
65.0
 30
0.0
 40
1.5
  0
CIRCLE
  5
22A
102
{ACAD_REACTORS
330
5B6
330
61D
102
}
330
1F
100
AcDbEntity
  8
0
100
AcDbCircle
 10
121.0
 20
165.0
 30
0.0
 40
1.5
  0
CIRCLE
  5
248
102
{ACAD_REACTORS
330
5B6
102
}
330
1F
100
AcDbEntity
  8
0
100
AcDbCircle
 10
109.0
 20
165.0
 30
0.0
 40
1.5
  0
CIRCLE
  5
287
330
1F
100
AcDbEntity
  8
0
100
AcDbCircle
 10
109.0
 20
65.0
 30
0.0
 40
1.5
  0
CIRCLE
  5
288
330
1F
100
AcDbEntity
  8
0
100
AcDbCircle
 10
121.0
 20
65.0
 30
0.0
 40
1.5
  0
ARC
  5
28C
330
1F
100
AcDbEntity
  8
0
100
AcDbCircle
 10
115.0
 20
-86.71572875253806
 30
0.0
 40
122.6345596729059
100
AcDbArc
 50
46.81849026665263
 51
133.1815097333474
  0
ARC
  5
28D
330
1F
100
AcDbEntity
  8
0
100
AcDbCircle
 10
115.0
 20
316.715728752538
 30
0.0
 40
122.6345596729058
100
AcDbArc
 50
226.8184902666527
 51
313.1815097333474
  0
ARC
  5
28E
330
1F
100
AcDbEntity
  8
0
100
AcDbCircle
 10
-86.71572875253807
 20
115.0
 30
0.0
 40
122.6345596729059
100
AcDbArc
 50
316.8184902666526
 51
43.18150973334736
  0
ARC
  5
28F
102
{ACAD_REACTORS
330
5C6
102
}
330
1F
100
AcDbEntity
  8
0
100
AcDbCircle
 10
316.7157287525382
 20
115.0
 30
0.0
 40
122.634559672906
100
AcDbArc
 50
136.8184902666526
 51
223.1815097333474
  0
CIRCLE
  5
293
102
{ACAD_REACTORS
330
524
330
5A6
102
}
330
1F
100
AcDbEntity
  8
0
100
AcDbCircle
 10
103.0
 20
180.0
 30
0.0
 40
2.0
  0
CIRCLE
  5
2B1
102
{ACAD_REACTORS
330
5A6
330
612
102
}
330
1F
100
AcDbEntity
  8
0
100
AcDbCircle
 10
127.0
 20
180.0
 30
0.0
 40
2.0
  0
CIRCLE
  5
2D3
102
{ACAD_REACTORS
330
524
102
}
330
1F
100
AcDbEntity
  8
0
100
AcDbCircle
 10
103.0
 20
50.0
 30
0.0
 40
2.0
  0
CIRCLE
  5
2D4
330
1F
100
AcDbEntity
  8
0
100
AcDbCircle
 10
127.0
 20
50.0
 30
0.0
 40
2.0
  0
LINE
  5
2D7
330
1F
100
AcDbEntity
  8
0
100
AcDbLine
 10
205.7633969807824
 20
229.9999999999999
 30
0.0
 11
220.0
 21
229.9999999999999
 31
0.0
  0
LINE
  5
2D8
330
1F
100
AcDbEntity
  8
0
100
AcDbLine
 10
230.0
 20
24.23660301921737
 30
0.0
 11
230.0
 21
10.0
 31
0.0
  0
LINE
  5
2D9
330
1F
100
AcDbEntity
  8
0
100
AcDbLine
 10
0.0
 20
205.7633969807825
 30
0.0
 11
0.0
 21
219.9999999999999
 31
0.0
  0
LINE
  5
2DA
102
{ACAD_REACTORS
330
501
102
}
330
1F
100
AcDbEntity
  8
0
100
AcDbLine
 10
24.2366030192175
 20
0.0
 30
0.0
 11
10.0
 21
0.0
 31
0.0
  0
ARC
  5
2DB
330
1F
100
AcDbEntity
  8
0
100
AcDbCircle
 10
220.0
 20
205.7633969807825
 30
0.0
 40
10.0
100
AcDbArc
 50
316.8184902666525
 51
0.0
  0
ARC
  5
2DC
330
1F
100
AcDbEntity
  8
0
100
AcDbCircle
 10
205.7633969807824
 20
219.9999999999999
 30
0.0
 40
10.0
100
AcDbArc
 50
90.0
 51
133.1815097333474
  0
ARC
  5
2DD
330
1F
100
AcDbEntity
  8
0
100
AcDbCircle
 10
24.23660301921758
 20
219.9999999999999
 30
0.0
 40
10.0
100
AcDbArc
 50
46.81849026665262
 51
90.0
  0
ARC
  5
2DE
330
1F
100
AcDbEntity
  8
0
100
AcDbCircle
 10
10.00000000000001
 20
205.7633969807825
 30
0.0
 40
10.0
100
AcDbArc
 50
180.0
 51
223.1815097333474
  0
ARC
  5
2DF
330
1F
100
AcDbEntity
  8
0
100
AcDbCircle
 10
10.00000000000001
 20
24.23660301921751
 30
0.0
 40
10.0
100
AcDbArc
 50
136.8184902666526
 51
180.0
  0
ARC
  5
2E0
330
1F
100
AcDbEntity
  8
0
100
AcDbCircle
 10
24.2366030192175
 20
10.00000000000001
 30
0.0
 40
10.0
100
AcDbArc
 50
270.0
 51
313.1815097333474
  0
ARC
  5
2E1
330
1F
100
AcDbEntity
  8
0
100
AcDbCircle
 10
205.7633969807825
 20
10.00000000000001
 30
0.0
 40
10.0
100
AcDbArc
 50
226.8184902666526
 51
270.0
  0
ARC
  5
2E2
102
{ACAD_REACTORS
330
5DE
102
}
330
1F
100
AcDbEntity
  8
0
100
AcDbCircle
 10
220.0
 20
24.23660301921737
 30
0.0
 40
10.0
100
AcDbArc
 50
0.0
 51
43.18150973334745
  0
LINE
  5
2E3
330
1F
100
AcDbEntity
  8
0
100
AcDbLine
 10
44.994140625
 20
193.55859375
 30
0.0
 11
50.267578125
 21
193.55859375
 31
0.0
  0
LINE
  5
2E5
330
1F
100
AcDbEntity
  8
0
100
AcDbLine
 10
49.212890625
 20
190.921875
 30
0.0
 11
44.994140625
 21
190.921875
 31
0.0
  0
LINE
  5
2E7
330
1F
100
AcDbEntity
  8
0
100
AcDbLine
 10
44.994140625
 20
188.28515625
 30
0.0
 11
49.212890625
 21
188.28515625
 31
0.0
  0
LINE
  5
2E9
330
1F
100
AcDbEntity
  8
0
100
AcDbLine
 10
49.212890625
 20
185.6484375
 30
0.0
 11
47.630859375
 21
185.6484375
 31
0.0
  0
LINE
  5
2ED
330
1F
100
AcDbEntity
  8
0
100
AcDbLine
 10
52.904296875
 20
180.375
 30
0.0
 11
50.267578125
 21
180.375
 31
0.0
  0
LINE
  5
2EE
330
1F
100
AcDbEntity
  8
0
100
AcDbLine
 10
44.994140625
 20
193.55859375
 30
0.0
 11
44.994140625
 21
190.921875
 31
0.0
  0
LINE
  5
2F0
330
1F
100
AcDbEntity
  8
0
100
AcDbLine
 10
50.267578125
 20
189.8671875
 30
0.0
 11
50.267578125
 21
189.33984375
 31
0.0
  0
LINE
  5
2F1
330
1F
100
AcDbEntity
  8
0
100
AcDbLine
 10
52.904296875
 20
180.375
 30
0.0
 11
52.904296875
 21
190.921875
 31
0.0
  0
LINE
  5
318
330
1F
100
AcDbEntity
  8
0
100
AcDbLine
 10
55.541015625
 20
193.55859375
 30
0.0
 11
55.541015625
 21
190.921875
 31
0.0
  0
LINE
  5
31D
330
1F
100
AcDbEntity
  8
0
100
AcDbLine
 10
60.814453125
 20
180.375
 30
0.0
 11
55.541015625
 21
180.375
 31
0.0
  0
LINE
  5
320
330
1F
100
AcDbEntity
  8
0
100
AcDbLine
 10
55.541015625
 20
193.55859375
 30
0.0
 11
60.814453125
 21
193.55859375
 31
0.0
  0
LINE
  5
348
330
1F
100
AcDbEntity
  8
0
100
AcDbLine
 10
66.087890625
 20
193.55859375
 30
0.0
 11
66.087890625
 21
188.28515625
 31
0.0
  0
LINE
  5
349
330
1F
100
AcDbEntity
  8
0
100
AcDbLine
 10
68.724609375
 20
190.921875
 30
0.0
 11
68.724609375
 21
188.28515625
 31
0.0
  0
LINE
  5
34A
330
1F
100
AcDbEntity
  8
0
100
AcDbLine
 10
71.361328125
 20
189.8671875
 30
0.0
 11
71.361328125
 21
184.06640625
 31
0.0
  0
LINE
  5
34B
330
1F
100
AcDbEntity
  8
0
100
AcDbLine
 10
73.998046875
 20
183.01171875
 30
0.0
 11
73.998046875
 21
190.921875
 31
0.0
  0
LINE
  5
34C
330
1F
100
AcDbEntity
  8
0
100
AcDbLine
 10
68.724609375
 20
183.01171875
 30
0.0
 11
70.306640625
 21
183.01171875
 31
0.0
  0
LINE
  5
34D
330
1F
100
AcDbEntity
  8
0
100
AcDbLine
 10
71.361328125
 20
180.375
 30
0.0
 11
66.087890625
 21
180.375
 31
0.0
  0
LINE
  5
34E
330
1F
100
AcDbEntity
  8
0
100
AcDbLine
 10
68.724609375
 20
185.6484375
 30
0.0
 11
66.087890625
 21
185.6484375
 31
0.0
  0
LINE
  5
34F
330
1F
100
AcDbEntity
  8
0
100
AcDbLine
 10
70.306640625
 20
190.921875
 30
0.0
 11
68.724609375
 21
190.921875
 31
0.0
  0
LINE
  5
350
330
1F
100
AcDbEntity
  8
0
100
AcDbLine
 10
66.087890625
 20
193.55859375
 30
0.0
 11
71.361328125
 21
193.55859375
 31
0.0
  0
LINE
  5
351
330
1F
100
AcDbEntity
  8
0
100
AcDbLine
 10
66.087890625
 20
188.28515625
 30
0.0
 11
68.724609375
 21
188.28515625
 31
0.0
  0
LINE
  5
354
330
1F
100
AcDbEntity
  8
0
100
AcDbLine
 10
68.724609375
 20
185.6484375
 30
0.0
 11
68.724609375
 21
183.01171875
 31
0.0
  0
LINE
  5
355
330
1F
100
AcDbEntity
  8
0
100
AcDbLine
 10
66.087890625
 20
185.6484375
 30
0.0
 11
66.087890625
 21
180.375
 31
0.0
  0
LINE
  5
356
330
1F
100
AcDbEntity
  8
0
100
AcDbLine
 10
47.630859375
 20
180.375
 30
0.0
 11
44.994140625
 21
180.375
 31
0.0
  0
LINE
  5
357
330
1F
100
AcDbEntity
  8
0
100
AcDbLine
 10
47.630859375
 20
185.6484375
 30
0.0
 11
47.630859375
 21
180.375
 31
0.0
  0
LINE
  5
358
330
1F
100
AcDbEntity
  8
0
100
AcDbLine
 10
50.267578125
 20
184.59375
 30
0.0
 11
50.267578125
 21
180.375
 31
0.0
  0
LINE
  5
359
330
1F
100
AcDbEntity
  8
0
100
AcDbLine
 10
44.994140625
 20
188.28515625
 30
0.0
 11
44.994140625
 21
180.375
 31
0.0
  0
ARC
  5
35C
330
1F
100
AcDbEntity
  8
0
100
AcDbCircle
 10
50.267578125
 20
190.921875
 30
0.0
 40
2.63671875
100
AcDbArc
 50
0.0
 51
90.0
  0
ARC
  5
35D
330
1F
100
AcDbEntity
  8
0
100
AcDbCircle
 10
71.361328125
 20
190.921875
 30
0.0
 40
2.63671875
100
AcDbArc
 50
0.0
 51
90.0
  0
ARC
  5
35E
330
1F
100
AcDbEntity
  8
0
100
AcDbCircle
 10
71.361328125
 20
183.01171875
 30
0.0
 40
2.63671875
100
AcDbArc
 50
270.0
 51
0.0
  0
ARC
  5
361
330
1F
100
AcDbEntity
  8
0
100
AcDbCircle
 10
49.212890625
 20
189.8671875
 30
0.0
 40
1.0546875
100
AcDbArc
 50
0.0
 51
90.0
  0
ARC
  5
362
330
1F
100
AcDbEntity
  8
0
100
AcDbCircle
 10
49.212890625
 20
189.33984375
 30
0.0
 40
1.0546875
100
AcDbArc
 50
270.0
 51
0.0
  0
ARC
  5
363
330
1F
100
AcDbEntity
  8
0
100
AcDbCircle
 10
49.212890625
 20
184.59375
 30
0.0
 40
1.0546875
100
AcDbArc
 50
0.0
 51
90.0
  0
ARC
  5
364
330
1F
100
AcDbEntity
  8
0
100
AcDbCircle
 10
70.306640625
 20
189.8671875
 30
0.0
 40
1.0546875
100
AcDbArc
 50
0.0
 51
90.0
  0
ARC
  5
365
330
1F
100
AcDbEntity
  8
0
100
AcDbCircle
 10
70.306640625
 20
184.06640625
 30
0.0
 40
1.0546875
100
AcDbArc
 50
270.0
 51
0.0
  0
LINE
  5
367
330
1F
100
AcDbEntity
  8
0
100
AcDbLine
 10
63.451171875
 20
183.01171875
 30
0.0
 11
63.451171875
 21
190.921875
 31
0.0
  0
LINE
  5
368
330
1F
100
AcDbEntity
  8
0
100
AcDbLine
 10
60.814453125
 20
189.8671875
 30
0.0
 11
60.814453125
 21
189.33984375
 31
0.0
  0
LINE
  5
369
330
1F
100
AcDbEntity
  8
0
100
AcDbLine
 10
55.541015625
 20
190.921875
 30
0.0
 11
59.759765625
 21
190.921875
 31
0.0
  0
LINE
  5
36A
330
1F
100
AcDbEntity
  8
0
100
AcDbLine
 10
58.177734375
 20
188.28515625
 30
0.0
 11
59.759765625
 21
188.28515625
 31
0.0
  0
LINE
  5
36B
330
1F
100
AcDbEntity
  8
0
100
AcDbLine
 10
58.177734375
 20
185.6484375
 30
0.0
 11
59.759765625
 21
185.6484375
 31
0.0
  0
LINE
  5
36C
330
1F
100
AcDbEntity
  8
0
100
AcDbLine
 10
55.541015625
 20
183.01171875
 30
0.0
 11
59.759765625
 21
183.01171875
 31
0.0
  0
LINE
  5
36D
330
1F
100
AcDbEntity
  8
0
100
AcDbLine
 10
58.177734375
 20
188.28515625
 30
0.0
 11
58.177734375
 21
185.6484375
 31
0.0
  0
LINE
  5
36F
330
1F
100
AcDbEntity
  8
0
100
AcDbLine
 10
60.814453125
 20
184.59375
 30
0.0
 11
60.814453125
 21
184.06640625
 31
0.0
  0
LINE
  5
370
330
1F
100
AcDbEntity
  8
0
100
AcDbLine
 10
55.541015625
 20
183.01171875
 30
0.0
 11
55.541015625
 21
180.375
 31
0.0
  0
ARC
  5
371
330
1F
100
AcDbEntity
  8
0
100
AcDbCircle
 10
59.759765625
 20
189.8671875
 30
0.0
 40
1.0546875
100
AcDbArc
 50
0.0
 51
90.0
  0
ARC
  5
372
330
1F
100
AcDbEntity
  8
0
100
AcDbCircle
 10
59.759765625
 20
189.33984375
 30
0.0
 40
1.0546875
100
AcDbArc
 50
270.0
 51
0.0
  0
ARC
  5
373
330
1F
100
AcDbEntity
  8
0
100
AcDbCircle
 10
59.759765625
 20
184.59375
 30
0.0
 40
1.0546875
100
AcDbArc
 50
0.0
 51
90.0
  0
ARC
  5
374
330
1F
100
AcDbEntity
  8
0
100
AcDbCircle
 10
59.759765625
 20
184.06640625
 30
0.0
 40
1.0546875
100
AcDbArc
 50
270.0
 51
0.0
  0
ARC
  5
375
330
1F
100
AcDbEntity
  8
0
100
AcDbCircle
 10
60.814453125
 20
183.01171875
 30
0.0
 40
2.63671875
100
AcDbArc
 50
270.0
 51
0.0
  0
ARC
  5
376
330
1F
100
AcDbEntity
  8
0
100
AcDbCircle
 10
60.814453125
 20
190.921875
 30
0.0
 40
2.63671875
100
AcDbArc
 50
0.0
 51
90.0
  0
LINE
  5
377
330
1F
100
AcDbEntity
  8
0
100
AcDbLine
 10
163.404296875
 20
36.375
 30
0.0
 11
163.404296875
 21
46.921875
 31
0.0
  0
LINE
  5
378
330
1F
100
AcDbEntity
  8
0
100
AcDbLine
 10
155.494140625
 20
49.55859375
 30
0.0
 11
160.767578125
 21
49.55859375
 31
0.0
  0
LINE
  5
379
330
1F
100
AcDbEntity
  8
0
100
AcDbLine
 10
171.314453125
 20
36.375
 30
0.0
 11
166.041015625
 21
36.375
 31
0.0
  0
LINE
  5
37A
330
1F
100
AcDbEntity
  8
0
100
AcDbLine
 10
166.041015625
 20
49.55859375
 30
0.0
 11
171.314453125
 21
49.55859375
 31
0.0
  0
LINE
  5
37B
330
1F
100
AcDbEntity
  8
0
100
AcDbLine
 10
184.498046875
 20
39.01171875
 30
0.0
 11
184.498046875
 21
46.921875
 31
0.0
  0
LINE
  5
37C
330
1F
100
AcDbEntity
  8
0
100
AcDbLine
 10
181.861328125
 20
36.375
 30
0.0
 11
176.587890625
 21
36.375
 31
0.0
  0
LINE
  5
37D
330
1F
100
AcDbEntity
  8
0
100
AcDbLine
 10
176.587890625
 20
49.55859375
 30
0.0
 11
181.861328125
 21
49.55859375
 31
0.0
  0
LINE
  5
37E
330
1F
100
AcDbEntity
  8
0
100
AcDbLine
 10
159.712890625
 20
46.921875
 30
0.0
 11
155.494140625
 21
46.921875
 31
0.0
  0
LINE
  5
37F
330
1F
100
AcDbEntity
  8
0
100
AcDbLine
 10
179.224609375
 20
41.6484375
 30
0.0
 11
179.224609375
 21
39.01171875
 31
0.0
  0
LINE
  5
380
330
1F
100
AcDbEntity
  8
0
100
AcDbLine
 10
181.861328125
 20
45.8671875
 30
0.0
 11
181.861328125
 21
40.06640625
 31
0.0
  0
LINE
  5
381
330
1F
100
AcDbEntity
  8
0
100
AcDbLine
 10
176.587890625
 20
44.28515625
 30
0.0
 11
179.224609375
 21
44.28515625
 31
0.0
  0
LINE
  5
382
330
1F
100
AcDbEntity
  8
0
100
AcDbLine
 10
179.224609375
 20
41.6484375
 30
0.0
 11
176.587890625
 21
41.6484375
 31
0.0
  0
LINE
  5
383
330
1F
100
AcDbEntity
  8
0
100
AcDbLine
 10
179.224609375
 20
46.921875
 30
0.0
 11
179.224609375
 21
44.28515625
 31
0.0
  0
LINE
  5
384
330
1F
100
AcDbEntity
  8
0
100
AcDbLine
 10
176.587890625
 20
41.6484375
 30
0.0
 11
176.587890625
 21
36.375
 31
0.0
  0
LINE
  5
385
330
1F
100
AcDbEntity
  8
0
100
AcDbLine
 10
158.130859375
 20
36.375
 30
0.0
 11
155.494140625
 21
36.375
 31
0.0
  0
LINE
  5
386
330
1F
100
AcDbEntity
  8
0
100
AcDbLine
 10
155.494140625
 20
44.28515625
 30
0.0
 11
159.712890625
 21
44.28515625
 31
0.0
  0
LINE
  5
387
330
1F
100
AcDbEntity
  8
0
100
AcDbLine
 10
176.587890625
 20
49.55859375
 30
0.0
 11
176.587890625
 21
44.28515625
 31
0.0
  0
LINE
  5
388
330
1F
100
AcDbEntity
  8
0
100
AcDbLine
 10
163.404296875
 20
36.375
 30
0.0
 11
160.767578125
 21
36.375
 31
0.0
  0
LINE
  5
389
330
1F
100
AcDbEntity
  8
0
100
AcDbLine
 10
158.130859375
 20
41.6484375
 30
0.0
 11
158.130859375
 21
36.375
 31
0.0
  0
LINE
  5
38A
330
1F
100
AcDbEntity
  8
0
100
AcDbLine
 10
160.767578125
 20
40.59375
 30
0.0
 11
160.767578125
 21
36.375
 31
0.0
  0
LINE
  5
38B
330
1F
100
AcDbEntity
  8
0
100
AcDbLine
 10
179.224609375
 20
39.01171875
 30
0.0
 11
180.806640625
 21
39.01171875
 31
0.0
  0
LINE
  5
38C
330
1F
100
AcDbEntity
  8
0
100
AcDbLine
 10
180.806640625
 20
46.921875
 30
0.0
 11
179.224609375
 21
46.921875
 31
0.0
  0
LINE
  5
38D
330
1F
100
AcDbEntity
  8
0
100
AcDbLine
 10
160.767578125
 20
45.8671875
 30
0.0
 11
160.767578125
 21
45.33984375
 31
0.0
  0
LINE
  5
38E
330
1F
100
AcDbEntity
  8
0
100
AcDbLine
 10
155.494140625
 20
44.28515625
 30
0.0
 11
155.494140625
 21
36.375
 31
0.0
  0
LINE
  5
38F
330
1F
100
AcDbEntity
  8
0
100
AcDbLine
 10
155.494140625
 20
49.55859375
 30
0.0
 11
155.494140625
 21
46.921875
 31
0.0
  0
LINE
  5
390
330
1F
100
AcDbEntity
  8
0
100
AcDbLine
 10
159.712890625
 20
41.6484375
 30
0.0
 11
158.130859375
 21
41.6484375
 31
0.0
  0
ARC
  5
391
330
1F
100
AcDbEntity
  8
0
100
AcDbCircle
 10
160.767578125
 20
46.921875
 30
0.0
 40
2.63671875
100
AcDbArc
 50
0.0
 51
90.0
  0
ARC
  5
392
330
1F
100
AcDbEntity
  8
0
100
AcDbCircle
 10
181.861328125
 20
46.921875
 30
0.0
 40
2.63671875
100
AcDbArc
 50
0.0
 51
90.0
  0
ARC
  5
393
330
1F
100
AcDbEntity
  8
0
100
AcDbCircle
 10
181.861328125
 20
39.01171875
 30
0.0
 40
2.63671875
100
AcDbArc
 50
270.0
 51
0.0
  0
ARC
  5
394
330
1F
100
AcDbEntity
  8
0
100
AcDbCircle
 10
159.712890625
 20
45.8671875
 30
0.0
 40
1.0546875
100
AcDbArc
 50
0.0
 51
90.0
  0
ARC
  5
395
330
1F
100
AcDbEntity
  8
0
100
AcDbCircle
 10
159.712890625
 20
45.33984375
 30
0.0
 40
1.0546875
100
AcDbArc
 50
270.0
 51
0.0
  0
ARC
  5
396
330
1F
100
AcDbEntity
  8
0
100
AcDbCircle
 10
159.712890625
 20
40.59375
 30
0.0
 40
1.0546875
100
AcDbArc
 50
0.0
 51
90.0
  0
ARC
  5
397
330
1F
100
AcDbEntity
  8
0
100
AcDbCircle
 10
180.806640625
 20
45.8671875
 30
0.0
 40
1.0546875
100
AcDbArc
 50
0.0
 51
90.0
  0
ARC
  5
398
330
1F
100
AcDbEntity
  8
0
100
AcDbCircle
 10
180.806640625
 20
40.06640625
 30
0.0
 40
1.0546875
100
AcDbArc
 50
270.0
 51
0.0
  0
LINE
  5
399
330
1F
100
AcDbEntity
  8
0
100
AcDbLine
 10
173.951171875
 20
39.01171875
 30
0.0
 11
173.951171875
 21
46.921875
 31
0.0
  0
LINE
  5
39A
330
1F
100
AcDbEntity
  8
0
100
AcDbLine
 10
166.041015625
 20
46.921875
 30
0.0
 11
170.259765625
 21
46.921875
 31
0.0
  0
LINE
  5
39B
330
1F
100
AcDbEntity
  8
0
100
AcDbLine
 10
166.041015625
 20
39.01171875
 30
0.0
 11
170.259765625
 21
39.01171875
 31
0.0
  0
LINE
  5
39C
330
1F
100
AcDbEntity
  8
0
100
AcDbLine
 10
168.677734375
 20
44.28515625
 30
0.0
 11
168.677734375
 21
41.6484375
 31
0.0
  0
LINE
  5
39D
330
1F
100
AcDbEntity
  8
0
100
AcDbLine
 10
171.314453125
 20
40.59375
 30
0.0
 11
171.314453125
 21
40.06640625
 31
0.0
  0
LINE
  5
39E
330
1F
100
AcDbEntity
  8
0
100
AcDbLine
 10
171.314453125
 20
45.8671875
 30
0.0
 11
171.314453125
 21
45.33984375
 31
0.0
  0
LINE
  5
39F
330
1F
100
AcDbEntity
  8
0
100
AcDbLine
 10
168.677734375
 20
44.28515625
 30
0.0
 11
170.259765625
 21
44.28515625
 31
0.0
  0
LINE
  5
3A0
330
1F
100
AcDbEntity
  8
0
100
AcDbLine
 10
166.041015625
 20
39.01171875
 30
0.0
 11
166.041015625
 21
36.375
 31
0.0
  0
LINE
  5
3A1
330
1F
100
AcDbEntity
  8
0
100
AcDbLine
 10
168.677734375
 20
41.6484375
 30
0.0
 11
170.259765625
 21
41.6484375
 31
0.0
  0
LINE
  5
3A2
330
1F
100
AcDbEntity
  8
0
100
AcDbLine
 10
166.041015625
 20
49.55859375
 30
0.0
 11
166.041015625
 21
46.921875
 31
0.0
  0
ARC
  5
3A3
330
1F
100
AcDbEntity
  8
0
100
AcDbCircle
 10
170.259765625
 20
45.8671875
 30
0.0
 40
1.0546875
100
AcDbArc
 50
0.0
 51
90.0
  0
ARC
  5
3A4
330
1F
100
AcDbEntity
  8
0
100
AcDbCircle
 10
170.259765625
 20
45.33984375
 30
0.0
 40
1.0546875
100
AcDbArc
 50
270.0
 51
0.0
  0
ARC
  5
3A5
330
1F
100
AcDbEntity
  8
0
100
AcDbCircle
 10
170.259765625
 20
40.59375
 30
0.0
 40
1.0546875
100
AcDbArc
 50
0.0
 51
90.0
  0
ARC
  5
3A6
330
1F
100
AcDbEntity
  8
0
100
AcDbCircle
 10
170.259765625
 20
40.06640625
 30
0.0
 40
1.0546875
100
AcDbArc
 50
270.0
 51
0.0
  0
ARC
  5
3A7
330
1F
100
AcDbEntity
  8
0
100
AcDbCircle
 10
171.314453125
 20
39.01171875
 30
0.0
 40
2.63671875
100
AcDbArc
 50
270.0
 51
0.0
  0
ARC
  5
3A8
330
1F
100
AcDbEntity
  8
0
100
AcDbCircle
 10
171.314453125
 20
46.921875
 30
0.0
 40
2.63671875
100
AcDbArc
 50
0.0
 51
90.0
  0
LWPOLYLINE
  5
3D3
102
{ACAD_REACTORS
330
546
330
586
330
596
330
5EB
102
}
330
1F
100
AcDbEntity
  8
0
100
AcDbPolyline
 90
        8
 70
     1
 43
0.0
 10
55.0
 20
95.0
 10
55.0
 20
135.0
 42
-0.414213562373095
 10
75.0
 20
155.0
 10
155.0
 20
155.0
 42
-0.414213562373095
 10
175.0
 20
135.0
 10
175.0
 20
95.0
 42
-0.414213562373095
 10
155.0
 20
75.0
 10
75.0
 20
75.0
 42
-0.414213562373095
  0
VIEWPORT
  5
4A9
330
58
100
AcDbEntity
 67
     1
  8
0
100
AcDbViewport
 10
0.0
 20
0.0
 30
0.0
 40
9.167080161943295
 41
4.915199999999986
 68
     2
 69
     1
 12
7.97620327585479
 22
2.176942550611591
 13
0.0
 23
0.0
 14
0.5
 24
0.5
 15
0.0
 25
0.0
 16
0.0
 26
0.0
 36
1.0
 17
0.0
 27
0.0
 37
0.0
 42
50.0
 43
0.0
 44
0.0
 45
4.915199999999986
 50
0.0
 51
0.0
 72
   100
 90
   557680
  1

281
     0
 71
     1
 74
     0
110
0.0
120
0.0
130
0.0
111
1.0
121
0.0
131
0.0
112
0.0
122
1.0
132
0.0
 79
     0
146
0.0
170
     0
 61
     5
292
     1
282
     1
141
0.0
142
0.0
 63
   256
  0
VIEWPORT
  5
4AA
102
{ACAD_REACTORS
330
501
330
514
330
524
330
536
330
546
330
556
330
566
330
576
330
586
330
596
330
5A6
330
5B6
330
5C6
330
5D1
330
5DE
330
5EB
330
612
330
61D
330
628
330
633
102
}
330
58
100
AcDbEntity
 67
     1
  8
0
100
AcDbViewport
 10
5.25
 20
4.0
 30
0.0
 40
8.4
 41
6.4
 68
     1
 69
     2
 12
109.7325
 22
147.086614376269
 13
0.0
 23
0.0
 14
0.5
 24
0.5
 15
0.0
 25
0.0
 16
0.0
 26
0.0
 36
1.0
 17
0.0
 27
0.0
 37
0.0
 42
50.0
 43
0.0
 44
0.0
 45
346.0433933275888
 50
0.0
 51
0.0
 72
   100
 90
   557152
  1

281
     0
 71
     1
 74
     0
110
0.0
120
0.0
130
0.0
111
1.0
121
0.0
131
0.0
112
0.0
122
1.0
132
0.0
 79
     0
146
0.0
170
     0
 61
     5
292
     1
282
     1
141
0.0
142
0.0
 63
   256
  0
IMAGE
  5
4AD
330
58
100
AcDbEntity
 67
     1
  8
0
160
               140
310
8C000000010000008400000006000000050000003A56208CB4631A4096A4C23761491A40000000000000000033D3D3FC39A4234096A4C23761491A40000000000000000033D3D3FC39A423407C753538DDA81E4000000000000000003A56208CB4631A407C753538DDA81E4000000000000000003A56208CB4631A4096A4C2
310
3761491A400000000000000000
100
AcDbRasterImage
 90
        0
 10
6.59736842105263
 20
6.57165991902834
 30
0.0
 11
0.01127058213035163
 21
0.0
 31
0.0
 12
0.0
 22
0.01127058213035163
 32
0.0
 13
286.0
 23
97.0
340
4AC
 70
     7
280
     0
281
    50
282
    50
283
     0
360
4AE
 71
     1
 91
        2
 14
-0.5
 24
-0.5
 14
285.5
 24
96.5
290
     0
  0
DIMENSION
  5
4FF
102
{ACAD_REACTORS
330
501
102
}
102
{ACAD_XDICTIONARY
360
500
102
}
330
58
100
AcDbEntity
 67
     1
  8
0
100
AcDbDimension
280
     0
  2
*D43
 10
1.618883134714196
 20
1.279663908748664
 30
0.0
 11
1.618883134714196
 21
3.40656479514487
 31
0.0
 70
    32
 71
     5
 42
230.0
 73
     0
 74
     0
 75
     0
  3
Standard
100
AcDbAlignedDimension
 13
3.405468324760785
 23
5.533465681541077
 33
0.0
 14
3.405468324760785
 24
1.279663908748664
 34
0.0
 50
90.0
100
AcDbRotatedDimension
1001
ACAD
1000
DSTYLE
1002
{
1070
   144
1040
-54.06928020743575
1002
}
1001
ACAD_DIMASSOC_CALC_DIMLFAC
1040
-54.06928020743575
1001
ACAD_DIMASSOC_DIMLFAC
1040
-54.06928020743575
1001
ACAD_DIMASSOC_OVERRIDDEN_DIMLFAC
1040
0.0
  0
DIMENSION
  5
512
102
{ACAD_REACTORS
330
514
102
}
102
{ACAD_XDICTIONARY
360
513
102
}
330
58
100
AcDbEntity
 67
     1
  8
0
100
AcDbDimension
280
     0
  2
*D44
 10
2.195117291657823
 20
1.48310660223004
 30
0.0
 11
2.195117291657823
 21
3.406564795144871
 31
0.0
 70
    32
 71
     5
 42
208.0
 73
     0
 74
     0
 75
     0
  3
Standard
100
AcDbAlignedDimension
 13
3.423963115077274
 23
5.330022988059701
 33
0.0
 14
3.423963115077274
 24
1.48310660223004
 34
0.0
 50
90.0
100
AcDbRotatedDimension
1001
ACAD
1000
DSTYLE
1002
{
1070
   144
1040
-54.06928020743575
1002
}
1001
ACAD_DIMASSOC_CALC_DIMLFAC
1040
-54.06928020743575
1001
ACAD_DIMASSOC_DIMLFAC
1040
-54.06928020743575
1001
ACAD_DIMASSOC_OVERRIDDEN_DIMLFAC
1040
0.0
  0
DIMENSION
  5
522
102
{ACAD_REACTORS
330
524
102
}
102
{ACAD_XDICTIONARY
360
523
102
}
330
58
100
AcDbEntity
 67
     1
  8
0
100
AcDbDimension
280
     0
  2
*D45
 10
2.732704393196285
 20
2.204403424573102
 30
0.0
 11
2.732704393196285
 21
3.406564795144871
 31
0.0
 70
    32
 71
     5
 42
130.0
 73
     0
 74
     0
 75
     0
  3
Standard
100
AcDbAlignedDimension
 13
5.125483824194239
 23
4.60872616571664
 33
0.0
 14
5.125483824194239
 24
2.204403424573102
 34
0.0
 50
90.0
100
AcDbRotatedDimension
1001
ACAD
1000
DSTYLE
1002
{
1070
   144
1040
-54.06928020743575
1002
}
1001
ACAD_DIMASSOC_CALC_DIMLFAC
1040
-54.06928020743575
1001
ACAD_DIMASSOC_DIMLFAC
1040
-54.06928020743575
1001
ACAD_DIMASSOC_OVERRIDDEN_DIMLFAC
1040
0.0
  0
DIMENSION
  5
534
102
{ACAD_REACTORS
330
536
102
}
102
{ACAD_XDICTIONARY
360
535
102
}
330
58
100
AcDbEntity
 67
     1
  8
0
100
AcDbDimension
280
     0
  2
*D46
 10
3.016307248062677
 20
2.481825279320433
 30
0.0
 11
3.016307248062677
 21
3.406564795144871
 31
0.0
 70
    32
 71
     5
 42
99.99999999999996
 73
     0
 74
     0
 75
     0
  3
Standard
100
AcDbAlignedDimension
 13
3.960312034255448
 23
4.331304310969308
 33
0.0
 14
3.960312034255448
 24
2.481825279320433
 34
0.0
 50
90.0
100
AcDbRotatedDimension
1001
ACAD
1000
DSTYLE
1002
{
1070
   144
1040
-54.06928020743575
1002
}
1001
ACAD_DIMASSOC_CALC_DIMLFAC
1040
-54.06928020743575
1001
ACAD_DIMASSOC_DIMLFAC
1040
-54.06928020743575
1001
ACAD_DIMASSOC_OVERRIDDEN_DIMLFAC
1040
0.0
  0
DIMENSION
  5
544
102
{ACAD_REACTORS
330
546
102
}
102
{ACAD_XDICTIONARY
360
545
102
}
330
58
100
AcDbEntity
 67
     1
  8
0
100
AcDbDimension
280
     0
  2
*D47
 10
3.295417005147695
 20
2.666773182485321
 30
0.0
 11
3.295417005147695
 21
3.406564795144871
 31
0.0
 70
    32
 71
     5
 42
79.99999999999999
 73
     0
 74
     0
 75
     0
  3
Standard
100
AcDbAlignedDimension
 13
4.607629695332554
 23
4.146356407804421
 33
0.0
 14
4.607629695332554
 24
2.666773182485321
 34
0.0
 50
90.0
100
AcDbRotatedDimension
1001
ACAD
1000
DSTYLE
1002
{
1070
   144
1040
-54.06928020743575
1002
}
1001
ACAD_DIMASSOC_CALC_DIMLFAC
1040
-54.06928020743575
1001
ACAD_DIMASSOC_DIMLFAC
1040
-54.06928020743575
1001
ACAD_DIMASSOC_OVERRIDDEN_DIMLFAC
1040
0.0
  0
DIMENSION
  5
554
102
{ACAD_REACTORS
330
556
102
}
102
{ACAD_XDICTIONARY
360
555
102
}
330
58
100
AcDbEntity
 67
     1
  8
0
100
AcDbDimension
280
     0
  2
*D48
 10
7.474322194388312
 20
6.367378327209144
 30
0.0
 11
5.347421307992105
 21
6.367378327209144
 31
0.0
 70
    32
 71
     5
 42
230.0
 73
     0
 74
     0
 75
     0
  3
Standard
100
AcDbAlignedDimension
 13
3.220520421595897
 23
5.348517778376189
 33
0.0
 14
7.474322194388312
 24
5.348517778376189
 34
0.0
100
AcDbRotatedDimension
1001
ACAD
1000
DSTYLE
1002
{
1070
   144
1040
-54.06928020743575
1002
}
1001
ACAD_DIMASSOC_CALC_DIMLFAC
1040
-54.06928020743575
1001
ACAD_DIMASSOC_DIMLFAC
1040
-54.06928020743575
1001
ACAD_DIMASSOC_OVERRIDDEN_DIMLFAC
1040
0.0
  0
DIMENSION
  5
564
102
{ACAD_REACTORS
330
566
102
}
102
{ACAD_XDICTIONARY
360
565
102
}
330
58
100
AcDbEntity
 67
     1
  8
0
100
AcDbDimension
280
     0
  2
*D49
 10
7.270879500906935
 20
6.155115979031006
 30
0.0
 11
5.347421307992104
 21
6.155115979031006
 31
0.0
 70
    32
 71
     5
 42
208.0
 73
     0
 74
     0
 75
     0
  3
Standard
100
AcDbAlignedDimension
 13
3.423963115077274
 23
5.330022988059701
 33
0.0
 14
7.270879500906935
 24
5.330022988059701
 34
0.0
100
AcDbRotatedDimension
1001
ACAD
1000
DSTYLE
1002
{
1070
   144
1040
-54.06928020743575
1002
}
1001
ACAD_DIMASSOC_CALC_DIMLFAC
1040
-54.06928020743575
1001
ACAD_DIMASSOC_DIMLFAC
1040
-54.06928020743575
1001
ACAD_DIMASSOC_OVERRIDDEN_DIMLFAC
1040
0.0
  0
DIMENSION
  5
574
102
{ACAD_REACTORS
330
576
102
}
102
{ACAD_XDICTIONARY
360
575
102
}
330
58
100
AcDbEntity
 67
     1
  8
0
100
AcDbDimension
280
     0
  2
*D50
 10
6.734530581728762
 20
5.936220432472302
 30
0.0
 11
5.347421307992104
 21
5.936220432472302
 31
0.0
 70
    32
 71
     5
 42
150.0
 73
     0
 74
     0
 75
     0
  3
Standard
100
AcDbAlignedDimension
 13
3.960312034255448
 23
4.331304310969308
 33
0.0
 14
6.734530581728762
 24
4.331304310969308
 34
0.0
100
AcDbRotatedDimension
1001
ACAD
1000
DSTYLE
1002
{
1070
   144
1040
-54.06928020743575
1002
}
1001
ACAD_DIMASSOC_CALC_DIMLFAC
1040
-54.06928020743575
1001
ACAD_DIMASSOC_DIMLFAC
1040
-54.06928020743575
1001
ACAD_DIMASSOC_OVERRIDDEN_DIMLFAC
1040
0.0
  0
DIMENSION
  5
584
102
{ACAD_REACTORS
330
586
102
}
102
{ACAD_XDICTIONARY
360
585
102
}
330
58
100
AcDbEntity
 67
     1
  8
0
100
AcDbDimension
280
     0
  2
*D51
 10
6.45710872698143
 20
3.203342699678783
 30
0.0
 11
5.347421307992105
 21
3.203342699678783
 31
0.0
 70
    32
 71
     5
 42
120.0
 73
     0
 74
     0
 75
     0
  3
Standard
100
AcDbAlignedDimension
 13
4.237733889002779
 23
3.776460601474646
 33
0.0
 14
6.45710872698143
 24
3.776460601474646
 34
0.0
100
AcDbRotatedDimension
1001
ACAD
1000
DSTYLE
1002
{
1070
   144
1040
-54.06928020743575
1002
}
1001
ACAD_DIMASSOC_CALC_DIMLFAC
1040
-54.06928020743575
1001
ACAD_DIMASSOC_DIMLFAC
1040
-54.06928020743575
1001
ACAD_DIMASSOC_OVERRIDDEN_DIMLFAC
1040
0.0
  0
DIMENSION
  5
594
102
{ACAD_REACTORS
330
596
102
}
102
{ACAD_XDICTIONARY
360
595
102
}
330
58
100
AcDbEntity
 67
     1
  8
0
100
AcDbDimension
280
     0
  2
*D52
 10
5.89196609645724
 20
2.666773182485321
 30
0.0
 11
5.89196609645724
 21
3.406564795144871
 31
0.0
 70
    32
 71
     5
 42
79.99999999999999
 73
     0
 74
     0
 75
     0
  3
Standard
100
AcDbAlignedDimension
 13
6.087212920651655
 23
4.146356407804421
 33
0.0
 14
6.087212920651655
 24
2.666773182485321
 34
0.0
 50
90.0
100
AcDbRotatedDimension
1001
ACAD
1000
DSTYLE
1002
{
1070
   144
1040
-54.06928020743575
1002
}
1001
ACAD_DIMASSOC_CALC_DIMLFAC
1040
-54.06928020743575
1001
ACAD_DIMASSOC_DIMLFAC
1040
-54.06928020743575
1001
ACAD_DIMASSOC_OVERRIDDEN_DIMLFAC
1040
0.0
  0
DIMENSION
  5
5A4
102
{ACAD_REACTORS
330
5A6
102
}
102
{ACAD_XDICTIONARY
360
5A5
102
}
330
58
100
AcDbEntity
 67
     1
  8
0
100
AcDbDimension
280
     0
  2
*D53
 10
5.56935879178997
 20
5.611193711824529
 30
0.0
 11
5.94675879178997
 21
5.611193711824529
 31
0.0
 70
    32
 71
     5
 42
24.00000000000003
 73
     0
 74
     0
 75
     0
  3
Standard
100
AcDbAlignedDimension
 13
5.125483824194239
 23
4.60872616571664
 33
0.0
 14
5.56935879178997
 24
4.60872616571664
 34
0.0
100
AcDbRotatedDimension
1001
ACAD
1000
DSTYLE
1002
{
1070
   144
1040
-54.06928020743575
1002
}
1001
ACAD_DIMASSOC_CALC_DIMLFAC
1040
-54.06928020743575
1001
ACAD_DIMASSOC_DIMLFAC
1040
-54.06928020743575
1001
ACAD_DIMASSOC_OVERRIDDEN_DIMLFAC
1040
0.0
  0
DIMENSION
  5
5B4
102
{ACAD_REACTORS
330
5B6
102
}
102
{ACAD_XDICTIONARY
360
5B5
102
}
330
58
100
AcDbEntity
 67
     1
  8
0
100
AcDbDimension
280
     0
  2
*D54
 10
5.458390049891037
 20
5.266267396035056
 30
0.0
 11
5.930240049891037
 21
5.266267396035056
 31
0.0
 70
    32
 71
     5
 42
11.99999999999997
 73
     0
 74
     0
 75
     0
  3
Standard
100
AcDbAlignedDimension
 13
5.236452566093172
 23
4.359046496444042
 33
0.0
 14
5.458390049891037
 24
4.359046496444042
 34
0.0
100
AcDbRotatedDimension
1001
ACAD
1000
DSTYLE
1002
{
1070
   144
1040
-54.06928020743575
1002
}
1001
ACAD_DIMASSOC_CALC_DIMLFAC
1040
-54.06928020743575
1001
ACAD_DIMASSOC_DIMLFAC
1040
-54.06928020743575
1001
ACAD_DIMASSOC_OVERRIDDEN_DIMLFAC
1040
0.0
  0
DIMENSION
  5
5C4
102
{ACAD_REACTORS
330
5C6
102
}
102
{ACAD_XDICTIONARY
360
5C5
102
}
330
58
100
AcDbEntity
 67
     1
  8
0
100
AcDbDimension
280
     0
  2
*D55
 10
9.07811141480802
 20
3.40656479514487
 30
0.0
 11
8.076078498076669
 21
4.042132814658542
 31
0.0
 70
   164
  1
<>
 71
     5
 42
122.634559672906
 73
     0
 74
     0
 75
     0
  3
Standard
100
AcDbRadialDimension
 15
7.162795676093058
 25
4.621408549748592
 35
0.0
 40
0.0
1001
ACAD_DSTYLE_DIMRADIAL_EXTENSION
1070
   387
1070
     1
1070
   388
1040
2.387933132760903
1070
   390
1040
3.895252174418683
1001
ACAD
1000
DSTYLE
1002
{
1070
   144
1040
-54.06928020743575
1002
}
1001
ACAD_DIMASSOC_CALC_DIMLFAC
1040
-54.06928020743575
1001
ACAD_DIMASSOC_DIMLFAC
1040
-54.06928020743575
1001
ACAD_DIMASSOC_OVERRIDDEN_DIMLFAC
1040
0.0
  0
DIMENSION
  5
5CF
102
{ACAD_REACTORS
330
5D1
102
}
102
{ACAD_XDICTIONARY
360
5D0
102
}
330
58
100
AcDbEntity
 67
     1
  8
0
100
AcDbDimension
280
     0
  2
*D56
 10
7.289374291223425
 20
1.464611811913551
 30
0.0
 11
8.087322575316186
 21
1.119709825314045
 31
0.0
 70
   164
  1
<>
 71
     5
 42
9.999999999999991
 73
     0
 74
     0
 75
     0
  3
Standard
100
AcDbRadialDimension
 15
7.45914217107184
 25
1.391232020030074
 35
0.0
 40
0.0
1001
ACAD_DSTYLE_DIMRADIAL_EXTENSION
1070
   387
1070
     1
1070
   388
1040
4.71238898038469
1070
   390
1040
0.0
1001
ACAD
1000
DSTYLE
1002
{
1070
   144
1040
-54.06928020743575
1002
}
1001
ACAD_DIMASSOC_CALC_DIMLFAC
1040
-54.06928020743575
1001
ACAD_DIMASSOC_DIMLFAC
1040
-54.06928020743575
1001
ACAD_DIMASSOC_OVERRIDDEN_DIMLFAC
1040
0.0
  0
DIMENSION
  5
5DC
102
{ACAD_REACTORS
330
5DE
102
}
102
{ACAD_XDICTIONARY
360
5DD
102
}
330
58
100
AcDbEntity
 67
     1
  8
0
100
AcDbDimension
280
     0
  2
*D57
 10
7.289374291223425
 20
1.727914799573067
 30
0.0
 11
8.100214125607035
 21
2.120021478626156
 31
0.0
 70
   164
  1
<>
 71
     5
 42
10.00000000000002
 73
     0
 74
     0
 75
     0
  3
Standard
100
AcDbRadialDimension
 15
7.455875786797336
 25
1.80843174720982
 35
0.0
 40
0.0
1001
ACAD_DSTYLE_DIMRADIAL_EXTENSION
1070
   387
1070
     1
1070
   388
1040
0.0
1070
   390
1040
0.7536595208288879
1001
ACAD
1000
DSTYLE
1002
{
1070
   144
1040
-54.06928020743575
1002
}
1001
ACAD_DIMASSOC_CALC_DIMLFAC
1040
-54.06928020743575
1001
ACAD_DIMASSOC_DIMLFAC
1040
-54.06928020743575
1001
ACAD_DIMASSOC_OVERRIDDEN_DIMLFAC
1040
0.0
  0
DIMENSION
  5
5E9
102
{ACAD_REACTORS
330
5EB
102
}
102
{ACAD_XDICTIONARY
360
5EA
102
}
330
58
100
AcDbEntity
 67
     1
  8
0
100
AcDbDimension
280
     0
  2
*D58
 10
4.607629695332554
 20
3.776460601474646
 30
0.0
 11
4.860559954541984
 21
3.589624513169837
 31
0.0
 70
   164
  1
<>
 71
     5
 42
19.99999999999999
 73
     0
 74
     0
 75
     0
  3
Standard
100
AcDbRadialDimension
 15
4.310105146260753
 25
3.996237875640961
 35
0.0
 40
0.0
1001
ACAD_DSTYLE_DIMRADIAL_EXTENSION
1070
   387
1070
     1
1070
   388
1040
1.570796326794897
1070
   390
1040
3.141592653589793
1001
ACAD
1000
DSTYLE
1002
{
1070
   144
1040
-54.06928020743575
1002
}
1001
ACAD_DIMASSOC_CALC_DIMLFAC
1040
-54.06928020743575
1001
ACAD_DIMASSOC_DIMLFAC
1040
-54.06928020743575
1001
ACAD_DIMASSOC_OVERRIDDEN_DIMLFAC
1040
0.0
  0
DIMENSION
  5
610
102
{ACAD_REACTORS
330
612
102
}
102
{ACAD_XDICTIONARY
360
611
102
}
330
58
100
AcDbEntity
 67
     1
  8
0
100
AcDbDimension
280
     0
  2
*D61
 10
5.532371568599878
 20
4.609143773295393
 30
0.0
 11
6.085215493428362
 21
4.60290183910939
 31
0.0
 70
   163
  1
<>
 71
     5
 42
3.999999999999956
 73
     0
 74
     0
 75
     0
  3
Standard
100
AcDbDiametricDimension
 15
5.606346014980062
 25
4.608308558137888
 35
0.0
 40
0.0
1001
ACAD_DSTYLE_DIMRADIAL_EXTENSION
1070
   387
1070
     1
1070
   388
1040
0.0
1070
   390
1040
6.283185307179586
1001
ACAD
1000
DSTYLE
1002
{
1070
   144
1040
-54.06928020743575
1002
}
1001
ACAD_DIMASSOC_CALC_DIMLFAC
1040
-54.06928020743575
1001
ACAD_DIMASSOC_DIMLFAC
1040
-54.06928020743575
1001
ACAD_DIMASSOC_OVERRIDDEN_DIMLFAC
1040
0.0
  0
DIMENSION
  5
61B
102
{ACAD_REACTORS
330
61D
102
}
102
{ACAD_XDICTIONARY
360
61C
102
}
330
58
100
AcDbEntity
 67
     1
  8
0
100
AcDbDimension
280
     0
  2
*D62
 10
5.430648003278246
 20
4.331392087094943
 30
0.0
 11
5.965029699396931
 21
4.32970129781937
 31
0.0
 70
   163
  1
<>
 71
     5
 42
3.0
 73
     0
 74
     0
 75
     0
  3
Standard
100
AcDbDiametricDimension
 15
5.486132096503828
 25
4.331216534843674
 35
0.0
 40
0.0
1001
ACAD_DSTYLE_DIMRADIAL_EXTENSION
1070
   387
1070
     1
1070
   388
1040
0.0
1070
   390
1040
6.283185307179586
1001
ACAD
1000
DSTYLE
1002
{
1070
   144
1040
-54.06928020743575
1002
}
1001
ACAD_DIMASSOC_CALC_DIMLFAC
1040
-54.06928020743575
1001
ACAD_DIMASSOC_DIMLFAC
1040
-54.06928020743575
1001
ACAD_DIMASSOC_OVERRIDDEN_DIMLFAC
1040
0.0
  0
DIMENSION
  5
626
102
{ACAD_REACTORS
330
628
102
}
102
{ACAD_XDICTIONARY
360
627
102
}
330
58
100
AcDbEntity
 67
     1
  8
0
100
AcDbDimension
280
     0
  2
*D63
 10
7.243137433810166
 20
5.330104031954059
 30
0.0
 11
7.777519524501882
 21
5.328542922410425
 31
0.0
 70
   163
  1
<>
 71
     5
 42
2.999999999999997
 73
     0
 74
     0
 75
     0
  3
Standard
100
AcDbDiametricDimension
 15
7.298621568003705
 25
5.329941944165343
 35
0.0
 40
0.0
1001
ACAD_DSTYLE_DIMRADIAL_EXTENSION
1070
   387
1070
     1
1070
   388
1040
0.0
1070
   390
1040
6.283185307179586
1001
ACAD
1000
DSTYLE
1002
{
1070
   144
1040
-54.06928020743575
1002
}
1001
ACAD_DIMASSOC_CALC_DIMLFAC
1040
-54.06928020743575
1001
ACAD_DIMASSOC_DIMLFAC
1040
-54.06928020743575
1001
ACAD_DIMASSOC_OVERRIDDEN_DIMLFAC
1040
0.0
  0
DIMENSION
  5
631
102
{ACAD_REACTORS
330
633
102
}
102
{ACAD_XDICTIONARY
360
632
102
}
330
58
100
AcDbEntity
 67
     1
  8
0
100
AcDbDimension
280
     0
  2
*D64
 10
3.932569895805999
 20
4.331355390966217
 30
0.0
 11
4.466953360930047
 21
4.33037146156235
 31
0.0
 70
   163
  1
<>
 71
     5
 42
2.999999999999992
 73
     0
 74
     0
 75
     0
  3
Standard
100
AcDbDiametricDimension
 15
3.988054172704897
 25
4.3312532309724
 35
0.0
 40
0.0
1001
ACAD_DSTYLE_DIMRADIAL_EXTENSION
1070
   387
1070
     1
1070
   388
1040
0.0
1070
   390
1040
6.283185307179586
1001
ACAD
1000
DSTYLE
1002
{
1070
   144
1040
-54.06928020743575
1002
}
1001
ACAD_DIMASSOC_CALC_DIMLFAC
1040
-54.06928020743575
1001
ACAD_DIMASSOC_DIMLFAC
1040
-54.06928020743575
1001
ACAD_DIMASSOC_OVERRIDDEN_DIMLFAC
1040
0.0
  0
MTEXT
  5
63C
330
58
100
AcDbEntity
 67
     1
  8
0
100
AcDbMText
 10
5.853579794073418
 20
1.135433333333333
 30
0.0
 40
0.1
 41
3.596420205926581
 46
0.3354333333333334
 71
     1
 72
     1
  1
{Drawn: Simon Holmes 25-Dec-2012\PFile PrinterPlate3}
 73
     1
 44
1.0
1001
ACAD
1000
ACAD_MTEXT_DEFINED_HEIGHT_BEGIN
1070
    46
1040
0.3354333333333334
1000
ACAD_MTEXT_DEFINED_HEIGHT_END
  0
VIEWPORT
  5
644
330
58
100
AcDbEntity
 67
     1
  8
0
100
AcDbViewport
 10
184.5092657877711
 20
7.897841649684111
 30
0.0
 40
250.6979310753517
 41
56.12907898897359
 68
     3
 69
     3
 12
115.0
 22
115.0
 13
0.0
 23
0.0
 14
0.5
 24
0.5
 15
0.5
 25
0.5
 16
0.0
 26
0.0
 36
1.0
 17
0.0
 27
0.0
 37
0.0
 42
50.0
 43
0.0
 44
0.0
 45
234.5999999999999
 50
0.0
 51
0.0
 72
   100
 90
   557152
  1

281
     0
 71
     1
 74
     0
110
0.0
120
0.0
130
0.0
111
1.0
121
0.0
131
0.0
112
0.0
122
1.0
132
0.0
 79
     0
146
0.0
170
     0
 61
     5
292
     1
282
     1
141
0.0
142
0.0
 63
   256
  0
VIEWPORT
  5
645
330
58
100
AcDbEntity
 67
     1
  8
0
100
AcDbViewport
 10
184.5092657877711
 20
64.0269206386577
 30
0.0
 40
250.6979310753517
 41
56.12907898897359
 68
     4
 69
     4
 12
115.0
 22
115.0
 13
0.0
 23
0.0
 14
0.5
 24
0.5
 15
0.5
 25
0.5
 16
0.0
 26
0.0
 36
1.0
 17
0.0
 27
0.0
 37
0.0
 42
50.0
 43
0.0
 44
0.0
 45
234.5999999999999
 50
0.0
 51
0.0
 72
   100
 90
   557152
  1

281
     0
 71
     1
 74
     0
110
0.0
120
0.0
130
0.0
111
1.0
121
0.0
131
0.0
112
0.0
122
1.0
132
0.0
 79
     0
146
0.0
170
     0
 61
     5
292
     1
282
     1
141
0.0
142
0.0
 63
   256
  0
ENDSEC
  0
SECTION
  2
OBJECTS
  0
DICTIONARY
  5
C
330
0
100
AcDbDictionary
281
     1
  3
ACAD_COLOR
350
73
  3
ACAD_GROUP
350
D
  3
ACAD_IMAGE_DICT
350
4AB
  3
ACAD_IMAGE_VARS
350
DC
  3
ACAD_LAYOUT
350
1A
  3
ACAD_MATERIAL
350
72
  3
ACAD_MLEADERSTYLE
350
B5
  3
ACAD_MLINESTYLE
350
17
  3
ACAD_PLOTSETTINGS
350
19
  3
ACAD_PLOTSTYLENAME
350
E
  3
ACAD_SCALELIST
350
B6
  3
ACAD_TABLESTYLE
350
86
  3
ACAD_VISUALSTYLE
350
99
  3
ACDB_RECOMPOSE_DATA
350
649
  3
AcDbVariableDictionary
350
66
  3
APPDATA
350
E3
  0
IMAGEDEF_REACTOR
  5
4AE
330
4AD
100
AcDbRasterImageDefReactor
 90
        2
330
4AD
  0
DICTIONARY
  5
500
330
4FF
100
AcDbDictionary
280
     1
281
     1
  3
ACAD_DIMASSOC
360
501
  0
DICTIONARY
  5
513
330
512
100
AcDbDictionary
280
     1
281
     1
  3
ACAD_DIMASSOC
360
514
  0
DICTIONARY
  5
523
330
522
100
AcDbDictionary
280
     1
281
     1
  3
ACAD_DIMASSOC
360
524
  0
DICTIONARY
  5
535
330
534
100
AcDbDictionary
280
     1
281
     1
  3
ACAD_DIMASSOC
360
536
  0
DICTIONARY
  5
545
330
544
100
AcDbDictionary
280
     1
281
     1
  3
ACAD_DIMASSOC
360
546
  0
DICTIONARY
  5
555
330
554
100
AcDbDictionary
280
     1
281
     1
  3
ACAD_DIMASSOC
360
556
  0
DICTIONARY
  5
565
330
564
100
AcDbDictionary
280
     1
281
     1
  3
ACAD_DIMASSOC
360
566
  0
DICTIONARY
  5
575
330
574
100
AcDbDictionary
280
     1
281
     1
  3
ACAD_DIMASSOC
360
576
  0
DICTIONARY
  5
585
330
584
100
AcDbDictionary
280
     1
281
     1
  3
ACAD_DIMASSOC
360
586
  0
DICTIONARY
  5
595
330
594
100
AcDbDictionary
280
     1
281
     1
  3
ACAD_DIMASSOC
360
596
  0
DICTIONARY
  5
5A5
330
5A4
100
AcDbDictionary
280
     1
281
     1
  3
ACAD_DIMASSOC
360
5A6
  0
DICTIONARY
  5
5B5
330
5B4
100
AcDbDictionary
280
     1
281
     1
  3
ACAD_DIMASSOC
360
5B6
  0
DICTIONARY
  5
5C5
330
5C4
100
AcDbDictionary
280
     1
281
     1
  3
ACAD_DIMASSOC
360
5C6
  0
DICTIONARY
  5
5D0
330
5CF
100
AcDbDictionary
280
     1
281
     1
  3
ACAD_DIMASSOC
360
5D1
  0
DICTIONARY
  5
5DD
330
5DC
100
AcDbDictionary
280
     1
281
     1
  3
ACAD_DIMASSOC
360
5DE
  0
DICTIONARY
  5
5EA
330
5E9
100
AcDbDictionary
280
     1
281
     1
  3
ACAD_DIMASSOC
360
5EB
  0
DICTIONARY
  5
611
330
610
100
AcDbDictionary
280
     1
281
     1
  3
ACAD_DIMASSOC
360
612
  0
DICTIONARY
  5
61C
330
61B
100
AcDbDictionary
280
     1
281
     1
  3
ACAD_DIMASSOC
360
61D
  0
DICTIONARY
  5
627
330
626
100
AcDbDictionary
280
     1
281
     1
  3
ACAD_DIMASSOC
360
628
  0
DICTIONARY
  5
632
330
631
100
AcDbDictionary
280
     1
281
     1
  3
ACAD_DIMASSOC
360
633
  0
DICTIONARY
  5
73
102
{ACAD_REACTORS
330
C
102
}
330
C
100
AcDbDictionary
281
     1
  0
DICTIONARY
  5
D
102
{ACAD_REACTORS
330
C
102
}
330
C
100
AcDbDictionary
281
     1
  0
DICTIONARY
  5
4AB
102
{ACAD_REACTORS
330
C
102
}
330
C
100
AcDbDictionary
281
     1
  3
R3DWOOD Logo2small
350
4AC
  0
RASTERVARIABLES
  5
DC
102
{ACAD_REACTORS
330
C
102
}
330
C
100
AcDbRasterVariables
 90
        0
 70
     1
 71
     1
 72
     5
  0
DICTIONARY
  5
1A
102
{ACAD_REACTORS
330
C
102
}
330
C
100
AcDbDictionary
281
     1
  3
Model
350
22
  3
Sheet1
350
59
  3
Sheet2
350
5E
  0
DICTIONARY
  5
72
102
{ACAD_REACTORS
330
C
102
}
330
C
100
AcDbDictionary
281
     1
  3
ByBlock
350
E4
  3
ByLayer
350
96
  3
Global
350
98
  0
DICTIONARY
  5
B5
102
{ACAD_REACTORS
330
C
102
}
330
C
100
AcDbDictionary
281
     1
  0
DICTIONARY
  5
17
102
{ACAD_REACTORS
330
C
102
}
330
C
100
AcDbDictionary
281
     1
  3
Standard
350
18
  0
DICTIONARY
  5
19
102
{ACAD_REACTORS
330
C
102
}
330
C
100
AcDbDictionary
281
     1
  0
ACDBDICTIONARYWDFLT
  5
E
102
{ACAD_REACTORS
330
C
102
}
330
C
100
AcDbDictionary
281
     1
  3
Normal
350
F
100
AcDbDictionaryWithDefault
340
F
  0
DICTIONARY
  5
B6
102
{ACAD_REACTORS
330
C
102
}
330
C
100
AcDbDictionary
281
     1
  3
A0
350
B7
  3
A1
350
B8
  3
A2
350
B9
  3
A3
350
BA
  3
A4
350
BB
  3
A5
350
BC
  3
A6
350
BD
  3
A7
350
BE
  3
A8
350
BF
  3
A9
350
C0
  3
B0
350
C1
  3
B1
350
C2
  3
B2
350
C3
  3
B3
350
C4
  3
B4
350
C5
  3
B5
350
C6
  3
B6
350
C7
  3
B7
350
C8
  3
B8
350
C9
  3
B9
350
CA
  3
C0
350
CB
  3
C1
350
CC
  3
C2
350
CD
  3
C3
350
CE
  3
C4
350
CF
  3
C5
350
D0
  3
C6
350
D1
  3
C7
350
D2
  3
C8
350
D3
  3
C9
350
D4
  3
D0
350
D5
  3
D1
350
D6
  3
D2
350
D7
  0
DICTIONARY
  5
86
102
{ACAD_REACTORS
330
C
102
}
330
C
100
AcDbDictionary
281
     1
  3
Standard
350
87
  0
DICTIONARY
  5
99
102
{ACAD_REACTORS
330
C
102
}
330
C
100
AcDbDictionary
281
     1
  3
2dWireframe
350
9F
  3
3D Hidden
350
A1
  3
3dWireframe
350
A0
  3
Basic
350
9E
  3
Brighten
350
A5
  3
ColorChange
350
A9
  3
Conceptual
350
A2
  3
Dim
350
A4
  3
Facepattern
350
A8
  3
Flat
350
9A
  3
FlatWithEdges
350
9B
  3
Gouraud
350
9C
  3
GouraudWithEdges
350
9D
  3
Linepattern
350
A7
  3
Realistic
350
A3
  3
Thicken
350
A6
  0
XRECORD
  5
649
102
{ACAD_REACTORS
330
C
102
}
330
C
100
AcDbXrecord
280
     1
 90
        1
330
87
  0
DICTIONARY
  5
66
102
{ACAD_REACTORS
330
C
102
}
330
C
100
AcDbDictionary
281
     1
  3
CANNOSCALE
350
D8
  3
CTABLESTYLE
350
89
  3
DIMASSOC
350
67
  3
HIDETEXT
350
6B
  3
LIGHTSINBLOCKS
350
DF
  3
XCLIPFRAME
350
E0
  0
DICTIONARY
  5
E3
102
{ACAD_REACTORS
330
C
102
}
330
C
100
AcDbDictionary
281
     1
  0
DIMASSOC
  5
501
102
{ACAD_REACTORS
330
500
102
}
330
500
100
AcDbDimAssoc
330
4FF
 90
        3
 70
     1
 71
     1
  1
AcDbOsnapPointRef
 72
    13
331
4AA
331
162
 73
     0
 91
        0
 40
0.0
 10
0.0
 20
0.0
 30
0.0
 75
     0
  1
AcDbOsnapPointRef
 72
     1
331
4AA
331
2DA
 73
     0
 91
        0
 40
0.0
 10
0.0
 20
0.0
 30
0.0
 75
     0
  0
DIMASSOC
  5
514
102
{ACAD_REACTORS
330
513
102
}
330
513
100
AcDbDimAssoc
330
512
 90
        3
 70
     1
 71
     1
  1
AcDbOsnapPointRef
 72
     3
331
4AA
331
FA
 73
     0
 91
        0
 40
0.0
 10
0.0
 20
0.0
 30
0.0
 75
     0
  1
AcDbOsnapPointRef
 72
     3
331
4AA
331
FD
 73
     0
 91
        0
 40
0.0
 10
0.0
 20
0.0
 30
0.0
 75
     0
  0
DIMASSOC
  5
524
102
{ACAD_REACTORS
330
523
102
}
330
523
100
AcDbDimAssoc
330
522
 90
        3
 70
     1
 71
     1
  1
AcDbOsnapPointRef
 72
     3
331
4AA
331
293
 73
     0
 91
        0
 40
0.0
 10
0.0
 20
0.0
 30
0.0
 75
     0
  1
AcDbOsnapPointRef
 72
     3
331
4AA
331
2D3
 73
     0
 91
        0
 40
0.0
 10
0.0
 20
0.0
 30
0.0
 75
     0
  0
DIMASSOC
  5
536
102
{ACAD_REACTORS
330
535
102
}
330
535
100
AcDbDimAssoc
330
534
 90
        3
 70
     1
 71
     1
  1
AcDbOsnapPointRef
 72
     3
331
4AA
331
1B1
 73
     0
 91
        0
 40
0.0
 10
0.0
 20
0.0
 30
0.0
 75
     0
  1
AcDbOsnapPointRef
 72
     3
331
4AA
331
20B
 73
     0
 91
        0
 40
0.0
 10
0.0
 20
0.0
 30
0.0
 75
     0
  0
DIMASSOC
  5
546
102
{ACAD_REACTORS
330
545
102
}
330
545
100
AcDbDimAssoc
330
544
 90
        3
 70
     1
 71
     1
  1
AcDbOsnapPointRef
 72
    13
331
4AA
331
3D3
 73
     2
 91
        3
 40
0.0
 10
0.0
 20
0.0
 30
0.0
 75
     0
  1
AcDbOsnapPointRef
 72
     1
331
4AA
331
3D3
 73
     2
 91
        7
 40
1.0
 10
0.0
 20
0.0
 30
0.0
 75
     0
  0
DIMASSOC
  5
556
102
{ACAD_REACTORS
330
555
102
}
330
555
100
AcDbDimAssoc
330
554
 90
        3
 70
     1
 71
     1
  1
AcDbOsnapPointRef
 72
     1
331
4AA
331
162
 73
     0
 91
        0
 40
0.0
 10
0.0
 20
0.0
 30
0.0
 75
     0
  1
AcDbOsnapPointRef
 72
    13
331
4AA
331
160
 73
     0
 91
        0
 40
0.0
 10
0.0
 20
0.0
 30
0.0
 75
     0
  0
DIMASSOC
  5
566
102
{ACAD_REACTORS
330
565
102
}
330
565
100
AcDbDimAssoc
330
564
 90
        3
 70
     1
 71
     1
  1
AcDbOsnapPointRef
 72
     3
331
4AA
331
FA
 73
     0
 91
        0
 40
0.0
 10
0.0
 20
0.0
 30
0.0
 75
     0
  1
AcDbOsnapPointRef
 72
     3
331
4AA
331
FB
 73
     0
 91
        0
 40
0.0
 10
0.0
 20
0.0
 30
0.0
 75
     0
  0
DIMASSOC
  5
576
102
{ACAD_REACTORS
330
575
102
}
330
575
100
AcDbDimAssoc
330
574
 90
        3
 70
     1
 71
     1
  1
AcDbOsnapPointRef
 72
     3
331
4AA
331
1B1
 73
     0
 91
        0
 40
0.0
 10
0.0
 20
0.0
 30
0.0
 75
     0
  1
AcDbOsnapPointRef
 72
     3
331
4AA
331
1CF
 73
     0
 91
        0
 40
0.0
 10
0.0
 20
0.0
 30
0.0
 75
     0
  0
DIMASSOC
  5
586
102
{ACAD_REACTORS
330
585
102
}
330
585
100
AcDbDimAssoc
330
584
 90
        3
 70
     1
 71
     1
  1
AcDbOsnapPointRef
 72
     1
331
4AA
331
3D3
 73
     2
 91
        1
 40
1.0
 10
0.0
 20
0.0
 30
0.0
 75
     0
  1
AcDbOsnapPointRef
 72
     1
331
4AA
331
3D3
 73
     2
 91
        4
 40
0.0
 10
0.0
 20
0.0
 30
0.0
 75
     0
  0
DIMASSOC
  5
596
102
{ACAD_REACTORS
330
595
102
}
330
595
100
AcDbDimAssoc
330
594
 90
        3
 70
     1
 71
     1
  1
AcDbOsnapPointRef
 72
     1
331
4AA
331
3D3
 73
     2
 91
        3
 40
1.0
 10
0.0
 20
0.0
 30
0.0
 75
     0
  1
AcDbOsnapPointRef
 72
     1
331
4AA
331
3D3
 73
     2
 91
        6
 40
0.0
 10
0.0
 20
0.0
 30
0.0
 75
     0
  0
DIMASSOC
  5
5A6
102
{ACAD_REACTORS
330
5A5
102
}
330
5A5
100
AcDbDimAssoc
330
5A4
 90
        3
 70
     1
 71
     1
  1
AcDbOsnapPointRef
 72
     3
331
4AA
331
293
 73
     0
 91
        0
 40
0.0
 10
0.0
 20
0.0
 30
0.0
 75
     0
  1
AcDbOsnapPointRef
 72
     3
331
4AA
331
2B1
 73
     0
 91
        0
 40
0.0
 10
0.0
 20
0.0
 30
0.0
 75
     0
  0
DIMASSOC
  5
5B6
102
{ACAD_REACTORS
330
5B5
102
}
330
5B5
100
AcDbDimAssoc
330
5B4
 90
        3
 70
     1
 71
     1
  1
AcDbOsnapPointRef
 72
     5
331
4AA
331
248
 73
     0
 91
        0
 40
1.570796326794897
 10
0.0
 20
0.0
 30
0.0
 75
     0
  1
AcDbOsnapPointRef
 72
     5
331
4AA
331
22A
 73
     0
 91
        0
 40
1.570796326794935
 10
0.0
 20
0.0
 30
0.0
 75
     0
  0
DIMASSOC
  5
5C6
102
{ACAD_REACTORS
330
5C5
102
}
330
5C5
100
AcDbDimAssoc
330
5C4
 90
        2
 70
     1
 71
     1
  1
AcDbOsnapPointRef
 72
     3
331
4AA
331
28F
 73
     0
 91
        0
 40
0.0
 10
0.0
 20
0.0
 30
0.0
 75
     0
  0
DIMASSOC
  5
5D1
102
{ACAD_REACTORS
330
5D0
102
}
330
5D0
100
AcDbDimAssoc
330
5CF
 90
        2
 70
     1
 71
     1
  1
AcDbOsnapPointRef
 72
     3
331
4AA
331
164
 73
     0
 91
        0
 40
0.0
 10
0.0
 20
0.0
 30
0.0
 75
     0
  0
DIMASSOC
  5
5DE
102
{ACAD_REACTORS
330
5DD
102
}
330
5DD
100
AcDbDimAssoc
330
5DC
 90
        2
 70
     1
 71
     1
  1
AcDbOsnapPointRef
 72
     3
331
4AA
331
2E2
 73
     0
 91
        0
 40
0.0
 10
0.0
 20
0.0
 30
0.0
 75
     0
  0
DIMASSOC
  5
5EB
102
{ACAD_REACTORS
330
5EA
102
}
330
5EA
100
AcDbDimAssoc
330
5E9
 90
        2
 70
     1
 71
     1
  1
AcDbOsnapPointRef
 72
     3
331
4AA
331
3D3
 73
     2
 91
        2
 40
0.0
 10
0.0
 20
0.0
 30
0.0
 75
     0
  0
DIMASSOC
  5
612
102
{ACAD_REACTORS
330
611
102
}
330
611
100
AcDbDimAssoc
330
610
 90
        2
 70
     1
 71
     1
  1
AcDbOsnapPointRef
 72
     3
331
4AA
331
2B1
 73
     0
 91
        0
 40
0.0
 10
0.0
 20
0.0
 30
0.0
 75
     0
  0
DIMASSOC
  5
61D
102
{ACAD_REACTORS
330
61C
102
}
330
61C
100
AcDbDimAssoc
330
61B
 90
        2
 70
     1
 71
     1
  1
AcDbOsnapPointRef
 72
     3
331
4AA
331
22A
 73
     0
 91
        0
 40
0.0
 10
0.0
 20
0.0
 30
0.0
 75
     0
  0
DIMASSOC
  5
628
102
{ACAD_REACTORS
330
627
102
}
330
627
100
AcDbDimAssoc
330
626
 90
        2
 70
     1
 71
     1
  1
AcDbOsnapPointRef
 72
     3
331
4AA
331
FB
 73
     0
 91
        0
 40
0.0
 10
0.0
 20
0.0
 30
0.0
 75
     0
  0
DIMASSOC
  5
633
102
{ACAD_REACTORS
330
632
102
}
330
632
100
AcDbDimAssoc
330
631
 90
        2
 70
     1
 71
     1
  1
AcDbOsnapPointRef
 72
     3
331
4AA
331
1B1
 73
     0
 91
        0
 40
0.0
 10
0.0
 20
0.0
 30
0.0
 75
     0
  0
IMAGEDEF
  5
4AC
102
{ACAD_REACTORS
330
4AB
330
4AE
102
}
330
4AB
100
AcDbRasterImageDef
 90
        0
  1
C:/Users/Simon/Dropbox/SimonShare/R3DWOOD Logo2small.png
 10
286.0
 20
97.0
 11
0.003496503496503497
 21
0.003496503496503497
280
     1
281
     0
  0
LAYOUT
  5
22
102
{ACAD_REACTORS
330
1A
102
}
330
1A
100
AcDbPlotSettings
  1

  2
none_device
  4
ANSI_A_(8.50_x_11.00_Inches)
  6

 40
6.35
 41
19.05
 42
6.35
 43
19.05
 44
215.9
 45
279.4
 46
11.11250000000003
 47
0.0000000000000142
 48
0.0
 49
0.0
140
0.0
141
0.0
142
1.0
143
1.263157894736842
 70
 11444
 72
     0
 73
     1
 74
     1
  7
monochrome.ctb
 75
     0
 76
     0
 77
     2
 78
   300
147
0.7916666666666665
148
-702.8076765758875
149
-496.2830551296954
100
AcDbLayout
  1
Model
 70
     1
 71
     0
 10
-108.5
 20
-121.0
 11
383.5
 21
323.0
 12
0.0
 22
0.0
 32
0.0
 14
0.0
 24
0.0
 34
0.0
 15
230.0
 25
229.9999999999999
 35
0.0
146
0.0
 13
0.0
 23
0.0
 33
0.0
 16
1.0
 26
0.0
 36
0.0
 17
0.0
 27
1.0
 37
0.0
 76
     0
330
1F
331
94
  0
LAYOUT
  5
59
102
{ACAD_REACTORS
330
1A
102
}
330
1A
100
AcDbPlotSettings
  1

  2
none_device
  4
Letter_(8.50_x_11.00_Inches)
  6

 40
6.35
 41
6.35
 42
6.35
 43
6.35
 44
215.9
 45
279.4
 46
0.0
 47
0.0
 48
0.0
 49
0.0
140
0.0
141
0.0
142
1.0
143
1.0
 70
   688
 72
     0
 73
     1
 74
     5
  7

 75
    16
 76
     0
 77
     2
 78
   300
147
1.0
148
0.0
149
0.0
100
AcDbLayout
  1
Sheet1
 70
     1
 71
     1
 10
-0.25
 20
-0.25
 11
10.75
 21
8.25
 12
0.0
 22
0.0
 32
0.0
 14
1.05
 24
-20.16669784480268
 34
0.0
 15
309.8582313254469
 25
92.0914601331445
 35
0.0
146
0.0
 13
0.0
 23
0.0
 33
0.0
 16
1.0
 26
0.0
 36
0.0
 17
0.0
 27
1.0
 37
0.0
 76
     0
330
58
331
4AA
  0
LAYOUT
  5
5E
102
{ACAD_REACTORS
330
1A
102
}
330
1A
100
AcDbPlotSettings
  1

  2
none_device
  4
Letter_(8.50_x_11.00_Inches)
  6

 40
6.35
 41
6.35
 42
6.35
 43
6.35
 44
215.9
 45
279.4
 46
0.0
 47
0.0
 48
0.0
 49
0.0
140
0.0
141
0.0
142
1.0
143
1.0
 70
   688
 72
     0
 73
     1
 74
     5
  7

 75
    16
 76
     0
 77
     2
 78
   300
147
1.0
148
0.0
149
0.0
100
AcDbLayout
  1
Sheet2
 70
     1
 71
     2
 10
-0.25
 20
-0.25
 11
10.75
 21
8.25
 12
0.0
 22
0.0
 32
0.0
 14
-30.12835885484726
 24
0.7999999999999998
 34
0.0
 15
9.45
 25
16.79571005856053
 35
0.0
146
0.0
 13
0.0
 23
0.0
 33
0.0
 16
1.0
 26
0.0
 36
0.0
 17
0.0
 27
1.0
 37
0.0
 76
     0
330
5D
331
4C2
  0
MATERIAL
  5
E4
102
{ACAD_REACTORS
330
72
102
}
330
72
100
AcDbMaterial
  1
ByBlock
 72
     1
 94
      127
  0
MATERIAL
  5
96
102
{ACAD_REACTORS
330
72
102
}
330
72
100
AcDbMaterial
  1
ByLayer
 72
     1
 94
       63
  0
MATERIAL
  5
98
102
{ACAD_REACTORS
330
72
102
}
330
72
100
AcDbMaterial
  1
Global
 72
     1
 94
       63
  0
MLINESTYLE
  5
18
102
{ACAD_REACTORS
330
17
102
}
330
17
100
AcDbMlineStyle
  2
STANDARD
 70
     0
  3

 62
   256
 51
90.0
 52
90.0
 71
     2
 49
0.5
 62
   256
  6
BYLAYER
 49
-0.5
 62
   256
  6
BYLAYER
  0
ACDBPLACEHOLDER
  5
F
102
{ACAD_REACTORS
330
E
102
}
330
E
  0
SCALE
  5
B7
102
{ACAD_REACTORS
330
B6
102
}
330
B6
100
AcDbScale
 70
     0
300
1:1
140
1.0
141
1.0
290
     1
  0
SCALE
  5
B8
102
{ACAD_REACTORS
330
B6
102
}
330
B6
100
AcDbScale
 70
     0
300
1:2
140
1.0
141
2.0
290
     0
  0
SCALE
  5
B9
102
{ACAD_REACTORS
330
B6
102
}
330
B6
100
AcDbScale
 70
     0
300
1:4
140
1.0
141
4.0
290
     0
  0
SCALE
  5
BA
102
{ACAD_REACTORS
330
B6
102
}
330
B6
100
AcDbScale
 70
     0
300
1:5
140
1.0
141
5.0
290
     0
  0
SCALE
  5
BB
102
{ACAD_REACTORS
330
B6
102
}
330
B6
100
AcDbScale
 70
     0
300
1:8
140
1.0
141
8.0
290
     0
  0
SCALE
  5
BC
102
{ACAD_REACTORS
330
B6
102
}
330
B6
100
AcDbScale
 70
     0
300
1:10
140
1.0
141
10.0
290
     0
  0
SCALE
  5
BD
102
{ACAD_REACTORS
330
B6
102
}
330
B6
100
AcDbScale
 70
     0
300
1:16
140
1.0
141
16.0
290
     0
  0
SCALE
  5
BE
102
{ACAD_REACTORS
330
B6
102
}
330
B6
100
AcDbScale
 70
     0
300
1:20
140
1.0
141
20.0
290
     0
  0
SCALE
  5
BF
102
{ACAD_REACTORS
330
B6
102
}
330
B6
100
AcDbScale
 70
     0
300
1:30
140
1.0
141
30.0
290
     0
  0
SCALE
  5
C0
102
{ACAD_REACTORS
330
B6
102
}
330
B6
100
AcDbScale
 70
     0
300
1:40
140
1.0
141
40.0
290
     0
  0
SCALE
  5
C1
102
{ACAD_REACTORS
330
B6
102
}
330
B6
100
AcDbScale
 70
     0
300
1:50
140
1.0
141
50.0
290
     0
  0
SCALE
  5
C2
102
{ACAD_REACTORS
330
B6
102
}
330
B6
100
AcDbScale
 70
     0
300
1:100
140
1.0
141
100.0
290
     0
  0
SCALE
  5
C3
102
{ACAD_REACTORS
330
B6
102
}
330
B6
100
AcDbScale
 70
     0
300
2:1
140
2.0
141
1.0
290
     0
  0
SCALE
  5
C4
102
{ACAD_REACTORS
330
B6
102
}
330
B6
100
AcDbScale
 70
     0
300
4:1
140
4.0
141
1.0
290
     0
  0
SCALE
  5
C5
102
{ACAD_REACTORS
330
B6
102
}
330
B6
100
AcDbScale
 70
     0
300
8:1
140
8.0
141
1.0
290
     0
  0
SCALE
  5
C6
102
{ACAD_REACTORS
330
B6
102
}
330
B6
100
AcDbScale
 70
     0
300
10:1
140
10.0
141
1.0
290
     0
  0
SCALE
  5
C7
102
{ACAD_REACTORS
330
B6
102
}
330
B6
100
AcDbScale
 70
     0
300
100:1
140
100.0
141
1.0
290
     0
  0
SCALE
  5
C8
102
{ACAD_REACTORS
330
B6
102
}
330
B6
100
AcDbScale
 70
     0
300
1/128" = 1'-0"
140
0.0078125
141
12.0
290
     0
  0
SCALE
  5
C9
102
{ACAD_REACTORS
330
B6
102
}
330
B6
100
AcDbScale
 70
     0
300
1/64" = 1'-0"
140
0.015625
141
12.0
290
     0
  0
SCALE
  5
CA
102
{ACAD_REACTORS
330
B6
102
}
330
B6
100
AcDbScale
 70
     0
300
1/32" = 1'-0"
140
0.03125
141
12.0
290
     0
  0
SCALE
  5
CB
102
{ACAD_REACTORS
330
B6
102
}
330
B6
100
AcDbScale
 70
     0
300
1/16" = 1'-0"
140
0.0625
141
12.0
290
     0
  0
SCALE
  5
CC
102
{ACAD_REACTORS
330
B6
102
}
330
B6
100
AcDbScale
 70
     0
300
3/32" = 1'-0"
140
0.09375
141
12.0
290
     0
  0
SCALE
  5
CD
102
{ACAD_REACTORS
330
B6
102
}
330
B6
100
AcDbScale
 70
     0
300
1/8" = 1'-0"
140
0.125
141
12.0
290
     0
  0
SCALE
  5
CE
102
{ACAD_REACTORS
330
B6
102
}
330
B6
100
AcDbScale
 70
     0
300
3/16" = 1'-0"
140
0.1875
141
12.0
290
     0
  0
SCALE
  5
CF
102
{ACAD_REACTORS
330
B6
102
}
330
B6
100
AcDbScale
 70
     0
300
1/4" = 1'-0"
140
0.25
141
12.0
290
     0
  0
SCALE
  5
D0
102
{ACAD_REACTORS
330
B6
102
}
330
B6
100
AcDbScale
 70
     0
300
3/8" = 1'-0"
140
0.375
141
12.0
290
     0
  0
SCALE
  5
D1
102
{ACAD_REACTORS
330
B6
102
}
330
B6
100
AcDbScale
 70
     0
300
1/2" = 1'-0"
140
0.5
141
12.0
290
     0
  0
SCALE
  5
D2
102
{ACAD_REACTORS
330
B6
102
}
330
B6
100
AcDbScale
 70
     0
300
3/4" = 1'-0"
140
0.75
141
12.0
290
     0
  0
SCALE
  5
D3
102
{ACAD_REACTORS
330
B6
102
}
330
B6
100
AcDbScale
 70
     0
300
1" = 1'-0"
140
1.0
141
12.0
290
     0
  0
SCALE
  5
D4
102
{ACAD_REACTORS
330
B6
102
}
330
B6
100
AcDbScale
 70
     0
300
1-1/2" = 1'-0"
140
1.5
141
12.0
290
     0
  0
SCALE
  5
D5
102
{ACAD_REACTORS
330
B6
102
}
330
B6
100
AcDbScale
 70
     0
300
3" = 1'-0"
140
3.0
141
12.0
290
     0
  0
SCALE
  5
D6
102
{ACAD_REACTORS
330
B6
102
}
330
B6
100
AcDbScale
 70
     0
300
6" = 1'-0"
140
6.0
141
12.0
290
     0
  0
SCALE
  5
D7
102
{ACAD_REACTORS
330
B6
102
}
330
B6
100
AcDbScale
 70
     0
300
1'-0" = 1'-0"
140
12.0
141
12.0
290
     0
  0
TABLESTYLE
  5
87
102
{ACAD_REACTORS
330
86
102
}
102
{ACAD_XDICTIONARY
360
647
102
}
330
86
100
AcDbTableStyle
  3
Standard
 70
     0
 71
     0
 40
0.06
 41
0.06
280
     0
281
     0
  7
Standard
140
0.18
170
     2
 62
     0
 63
   257
283
     0
 90
      512
 91
        0
  1

274
    -2
284
     1
 64
     0
275
    -2
285
     1
 65
     0
276
    -2
286
     1
 66
     0
277
    -2
287
     1
 67
     0
278
    -2
288
     1
 68
     0
279
    -2
289
     1
 69
     0
  7
Standard
140
0.25
170
     5
 62
     0
 63
   257
283
     0
 90
      512
 91
        0
  1

274
    -2
284
     1
 64
     0
275
    -2
285
     1
 65
     0
276
    -2
286
     1
 66
     0
277
    -2
287
     1
 67
     0
278
    -2
288
     1
 68
     0
279
    -2
289
     1
 69
     0
  7
Standard
140
0.18
170
     5
 62
     0
 63
   257
283
     0
 90
      512
 91
        0
  1

274
    -2
284
     1
 64
     0
275
    -2
285
     1
 65
     0
276
    -2
286
     1
 66
     0
277
    -2
287
     1
 67
     0
278
    -2
288
     1
 68
     0
279
    -2
289
     1
 69
     0
  0
VISUALSTYLE
  5
9F
102
{ACAD_REACTORS
330
99
102
}
330
99
100
AcDbVisualStyle
  2
2dWireframe
 70
     4
177
     2
291
     0
 71
     0
176
     1
 72
     2
176
     1
 73
     1
176
     1
 90
        0
176
     1
 40
-0.6
176
     1
 41
-30.0
176
     1
 62
     5
 63
     7
421
 16777215
176
     1
 74
     1
176
     1
 91
        4
176
     1
 64
     7
176
     1
 65
   257
176
     1
 75
     1
176
     1
175
     1
176
     1
 42
1.0
176
     1
 92
        0
176
     1
 66
   257
176
     1
 43
1.0
176
     1
 76
     1
176
     1
 77
     6
176
     1
 78
     2
176
     1
 67
     7
176
     1
 79
     5
176
     1
170
     0
176
     1
171
     0
176
     1
290
     0
176
     1
 93
        1
176
     1
 44
0.0
176
     1
173
     0
176
     1
  0
VISUALSTYLE
  5
A1
102
{ACAD_REACTORS
330
99
102
}
330
99
100
AcDbVisualStyle
  2
3D Hidden
 70
     6
177
     2
291
     0
 71
     1
176
     1
 72
     2
176
     1
 73
     2
176
     1
 90
        0
176
     1
 40
-0.6
176
     1
 41
-30.0
176
     1
 62
     5
 63
     7
421
 16777215
176
     1
 74
     2
176
     1
 91
        2
176
     1
 64
     7
176
     1
 65
   257
176
     1
 75
     2
176
     1
175
     1
176
     1
 42
40.0
176
     1
 92
        0
176
     1
 66
   257
176
     1
 43
1.0
176
     1
 76
     1
176
     1
 77
     6
176
     1
 78
     2
176
     1
 67
     7
176
     1
 79
     3
176
     1
170
     0
176
     1
171
     0
176
     1
290
     0
176
     1
 93
        1
176
     1
 44
0.0
176
     1
173
     0
176
     1
  0
VISUALSTYLE
  5
A0
102
{ACAD_REACTORS
330
99
102
}
330
99
100
AcDbVisualStyle
  2
3dWireframe
 70
     5
177
     2
291
     0
 71
     0
176
     1
 72
     2
176
     1
 73
     1
176
     1
 90
        0
176
     1
 40
-0.6
176
     1
 41
-30.0
176
     1
 62
     5
 63
     7
421
 16777215
176
     1
 74
     1
176
     1
 91
        4
176
     1
 64
     7
176
     1
 65
   257
176
     1
 75
     1
176
     1
175
     1
176
     1
 42
1.0
176
     1
 92
        0
176
     1
 66
   257
176
     1
 43
1.0
176
     1
 76
     1
176
     1
 77
     6
176
     1
 78
     2
176
     1
 67
     7
176
     1
 79
     5
176
     1
170
     0
176
     1
171
     0
176
     1
290
     0
176
     1
 93
        1
176
     1
 44
0.0
176
     1
173
     0
176
     1
  0
VISUALSTYLE
  5
9E
102
{ACAD_REACTORS
330
99
102
}
330
99
100
AcDbVisualStyle
  2
Basic
 70
     7
177
     2
291
     1
 71
     1
176
     1
 72
     0
176
     1
 73
     1
176
     1
 90
        0
176
     1
 40
-0.6
176
     1
 41
-30.0
176
     1
 62
     5
 63
     7
421
 16777215
176
     1
 74
     0
176
     1
 91
        4
176
     1
 64
     7
176
     1
 65
   257
176
     1
 75
     1
176
     1
175
     1
176
     1
 42
1.0
176
     1
 92
        8
176
     1
 66
     7
176
     1
 43
1.0
176
     1
 76
     1
176
     1
 77
     6
176
     1
 78
     2
176
     1
 67
     7
176
     1
 79
     5
176
     1
170
     0
176
     1
171
     0
176
     1
290
     0
176
     1
 93
        1
176
     1
 44
0.0
176
     1
173
     0
176
     1
  0
VISUALSTYLE
  5
A5
102
{ACAD_REACTORS
330
99
102
}
330
99
100
AcDbVisualStyle
  2
Brighten
 70
    12
177
     2
291
     1
 71
     2
176
     1
 72
     2
176
     1
 73
     1
176
     1
 90
        0
176
     1
 40
-0.6
176
     1
 41
-30.0
176
     1
 62
     5
 63
     7
421
 16777215
176
     1
 74
     1
176
     1
 91
        4
176
     1
 64
     7
176
     1
 65
   257
176
     1
 75
     1
176
     1
175
     1
176
     1
 42
1.0
176
     1
 92
        8
176
     1
 66
     7
176
     1
 43
1.0
176
     1
 76
     1
176
     1
 77
     6
176
     1
 78
     2
176
     1
 67
     7
176
     1
 79
     5
176
     1
170
     0
176
     1
171
     0
176
     1
290
     0
176
     1
 93
        1
176
     1
 44
50.0
176
     1
173
     0
176
     1
  0
VISUALSTYLE
  5
A9
102
{ACAD_REACTORS
330
99
102
}
330
99
100
AcDbVisualStyle
  2
ColorChange
 70
    16
177
     2
291
     1
 71
     2
176
     1
 72
     2
176
     1
 73
     3
176
     1
 90
        0
176
     1
 40
-0.6
176
     1
 41
-30.0
176
     1
 62
     5
 63
     8
421
  8421504
176
     1
 74
     1
176
     1
 91
        4
176
     1
 64
     7
176
     1
 65
   257
176
     1
 75
     1
176
     1
175
     1
176
     1
 42
1.0
176
     1
 92
        8
176
     1
 66
     8
424
  8421504
176
     1
 43
1.0
176
     1
 76
     1
176
     1
 77
     6
176
     1
 78
     2
176
     1
 67
     7
176
     1
 79
     5
176
     1
170
     0
176
     1
171
     0
176
     1
290
     0
176
     1
 93
        1
176
     1
 44
0.0
176
     1
173
     0
176
     1
  0
VISUALSTYLE
  5
A2
102
{ACAD_REACTORS
330
99
102
}
330
99
100
AcDbVisualStyle
  2
Conceptual
 70
     9
177
     2
291
     0
 71
     3
176
     1
 72
     2
176
     1
 73
     1
176
     1
 90
        0
176
     1
 40
-0.6
176
     1
 41
-30.0
176
     1
 62
     5
 63
     7
421
 16777215
176
     1
 74
     2
176
     1
 91
        2
176
     1
 64
     7
176
     1
 65
   257
176
     1
 75
     1
176
     1
175
     1
176
     1
 42
40.0
176
     1
 92
        8
176
     1
 66
     7
176
     1
 43
1.0
176
     1
 76
     1
176
     1
 77
     6
176
     1
 78
     2
176
     1
 67
     7
176
     1
 79
     3
176
     1
170
     0
176
     1
171
     0
176
     1
290
     0
176
     1
 93
        1
176
     1
 44
0.0
176
     1
173
     0
176
     1
  0
VISUALSTYLE
  5
A4
102
{ACAD_REACTORS
330
99
102
}
330
99
100
AcDbVisualStyle
  2
Dim
 70
    11
177
     2
291
     1
 71
     2
176
     1
 72
     2
176
     1
 73
     1
176
     1
 90
        0
176
     1
 40
-0.6
176
     1
 41
-30.0
176
     1
 62
     5
 63
     7
421
 16777215
176
     1
 74
     1
176
     1
 91
        4
176
     1
 64
     7
176
     1
 65
   257
176
     1
 75
     1
176
     1
175
     1
176
     1
 42
1.0
176
     1
 92
        8
176
     1
 66
     7
176
     1
 43
1.0
176
     1
 76
     1
176
     1
 77
     6
176
     1
 78
     2
176
     1
 67
     7
176
     1
 79
     5
176
     1
170
     0
176
     1
171
     0
176
     1
290
     0
176
     1
 93
        1
176
     1
 44
-50.0
176
     1
173
     0
176
     1
  0
VISUALSTYLE
  5
A8
102
{ACAD_REACTORS
330
99
102
}
330
99
100
AcDbVisualStyle
  2
Facepattern
 70
    15
177
     2
291
     1
 71
     2
176
     1
 72
     2
176
     1
 73
     1
176
     1
 90
        0
176
     1
 40
-0.6
176
     1
 41
-30.0
176
     1
 62
     5
 63
     7
421
 16777215
176
     1
 74
     1
176
     1
 91
        4
176
     1
 64
     7
176
     1
 65
   257
176
     1
 75
     1
176
     1
175
     1
176
     1
 42
1.0
176
     1
 92
        8
176
     1
 66
     7
176
     1
 43
1.0
176
     1
 76
     1
176
     1
 77
     6
176
     1
 78
     2
176
     1
 67
     7
176
     1
 79
     5
176
     1
170
     0
176
     1
171
     0
176
     1
290
     0
176
     1
 93
        1
176
     1
 44
0.0
176
     1
173
     0
176
     1
  0
VISUALSTYLE
  5
9A
102
{ACAD_REACTORS
330
99
102
}
330
99
100
AcDbVisualStyle
  2
Flat
 70
     0
177
     2
291
     1
 71
     2
176
     1
 72
     1
176
     1
 73
     1
176
     1
 90
        2
176
     1
 40
-0.6
176
     1
 41
30.0
176
     1
 62
     5
 63
     7
421
 16777215
176
     1
 74
     0
176
     1
 91
        4
176
     1
 64
     7
176
     1
 65
   257
176
     1
 75
     1
176
     1
175
     1
176
     1
 42
1.0
176
     1
 92
        8
176
     1
 66
     7
176
     1
 43
1.0
176
     1
 76
     1
176
     1
 77
     6
176
     1
 78
     2
176
     1
 67
     7
176
     1
 79
     5
176
     1
170
     0
176
     1
171
     0
176
     1
290
     0
176
     1
 93
        1
176
     1
 44
0.0
176
     1
173
     0
176
     1
  0
VISUALSTYLE
  5
9B
102
{ACAD_REACTORS
330
99
102
}
330
99
100
AcDbVisualStyle
  2
FlatWithEdges
 70
     1
177
     2
291
     1
 71
     2
176
     1
 72
     1
176
     1
 73
     1
176
     1
 90
        2
176
     1
 40
-0.6
176
     1
 41
30.0
176
     1
 62
     5
 63
     7
421
 16777215
176
     1
 74
     1
176
     1
 91
        4
176
     1
 64
     7
176
     1
 65
   257
176
     1
 75
     1
176
     1
175
     1
176
     1
 42
1.0
176
     1
 92
        0
176
     1
 66
   257
176
     1
 43
1.0
176
     1
 76
     1
176
     1
 77
     6
176
     1
 78
     2
176
     1
 67
     7
176
     1
 79
     5
176
     1
170
     0
176
     1
171
     0
176
     1
290
     0
176
     1
 93
        1
176
     1
 44
0.0
176
     1
173
     0
176
     1
  0
VISUALSTYLE
  5
9C
102
{ACAD_REACTORS
330
99
102
}
330
99
100
AcDbVisualStyle
  2
Gouraud
 70
     2
177
     2
291
     1
 71
     2
176
     1
 72
     2
176
     1
 73
     1
176
     1
 90
        2
176
     1
 40
-0.6
176
     1
 41
30.0
176
     1
 62
     5
 63
     7
421
 16777215
176
     1
 74
     0
176
     1
 91
        4
176
     1
 64
     7
176
     1
 65
   257
176
     1
 75
     1
176
     1
175
     1
176
     1
 42
1.0
176
     1
 92
        0
176
     1
 66
     7
176
     1
 43
1.0
176
     1
 76
     1
176
     1
 77
     6
176
     1
 78
     2
176
     1
 67
     7
176
     1
 79
     5
176
     1
170
     0
176
     1
171
     0
176
     1
290
     0
176
     1
 93
        1
176
     1
 44
0.0
176
     1
173
     0
176
     1
  0
VISUALSTYLE
  5
9D
102
{ACAD_REACTORS
330
99
102
}
330
99
100
AcDbVisualStyle
  2
GouraudWithEdges
 70
     3
177
     2
291
     1
 71
     2
176
     1
 72
     2
176
     1
 73
     1
176
     1
 90
        2
176
     1
 40
-0.6
176
     1
 41
30.0
176
     1
 62
     5
 63
     7
421
 16777215
176
     1
 74
     1
176
     1
 91
        4
176
     1
 64
     7
176
     1
 65
   257
176
     1
 75
     1
176
     1
175
     1
176
     1
 42
1.0
176
     1
 92
        0
176
     1
 66
   257
176
     1
 43
1.0
176
     1
 76
     1
176
     1
 77
     6
176
     1
 78
     2
176
     1
 67
     7
176
     1
 79
     5
176
     1
170
     0
176
     1
171
     0
176
     1
290
     0
176
     1
 93
        1
176
     1
 44
0.0
176
     1
173
     0
176
     1
  0
VISUALSTYLE
  5
A7
102
{ACAD_REACTORS
330
99
102
}
330
99
100
AcDbVisualStyle
  2
Linepattern
 70
    14
177
     2
291
     1
 71
     2
176
     1
 72
     2
176
     1
 73
     1
176
     1
 90
        0
176
     1
 40
-0.6
176
     1
 41
-30.0
176
     1
 62
     5
 63
     7
421
 16777215
176
     1
 74
     1
176
     1
 91
        4
176
     1
 64
     7
176
     1
 65
   257
176
     1
 75
     7
176
     1
175
     7
176
     1
 42
1.0
176
     1
 92
        8
176
     1
 66
     7
176
     1
 43
1.0
176
     1
 76
     1
176
     1
 77
     6
176
     1
 78
     2
176
     1
 67
     7
176
     1
 79
     5
176
     1
170
     0
176
     1
171
     0
176
     1
290
     0
176
     1
 93
        1
176
     1
 44
0.0
176
     1
173
     0
176
     1
  0
VISUALSTYLE
  5
A3
102
{ACAD_REACTORS
330
99
102
}
330
99
100
AcDbVisualStyle
  2
Realistic
 70
     8
177
     2
291
     0
 71
     2
176
     1
 72
     2
176
     1
 73
     1
176
     1
 90
        0
176
     1
 40
-0.6
176
     1
 41
-30.0
176
     1
 62
     5
 63
     7
421
 16777215
176
     1
 74
     1
176
     1
 91
        0
176
     1
 64
     7
176
     1
 65
   257
176
     1
 75
     1
176
     1
175
     1
176
     1
 42
1.0
176
     1
 92
        8
176
     1
 66
     8
424
  7895160
176
     1
 43
1.0
176
     1
 76
     1
176
     1
 77
     6
176
     1
 78
     2
176
     1
 67
     7
176
     1
 79
     5
176
     1
170
     0
176
     1
171
     0
176
     1
290
     0
176
     1
 93
       13
176
     1
 44
0.0
176
     1
173
     0
176
     1
  0
VISUALSTYLE
  5
A6
102
{ACAD_REACTORS
330
99
102
}
330
99
100
AcDbVisualStyle
  2
Thicken
 70
    13
177
     2
291
     1
 71
     2
176
     1
 72
     2
176
     1
 73
     1
176
     1
 90
        0
176
     1
 40
-0.6
176
     1
 41
-30.0
176
     1
 62
     5
 63
     7
421
 16777215
176
     1
 74
     1
176
     1
 91
        4
176
     1
 64
     7
176
     1
 65
   257
176
     1
 75
     1
176
     1
175
     1
176
     1
 42
1.0
176
     1
 92
       12
176
     1
 66
     7
176
     1
 43
1.0
176
     1
 76
     1
176
     1
 77
     6
176
     1
 78
     2
176
     1
 67
     7
176
     1
 79
     5
176
     1
170
     0
176
     1
171
     0
176
     1
290
     0
176
     1
 93
        1
176
     1
 44
0.0
176
     1
173
     0
176
     1
  0
DICTIONARYVAR
  5
D8
102
{ACAD_REACTORS
330
66
102
}
330
66
100
DictionaryVariables
280
     0
  1
1:1
  0
DICTIONARYVAR
  5
89
102
{ACAD_REACTORS
330
66
102
}
330
66
100
DictionaryVariables
280
     0
  1
Standard
  0
DICTIONARYVAR
  5
67
102
{ACAD_REACTORS
330
66
102
}
330
66
100
DictionaryVariables
280
     0
  1
2
  0
DICTIONARYVAR
  5
6B
102
{ACAD_REACTORS
330
66
102
}
330
66
100
DictionaryVariables
280
     0
  1
1
  0
DICTIONARYVAR
  5
DF
102
{ACAD_REACTORS
330
66
102
}
330
66
100
DictionaryVariables
280
     0
  1
0
  0
DICTIONARYVAR
  5
E0
102
{ACAD_REACTORS
330
66
102
}
330
66
100
DictionaryVariables
280
     0
  1
0
  0
DICTIONARY
  5
647
330
87
100
AcDbDictionary
280
     1
281
     1
  3
ACAD_ROUNDTRIP_2008_TABLESTYLE_CELLSTYLEMAP
360
648
  0
CELLSTYLEMAP
  5
648
102
{ACAD_REACTORS
330
647
102
}
330
647
100
AcDbCellStyleMap
 90
        3
300
CELLSTYLE
  1
TABLEFORMAT_BEGIN
 90
        5
170
     1
 91
        0
 92
    32768
 62
   257
 93
        1
300
CONTENTFORMAT
  1
CONTENTFORMAT_BEGIN
 90
        0
 91
        0
 92
      512
 93
        0
300

 40
0.0
140
1.0
 94
        5
 62
     0
340
11
144
0.25
309
CONTENTFORMAT_END
171
     0
 94
        6
 95
        1
302
GRIDFORMAT
  1
GRIDFORMAT_BEGIN
 90
        0
 91
        1
 62
     0
 92
       -2
340
0
 93
        0
 40
0.045
309
GRIDFORMAT_END
 95
        2
302
GRIDFORMAT
  1
GRIDFORMAT_BEGIN
 90
        0
 91
        1
 62
     0
 92
       -2
340
0
 93
        0
 40
0.045
309
GRIDFORMAT_END
 95
        4
302
GRIDFORMAT
  1
GRIDFORMAT_BEGIN
 90
        0
 91
        1
 62
     0
 92
       -2
340
0
 93
        0
 40
0.045
309
GRIDFORMAT_END
 95
        8
302
GRIDFORMAT
  1
GRIDFORMAT_BEGIN
 90
        0
 91
        1
 62
     0
 92
       -2
340
0
 93
        0
 40
0.045
309
GRIDFORMAT_END
 95
       16
302
GRIDFORMAT
  1
GRIDFORMAT_BEGIN
 90
        0
 91
        1
 62
     0
 92
       -2
340
0
 93
        0
 40
0.045
309
GRIDFORMAT_END
 95
       32
302
GRIDFORMAT
  1
GRIDFORMAT_BEGIN
 90
        0
 91
        1
 62
     0
 92
       -2
340
0
 93
        0
 40
0.045
309
GRIDFORMAT_END
309
TABLEFORMAT_END
  1
CELLSTYLE_BEGIN
 90
        1
 91
        1
300
_TITLE
309
CELLSTYLE_END
300
CELLSTYLE
  1
TABLEFORMAT_BEGIN
 90
        5
170
     1
 91
        0
 92
        0
 62
   257
 93
        1
300
CONTENTFORMAT
  1
CONTENTFORMAT_BEGIN
 90
        0
 91
        0
 92
      512
 93
        0
300

 40
0.0
140
1.0
 94
        5
 62
     0
340
11
144
0.18
309
CONTENTFORMAT_END
171
     0
 94
        6
 95
        1
302
GRIDFORMAT
  1
GRIDFORMAT_BEGIN
 90
        0
 91
        1
 62
     0
 92
       -2
340
0
 93
        0
 40
0.045
309
GRIDFORMAT_END
 95
        2
302
GRIDFORMAT
  1
GRIDFORMAT_BEGIN
 90
        0
 91
        1
 62
     0
 92
       -2
340
0
 93
        0
 40
0.045
309
GRIDFORMAT_END
 95
        4
302
GRIDFORMAT
  1
GRIDFORMAT_BEGIN
 90
        0
 91
        1
 62
     0
 92
       -2
340
0
 93
        0
 40
0.045
309
GRIDFORMAT_END
 95
        8
302
GRIDFORMAT
  1
GRIDFORMAT_BEGIN
 90
        0
 91
        1
 62
     0
 92
       -2
340
0
 93
        0
 40
0.045
309
GRIDFORMAT_END
 95
       16
302
GRIDFORMAT
  1
GRIDFORMAT_BEGIN
 90
        0
 91
        1
 62
     0
 92
       -2
340
0
 93
        0
 40
0.045
309
GRIDFORMAT_END
 95
       32
302
GRIDFORMAT
  1
GRIDFORMAT_BEGIN
 90
        0
 91
        1
 62
     0
 92
       -2
340
0
 93
        0
 40
0.045
309
GRIDFORMAT_END
309
TABLEFORMAT_END
  1
CELLSTYLE_BEGIN
 90
        2
 91
        1
300
_HEADER
309
CELLSTYLE_END
300
CELLSTYLE
  1
TABLEFORMAT_BEGIN
 90
        5
170
     1
 91
        0
 92
        0
 62
   257
 93
        1
300
CONTENTFORMAT
  1
CONTENTFORMAT_BEGIN
 90
        0
 91
        0
 92
      512
 93
        0
300

 40
0.0
140
1.0
 94
        2
 62
     0
340
11
144
0.18
309
CONTENTFORMAT_END
171
     0
 94
        6
 95
        1
302
GRIDFORMAT
  1
GRIDFORMAT_BEGIN
 90
        0
 91
        1
 62
     0
 92
       -2
340
0
 93
        0
 40
0.045
309
GRIDFORMAT_END
 95
        2
302
GRIDFORMAT
  1
GRIDFORMAT_BEGIN
 90
        0
 91
        1
 62
     0
 92
       -2
340
0
 93
        0
 40
0.045
309
GRIDFORMAT_END
 95
        4
302
GRIDFORMAT
  1
GRIDFORMAT_BEGIN
 90
        0
 91
        1
 62
     0
 92
       -2
340
0
 93
        0
 40
0.045
309
GRIDFORMAT_END
 95
        8
302
GRIDFORMAT
  1
GRIDFORMAT_BEGIN
 90
        0
 91
        1
 62
     0
 92
       -2
340
0
 93
        0
 40
0.045
309
GRIDFORMAT_END
 95
       16
302
GRIDFORMAT
  1
GRIDFORMAT_BEGIN
 90
        0
 91
        1
 62
     0
 92
       -2
340
0
 93
        0
 40
0.045
309
GRIDFORMAT_END
 95
       32
302
GRIDFORMAT
  1
GRIDFORMAT_BEGIN
 90
        0
 91
        1
 62
     0
 92
       -2
340
0
 93
        0
 40
0.045
309
GRIDFORMAT_END
309
TABLEFORMAT_END
  1
CELLSTYLE_BEGIN
 90
        3
 91
        2
300
_DATA
309
CELLSTYLE_END
  0
ENDSEC
  0
EOF
