solid OpenSCAD_Model
  facet normal -1 0 0
    outer loop
      vertex -20 -5 0
      vertex -20 -5 2.5
      vertex -20 3 0
    endloop
  endfacet
  facet normal -1 0 0
    outer loop
      vertex -20 3 0
      vertex -20 -5 2.5
      vertex -20 3 2.5
    endloop
  endfacet
  facet normal 0 -1 0
    outer loop
      vertex -20 -5 2.5
      vertex -20 -5 0
      vertex -14.1408 -5 0
    endloop
  endfacet
  facet normal 0 -1 0
    outer loop
      vertex -14.1408 -5 2.5
      vertex -20 -5 2.5
      vertex -14.1408 -5 0
    endloop
  endfacet
  facet normal 0 0 -1
    outer loop
      vertex -20 -5 0
      vertex -20 3 0
      vertex -14.1408 -5 0
    endloop
  endfacet
  facet normal 0 0 -1
    outer loop
      vertex -14.1408 -5 0
      vertex -20 3 0
      vertex -14.6952 3 0
    endloop
  endfacet
  facet normal 0 0 -1
    outer loop
      vertex -14.1408 -5 0
      vertex -14.6952 3 0
      vertex -14.5505 3.6447 0
    endloop
  endfacet
  facet normal 0 0 -1
    outer loop
      vertex -14.1408 -5 0
      vertex -14.5505 3.6447 0
      vertex -14.3541 4.35427 0
    endloop
  endfacet
  facet normal 0 0 -1
    outer loop
      vertex -14.1408 -5 0
      vertex -14.3541 4.35427 0
      vertex -14.1232 5.05335 0
    endloop
  endfacet
  facet normal 0 0 -1
    outer loop
      vertex -14.1408 -5 0
      vertex -14.1232 5.05335 0
      vertex -13.8582 5.74025 0
    endloop
  endfacet
  facet normal 0 0 -1
    outer loop
      vertex -14.1408 -5 0
      vertex -13.8582 5.74025 0
      vertex -13.5598 6.41333 0
    endloop
  endfacet
  facet normal 0 0 -1
    outer loop
      vertex -14.1408 -5 0
      vertex -13.5598 6.41333 0
      vertex -13.5346 6.46351 0
    endloop
  endfacet
  facet normal 0 0 -1
    outer loop
      vertex -13.5346 6.46351 0
      vertex -17.6777 10.6066 0
      vertex -12.0208 16.2635 0
    endloop
  endfacet
  facet normal 0 0 -1
    outer loop
      vertex -13.5346 6.46351 0
      vertex -12.0208 16.2635 0
      vertex -14.1408 -5 0
    endloop
  endfacet
  facet normal 0 0 -1
    outer loop
      vertex -14.1408 -5 0
      vertex -12.0208 16.2635 0
      vertex -8.26978 12.5124 0
    endloop
  endfacet
  facet normal 0 0 -1
    outer loop
      vertex -14.1408 -5 0
      vertex -8.26978 12.5124 0
      vertex -7.71154 12.8659 0
    endloop
  endfacet
  facet normal 0 0 -1
    outer loop
      vertex -14.1408 -5 0
      vertex -7.71154 12.8659 0
      vertex -7.60473 12.9264 0
    endloop
  endfacet
  facet normal 0 0 -1
    outer loop
      vertex -14.1408 -5 0
      vertex -7.60473 12.9264 0
      vertex -5.02077 3.28296 0
    endloop
  endfacet
  facet normal 0 0 -1
    outer loop
      vertex -14.1408 -5 0
      vertex -5.02077 3.28296 0
      vertex -5.14637 3.08462 0
    endloop
  endfacet
  facet normal 0 0 -1
    outer loop
      vertex -14.1408 -5 0
      vertex -5.14637 3.08462 0
      vertex -5.29153 2.82838 0
    endloop
  endfacet
  facet normal 0 0 -1
    outer loop
      vertex 13.8582 5.74025 0
      vertex 4.44571 -4.02935 0
      vertex 4.63806 -3.80636 0
    endloop
  endfacet
  facet normal 0 0 -1
    outer loop
      vertex -5.29153 2.82838 0
      vertex -5.42394 2.56533 0
      vertex -14.1408 -5 0
    endloop
  endfacet
  facet normal 0 0 -1
    outer loop
      vertex -5.42394 2.56533 0
      vertex -5.54328 2.2961 0
      vertex -14.1408 -5 0
    endloop
  endfacet
  facet normal 0 0 -1
    outer loop
      vertex -5.54328 2.2961 0
      vertex -5.64926 2.02134 0
      vertex -14.1408 -5 0
    endloop
  endfacet
  facet normal 0 0 -1
    outer loop
      vertex -5.64926 2.02134 0
      vertex -5.74164 1.74171 0
      vertex -14.1408 -5 0
    endloop
  endfacet
  facet normal 0 0 -1
    outer loop
      vertex -5.74164 1.74171 0
      vertex -5.82019 1.45788 0
      vertex -14.1408 -5 0
    endloop
  endfacet
  facet normal 0 0 -1
    outer loop
      vertex -5.82019 1.45788 0
      vertex -5.88471 1.17054 0
      vertex -14.1408 -5 0
    endloop
  endfacet
  facet normal 0 0 -1
    outer loop
      vertex -5.88471 1.17054 0
      vertex -5.93506 0.880383 0
      vertex -14.1408 -5 0
    endloop
  endfacet
  facet normal 0 0 -1
    outer loop
      vertex -5.93506 0.880383 0
      vertex -5.97111 0.588103 0
      vertex -14.1408 -5 0
    endloop
  endfacet
  facet normal 0 0 -1
    outer loop
      vertex -5.97111 0.588103 0
      vertex -5.99277 0.294406 0
      vertex -14.1408 -5 0
    endloop
  endfacet
  facet normal 0 0 -1
    outer loop
      vertex -5.99277 0.294406 0
      vertex -6 0 0
      vertex -14.1408 -5 0
    endloop
  endfacet
  facet normal 0 0 -1
    outer loop
      vertex -6 0 0
      vertex -5.99277 -0.294406 0
      vertex -14.1408 -5 0
    endloop
  endfacet
  facet normal 0 0 -1
    outer loop
      vertex -5.99277 -0.294406 0
      vertex -5.97111 -0.588103 0
      vertex -14.1408 -5 0
    endloop
  endfacet
  facet normal 0 0 -1
    outer loop
      vertex -5.97111 -0.588103 0
      vertex -5.93506 -0.880383 0
      vertex -14.1408 -5 0
    endloop
  endfacet
  facet normal 0 0 -1
    outer loop
      vertex -5.93506 -0.880383 0
      vertex -5.88471 -1.17054 0
      vertex -14.1408 -5 0
    endloop
  endfacet
  facet normal 0 0 -1
    outer loop
      vertex -5.88471 -1.17054 0
      vertex -5.82019 -1.45788 0
      vertex -14.1408 -5 0
    endloop
  endfacet
  facet normal 0 0 -1
    outer loop
      vertex -5.82019 -1.45788 0
      vertex -5.74164 -1.74171 0
      vertex -14.1408 -5 0
    endloop
  endfacet
  facet normal 0 0 -1
    outer loop
      vertex -5.74164 -1.74171 0
      vertex -5.64926 -2.02134 0
      vertex -14.1408 -5 0
    endloop
  endfacet
  facet normal 0 0 -1
    outer loop
      vertex -5.64926 -2.02134 0
      vertex -5.54328 -2.2961 0
      vertex -14.1408 -5 0
    endloop
  endfacet
  facet normal 0 0 -1
    outer loop
      vertex -5.54328 -2.2961 0
      vertex -5.42394 -2.56533 0
      vertex -14.1408 -5 0
    endloop
  endfacet
  facet normal 0 0 -1
    outer loop
      vertex -5.42394 -2.56533 0
      vertex -5.29153 -2.82838 0
      vertex -14.1408 -5 0
    endloop
  endfacet
  facet normal 0 0 -1
    outer loop
      vertex -5.29153 -2.82838 0
      vertex -5.14637 -3.08462 0
      vertex -14.1408 -5 0
    endloop
  endfacet
  facet normal 0 0 -1
    outer loop
      vertex -5.14637 -3.08462 0
      vertex -4.98882 -3.33342 0
      vertex -14.1408 -5 0
    endloop
  endfacet
  facet normal 0 0 -1
    outer loop
      vertex -4.98882 -3.33342 0
      vertex -4.81924 -3.5742 0
      vertex -14.1408 -5 0
    endloop
  endfacet
  facet normal 0 0 -1
    outer loop
      vertex -4.81924 -3.5742 0
      vertex -4.63806 -3.80636 0
      vertex -14.1408 -5 0
    endloop
  endfacet
  facet normal 0 0 -1
    outer loop
      vertex -4.63806 -3.80636 0
      vertex -4.44571 -4.02935 0
      vertex -14.1408 -5 0
    endloop
  endfacet
  facet normal 0 0 -1
    outer loop
      vertex -4.44571 -4.02935 0
      vertex -4.24264 -4.24264 0
      vertex -14.1408 -5 0
    endloop
  endfacet
  facet normal 0 0 -1
    outer loop
      vertex -4.24264 -4.24264 0
      vertex -4.02935 -4.44571 0
      vertex -14.1408 -5 0
    endloop
  endfacet
  facet normal 0 0 -1
    outer loop
      vertex -4.02935 -4.44571 0
      vertex -3.80636 -4.63806 0
      vertex -14.1408 -5 0
    endloop
  endfacet
  facet normal 0 0 -1
    outer loop
      vertex -3.80636 -4.63806 0
      vertex -3.5742 -4.81924 0
      vertex -14.1408 -5 0
    endloop
  endfacet
  facet normal 0 0 -1
    outer loop
      vertex -3.5742 -4.81924 0
      vertex -3.33342 -4.98882 0
      vertex -14.1408 -5 0
    endloop
  endfacet
  facet normal 0 0 -1
    outer loop
      vertex -3.33342 -4.98882 0
      vertex -3.08462 -5.14637 0
      vertex -14.1408 -5 0
    endloop
  endfacet
  facet normal 0 0 -1
    outer loop
      vertex -13.2288 -7.07095 0
      vertex 5.74025 -13.8582 0
      vertex 5.05335 -14.1232 0
    endloop
  endfacet
  facet normal 0 0 -1
    outer loop
      vertex 4 -20 0
      vertex -12.5124 -8.26978 0
      vertex 4 -14.4521 0
    endloop
  endfacet
  facet normal 0 0 -1
    outer loop
      vertex -12.5124 -8.26978 0
      vertex -10.6066 -17.6777 0
      vertex -16.2635 -12.0208 0
    endloop
  endfacet
  facet normal 0 0 -1
    outer loop
      vertex 2.82838 -5.29153 0
      vertex 20 3 0
      vertex 2.56533 -5.42394 0
    endloop
  endfacet
  facet normal 0 0 -1
    outer loop
      vertex 3.08462 -5.14637 0
      vertex 20 3 0
      vertex 2.82838 -5.29153 0
    endloop
  endfacet
  facet normal 0 0 -1
    outer loop
      vertex 3.33342 -4.98882 0
      vertex 20 3 0
      vertex 3.08462 -5.14637 0
    endloop
  endfacet
  facet normal 0 0 -1
    outer loop
      vertex 13.8582 -5.74025 0
      vertex 0.588103 -5.97111 0
      vertex 0.880383 -5.93506 0
    endloop
  endfacet
  facet normal 0 0 -1
    outer loop
      vertex 13.8582 -5.74025 0
      vertex 0.880383 -5.93506 0
      vertex 1.17054 -5.88471 0
    endloop
  endfacet
  facet normal 0 0 -1
    outer loop
      vertex 13.8582 -5.74025 0
      vertex 1.17054 -5.88471 0
      vertex 1.45788 -5.82019 0
    endloop
  endfacet
  facet normal 0 0 -1
    outer loop
      vertex 13.8582 -5.74025 0
      vertex 1.45788 -5.82019 0
      vertex 1.74171 -5.74164 0
    endloop
  endfacet
  facet normal 0 0 -1
    outer loop
      vertex 13.8582 -5.74025 0
      vertex 1.74171 -5.74164 0
      vertex 2.02134 -5.64926 0
    endloop
  endfacet
  facet normal 0 0 -1
    outer loop
      vertex 13.8582 -5.74025 0
      vertex 2.02134 -5.64926 0
      vertex 2.2961 -5.54328 0
    endloop
  endfacet
  facet normal 0 0 -1
    outer loop
      vertex 13.8582 -5.74025 0
      vertex 2.2961 -5.54328 0
      vertex 2.56533 -5.42394 0
    endloop
  endfacet
  facet normal 0 0 -1
    outer loop
      vertex 5.74164 -1.74171 0
      vertex 12.0208 16.2635 0
      vertex 5.64926 -2.02134 0
    endloop
  endfacet
  facet normal 0 0 -1
    outer loop
      vertex 5.82019 -1.45788 0
      vertex 12.0208 16.2635 0
      vertex 5.74164 -1.74171 0
    endloop
  endfacet
  facet normal 0 0 -1
    outer loop
      vertex 5.99277 -0.294406 0
      vertex 7.60473 12.9264 0
      vertex 5.97111 -0.588103 0
    endloop
  endfacet
  facet normal 0 0 -1
    outer loop
      vertex 6 0 0
      vertex 7.60473 12.9264 0
      vertex 5.99277 -0.294406 0
    endloop
  endfacet
  facet normal 0 0 -1
    outer loop
      vertex 5.99277 0.294406 0
      vertex 7.60473 12.9264 0
      vertex 6 0 0
    endloop
  endfacet
  facet normal 0 0 -1
    outer loop
      vertex 5.97111 0.588103 0
      vertex 7.60473 12.9264 0
      vertex 5.99277 0.294406 0
    endloop
  endfacet
  facet normal 0 0 -1
    outer loop
      vertex 5.93506 0.880383 0
      vertex 7.60473 12.9264 0
      vertex 5.97111 0.588103 0
    endloop
  endfacet
  facet normal 0 0 -1
    outer loop
      vertex 5.88471 1.17054 0
      vertex 7.60473 12.9264 0
      vertex 5.93506 0.880383 0
    endloop
  endfacet
  facet normal 0 0 -1
    outer loop
      vertex 5.82019 1.45788 0
      vertex 7.60473 12.9264 0
      vertex 5.88471 1.17054 0
    endloop
  endfacet
  facet normal 0 0 -1
    outer loop
      vertex 5.74164 1.74171 0
      vertex 7.60473 12.9264 0
      vertex 5.82019 1.45788 0
    endloop
  endfacet
  facet normal 0 0 -1
    outer loop
      vertex 5.64926 2.02134 0
      vertex 7.60473 12.9264 0
      vertex 5.74164 1.74171 0
    endloop
  endfacet
  facet normal 0 0 -1
    outer loop
      vertex 5.54328 2.2961 0
      vertex 7.60473 12.9264 0
      vertex 5.64926 2.02134 0
    endloop
  endfacet
  facet normal 0 0 -1
    outer loop
      vertex 5.42394 2.56533 0
      vertex 7.60473 12.9264 0
      vertex 5.54328 2.2961 0
    endloop
  endfacet
  facet normal 0 0 -1
    outer loop
      vertex 5.29153 2.82838 0
      vertex 7.60473 12.9264 0
      vertex 5.42394 2.56533 0
    endloop
  endfacet
  facet normal 0 0 -1
    outer loop
      vertex 5.14637 3.08462 0
      vertex 5.02077 3.28296 0
      vertex 7.60473 12.9264 0
    endloop
  endfacet
  facet normal 0 0 -1
    outer loop
      vertex 5.14637 3.08462 0
      vertex 7.60473 12.9264 0
      vertex 5.29153 2.82838 0
    endloop
  endfacet
  facet normal 0 0 -1
    outer loop
      vertex 5.97111 -0.588103 0
      vertex 7.60473 12.9264 0
      vertex 7.71154 12.8659 0
    endloop
  endfacet
  facet normal 0 0 -1
    outer loop
      vertex 5.97111 -0.588103 0
      vertex 7.71154 12.8659 0
      vertex 5.93506 -0.880383 0
    endloop
  endfacet
  facet normal 0 0 -1
    outer loop
      vertex 5.93506 -0.880383 0
      vertex 7.71154 12.8659 0
      vertex 8.26978 12.5124 0
    endloop
  endfacet
  facet normal 0 0 -1
    outer loop
      vertex 5.93506 -0.880383 0
      vertex 8.26978 12.5124 0
      vertex 5.88471 -1.17054 0
    endloop
  endfacet
  facet normal 0 0 -1
    outer loop
      vertex 5.88471 -1.17054 0
      vertex 8.26978 12.5124 0
      vertex 12.0208 16.2635 0
    endloop
  endfacet
  facet normal 0 0 -1
    outer loop
      vertex 5.88471 -1.17054 0
      vertex 12.0208 16.2635 0
      vertex 5.82019 -1.45788 0
    endloop
  endfacet
  facet normal 0 0 -1
    outer loop
      vertex 13.5346 6.46351 0
      vertex 12.0208 16.2635 0
      vertex 17.6777 10.6066 0
    endloop
  endfacet
  facet normal 0 0 -1
    outer loop
      vertex 13.8582 -5.74025 0
      vertex 2.56533 -5.42394 0
      vertex 14.1232 -5.05335 0
    endloop
  endfacet
  facet normal 0 0 -1
    outer loop
      vertex 5.64926 -2.02134 0
      vertex 12.0208 16.2635 0
      vertex 13.5346 6.46351 0
    endloop
  endfacet
  facet normal 0 0 -1
    outer loop
      vertex 5.64926 -2.02134 0
      vertex 13.5346 6.46351 0
      vertex 13.5598 6.41333 0
    endloop
  endfacet
  facet normal 0 0 -1
    outer loop
      vertex 13.8582 -5.74025 0
      vertex 0.294406 -5.99277 0
      vertex 0.588103 -5.97111 0
    endloop
  endfacet
  facet normal 0 0 -1
    outer loop
      vertex 4.44571 -4.02935 0
      vertex 13.8582 5.74025 0
      vertex 4.24264 -4.24264 0
    endloop
  endfacet
  facet normal 0 0 -1
    outer loop
      vertex 4.24264 -4.24264 0
      vertex 13.8582 5.74025 0
      vertex 14.1232 5.05335 0
    endloop
  endfacet
  facet normal 0 0 -1
    outer loop
      vertex 4.24264 -4.24264 0
      vertex 14.1232 5.05335 0
      vertex 4.02935 -4.44571 0
    endloop
  endfacet
  facet normal 0 0 -1
    outer loop
      vertex 4.02935 -4.44571 0
      vertex 14.1232 5.05335 0
      vertex 14.3541 4.35427 0
    endloop
  endfacet
  facet normal 0 0 -1
    outer loop
      vertex 4.02935 -4.44571 0
      vertex 14.3541 4.35427 0
      vertex 3.80636 -4.63806 0
    endloop
  endfacet
  facet normal 0 0 -1
    outer loop
      vertex 3.80636 -4.63806 0
      vertex 14.3541 4.35427 0
      vertex 14.5505 3.6447 0
    endloop
  endfacet
  facet normal 0 0 -1
    outer loop
      vertex 3.80636 -4.63806 0
      vertex 14.5505 3.6447 0
      vertex 3.5742 -4.81924 0
    endloop
  endfacet
  facet normal 0 0 -1
    outer loop
      vertex 3.5742 -4.81924 0
      vertex 14.5505 3.6447 0
      vertex 14.6952 3 0
    endloop
  endfacet
  facet normal 0 0 -1
    outer loop
      vertex 3.5742 -4.81924 0
      vertex 14.6952 3 0
      vertex 3.33342 -4.98882 0
    endloop
  endfacet
  facet normal 0 0 -1
    outer loop
      vertex 14.6952 3 0
      vertex 20 3 0
      vertex 3.33342 -4.98882 0
    endloop
  endfacet
  facet normal 0 0 -1
    outer loop
      vertex 14.1408 -5 0
      vertex 20 3 0
      vertex 20 -5 0
    endloop
  endfacet
  facet normal 0 0 -1
    outer loop
      vertex -14.1232 -5.05335 0
      vertex -0.588103 -5.97111 0
      vertex -0.294406 -5.99277 0
    endloop
  endfacet
  facet normal 0 0 -1
    outer loop
      vertex 2.56533 -5.42394 0
      vertex 20 3 0
      vertex 14.1408 -5 0
    endloop
  endfacet
  facet normal 0 0 -1
    outer loop
      vertex 2.56533 -5.42394 0
      vertex 14.1408 -5 0
      vertex 14.1232 -5.05335 0
    endloop
  endfacet
  facet normal 0 0 -1
    outer loop
      vertex -14.1232 -5.05335 0
      vertex -0.294406 -5.99277 0
      vertex 13.2288 -7.07095 0
    endloop
  endfacet
  facet normal 0 0 -1
    outer loop
      vertex 4 -20 0
      vertex -4 -14.4521 0
      vertex -12.5124 -8.26978 0
    endloop
  endfacet
  facet normal 0 0 -1
    outer loop
      vertex 0.294406 -5.99277 0
      vertex 13.8582 -5.74025 0
      vertex 0 -6 0
    endloop
  endfacet
  facet normal 0 0 -1
    outer loop
      vertex 0 -6 0
      vertex 13.8582 -5.74025 0
      vertex 13.5598 -6.41333 0
    endloop
  endfacet
  facet normal 0 0 -1
    outer loop
      vertex 0 -6 0
      vertex 13.5598 -6.41333 0
      vertex -0.294406 -5.99277 0
    endloop
  endfacet
  facet normal 0 0 -1
    outer loop
      vertex -0.294406 -5.99277 0
      vertex 13.5598 -6.41333 0
      vertex 13.2288 -7.07095 0
    endloop
  endfacet
  facet normal 0 0 -1
    outer loop
      vertex -14.1232 -5.05335 0
      vertex -2.82838 -5.29153 0
      vertex -2.56533 -5.42394 0
    endloop
  endfacet
  facet normal 0 0 -1
    outer loop
      vertex 16.2635 -12.0208 0
      vertex 10.6066 -17.6777 0
      vertex 6.46351 -13.5346 0
    endloop
  endfacet
  facet normal 0 0 -1
    outer loop
      vertex -13.8582 -5.74025 0
      vertex 16.2635 -12.0208 0
      vertex -13.5598 -6.41333 0
    endloop
  endfacet
  facet normal 0 0 -1
    outer loop
      vertex -14.1232 -5.05335 0
      vertex -2.2961 -5.54328 0
      vertex -2.02134 -5.64926 0
    endloop
  endfacet
  facet normal 0 0 -1
    outer loop
      vertex -14.1232 -5.05335 0
      vertex -2.02134 -5.64926 0
      vertex -1.74171 -5.74164 0
    endloop
  endfacet
  facet normal 0 0 -1
    outer loop
      vertex -13.2288 -7.07095 0
      vertex 6.46351 -13.5346 0
      vertex 6.41333 -13.5598 0
    endloop
  endfacet
  facet normal 0 0 -1
    outer loop
      vertex -13.2288 -7.07095 0
      vertex 6.41333 -13.5598 0
      vertex 5.74025 -13.8582 0
    endloop
  endfacet
  facet normal 0 0 -1
    outer loop
      vertex -12.5124 -8.26978 0
      vertex -5.74025 -13.8582 0
      vertex -6.41333 -13.5598 0
    endloop
  endfacet
  facet normal 0 0 -1
    outer loop
      vertex -12.5124 -8.26978 0
      vertex -4.35427 -14.3541 0
      vertex -5.05335 -14.1232 0
    endloop
  endfacet
  facet normal 0 0 -1
    outer loop
      vertex -4 -14.4521 0
      vertex 4 -20 0
      vertex -4 -20 0
    endloop
  endfacet
  facet normal 0 0 -1
    outer loop
      vertex -12.8659 -7.71154 0
      vertex 4.35427 -14.3541 0
      vertex 4 -14.4521 0
    endloop
  endfacet
  facet normal 0 0 -1
    outer loop
      vertex -14.1232 -5.05335 0
      vertex -1.17054 -5.88471 0
      vertex -0.880383 -5.93506 0
    endloop
  endfacet
  facet normal 0 0 -1
    outer loop
      vertex -12.8659 -7.71154 0
      vertex 4 -14.4521 0
      vertex -12.5124 -8.26978 0
    endloop
  endfacet
  facet normal 0 0 -1
    outer loop
      vertex -12.5124 -8.26978 0
      vertex -5.05335 -14.1232 0
      vertex -5.74025 -13.8582 0
    endloop
  endfacet
  facet normal 0 0 -1
    outer loop
      vertex -13.2288 -7.07095 0
      vertex 5.05335 -14.1232 0
      vertex -12.8659 -7.71154 0
    endloop
  endfacet
  facet normal 0 0 -1
    outer loop
      vertex -12.5124 -8.26978 0
      vertex -6.46351 -13.5346 0
      vertex -10.6066 -17.6777 0
    endloop
  endfacet
  facet normal 0 0 -1
    outer loop
      vertex -12.5124 -8.26978 0
      vertex -6.41333 -13.5598 0
      vertex -6.46351 -13.5346 0
    endloop
  endfacet
  facet normal 0 0 -1
    outer loop
      vertex -14.1232 -5.05335 0
      vertex -1.45788 -5.82019 0
      vertex -1.17054 -5.88471 0
    endloop
  endfacet
  facet normal 0 0 -1
    outer loop
      vertex -12.5124 -8.26978 0
      vertex -4 -14.4521 0
      vertex -4.35427 -14.3541 0
    endloop
  endfacet
  facet normal 0 0 -1
    outer loop
      vertex -14.1232 -5.05335 0
      vertex -0.880383 -5.93506 0
      vertex -0.588103 -5.97111 0
    endloop
  endfacet
  facet normal 0 0 -1
    outer loop
      vertex 5.05335 -14.1232 0
      vertex 4.35427 -14.3541 0
      vertex -12.8659 -7.71154 0
    endloop
  endfacet
  facet normal 0 0 -1
    outer loop
      vertex -14.1232 -5.05335 0
      vertex -1.74171 -5.74164 0
      vertex -1.45788 -5.82019 0
    endloop
  endfacet
  facet normal 0 0 -1
    outer loop
      vertex 16.2635 -12.0208 0
      vertex 6.46351 -13.5346 0
      vertex -13.2288 -7.07095 0
    endloop
  endfacet
  facet normal 0 0 -1
    outer loop
      vertex 16.2635 -12.0208 0
      vertex -13.2288 -7.07095 0
      vertex -13.5598 -6.41333 0
    endloop
  endfacet
  facet normal 0 0 -1
    outer loop
      vertex -14.1232 -5.05335 0
      vertex -2.56533 -5.42394 0
      vertex -2.2961 -5.54328 0
    endloop
  endfacet
  facet normal 0 0 -1
    outer loop
      vertex 12.5124 -8.26978 0
      vertex 16.2635 -12.0208 0
      vertex -13.8582 -5.74025 0
    endloop
  endfacet
  facet normal 0 0 -1
    outer loop
      vertex -3.08462 -5.14637 0
      vertex -2.82838 -5.29153 0
      vertex -14.1232 -5.05335 0
    endloop
  endfacet
  facet normal 0 0 -1
    outer loop
      vertex 13.8582 5.74025 0
      vertex 4.63806 -3.80636 0
      vertex 4.81924 -3.5742 0
    endloop
  endfacet
  facet normal 0 0 -1
    outer loop
      vertex -14.1408 -5 0
      vertex -3.08462 -5.14637 0
      vertex -14.1232 -5.05335 0
    endloop
  endfacet
  facet normal 0 0 -1
    outer loop
      vertex 13.8582 5.74025 0
      vertex 4.81924 -3.5742 0
      vertex 4.98882 -3.33342 0
    endloop
  endfacet
  facet normal 0 0 -1
    outer loop
      vertex 13.8582 5.74025 0
      vertex 4.98882 -3.33342 0
      vertex 5.14637 -3.08462 0
    endloop
  endfacet
  facet normal 0 0 -1
    outer loop
      vertex 13.8582 5.74025 0
      vertex 5.14637 -3.08462 0
      vertex 5.29153 -2.82838 0
    endloop
  endfacet
  facet normal 0 0 -1
    outer loop
      vertex 13.8582 5.74025 0
      vertex 5.29153 -2.82838 0
      vertex 5.42394 -2.56533 0
    endloop
  endfacet
  facet normal 0 0 -1
    outer loop
      vertex 13.8582 5.74025 0
      vertex 5.42394 -2.56533 0
      vertex 5.54328 -2.2961 0
    endloop
  endfacet
  facet normal 0 0 -1
    outer loop
      vertex 13.8582 5.74025 0
      vertex 5.54328 -2.2961 0
      vertex 5.64926 -2.02134 0
    endloop
  endfacet
  facet normal 0 0 -1
    outer loop
      vertex 13.8582 5.74025 0
      vertex 5.64926 -2.02134 0
      vertex 13.5598 6.41333 0
    endloop
  endfacet
  facet normal 0 0 -1
    outer loop
      vertex -14.1232 -5.05335 0
      vertex 13.2288 -7.07095 0
      vertex 12.8659 -7.71154 0
    endloop
  endfacet
  facet normal 0 0 -1
    outer loop
      vertex -14.1232 -5.05335 0
      vertex 12.8659 -7.71154 0
      vertex 12.5124 -8.26978 0
    endloop
  endfacet
  facet normal 0 0 -1
    outer loop
      vertex -14.1232 -5.05335 0
      vertex 12.5124 -8.26978 0
      vertex -13.8582 -5.74025 0
    endloop
  endfacet
  facet normal 0 1 0
    outer loop
      vertex -20 3 0
      vertex -20 3 2.5
      vertex -14.6952 3 0
    endloop
  endfacet
  facet normal 0 1 0
    outer loop
      vertex -14.6952 3 0
      vertex -20 3 2.5
      vertex -14.6952 3 2.5
    endloop
  endfacet
  facet normal 0 0 1
    outer loop
      vertex -14.1232 -5.05335 2.5
      vertex -13.8582 -5.74025 2.5
      vertex -14.1408 -5 2.5
    endloop
  endfacet
  facet normal 0 0 1
    outer loop
      vertex -20 3 2.5
      vertex -20 -5 2.5
      vertex -14.1408 -5 2.5
    endloop
  endfacet
  facet normal 0 0 1
    outer loop
      vertex -12.5124 -8.26978 2.5
      vertex -6.46351 -13.5346 2.5
      vertex -14.1408 -5 2.5
    endloop
  endfacet
  facet normal 0 0 1
    outer loop
      vertex -6.46351 -13.5346 2.5
      vertex -20 3 2.5
      vertex -14.1408 -5 2.5
    endloop
  endfacet
  facet normal 0 0 1
    outer loop
      vertex -4 -14.4521 2.5
      vertex 4 -20 2.5
      vertex -20 3 2.5
    endloop
  endfacet
  facet normal 0 0 1
    outer loop
      vertex -13.8582 -5.74025 2.5
      vertex -13.5598 -6.41333 2.5
      vertex -14.1408 -5 2.5
    endloop
  endfacet
  facet normal 0 0 1
    outer loop
      vertex -13.5598 -6.41333 2.5
      vertex -13.2288 -7.07095 2.5
      vertex -14.1408 -5 2.5
    endloop
  endfacet
  facet normal 0 0 1
    outer loop
      vertex -13.2288 -7.07095 2.5
      vertex -12.8659 -7.71154 2.5
      vertex -14.1408 -5 2.5
    endloop
  endfacet
  facet normal 0 0 1
    outer loop
      vertex -12.8659 -7.71154 2.5
      vertex -12.5124 -8.26978 2.5
      vertex -14.1408 -5 2.5
    endloop
  endfacet
  facet normal 0 0 1
    outer loop
      vertex -16.2635 -12.0208 2.5
      vertex -10.6066 -17.6777 2.5
      vertex -12.5124 -8.26978 2.5
    endloop
  endfacet
  facet normal 0 0 1
    outer loop
      vertex -10.6066 -17.6777 2.5
      vertex -6.46351 -13.5346 2.5
      vertex -12.5124 -8.26978 2.5
    endloop
  endfacet
  facet normal 0 0 1
    outer loop
      vertex 4 -14.4521 2.5
      vertex 4.35427 -14.3541 2.5
      vertex -20 3 2.5
    endloop
  endfacet
  facet normal 0 0 1
    outer loop
      vertex -6.46351 -13.5346 2.5
      vertex -6.41333 -13.5598 2.5
      vertex -20 3 2.5
    endloop
  endfacet
  facet normal 0 0 1
    outer loop
      vertex -6.41333 -13.5598 2.5
      vertex -5.74025 -13.8582 2.5
      vertex -20 3 2.5
    endloop
  endfacet
  facet normal 0 0 1
    outer loop
      vertex -5.74025 -13.8582 2.5
      vertex -5.05335 -14.1232 2.5
      vertex -20 3 2.5
    endloop
  endfacet
  facet normal 0 0 1
    outer loop
      vertex -5.05335 -14.1232 2.5
      vertex -4.35427 -14.3541 2.5
      vertex -20 3 2.5
    endloop
  endfacet
  facet normal 0 0 1
    outer loop
      vertex -4.35427 -14.3541 2.5
      vertex -4 -14.4521 2.5
      vertex -20 3 2.5
    endloop
  endfacet
  facet normal 0 0 1
    outer loop
      vertex -4 -20 2.5
      vertex 4 -20 2.5
      vertex -4 -14.4521 2.5
    endloop
  endfacet
  facet normal 0 0 1
    outer loop
      vertex 4 -20 2.5
      vertex 4 -14.4521 2.5
      vertex -20 3 2.5
    endloop
  endfacet
  facet normal 0 0 1
    outer loop
      vertex 4.35427 -14.3541 2.5
      vertex 5.05335 -14.1232 2.5
      vertex -20 3 2.5
    endloop
  endfacet
  facet normal 0 0 1
    outer loop
      vertex 5.05335 -14.1232 2.5
      vertex 5.74025 -13.8582 2.5
      vertex -20 3 2.5
    endloop
  endfacet
  facet normal 0 0 1
    outer loop
      vertex 5.74025 -13.8582 2.5
      vertex 6.41333 -13.5598 2.5
      vertex -20 3 2.5
    endloop
  endfacet
  facet normal 0 0 1
    outer loop
      vertex 6.41333 -13.5598 2.5
      vertex 6.46351 -13.5346 2.5
      vertex -20 3 2.5
    endloop
  endfacet
  facet normal 0 0 1
    outer loop
      vertex 10.6066 -17.6777 2.5
      vertex 16.2635 -12.0208 2.5
      vertex 6.46351 -13.5346 2.5
    endloop
  endfacet
  facet normal 0 0 1
    outer loop
      vertex 1.45788 -5.82019 2.5
      vertex 1.17054 -5.88471 2.5
      vertex 16.2635 -12.0208 2.5
    endloop
  endfacet
  facet normal 0 0 1
    outer loop
      vertex -5.93506 -0.880383 2.5
      vertex -5.97111 -0.588103 2.5
      vertex -20 3 2.5
    endloop
  endfacet
  facet normal 0 0 1
    outer loop
      vertex 20 -5 2.5
      vertex 20 3 2.5
      vertex 14.6952 3 2.5
    endloop
  endfacet
  facet normal 0 0 1
    outer loop
      vertex 5.29153 -2.82838 2.5
      vertex 5.14637 -3.08462 2.5
      vertex 14.1232 -5.05335 2.5
    endloop
  endfacet
  facet normal 0 0 1
    outer loop
      vertex -5.02077 3.28296 2.5
      vertex -13.8582 5.74025 2.5
      vertex -14.1232 5.05335 2.5
    endloop
  endfacet
  facet normal 0 0 1
    outer loop
      vertex -5.02077 3.28296 2.5
      vertex -13.5598 6.41333 2.5
      vertex -13.8582 5.74025 2.5
    endloop
  endfacet
  facet normal 0 0 1
    outer loop
      vertex -5.02077 3.28296 2.5
      vertex -7.60473 12.9264 2.5
      vertex -13.5346 6.46351 2.5
    endloop
  endfacet
  facet normal 0 0 1
    outer loop
      vertex 8.26978 12.5124 2.5
      vertex 17.6777 10.6066 2.5
      vertex 12.0208 16.2635 2.5
    endloop
  endfacet
  facet normal 0 0 1
    outer loop
      vertex -17.6777 10.6066 2.5
      vertex -13.5346 6.46351 2.5
      vertex -8.26978 12.5124 2.5
    endloop
  endfacet
  facet normal 0 0 1
    outer loop
      vertex 14.6952 3 2.5
      vertex 14.5505 3.6447 2.5
      vertex 5.02077 3.28296 2.5
    endloop
  endfacet
  facet normal 0 0 1
    outer loop
      vertex 14.6952 3 2.5
      vertex 5.02077 3.28296 2.5
      vertex 5.14637 3.08462 2.5
    endloop
  endfacet
  facet normal 0 0 1
    outer loop
      vertex -5.02077 3.28296 2.5
      vertex -14.1232 5.05335 2.5
      vertex -14.3541 4.35427 2.5
    endloop
  endfacet
  facet normal 0 0 1
    outer loop
      vertex 20 -5 2.5
      vertex 14.6952 3 2.5
      vertex 5.29153 2.82838 2.5
    endloop
  endfacet
  facet normal 0 0 1
    outer loop
      vertex 20 -5 2.5
      vertex 5.29153 2.82838 2.5
      vertex 5.42394 2.56533 2.5
    endloop
  endfacet
  facet normal 0 0 1
    outer loop
      vertex -5.29153 2.82838 2.5
      vertex -14.6952 3 2.5
      vertex -20 3 2.5
    endloop
  endfacet
  facet normal 0 0 1
    outer loop
      vertex 20 -5 2.5
      vertex 5.42394 2.56533 2.5
      vertex 5.54328 2.2961 2.5
    endloop
  endfacet
  facet normal 0 0 1
    outer loop
      vertex 20 -5 2.5
      vertex 5.54328 2.2961 2.5
      vertex 5.64926 2.02134 2.5
    endloop
  endfacet
  facet normal 0 0 1
    outer loop
      vertex -5.54328 2.2961 2.5
      vertex -5.42394 2.56533 2.5
      vertex -20 3 2.5
    endloop
  endfacet
  facet normal 0 0 1
    outer loop
      vertex 20 -5 2.5
      vertex 5.64926 2.02134 2.5
      vertex 5.74164 1.74171 2.5
    endloop
  endfacet
  facet normal 0 0 1
    outer loop
      vertex -5.42394 2.56533 2.5
      vertex -5.29153 2.82838 2.5
      vertex -20 3 2.5
    endloop
  endfacet
  facet normal 0 0 1
    outer loop
      vertex 20 -5 2.5
      vertex 5.74164 1.74171 2.5
      vertex 5.82019 1.45788 2.5
    endloop
  endfacet
  facet normal 0 0 1
    outer loop
      vertex 20 -5 2.5
      vertex 5.82019 1.45788 2.5
      vertex 5.88471 1.17054 2.5
    endloop
  endfacet
  facet normal 0 0 1
    outer loop
      vertex -5.64926 2.02134 2.5
      vertex -5.54328 2.2961 2.5
      vertex -20 3 2.5
    endloop
  endfacet
  facet normal 0 0 1
    outer loop
      vertex 20 -5 2.5
      vertex 5.88471 1.17054 2.5
      vertex 5.93506 0.880383 2.5
    endloop
  endfacet
  facet normal 0 0 1
    outer loop
      vertex 20 -5 2.5
      vertex 5.93506 0.880383 2.5
      vertex 5.97111 0.588103 2.5
    endloop
  endfacet
  facet normal 0 0 1
    outer loop
      vertex -5.74164 1.74171 2.5
      vertex -5.64926 2.02134 2.5
      vertex -20 3 2.5
    endloop
  endfacet
  facet normal 0 0 1
    outer loop
      vertex 20 -5 2.5
      vertex 5.97111 0.588103 2.5
      vertex 5.99277 0.294406 2.5
    endloop
  endfacet
  facet normal 0 0 1
    outer loop
      vertex 20 -5 2.5
      vertex 5.99277 0.294406 2.5
      vertex 6 0 2.5
    endloop
  endfacet
  facet normal 0 0 1
    outer loop
      vertex -5.82019 1.45788 2.5
      vertex -5.74164 1.74171 2.5
      vertex -20 3 2.5
    endloop
  endfacet
  facet normal 0 0 1
    outer loop
      vertex 20 -5 2.5
      vertex 6 0 2.5
      vertex 5.99277 -0.294406 2.5
    endloop
  endfacet
  facet normal 0 0 1
    outer loop
      vertex 20 -5 2.5
      vertex 5.99277 -0.294406 2.5
      vertex 5.97111 -0.588103 2.5
    endloop
  endfacet
  facet normal 0 0 1
    outer loop
      vertex -5.88471 1.17054 2.5
      vertex -5.82019 1.45788 2.5
      vertex -20 3 2.5
    endloop
  endfacet
  facet normal 0 0 1
    outer loop
      vertex 20 -5 2.5
      vertex 5.97111 -0.588103 2.5
      vertex 5.93506 -0.880383 2.5
    endloop
  endfacet
  facet normal 0 0 1
    outer loop
      vertex 20 -5 2.5
      vertex 5.93506 -0.880383 2.5
      vertex 5.88471 -1.17054 2.5
    endloop
  endfacet
  facet normal 0 0 1
    outer loop
      vertex -5.97111 0.588103 2.5
      vertex -5.93506 0.880383 2.5
      vertex -20 3 2.5
    endloop
  endfacet
  facet normal 0 0 1
    outer loop
      vertex 20 -5 2.5
      vertex 5.88471 -1.17054 2.5
      vertex 5.82019 -1.45788 2.5
    endloop
  endfacet
  facet normal 0 0 1
    outer loop
      vertex -5.93506 0.880383 2.5
      vertex -5.88471 1.17054 2.5
      vertex -20 3 2.5
    endloop
  endfacet
  facet normal 0 0 1
    outer loop
      vertex 20 -5 2.5
      vertex 5.82019 -1.45788 2.5
      vertex 5.74164 -1.74171 2.5
    endloop
  endfacet
  facet normal 0 0 1
    outer loop
      vertex -6 0 2.5
      vertex -5.99277 0.294406 2.5
      vertex -20 3 2.5
    endloop
  endfacet
  facet normal 0 0 1
    outer loop
      vertex 20 -5 2.5
      vertex 5.74164 -1.74171 2.5
      vertex 5.64926 -2.02134 2.5
    endloop
  endfacet
  facet normal 0 0 1
    outer loop
      vertex -5.99277 0.294406 2.5
      vertex -5.97111 0.588103 2.5
      vertex -20 3 2.5
    endloop
  endfacet
  facet normal 0 0 1
    outer loop
      vertex 14.1408 -5 2.5
      vertex 20 -5 2.5
      vertex 5.54328 -2.2961 2.5
    endloop
  endfacet
  facet normal 0 0 1
    outer loop
      vertex 14.1408 -5 2.5
      vertex 5.54328 -2.2961 2.5
      vertex 5.42394 -2.56533 2.5
    endloop
  endfacet
  facet normal 0 0 1
    outer loop
      vertex -5.29153 2.82838 2.5
      vertex -5.14637 3.08462 2.5
      vertex -14.6952 3 2.5
    endloop
  endfacet
  facet normal 0 0 1
    outer loop
      vertex 14.1408 -5 2.5
      vertex 5.42394 -2.56533 2.5
      vertex 5.29153 -2.82838 2.5
    endloop
  endfacet
  facet normal 0 0 1
    outer loop
      vertex 13.8582 -5.74025 2.5
      vertex 14.1232 -5.05335 2.5
      vertex 5.14637 -3.08462 2.5
    endloop
  endfacet
  facet normal 0 0 1
    outer loop
      vertex -5.99277 -0.294406 2.5
      vertex -6 0 2.5
      vertex -20 3 2.5
    endloop
  endfacet
  facet normal 0 0 1
    outer loop
      vertex 13.8582 -5.74025 2.5
      vertex 5.14637 -3.08462 2.5
      vertex 4.98882 -3.33342 2.5
    endloop
  endfacet
  facet normal 0 0 1
    outer loop
      vertex 13.5598 -6.41333 2.5
      vertex 13.8582 -5.74025 2.5
      vertex 4.81924 -3.5742 2.5
    endloop
  endfacet
  facet normal 0 0 1
    outer loop
      vertex 4.24264 -4.24264 2.5
      vertex 4.02935 -4.44571 2.5
      vertex 13.2288 -7.07095 2.5
    endloop
  endfacet
  facet normal 0 0 1
    outer loop
      vertex 13.5598 -6.41333 2.5
      vertex 4.81924 -3.5742 2.5
      vertex 4.63806 -3.80636 2.5
    endloop
  endfacet
  facet normal 0 0 1
    outer loop
      vertex -5.97111 -0.588103 2.5
      vertex -5.99277 -0.294406 2.5
      vertex -20 3 2.5
    endloop
  endfacet
  facet normal 0 0 1
    outer loop
      vertex 13.2288 -7.07095 2.5
      vertex 13.5598 -6.41333 2.5
      vertex 4.44571 -4.02935 2.5
    endloop
  endfacet
  facet normal 0 0 1
    outer loop
      vertex 3.80636 -4.63806 2.5
      vertex 3.5742 -4.81924 2.5
      vertex 12.8659 -7.71154 2.5
    endloop
  endfacet
  facet normal 0 0 1
    outer loop
      vertex 13.2288 -7.07095 2.5
      vertex 4.44571 -4.02935 2.5
      vertex 4.24264 -4.24264 2.5
    endloop
  endfacet
  facet normal 0 0 1
    outer loop
      vertex -5.88471 -1.17054 2.5
      vertex -5.93506 -0.880383 2.5
      vertex -20 3 2.5
    endloop
  endfacet
  facet normal 0 0 1
    outer loop
      vertex 12.8659 -7.71154 2.5
      vertex 13.2288 -7.07095 2.5
      vertex 4.02935 -4.44571 2.5
    endloop
  endfacet
  facet normal 0 0 1
    outer loop
      vertex 12.8659 -7.71154 2.5
      vertex 4.02935 -4.44571 2.5
      vertex 3.80636 -4.63806 2.5
    endloop
  endfacet
  facet normal 0 0 1
    outer loop
      vertex -5.82019 -1.45788 2.5
      vertex -5.88471 -1.17054 2.5
      vertex -20 3 2.5
    endloop
  endfacet
  facet normal 0 0 1
    outer loop
      vertex 12.5124 -8.26978 2.5
      vertex 12.8659 -7.71154 2.5
      vertex 3.5742 -4.81924 2.5
    endloop
  endfacet
  facet normal 0 0 1
    outer loop
      vertex -3.5742 -4.81924 2.5
      vertex -3.80636 -4.63806 2.5
      vertex -20 3 2.5
    endloop
  endfacet
  facet normal 0 0 1
    outer loop
      vertex 12.5124 -8.26978 2.5
      vertex 3.5742 -4.81924 2.5
      vertex 3.33342 -4.98882 2.5
    endloop
  endfacet
  facet normal 0 0 1
    outer loop
      vertex -5.64926 -2.02134 2.5
      vertex -5.74164 -1.74171 2.5
      vertex -20 3 2.5
    endloop
  endfacet
  facet normal 0 0 1
    outer loop
      vertex 16.2635 -12.0208 2.5
      vertex 12.5124 -8.26978 2.5
      vertex 3.08462 -5.14637 2.5
    endloop
  endfacet
  facet normal 0 0 1
    outer loop
      vertex -5.74164 -1.74171 2.5
      vertex -5.82019 -1.45788 2.5
      vertex -20 3 2.5
    endloop
  endfacet
  facet normal 0 0 1
    outer loop
      vertex 16.2635 -12.0208 2.5
      vertex 3.08462 -5.14637 2.5
      vertex 2.82838 -5.29153 2.5
    endloop
  endfacet
  facet normal 0 0 1
    outer loop
      vertex 16.2635 -12.0208 2.5
      vertex 2.82838 -5.29153 2.5
      vertex 2.56533 -5.42394 2.5
    endloop
  endfacet
  facet normal 0 0 1
    outer loop
      vertex -5.42394 -2.56533 2.5
      vertex -5.54328 -2.2961 2.5
      vertex -20 3 2.5
    endloop
  endfacet
  facet normal 0 0 1
    outer loop
      vertex 16.2635 -12.0208 2.5
      vertex 2.56533 -5.42394 2.5
      vertex 2.2961 -5.54328 2.5
    endloop
  endfacet
  facet normal 0 0 1
    outer loop
      vertex -5.54328 -2.2961 2.5
      vertex -5.64926 -2.02134 2.5
      vertex -20 3 2.5
    endloop
  endfacet
  facet normal 0 0 1
    outer loop
      vertex 16.2635 -12.0208 2.5
      vertex 2.2961 -5.54328 2.5
      vertex 2.02134 -5.64926 2.5
    endloop
  endfacet
  facet normal 0 0 1
    outer loop
      vertex 16.2635 -12.0208 2.5
      vertex 2.02134 -5.64926 2.5
      vertex 1.74171 -5.74164 2.5
    endloop
  endfacet
  facet normal 0 0 1
    outer loop
      vertex -2.82838 -5.29153 2.5
      vertex -3.08462 -5.14637 2.5
      vertex -20 3 2.5
    endloop
  endfacet
  facet normal 0 0 1
    outer loop
      vertex 16.2635 -12.0208 2.5
      vertex 1.74171 -5.74164 2.5
      vertex 1.45788 -5.82019 2.5
    endloop
  endfacet
  facet normal 0 0 1
    outer loop
      vertex -5.29153 -2.82838 2.5
      vertex -5.42394 -2.56533 2.5
      vertex -20 3 2.5
    endloop
  endfacet
  facet normal 0 0 1
    outer loop
      vertex 6.46351 -13.5346 2.5
      vertex 16.2635 -12.0208 2.5
      vertex 1.17054 -5.88471 2.5
    endloop
  endfacet
  facet normal 0 0 1
    outer loop
      vertex 6.46351 -13.5346 2.5
      vertex 1.17054 -5.88471 2.5
      vertex 0.880383 -5.93506 2.5
    endloop
  endfacet
  facet normal 0 0 1
    outer loop
      vertex -4.81924 -3.5742 2.5
      vertex -4.98882 -3.33342 2.5
      vertex -20 3 2.5
    endloop
  endfacet
  facet normal 0 0 1
    outer loop
      vertex 6.46351 -13.5346 2.5
      vertex 0.880383 -5.93506 2.5
      vertex 0.588103 -5.97111 2.5
    endloop
  endfacet
  facet normal 0 0 1
    outer loop
      vertex -4.63806 -3.80636 2.5
      vertex -4.81924 -3.5742 2.5
      vertex -20 3 2.5
    endloop
  endfacet
  facet normal 0 0 1
    outer loop
      vertex 6.46351 -13.5346 2.5
      vertex 0.588103 -5.97111 2.5
      vertex 0.294406 -5.99277 2.5
    endloop
  endfacet
  facet normal 0 0 1
    outer loop
      vertex -4.98882 -3.33342 2.5
      vertex -5.14637 -3.08462 2.5
      vertex -20 3 2.5
    endloop
  endfacet
  facet normal 0 0 1
    outer loop
      vertex 6.46351 -13.5346 2.5
      vertex 0.294406 -5.99277 2.5
      vertex 0 -6 2.5
    endloop
  endfacet
  facet normal 0 0 1
    outer loop
      vertex 6.46351 -13.5346 2.5
      vertex 0 -6 2.5
      vertex -0.294406 -5.99277 2.5
    endloop
  endfacet
  facet normal 0 0 1
    outer loop
      vertex -4.24264 -4.24264 2.5
      vertex -4.44571 -4.02935 2.5
      vertex -20 3 2.5
    endloop
  endfacet
  facet normal 0 0 1
    outer loop
      vertex 6.46351 -13.5346 2.5
      vertex -0.294406 -5.99277 2.5
      vertex -0.588103 -5.97111 2.5
    endloop
  endfacet
  facet normal 0 0 1
    outer loop
      vertex -4.02935 -4.44571 2.5
      vertex -4.24264 -4.24264 2.5
      vertex -20 3 2.5
    endloop
  endfacet
  facet normal 0 0 1
    outer loop
      vertex 6.46351 -13.5346 2.5
      vertex -0.588103 -5.97111 2.5
      vertex -0.880383 -5.93506 2.5
    endloop
  endfacet
  facet normal 0 0 1
    outer loop
      vertex -3.80636 -4.63806 2.5
      vertex -4.02935 -4.44571 2.5
      vertex -20 3 2.5
    endloop
  endfacet
  facet normal 0 0 1
    outer loop
      vertex 6.46351 -13.5346 2.5
      vertex -0.880383 -5.93506 2.5
      vertex -1.17054 -5.88471 2.5
    endloop
  endfacet
  facet normal 0 0 1
    outer loop
      vertex -4.44571 -4.02935 2.5
      vertex -4.63806 -3.80636 2.5
      vertex -20 3 2.5
    endloop
  endfacet
  facet normal 0 0 1
    outer loop
      vertex 6.46351 -13.5346 2.5
      vertex -1.17054 -5.88471 2.5
      vertex -1.45788 -5.82019 2.5
    endloop
  endfacet
  facet normal 0 0 1
    outer loop
      vertex 6.46351 -13.5346 2.5
      vertex -1.45788 -5.82019 2.5
      vertex -1.74171 -5.74164 2.5
    endloop
  endfacet
  facet normal 0 0 1
    outer loop
      vertex -3.33342 -4.98882 2.5
      vertex -3.5742 -4.81924 2.5
      vertex -20 3 2.5
    endloop
  endfacet
  facet normal 0 0 1
    outer loop
      vertex 6.46351 -13.5346 2.5
      vertex -1.74171 -5.74164 2.5
      vertex -2.02134 -5.64926 2.5
    endloop
  endfacet
  facet normal 0 0 1
    outer loop
      vertex -3.08462 -5.14637 2.5
      vertex -3.33342 -4.98882 2.5
      vertex -20 3 2.5
    endloop
  endfacet
  facet normal 0 0 1
    outer loop
      vertex 6.46351 -13.5346 2.5
      vertex -2.02134 -5.64926 2.5
      vertex -2.2961 -5.54328 2.5
    endloop
  endfacet
  facet normal 0 0 1
    outer loop
      vertex 6.46351 -13.5346 2.5
      vertex -2.56533 -5.42394 2.5
      vertex -20 3 2.5
    endloop
  endfacet
  facet normal 0 0 1
    outer loop
      vertex 6.46351 -13.5346 2.5
      vertex -2.2961 -5.54328 2.5
      vertex -2.56533 -5.42394 2.5
    endloop
  endfacet
  facet normal 0 0 1
    outer loop
      vertex -2.56533 -5.42394 2.5
      vertex -2.82838 -5.29153 2.5
      vertex -20 3 2.5
    endloop
  endfacet
  facet normal 0 0 1
    outer loop
      vertex -5.14637 -3.08462 2.5
      vertex -5.29153 -2.82838 2.5
      vertex -20 3 2.5
    endloop
  endfacet
  facet normal 0 0 1
    outer loop
      vertex 4.63806 -3.80636 2.5
      vertex 4.44571 -4.02935 2.5
      vertex 13.5598 -6.41333 2.5
    endloop
  endfacet
  facet normal 0 0 1
    outer loop
      vertex 3.33342 -4.98882 2.5
      vertex 3.08462 -5.14637 2.5
      vertex 12.5124 -8.26978 2.5
    endloop
  endfacet
  facet normal 0 0 1
    outer loop
      vertex 4.98882 -3.33342 2.5
      vertex 4.81924 -3.5742 2.5
      vertex 13.8582 -5.74025 2.5
    endloop
  endfacet
  facet normal 0 0 1
    outer loop
      vertex 5.29153 -2.82838 2.5
      vertex 14.1232 -5.05335 2.5
      vertex 14.1408 -5 2.5
    endloop
  endfacet
  facet normal 0 0 1
    outer loop
      vertex 5.14637 3.08462 2.5
      vertex 5.29153 2.82838 2.5
      vertex 14.6952 3 2.5
    endloop
  endfacet
  facet normal 0 0 1
    outer loop
      vertex -14.5505 3.6447 2.5
      vertex -5.14637 3.08462 2.5
      vertex -5.02077 3.28296 2.5
    endloop
  endfacet
  facet normal 0 0 1
    outer loop
      vertex -14.5505 3.6447 2.5
      vertex -14.6952 3 2.5
      vertex -5.14637 3.08462 2.5
    endloop
  endfacet
  facet normal 0 0 1
    outer loop
      vertex -17.6777 10.6066 2.5
      vertex -8.26978 12.5124 2.5
      vertex -12.0208 16.2635 2.5
    endloop
  endfacet
  facet normal 0 0 1
    outer loop
      vertex -8.26978 12.5124 2.5
      vertex -7.60473 12.9264 2.5
      vertex -7.71154 12.8659 2.5
    endloop
  endfacet
  facet normal 0 0 1
    outer loop
      vertex -8.26978 12.5124 2.5
      vertex -13.5346 6.46351 2.5
      vertex -7.60473 12.9264 2.5
    endloop
  endfacet
  facet normal 0 0 1
    outer loop
      vertex -5.02077 3.28296 2.5
      vertex -13.5346 6.46351 2.5
      vertex -13.5598 6.41333 2.5
    endloop
  endfacet
  facet normal 0 0 1
    outer loop
      vertex -5.02077 3.28296 2.5
      vertex -14.3541 4.35427 2.5
      vertex -14.5505 3.6447 2.5
    endloop
  endfacet
  facet normal 0 0 1
    outer loop
      vertex 5.64926 -2.02134 2.5
      vertex 5.54328 -2.2961 2.5
      vertex 20 -5 2.5
    endloop
  endfacet
  facet normal 0 0 1
    outer loop
      vertex 7.60473 12.9264 2.5
      vertex 8.26978 12.5124 2.5
      vertex 7.71154 12.8659 2.5
    endloop
  endfacet
  facet normal 0 0 1
    outer loop
      vertex 8.26978 12.5124 2.5
      vertex 13.5346 6.46351 2.5
      vertex 17.6777 10.6066 2.5
    endloop
  endfacet
  facet normal 0 0 1
    outer loop
      vertex 7.60473 12.9264 2.5
      vertex 13.5346 6.46351 2.5
      vertex 8.26978 12.5124 2.5
    endloop
  endfacet
  facet normal 0 0 1
    outer loop
      vertex 7.60473 12.9264 2.5
      vertex 13.5598 6.41333 2.5
      vertex 13.5346 6.46351 2.5
    endloop
  endfacet
  facet normal 0 0 1
    outer loop
      vertex 7.60473 12.9264 2.5
      vertex 13.8582 5.74025 2.5
      vertex 13.5598 6.41333 2.5
    endloop
  endfacet
  facet normal 0 0 1
    outer loop
      vertex 7.60473 12.9264 2.5
      vertex 14.1232 5.05335 2.5
      vertex 13.8582 5.74025 2.5
    endloop
  endfacet
  facet normal 0 0 1
    outer loop
      vertex 7.60473 12.9264 2.5
      vertex 14.3541 4.35427 2.5
      vertex 14.1232 5.05335 2.5
    endloop
  endfacet
  facet normal 0 0 1
    outer loop
      vertex 7.60473 12.9264 2.5
      vertex 14.5505 3.6447 2.5
      vertex 14.3541 4.35427 2.5
    endloop
  endfacet
  facet normal 0 0 1
    outer loop
      vertex 7.60473 12.9264 2.5
      vertex 5.02077 3.28296 2.5
      vertex 14.5505 3.6447 2.5
    endloop
  endfacet
  facet normal -0.949528 -0.313682 0
    outer loop
      vertex -14.1408 -5 0
      vertex -14.1232 -5.05335 0
      vertex -14.1408 -5 2.5
    endloop
  endfacet
  facet normal -0.949528 -0.313682 0
    outer loop
      vertex -14.1408 -5 2.5
      vertex -14.1232 -5.05335 0
      vertex -14.1232 -5.05335 2.5
    endloop
  endfacet
  facet normal -0.932993 -0.359895 0
    outer loop
      vertex -14.1232 -5.05335 0
      vertex -13.8582 -5.74025 0
      vertex -14.1232 -5.05335 2.5
    endloop
  endfacet
  facet normal -0.932993 -0.359895 0
    outer loop
      vertex -14.1232 -5.05335 2.5
      vertex -13.8582 -5.74025 0
      vertex -13.8582 -5.74025 2.5
    endloop
  endfacet
  facet normal -0.91421 -0.405242 0
    outer loop
      vertex -13.8582 -5.74025 0
      vertex -13.5598 -6.41333 0
      vertex -13.8582 -5.74025 2.5
    endloop
  endfacet
  facet normal -0.91421 -0.405242 0
    outer loop
      vertex -13.8582 -5.74025 2.5
      vertex -13.5598 -6.41333 0
      vertex -13.5598 -6.41333 2.5
    endloop
  endfacet
  facet normal -0.893225 -0.449611 0
    outer loop
      vertex -13.5598 -6.41333 0
      vertex -13.2288 -7.07095 0
      vertex -13.5598 -6.41333 2.5
    endloop
  endfacet
  facet normal -0.893225 -0.449611 0
    outer loop
      vertex -13.5598 -6.41333 2.5
      vertex -13.2288 -7.07095 0
      vertex -13.2288 -7.07095 2.5
    endloop
  endfacet
  facet normal -0.870087 -0.492898 0
    outer loop
      vertex -13.2288 -7.07095 0
      vertex -12.8659 -7.71154 0
      vertex -13.2288 -7.07095 2.5
    endloop
  endfacet
  facet normal -0.870087 -0.492898 0
    outer loop
      vertex -13.2288 -7.07095 2.5
      vertex -12.8659 -7.71154 0
      vertex -12.8659 -7.71154 2.5
    endloop
  endfacet
  facet normal -0.844853 -0.534998 0
    outer loop
      vertex -12.8659 -7.71154 0
      vertex -12.5124 -8.26978 0
      vertex -12.8659 -7.71154 2.5
    endloop
  endfacet
  facet normal -0.844853 -0.534998 0
    outer loop
      vertex -12.8659 -7.71154 2.5
      vertex -12.5124 -8.26978 0
      vertex -12.5124 -8.26978 2.5
    endloop
  endfacet
  facet normal -0.707107 0.707107 0
    outer loop
      vertex -16.2635 -12.0208 0
      vertex -16.2635 -12.0208 2.5
      vertex -12.5124 -8.26978 0
    endloop
  endfacet
  facet normal -0.707107 0.707107 0
    outer loop
      vertex -12.5124 -8.26978 0
      vertex -16.2635 -12.0208 2.5
      vertex -12.5124 -8.26978 2.5
    endloop
  endfacet
  facet normal -0.707107 -0.707107 0
    outer loop
      vertex -16.2635 -12.0208 2.5
      vertex -16.2635 -12.0208 0
      vertex -10.6066 -17.6777 0
    endloop
  endfacet
  facet normal -0.707107 -0.707107 0
    outer loop
      vertex -10.6066 -17.6777 2.5
      vertex -16.2635 -12.0208 2.5
      vertex -10.6066 -17.6777 0
    endloop
  endfacet
  facet normal 0.707107 -0.707107 0
    outer loop
      vertex -10.6066 -17.6777 2.5
      vertex -10.6066 -17.6777 0
      vertex -6.46351 -13.5346 0
    endloop
  endfacet
  facet normal 0.707107 -0.707107 0
    outer loop
      vertex -6.46351 -13.5346 2.5
      vertex -10.6066 -17.6777 2.5
      vertex -6.46351 -13.5346 0
    endloop
  endfacet
  facet normal -0.449611 -0.893225 0
    outer loop
      vertex -6.46351 -13.5346 2.5
      vertex -6.46351 -13.5346 0
      vertex -6.41333 -13.5598 0
    endloop
  endfacet
  facet normal -0.449611 -0.893225 0
    outer loop
      vertex -6.41333 -13.5598 2.5
      vertex -6.46351 -13.5346 2.5
      vertex -6.41333 -13.5598 0
    endloop
  endfacet
  facet normal -0.405242 -0.91421 0
    outer loop
      vertex -6.41333 -13.5598 2.5
      vertex -6.41333 -13.5598 0
      vertex -5.74025 -13.8582 0
    endloop
  endfacet
  facet normal -0.405242 -0.91421 0
    outer loop
      vertex -5.74025 -13.8582 2.5
      vertex -6.41333 -13.5598 2.5
      vertex -5.74025 -13.8582 0
    endloop
  endfacet
  facet normal -0.359895 -0.932993 0
    outer loop
      vertex -5.74025 -13.8582 2.5
      vertex -5.74025 -13.8582 0
      vertex -5.05335 -14.1232 0
    endloop
  endfacet
  facet normal -0.359895 -0.932993 0
    outer loop
      vertex -5.05335 -14.1232 2.5
      vertex -5.74025 -13.8582 2.5
      vertex -5.05335 -14.1232 0
    endloop
  endfacet
  facet normal -0.313682 -0.949528 0
    outer loop
      vertex -5.05335 -14.1232 2.5
      vertex -5.05335 -14.1232 0
      vertex -4.35427 -14.3541 0
    endloop
  endfacet
  facet normal -0.313682 -0.949528 0
    outer loop
      vertex -4.35427 -14.3541 2.5
      vertex -5.05335 -14.1232 2.5
      vertex -4.35427 -14.3541 0
    endloop
  endfacet
  facet normal -0.266713 -0.963776 0
    outer loop
      vertex -4.35427 -14.3541 2.5
      vertex -4.35427 -14.3541 0
      vertex -4 -14.4521 0
    endloop
  endfacet
  facet normal -0.266713 -0.963776 0
    outer loop
      vertex -4 -14.4521 2.5
      vertex -4.35427 -14.3541 2.5
      vertex -4 -14.4521 0
    endloop
  endfacet
  facet normal -1 0 0
    outer loop
      vertex -4 -20 0
      vertex -4 -20 2.5
      vertex -4 -14.4521 0
    endloop
  endfacet
  facet normal -1 0 0
    outer loop
      vertex -4 -14.4521 0
      vertex -4 -20 2.5
      vertex -4 -14.4521 2.5
    endloop
  endfacet
  facet normal 0 -1 0
    outer loop
      vertex -4 -20 2.5
      vertex -4 -20 0
      vertex 4 -20 0
    endloop
  endfacet
  facet normal 0 -1 0
    outer loop
      vertex 4 -20 2.5
      vertex -4 -20 2.5
      vertex 4 -20 0
    endloop
  endfacet
  facet normal 1 0 0
    outer loop
      vertex 4 -20 2.5
      vertex 4 -20 0
      vertex 4 -14.4521 0
    endloop
  endfacet
  facet normal 1 0 0
    outer loop
      vertex 4 -14.4521 2.5
      vertex 4 -20 2.5
      vertex 4 -14.4521 0
    endloop
  endfacet
  facet normal 0.266713 -0.963776 0
    outer loop
      vertex 4 -14.4521 2.5
      vertex 4 -14.4521 0
      vertex 4.35427 -14.3541 0
    endloop
  endfacet
  facet normal 0.266713 -0.963776 0
    outer loop
      vertex 4.35427 -14.3541 2.5
      vertex 4 -14.4521 2.5
      vertex 4.35427 -14.3541 0
    endloop
  endfacet
  facet normal 0.313682 -0.949528 0
    outer loop
      vertex 4.35427 -14.3541 2.5
      vertex 4.35427 -14.3541 0
      vertex 5.05335 -14.1232 0
    endloop
  endfacet
  facet normal 0.313682 -0.949528 0
    outer loop
      vertex 5.05335 -14.1232 2.5
      vertex 4.35427 -14.3541 2.5
      vertex 5.05335 -14.1232 0
    endloop
  endfacet
  facet normal 0.359895 -0.932993 0
    outer loop
      vertex 5.05335 -14.1232 2.5
      vertex 5.05335 -14.1232 0
      vertex 5.74025 -13.8582 0
    endloop
  endfacet
  facet normal 0.359895 -0.932993 0
    outer loop
      vertex 5.74025 -13.8582 2.5
      vertex 5.05335 -14.1232 2.5
      vertex 5.74025 -13.8582 0
    endloop
  endfacet
  facet normal 0.405242 -0.91421 0
    outer loop
      vertex 5.74025 -13.8582 2.5
      vertex 5.74025 -13.8582 0
      vertex 6.41333 -13.5598 0
    endloop
  endfacet
  facet normal 0.405242 -0.91421 0
    outer loop
      vertex 6.41333 -13.5598 2.5
      vertex 5.74025 -13.8582 2.5
      vertex 6.41333 -13.5598 0
    endloop
  endfacet
  facet normal 0.449611 -0.893225 0
    outer loop
      vertex 6.41333 -13.5598 2.5
      vertex 6.41333 -13.5598 0
      vertex 6.46351 -13.5346 0
    endloop
  endfacet
  facet normal 0.449611 -0.893225 0
    outer loop
      vertex 6.46351 -13.5346 2.5
      vertex 6.41333 -13.5598 2.5
      vertex 6.46351 -13.5346 0
    endloop
  endfacet
  facet normal -0.707107 -0.707107 0
    outer loop
      vertex 6.46351 -13.5346 0
      vertex 10.6066 -17.6777 0
      vertex 6.46351 -13.5346 2.5
    endloop
  endfacet
  facet normal -0.707107 -0.707107 0
    outer loop
      vertex 6.46351 -13.5346 2.5
      vertex 10.6066 -17.6777 0
      vertex 10.6066 -17.6777 2.5
    endloop
  endfacet
  facet normal 0.707107 -0.707107 0
    outer loop
      vertex 10.6066 -17.6777 2.5
      vertex 10.6066 -17.6777 0
      vertex 16.2635 -12.0208 0
    endloop
  endfacet
  facet normal 0.707107 -0.707107 0
    outer loop
      vertex 16.2635 -12.0208 2.5
      vertex 10.6066 -17.6777 2.5
      vertex 16.2635 -12.0208 0
    endloop
  endfacet
  facet normal 0.707107 0.707107 0
    outer loop
      vertex 16.2635 -12.0208 0
      vertex 12.5124 -8.26978 0
      vertex 12.5124 -8.26978 2.5
    endloop
  endfacet
  facet normal 0.707107 0.707107 0
    outer loop
      vertex 16.2635 -12.0208 2.5
      vertex 16.2635 -12.0208 0
      vertex 12.5124 -8.26978 2.5
    endloop
  endfacet
  facet normal 0.844853 -0.534998 0
    outer loop
      vertex 12.5124 -8.26978 2.5
      vertex 12.5124 -8.26978 0
      vertex 12.8659 -7.71154 0
    endloop
  endfacet
  facet normal 0.844853 -0.534998 0
    outer loop
      vertex 12.8659 -7.71154 2.5
      vertex 12.5124 -8.26978 2.5
      vertex 12.8659 -7.71154 0
    endloop
  endfacet
  facet normal 0.870087 -0.492898 0
    outer loop
      vertex 12.8659 -7.71154 2.5
      vertex 12.8659 -7.71154 0
      vertex 13.2288 -7.07095 0
    endloop
  endfacet
  facet normal 0.870087 -0.492898 0
    outer loop
      vertex 13.2288 -7.07095 2.5
      vertex 12.8659 -7.71154 2.5
      vertex 13.2288 -7.07095 0
    endloop
  endfacet
  facet normal 0.893225 -0.449611 0
    outer loop
      vertex 13.2288 -7.07095 2.5
      vertex 13.2288 -7.07095 0
      vertex 13.5598 -6.41333 0
    endloop
  endfacet
  facet normal 0.893225 -0.449611 0
    outer loop
      vertex 13.5598 -6.41333 2.5
      vertex 13.2288 -7.07095 2.5
      vertex 13.5598 -6.41333 0
    endloop
  endfacet
  facet normal 0.91421 -0.405242 0
    outer loop
      vertex 13.5598 -6.41333 2.5
      vertex 13.5598 -6.41333 0
      vertex 13.8582 -5.74025 0
    endloop
  endfacet
  facet normal 0.91421 -0.405242 0
    outer loop
      vertex 13.8582 -5.74025 2.5
      vertex 13.5598 -6.41333 2.5
      vertex 13.8582 -5.74025 0
    endloop
  endfacet
  facet normal 0.932993 -0.359895 0
    outer loop
      vertex 13.8582 -5.74025 2.5
      vertex 13.8582 -5.74025 0
      vertex 14.1232 -5.05335 0
    endloop
  endfacet
  facet normal 0.932993 -0.359895 0
    outer loop
      vertex 14.1232 -5.05335 2.5
      vertex 13.8582 -5.74025 2.5
      vertex 14.1232 -5.05335 0
    endloop
  endfacet
  facet normal 0.949528 -0.313682 0
    outer loop
      vertex 14.1232 -5.05335 2.5
      vertex 14.1232 -5.05335 0
      vertex 14.1408 -5 0
    endloop
  endfacet
  facet normal 0.949528 -0.313682 0
    outer loop
      vertex 14.1408 -5 2.5
      vertex 14.1232 -5.05335 2.5
      vertex 14.1408 -5 0
    endloop
  endfacet
  facet normal 0 -1 0
    outer loop
      vertex 14.1408 -5 2.5
      vertex 14.1408 -5 0
      vertex 20 -5 0
    endloop
  endfacet
  facet normal 0 -1 0
    outer loop
      vertex 20 -5 2.5
      vertex 14.1408 -5 2.5
      vertex 20 -5 0
    endloop
  endfacet
  facet normal 1 0 0
    outer loop
      vertex 20 -5 2.5
      vertex 20 -5 0
      vertex 20 3 0
    endloop
  endfacet
  facet normal 1 0 0
    outer loop
      vertex 20 3 2.5
      vertex 20 -5 2.5
      vertex 20 3 0
    endloop
  endfacet
  facet normal 0 1 0
    outer loop
      vertex 14.6952 3 0
      vertex 14.6952 3 2.5
      vertex 20 3 0
    endloop
  endfacet
  facet normal 0 1 0
    outer loop
      vertex 20 3 0
      vertex 14.6952 3 2.5
      vertex 20 3 2.5
    endloop
  endfacet
  facet normal 0.975702 0.219101 0
    outer loop
      vertex 14.6952 3 0
      vertex 14.5505 3.6447 0
      vertex 14.5505 3.6447 2.5
    endloop
  endfacet
  facet normal 0.975702 0.219101 0
    outer loop
      vertex 14.6952 3 2.5
      vertex 14.6952 3 0
      vertex 14.5505 3.6447 2.5
    endloop
  endfacet
  facet normal 0.963776 0.266713 0
    outer loop
      vertex 14.5505 3.6447 0
      vertex 14.3541 4.35427 0
      vertex 14.3541 4.35427 2.5
    endloop
  endfacet
  facet normal 0.963776 0.266713 0
    outer loop
      vertex 14.5505 3.6447 2.5
      vertex 14.5505 3.6447 0
      vertex 14.3541 4.35427 2.5
    endloop
  endfacet
  facet normal 0.949528 0.313682 0
    outer loop
      vertex 14.3541 4.35427 0
      vertex 14.1232 5.05335 0
      vertex 14.1232 5.05335 2.5
    endloop
  endfacet
  facet normal 0.949528 0.313682 0
    outer loop
      vertex 14.3541 4.35427 2.5
      vertex 14.3541 4.35427 0
      vertex 14.1232 5.05335 2.5
    endloop
  endfacet
  facet normal 0.932993 0.359895 0
    outer loop
      vertex 14.1232 5.05335 0
      vertex 13.8582 5.74025 0
      vertex 13.8582 5.74025 2.5
    endloop
  endfacet
  facet normal 0.932993 0.359895 0
    outer loop
      vertex 14.1232 5.05335 2.5
      vertex 14.1232 5.05335 0
      vertex 13.8582 5.74025 2.5
    endloop
  endfacet
  facet normal 0.91421 0.405242 0
    outer loop
      vertex 13.8582 5.74025 0
      vertex 13.5598 6.41333 0
      vertex 13.5598 6.41333 2.5
    endloop
  endfacet
  facet normal 0.91421 0.405242 0
    outer loop
      vertex 13.8582 5.74025 2.5
      vertex 13.8582 5.74025 0
      vertex 13.5598 6.41333 2.5
    endloop
  endfacet
  facet normal 0.893225 0.449611 0
    outer loop
      vertex 13.5598 6.41333 0
      vertex 13.5346 6.46351 0
      vertex 13.5346 6.46351 2.5
    endloop
  endfacet
  facet normal 0.893225 0.449611 0
    outer loop
      vertex 13.5598 6.41333 2.5
      vertex 13.5598 6.41333 0
      vertex 13.5346 6.46351 2.5
    endloop
  endfacet
  facet normal 0.707107 -0.707107 0
    outer loop
      vertex 13.5346 6.46351 2.5
      vertex 13.5346 6.46351 0
      vertex 17.6777 10.6066 0
    endloop
  endfacet
  facet normal 0.707107 -0.707107 0
    outer loop
      vertex 17.6777 10.6066 2.5
      vertex 13.5346 6.46351 2.5
      vertex 17.6777 10.6066 0
    endloop
  endfacet
  facet normal 0.707107 0.707107 0
    outer loop
      vertex 12.0208 16.2635 0
      vertex 12.0208 16.2635 2.5
      vertex 17.6777 10.6066 0
    endloop
  endfacet
  facet normal 0.707107 0.707107 0
    outer loop
      vertex 17.6777 10.6066 0
      vertex 12.0208 16.2635 2.5
      vertex 17.6777 10.6066 2.5
    endloop
  endfacet
  facet normal -0.707107 0.707107 0
    outer loop
      vertex 8.26978 12.5124 0
      vertex 8.26978 12.5124 2.5
      vertex 12.0208 16.2635 0
    endloop
  endfacet
  facet normal -0.707107 0.707107 0
    outer loop
      vertex 12.0208 16.2635 0
      vertex 8.26978 12.5124 2.5
      vertex 12.0208 16.2635 2.5
    endloop
  endfacet
  facet normal 0.534998 0.844853 0
    outer loop
      vertex 7.71154 12.8659 0
      vertex 7.71154 12.8659 2.5
      vertex 8.26978 12.5124 0
    endloop
  endfacet
  facet normal 0.534998 0.844853 0
    outer loop
      vertex 8.26978 12.5124 0
      vertex 7.71154 12.8659 2.5
      vertex 8.26978 12.5124 2.5
    endloop
  endfacet
  facet normal 0.492898 0.870087 0
    outer loop
      vertex 7.60473 12.9264 0
      vertex 7.60473 12.9264 2.5
      vertex 7.71154 12.8659 0
    endloop
  endfacet
  facet normal 0.492898 0.870087 0
    outer loop
      vertex 7.71154 12.8659 0
      vertex 7.60473 12.9264 2.5
      vertex 7.71154 12.8659 2.5
    endloop
  endfacet
  facet normal -0.965926 0.258819 0
    outer loop
      vertex 7.60473 12.9264 2.5
      vertex 7.60473 12.9264 0
      vertex 5.02077 3.28296 2.5
    endloop
  endfacet
  facet normal -0.965926 0.258819 0
    outer loop
      vertex 5.02077 3.28296 2.5
      vertex 7.60473 12.9264 0
      vertex 5.02077 3.28296 0
    endloop
  endfacet
  facet normal -0.844854 -0.534998 0
    outer loop
      vertex 5.14637 3.08462 2.5
      vertex 5.02077 3.28296 2.5
      vertex 5.14637 3.08462 0
    endloop
  endfacet
  facet normal -0.844854 -0.534998 0
    outer loop
      vertex 5.14637 3.08462 0
      vertex 5.02077 3.28296 2.5
      vertex 5.02077 3.28296 0
    endloop
  endfacet
  facet normal -0.870087 -0.492898 0
    outer loop
      vertex 5.29153 2.82838 2.5
      vertex 5.14637 3.08462 2.5
      vertex 5.29153 2.82838 0
    endloop
  endfacet
  facet normal -0.870087 -0.492898 0
    outer loop
      vertex 5.29153 2.82838 0
      vertex 5.14637 3.08462 2.5
      vertex 5.14637 3.08462 0
    endloop
  endfacet
  facet normal -0.893224 -0.449612 0
    outer loop
      vertex 5.42394 2.56533 2.5
      vertex 5.29153 2.82838 2.5
      vertex 5.42394 2.56533 0
    endloop
  endfacet
  facet normal -0.893224 -0.449612 0
    outer loop
      vertex 5.42394 2.56533 0
      vertex 5.29153 2.82838 2.5
      vertex 5.29153 2.82838 0
    endloop
  endfacet
  facet normal -0.91421 -0.40524 0
    outer loop
      vertex 5.54328 2.2961 2.5
      vertex 5.42394 2.56533 2.5
      vertex 5.54328 2.2961 0
    endloop
  endfacet
  facet normal -0.91421 -0.40524 0
    outer loop
      vertex 5.54328 2.2961 0
      vertex 5.42394 2.56533 2.5
      vertex 5.42394 2.56533 0
    endloop
  endfacet
  facet normal -0.932993 -0.359894 0
    outer loop
      vertex 5.64926 2.02134 2.5
      vertex 5.54328 2.2961 2.5
      vertex 5.64926 2.02134 0
    endloop
  endfacet
  facet normal -0.932993 -0.359894 0
    outer loop
      vertex 5.64926 2.02134 0
      vertex 5.54328 2.2961 2.5
      vertex 5.54328 2.2961 0
    endloop
  endfacet
  facet normal -0.949528 -0.313683 0
    outer loop
      vertex 5.74164 1.74171 2.5
      vertex 5.64926 2.02134 2.5
      vertex 5.74164 1.74171 0
    endloop
  endfacet
  facet normal -0.949528 -0.313683 0
    outer loop
      vertex 5.74164 1.74171 0
      vertex 5.64926 2.02134 2.5
      vertex 5.64926 2.02134 0
    endloop
  endfacet
  facet normal -0.963776 -0.266714 0
    outer loop
      vertex 5.82019 1.45788 2.5
      vertex 5.74164 1.74171 2.5
      vertex 5.82019 1.45788 0
    endloop
  endfacet
  facet normal -0.963776 -0.266714 0
    outer loop
      vertex 5.82019 1.45788 0
      vertex 5.74164 1.74171 2.5
      vertex 5.74164 1.74171 0
    endloop
  endfacet
  facet normal -0.975702 -0.219101 0
    outer loop
      vertex 5.88471 1.17054 2.5
      vertex 5.82019 1.45788 2.5
      vertex 5.88471 1.17054 0
    endloop
  endfacet
  facet normal -0.975702 -0.219101 0
    outer loop
      vertex 5.88471 1.17054 0
      vertex 5.82019 1.45788 2.5
      vertex 5.82019 1.45788 0
    endloop
  endfacet
  facet normal -0.985278 -0.170961 0
    outer loop
      vertex 5.93506 0.880383 2.5
      vertex 5.88471 1.17054 2.5
      vertex 5.93506 0.880383 0
    endloop
  endfacet
  facet normal -0.985278 -0.170961 0
    outer loop
      vertex 5.93506 0.880383 0
      vertex 5.88471 1.17054 2.5
      vertex 5.88471 1.17054 0
    endloop
  endfacet
  facet normal -0.99248 -0.12241 0
    outer loop
      vertex 5.97111 0.588103 2.5
      vertex 5.93506 0.880383 2.5
      vertex 5.97111 0.588103 0
    endloop
  endfacet
  facet normal -0.99248 -0.12241 0
    outer loop
      vertex 5.97111 0.588103 0
      vertex 5.93506 0.880383 2.5
      vertex 5.93506 0.880383 0
    endloop
  endfacet
  facet normal -0.99729 -0.0735666 0
    outer loop
      vertex 5.99277 0.294406 2.5
      vertex 5.97111 0.588103 2.5
      vertex 5.99277 0.294406 0
    endloop
  endfacet
  facet normal -0.99729 -0.0735666 0
    outer loop
      vertex 5.99277 0.294406 0
      vertex 5.97111 0.588103 2.5
      vertex 5.97111 0.588103 0
    endloop
  endfacet
  facet normal -0.999699 -0.0245403 0
    outer loop
      vertex 6 0 2.5
      vertex 5.99277 0.294406 2.5
      vertex 6 0 0
    endloop
  endfacet
  facet normal -0.999699 -0.0245403 0
    outer loop
      vertex 6 0 0
      vertex 5.99277 0.294406 2.5
      vertex 5.99277 0.294406 0
    endloop
  endfacet
  facet normal -0.999699 0.0245403 0
    outer loop
      vertex 6 0 2.5
      vertex 6 0 0
      vertex 5.99277 -0.294406 2.5
    endloop
  endfacet
  facet normal -0.999699 0.0245403 0
    outer loop
      vertex 5.99277 -0.294406 2.5
      vertex 6 0 0
      vertex 5.99277 -0.294406 0
    endloop
  endfacet
  facet normal -0.99729 0.0735666 0
    outer loop
      vertex 5.99277 -0.294406 2.5
      vertex 5.99277 -0.294406 0
      vertex 5.97111 -0.588103 2.5
    endloop
  endfacet
  facet normal -0.99729 0.0735666 0
    outer loop
      vertex 5.97111 -0.588103 2.5
      vertex 5.99277 -0.294406 0
      vertex 5.97111 -0.588103 0
    endloop
  endfacet
  facet normal -0.99248 0.12241 0
    outer loop
      vertex 5.97111 -0.588103 2.5
      vertex 5.97111 -0.588103 0
      vertex 5.93506 -0.880383 2.5
    endloop
  endfacet
  facet normal -0.99248 0.12241 0
    outer loop
      vertex 5.93506 -0.880383 2.5
      vertex 5.97111 -0.588103 0
      vertex 5.93506 -0.880383 0
    endloop
  endfacet
  facet normal -0.985278 0.170961 0
    outer loop
      vertex 5.93506 -0.880383 2.5
      vertex 5.93506 -0.880383 0
      vertex 5.88471 -1.17054 2.5
    endloop
  endfacet
  facet normal -0.985278 0.170961 0
    outer loop
      vertex 5.88471 -1.17054 2.5
      vertex 5.93506 -0.880383 0
      vertex 5.88471 -1.17054 0
    endloop
  endfacet
  facet normal -0.975702 0.219101 0
    outer loop
      vertex 5.88471 -1.17054 2.5
      vertex 5.88471 -1.17054 0
      vertex 5.82019 -1.45788 2.5
    endloop
  endfacet
  facet normal -0.975702 0.219101 0
    outer loop
      vertex 5.82019 -1.45788 2.5
      vertex 5.88471 -1.17054 0
      vertex 5.82019 -1.45788 0
    endloop
  endfacet
  facet normal -0.963776 0.266714 0
    outer loop
      vertex 5.82019 -1.45788 2.5
      vertex 5.82019 -1.45788 0
      vertex 5.74164 -1.74171 2.5
    endloop
  endfacet
  facet normal -0.963776 0.266714 0
    outer loop
      vertex 5.74164 -1.74171 2.5
      vertex 5.82019 -1.45788 0
      vertex 5.74164 -1.74171 0
    endloop
  endfacet
  facet normal -0.949528 0.313683 0
    outer loop
      vertex 5.74164 -1.74171 2.5
      vertex 5.74164 -1.74171 0
      vertex 5.64926 -2.02134 2.5
    endloop
  endfacet
  facet normal -0.949528 0.313683 0
    outer loop
      vertex 5.64926 -2.02134 2.5
      vertex 5.74164 -1.74171 0
      vertex 5.64926 -2.02134 0
    endloop
  endfacet
  facet normal -0.932993 0.359894 0
    outer loop
      vertex 5.64926 -2.02134 2.5
      vertex 5.64926 -2.02134 0
      vertex 5.54328 -2.2961 2.5
    endloop
  endfacet
  facet normal -0.932993 0.359894 0
    outer loop
      vertex 5.54328 -2.2961 2.5
      vertex 5.64926 -2.02134 0
      vertex 5.54328 -2.2961 0
    endloop
  endfacet
  facet normal -0.91421 0.40524 0
    outer loop
      vertex 5.54328 -2.2961 2.5
      vertex 5.54328 -2.2961 0
      vertex 5.42394 -2.56533 2.5
    endloop
  endfacet
  facet normal -0.91421 0.40524 0
    outer loop
      vertex 5.42394 -2.56533 2.5
      vertex 5.54328 -2.2961 0
      vertex 5.42394 -2.56533 0
    endloop
  endfacet
  facet normal -0.893224 0.449612 0
    outer loop
      vertex 5.42394 -2.56533 2.5
      vertex 5.42394 -2.56533 0
      vertex 5.29153 -2.82838 2.5
    endloop
  endfacet
  facet normal -0.893224 0.449612 0
    outer loop
      vertex 5.29153 -2.82838 2.5
      vertex 5.42394 -2.56533 0
      vertex 5.29153 -2.82838 0
    endloop
  endfacet
  facet normal -0.870087 0.492898 0
    outer loop
      vertex 5.29153 -2.82838 2.5
      vertex 5.29153 -2.82838 0
      vertex 5.14637 -3.08462 2.5
    endloop
  endfacet
  facet normal -0.870087 0.492898 0
    outer loop
      vertex 5.14637 -3.08462 2.5
      vertex 5.29153 -2.82838 0
      vertex 5.14637 -3.08462 0
    endloop
  endfacet
  facet normal -0.844854 0.534998 0
    outer loop
      vertex 5.14637 -3.08462 2.5
      vertex 5.14637 -3.08462 0
      vertex 4.98882 -3.33342 2.5
    endloop
  endfacet
  facet normal -0.844854 0.534998 0
    outer loop
      vertex 4.98882 -3.33342 2.5
      vertex 5.14637 -3.08462 0
      vertex 4.98882 -3.33342 0
    endloop
  endfacet
  facet normal -0.817585 0.575808 0
    outer loop
      vertex 4.98882 -3.33342 2.5
      vertex 4.98882 -3.33342 0
      vertex 4.81924 -3.5742 2.5
    endloop
  endfacet
  facet normal -0.817585 0.575808 0
    outer loop
      vertex 4.81924 -3.5742 2.5
      vertex 4.98882 -3.33342 0
      vertex 4.81924 -3.5742 0
    endloop
  endfacet
  facet normal -0.788347 0.61523 0
    outer loop
      vertex 4.81924 -3.5742 2.5
      vertex 4.81924 -3.5742 0
      vertex 4.63806 -3.80636 2.5
    endloop
  endfacet
  facet normal -0.788347 0.61523 0
    outer loop
      vertex 4.63806 -3.80636 2.5
      vertex 4.81924 -3.5742 0
      vertex 4.63806 -3.80636 0
    endloop
  endfacet
  facet normal -0.757209 0.653173 0
    outer loop
      vertex 4.63806 -3.80636 2.5
      vertex 4.63806 -3.80636 0
      vertex 4.44571 -4.02935 2.5
    endloop
  endfacet
  facet normal -0.757209 0.653173 0
    outer loop
      vertex 4.44571 -4.02935 2.5
      vertex 4.63806 -3.80636 0
      vertex 4.44571 -4.02935 0
    endloop
  endfacet
  facet normal -0.724247 0.68954 0
    outer loop
      vertex 4.44571 -4.02935 2.5
      vertex 4.44571 -4.02935 0
      vertex 4.24264 -4.24264 2.5
    endloop
  endfacet
  facet normal -0.724247 0.68954 0
    outer loop
      vertex 4.24264 -4.24264 2.5
      vertex 4.44571 -4.02935 0
      vertex 4.24264 -4.24264 0
    endloop
  endfacet
  facet normal -0.68954 0.724247 0
    outer loop
      vertex 4.24264 -4.24264 2.5
      vertex 4.24264 -4.24264 0
      vertex 4.02935 -4.44571 2.5
    endloop
  endfacet
  facet normal -0.68954 0.724247 0
    outer loop
      vertex 4.02935 -4.44571 2.5
      vertex 4.24264 -4.24264 0
      vertex 4.02935 -4.44571 0
    endloop
  endfacet
  facet normal -0.653173 0.757209 0
    outer loop
      vertex 4.02935 -4.44571 2.5
      vertex 4.02935 -4.44571 0
      vertex 3.80636 -4.63806 2.5
    endloop
  endfacet
  facet normal -0.653173 0.757209 0
    outer loop
      vertex 3.80636 -4.63806 2.5
      vertex 4.02935 -4.44571 0
      vertex 3.80636 -4.63806 0
    endloop
  endfacet
  facet normal -0.61523 0.788347 0
    outer loop
      vertex 3.80636 -4.63806 2.5
      vertex 3.80636 -4.63806 0
      vertex 3.5742 -4.81924 2.5
    endloop
  endfacet
  facet normal -0.61523 0.788347 0
    outer loop
      vertex 3.5742 -4.81924 2.5
      vertex 3.80636 -4.63806 0
      vertex 3.5742 -4.81924 0
    endloop
  endfacet
  facet normal -0.575808 0.817585 0
    outer loop
      vertex 3.5742 -4.81924 2.5
      vertex 3.5742 -4.81924 0
      vertex 3.33342 -4.98882 2.5
    endloop
  endfacet
  facet normal -0.575808 0.817585 0
    outer loop
      vertex 3.33342 -4.98882 2.5
      vertex 3.5742 -4.81924 0
      vertex 3.33342 -4.98882 0
    endloop
  endfacet
  facet normal -0.534998 0.844854 0
    outer loop
      vertex 3.33342 -4.98882 2.5
      vertex 3.33342 -4.98882 0
      vertex 3.08462 -5.14637 2.5
    endloop
  endfacet
  facet normal -0.534998 0.844854 0
    outer loop
      vertex 3.08462 -5.14637 2.5
      vertex 3.33342 -4.98882 0
      vertex 3.08462 -5.14637 0
    endloop
  endfacet
  facet normal -0.492898 0.870087 0
    outer loop
      vertex 3.08462 -5.14637 2.5
      vertex 3.08462 -5.14637 0
      vertex 2.82838 -5.29153 2.5
    endloop
  endfacet
  facet normal -0.492898 0.870087 0
    outer loop
      vertex 2.82838 -5.29153 2.5
      vertex 3.08462 -5.14637 0
      vertex 2.82838 -5.29153 0
    endloop
  endfacet
  facet normal -0.449612 0.893224 0
    outer loop
      vertex 2.82838 -5.29153 2.5
      vertex 2.82838 -5.29153 0
      vertex 2.56533 -5.42394 2.5
    endloop
  endfacet
  facet normal -0.449612 0.893224 0
    outer loop
      vertex 2.56533 -5.42394 2.5
      vertex 2.82838 -5.29153 0
      vertex 2.56533 -5.42394 0
    endloop
  endfacet
  facet normal -0.40524 0.91421 0
    outer loop
      vertex 2.56533 -5.42394 2.5
      vertex 2.56533 -5.42394 0
      vertex 2.2961 -5.54328 2.5
    endloop
  endfacet
  facet normal -0.40524 0.91421 0
    outer loop
      vertex 2.2961 -5.54328 2.5
      vertex 2.56533 -5.42394 0
      vertex 2.2961 -5.54328 0
    endloop
  endfacet
  facet normal -0.359894 0.932993 0
    outer loop
      vertex 2.2961 -5.54328 2.5
      vertex 2.2961 -5.54328 0
      vertex 2.02134 -5.64926 2.5
    endloop
  endfacet
  facet normal -0.359894 0.932993 0
    outer loop
      vertex 2.02134 -5.64926 2.5
      vertex 2.2961 -5.54328 0
      vertex 2.02134 -5.64926 0
    endloop
  endfacet
  facet normal -0.313683 0.949528 0
    outer loop
      vertex 2.02134 -5.64926 2.5
      vertex 2.02134 -5.64926 0
      vertex 1.74171 -5.74164 2.5
    endloop
  endfacet
  facet normal -0.313683 0.949528 0
    outer loop
      vertex 1.74171 -5.74164 2.5
      vertex 2.02134 -5.64926 0
      vertex 1.74171 -5.74164 0
    endloop
  endfacet
  facet normal -0.266714 0.963776 0
    outer loop
      vertex 1.74171 -5.74164 2.5
      vertex 1.74171 -5.74164 0
      vertex 1.45788 -5.82019 2.5
    endloop
  endfacet
  facet normal -0.266714 0.963776 0
    outer loop
      vertex 1.45788 -5.82019 2.5
      vertex 1.74171 -5.74164 0
      vertex 1.45788 -5.82019 0
    endloop
  endfacet
  facet normal -0.219101 0.975702 0
    outer loop
      vertex 1.45788 -5.82019 2.5
      vertex 1.45788 -5.82019 0
      vertex 1.17054 -5.88471 2.5
    endloop
  endfacet
  facet normal -0.219101 0.975702 0
    outer loop
      vertex 1.17054 -5.88471 2.5
      vertex 1.45788 -5.82019 0
      vertex 1.17054 -5.88471 0
    endloop
  endfacet
  facet normal -0.170961 0.985278 0
    outer loop
      vertex 1.17054 -5.88471 2.5
      vertex 1.17054 -5.88471 0
      vertex 0.880383 -5.93506 2.5
    endloop
  endfacet
  facet normal -0.170961 0.985278 0
    outer loop
      vertex 0.880383 -5.93506 2.5
      vertex 1.17054 -5.88471 0
      vertex 0.880383 -5.93506 0
    endloop
  endfacet
  facet normal -0.12241 0.99248 0
    outer loop
      vertex 0.880383 -5.93506 2.5
      vertex 0.880383 -5.93506 0
      vertex 0.588103 -5.97111 2.5
    endloop
  endfacet
  facet normal -0.12241 0.99248 0
    outer loop
      vertex 0.588103 -5.97111 2.5
      vertex 0.880383 -5.93506 0
      vertex 0.588103 -5.97111 0
    endloop
  endfacet
  facet normal -0.0735666 0.99729 0
    outer loop
      vertex 0.588103 -5.97111 2.5
      vertex 0.588103 -5.97111 0
      vertex 0.294406 -5.99277 2.5
    endloop
  endfacet
  facet normal -0.0735666 0.99729 0
    outer loop
      vertex 0.294406 -5.99277 2.5
      vertex 0.588103 -5.97111 0
      vertex 0.294406 -5.99277 0
    endloop
  endfacet
  facet normal -0.0245403 0.999699 0
    outer loop
      vertex 0.294406 -5.99277 2.5
      vertex 0.294406 -5.99277 0
      vertex 0 -6 2.5
    endloop
  endfacet
  facet normal -0.0245403 0.999699 0
    outer loop
      vertex 0 -6 2.5
      vertex 0.294406 -5.99277 0
      vertex 0 -6 0
    endloop
  endfacet
  facet normal 0.0245403 0.999699 0
    outer loop
      vertex 0 -6 2.5
      vertex 0 -6 0
      vertex -0.294406 -5.99277 2.5
    endloop
  endfacet
  facet normal 0.0245403 0.999699 0
    outer loop
      vertex -0.294406 -5.99277 2.5
      vertex 0 -6 0
      vertex -0.294406 -5.99277 0
    endloop
  endfacet
  facet normal 0.0735666 0.99729 0
    outer loop
      vertex -0.294406 -5.99277 2.5
      vertex -0.294406 -5.99277 0
      vertex -0.588103 -5.97111 2.5
    endloop
  endfacet
  facet normal 0.0735666 0.99729 0
    outer loop
      vertex -0.588103 -5.97111 2.5
      vertex -0.294406 -5.99277 0
      vertex -0.588103 -5.97111 0
    endloop
  endfacet
  facet normal 0.12241 0.99248 0
    outer loop
      vertex -0.588103 -5.97111 2.5
      vertex -0.588103 -5.97111 0
      vertex -0.880383 -5.93506 2.5
    endloop
  endfacet
  facet normal 0.12241 0.99248 0
    outer loop
      vertex -0.880383 -5.93506 2.5
      vertex -0.588103 -5.97111 0
      vertex -0.880383 -5.93506 0
    endloop
  endfacet
  facet normal 0.170961 0.985278 0
    outer loop
      vertex -0.880383 -5.93506 2.5
      vertex -0.880383 -5.93506 0
      vertex -1.17054 -5.88471 2.5
    endloop
  endfacet
  facet normal 0.170961 0.985278 0
    outer loop
      vertex -1.17054 -5.88471 2.5
      vertex -0.880383 -5.93506 0
      vertex -1.17054 -5.88471 0
    endloop
  endfacet
  facet normal 0.219101 0.975702 0
    outer loop
      vertex -1.17054 -5.88471 2.5
      vertex -1.17054 -5.88471 0
      vertex -1.45788 -5.82019 2.5
    endloop
  endfacet
  facet normal 0.219101 0.975702 0
    outer loop
      vertex -1.45788 -5.82019 2.5
      vertex -1.17054 -5.88471 0
      vertex -1.45788 -5.82019 0
    endloop
  endfacet
  facet normal 0.266714 0.963776 0
    outer loop
      vertex -1.45788 -5.82019 2.5
      vertex -1.45788 -5.82019 0
      vertex -1.74171 -5.74164 2.5
    endloop
  endfacet
  facet normal 0.266714 0.963776 0
    outer loop
      vertex -1.74171 -5.74164 2.5
      vertex -1.45788 -5.82019 0
      vertex -1.74171 -5.74164 0
    endloop
  endfacet
  facet normal 0.313683 0.949528 0
    outer loop
      vertex -1.74171 -5.74164 2.5
      vertex -1.74171 -5.74164 0
      vertex -2.02134 -5.64926 2.5
    endloop
  endfacet
  facet normal 0.313683 0.949528 0
    outer loop
      vertex -2.02134 -5.64926 2.5
      vertex -1.74171 -5.74164 0
      vertex -2.02134 -5.64926 0
    endloop
  endfacet
  facet normal 0.359894 0.932993 0
    outer loop
      vertex -2.02134 -5.64926 2.5
      vertex -2.02134 -5.64926 0
      vertex -2.2961 -5.54328 2.5
    endloop
  endfacet
  facet normal 0.359894 0.932993 0
    outer loop
      vertex -2.2961 -5.54328 2.5
      vertex -2.02134 -5.64926 0
      vertex -2.2961 -5.54328 0
    endloop
  endfacet
  facet normal 0.40524 0.91421 0
    outer loop
      vertex -2.2961 -5.54328 2.5
      vertex -2.2961 -5.54328 0
      vertex -2.56533 -5.42394 2.5
    endloop
  endfacet
  facet normal 0.40524 0.91421 0
    outer loop
      vertex -2.56533 -5.42394 2.5
      vertex -2.2961 -5.54328 0
      vertex -2.56533 -5.42394 0
    endloop
  endfacet
  facet normal 0.449612 0.893224 0
    outer loop
      vertex -2.56533 -5.42394 2.5
      vertex -2.56533 -5.42394 0
      vertex -2.82838 -5.29153 2.5
    endloop
  endfacet
  facet normal 0.449612 0.893224 0
    outer loop
      vertex -2.82838 -5.29153 2.5
      vertex -2.56533 -5.42394 0
      vertex -2.82838 -5.29153 0
    endloop
  endfacet
  facet normal 0.492898 0.870087 0
    outer loop
      vertex -2.82838 -5.29153 2.5
      vertex -2.82838 -5.29153 0
      vertex -3.08462 -5.14637 2.5
    endloop
  endfacet
  facet normal 0.492898 0.870087 0
    outer loop
      vertex -3.08462 -5.14637 2.5
      vertex -2.82838 -5.29153 0
      vertex -3.08462 -5.14637 0
    endloop
  endfacet
  facet normal 0.534998 0.844854 0
    outer loop
      vertex -3.08462 -5.14637 2.5
      vertex -3.08462 -5.14637 0
      vertex -3.33342 -4.98882 2.5
    endloop
  endfacet
  facet normal 0.534998 0.844854 0
    outer loop
      vertex -3.33342 -4.98882 2.5
      vertex -3.08462 -5.14637 0
      vertex -3.33342 -4.98882 0
    endloop
  endfacet
  facet normal 0.575808 0.817585 0
    outer loop
      vertex -3.33342 -4.98882 2.5
      vertex -3.33342 -4.98882 0
      vertex -3.5742 -4.81924 2.5
    endloop
  endfacet
  facet normal 0.575808 0.817585 0
    outer loop
      vertex -3.5742 -4.81924 2.5
      vertex -3.33342 -4.98882 0
      vertex -3.5742 -4.81924 0
    endloop
  endfacet
  facet normal 0.61523 0.788347 0
    outer loop
      vertex -3.5742 -4.81924 2.5
      vertex -3.5742 -4.81924 0
      vertex -3.80636 -4.63806 2.5
    endloop
  endfacet
  facet normal 0.61523 0.788347 0
    outer loop
      vertex -3.80636 -4.63806 2.5
      vertex -3.5742 -4.81924 0
      vertex -3.80636 -4.63806 0
    endloop
  endfacet
  facet normal 0.653173 0.757209 0
    outer loop
      vertex -3.80636 -4.63806 2.5
      vertex -3.80636 -4.63806 0
      vertex -4.02935 -4.44571 2.5
    endloop
  endfacet
  facet normal 0.653173 0.757209 0
    outer loop
      vertex -4.02935 -4.44571 2.5
      vertex -3.80636 -4.63806 0
      vertex -4.02935 -4.44571 0
    endloop
  endfacet
  facet normal 0.68954 0.724247 0
    outer loop
      vertex -4.02935 -4.44571 2.5
      vertex -4.02935 -4.44571 0
      vertex -4.24264 -4.24264 2.5
    endloop
  endfacet
  facet normal 0.68954 0.724247 0
    outer loop
      vertex -4.24264 -4.24264 2.5
      vertex -4.02935 -4.44571 0
      vertex -4.24264 -4.24264 0
    endloop
  endfacet
  facet normal 0.724247 0.68954 0
    outer loop
      vertex -4.44571 -4.02935 2.5
      vertex -4.24264 -4.24264 2.5
      vertex -4.24264 -4.24264 0
    endloop
  endfacet
  facet normal 0.724247 0.68954 0
    outer loop
      vertex -4.44571 -4.02935 0
      vertex -4.44571 -4.02935 2.5
      vertex -4.24264 -4.24264 0
    endloop
  endfacet
  facet normal 0.757209 0.653173 0
    outer loop
      vertex -4.63806 -3.80636 2.5
      vertex -4.44571 -4.02935 2.5
      vertex -4.44571 -4.02935 0
    endloop
  endfacet
  facet normal 0.757209 0.653173 0
    outer loop
      vertex -4.63806 -3.80636 0
      vertex -4.63806 -3.80636 2.5
      vertex -4.44571 -4.02935 0
    endloop
  endfacet
  facet normal 0.788347 0.61523 0
    outer loop
      vertex -4.81924 -3.5742 2.5
      vertex -4.63806 -3.80636 2.5
      vertex -4.63806 -3.80636 0
    endloop
  endfacet
  facet normal 0.788347 0.61523 0
    outer loop
      vertex -4.81924 -3.5742 0
      vertex -4.81924 -3.5742 2.5
      vertex -4.63806 -3.80636 0
    endloop
  endfacet
  facet normal 0.817585 0.575808 0
    outer loop
      vertex -4.98882 -3.33342 2.5
      vertex -4.81924 -3.5742 2.5
      vertex -4.81924 -3.5742 0
    endloop
  endfacet
  facet normal 0.817585 0.575808 0
    outer loop
      vertex -4.98882 -3.33342 0
      vertex -4.98882 -3.33342 2.5
      vertex -4.81924 -3.5742 0
    endloop
  endfacet
  facet normal 0.844854 0.534998 0
    outer loop
      vertex -5.14637 -3.08462 2.5
      vertex -4.98882 -3.33342 2.5
      vertex -4.98882 -3.33342 0
    endloop
  endfacet
  facet normal 0.844854 0.534998 0
    outer loop
      vertex -5.14637 -3.08462 0
      vertex -5.14637 -3.08462 2.5
      vertex -4.98882 -3.33342 0
    endloop
  endfacet
  facet normal 0.870087 0.492898 0
    outer loop
      vertex -5.29153 -2.82838 2.5
      vertex -5.14637 -3.08462 2.5
      vertex -5.14637 -3.08462 0
    endloop
  endfacet
  facet normal 0.870087 0.492898 0
    outer loop
      vertex -5.29153 -2.82838 0
      vertex -5.29153 -2.82838 2.5
      vertex -5.14637 -3.08462 0
    endloop
  endfacet
  facet normal 0.893224 0.449612 0
    outer loop
      vertex -5.42394 -2.56533 2.5
      vertex -5.29153 -2.82838 2.5
      vertex -5.29153 -2.82838 0
    endloop
  endfacet
  facet normal 0.893224 0.449612 0
    outer loop
      vertex -5.42394 -2.56533 0
      vertex -5.42394 -2.56533 2.5
      vertex -5.29153 -2.82838 0
    endloop
  endfacet
  facet normal 0.91421 0.40524 0
    outer loop
      vertex -5.54328 -2.2961 2.5
      vertex -5.42394 -2.56533 2.5
      vertex -5.42394 -2.56533 0
    endloop
  endfacet
  facet normal 0.91421 0.40524 0
    outer loop
      vertex -5.54328 -2.2961 0
      vertex -5.54328 -2.2961 2.5
      vertex -5.42394 -2.56533 0
    endloop
  endfacet
  facet normal 0.932993 0.359894 0
    outer loop
      vertex -5.64926 -2.02134 2.5
      vertex -5.54328 -2.2961 2.5
      vertex -5.54328 -2.2961 0
    endloop
  endfacet
  facet normal 0.932993 0.359894 0
    outer loop
      vertex -5.64926 -2.02134 0
      vertex -5.64926 -2.02134 2.5
      vertex -5.54328 -2.2961 0
    endloop
  endfacet
  facet normal 0.949528 0.313683 0
    outer loop
      vertex -5.74164 -1.74171 2.5
      vertex -5.64926 -2.02134 2.5
      vertex -5.64926 -2.02134 0
    endloop
  endfacet
  facet normal 0.949528 0.313683 0
    outer loop
      vertex -5.74164 -1.74171 0
      vertex -5.74164 -1.74171 2.5
      vertex -5.64926 -2.02134 0
    endloop
  endfacet
  facet normal 0.963776 0.266714 0
    outer loop
      vertex -5.82019 -1.45788 2.5
      vertex -5.74164 -1.74171 2.5
      vertex -5.74164 -1.74171 0
    endloop
  endfacet
  facet normal 0.963776 0.266714 0
    outer loop
      vertex -5.82019 -1.45788 0
      vertex -5.82019 -1.45788 2.5
      vertex -5.74164 -1.74171 0
    endloop
  endfacet
  facet normal 0.975702 0.219101 0
    outer loop
      vertex -5.88471 -1.17054 2.5
      vertex -5.82019 -1.45788 2.5
      vertex -5.82019 -1.45788 0
    endloop
  endfacet
  facet normal 0.975702 0.219101 0
    outer loop
      vertex -5.88471 -1.17054 0
      vertex -5.88471 -1.17054 2.5
      vertex -5.82019 -1.45788 0
    endloop
  endfacet
  facet normal 0.985278 0.170961 0
    outer loop
      vertex -5.93506 -0.880383 2.5
      vertex -5.88471 -1.17054 2.5
      vertex -5.88471 -1.17054 0
    endloop
  endfacet
  facet normal 0.985278 0.170961 0
    outer loop
      vertex -5.93506 -0.880383 0
      vertex -5.93506 -0.880383 2.5
      vertex -5.88471 -1.17054 0
    endloop
  endfacet
  facet normal 0.99248 0.12241 0
    outer loop
      vertex -5.97111 -0.588103 2.5
      vertex -5.93506 -0.880383 2.5
      vertex -5.93506 -0.880383 0
    endloop
  endfacet
  facet normal 0.99248 0.12241 0
    outer loop
      vertex -5.97111 -0.588103 0
      vertex -5.97111 -0.588103 2.5
      vertex -5.93506 -0.880383 0
    endloop
  endfacet
  facet normal 0.99729 0.0735666 0
    outer loop
      vertex -5.99277 -0.294406 2.5
      vertex -5.97111 -0.588103 2.5
      vertex -5.97111 -0.588103 0
    endloop
  endfacet
  facet normal 0.99729 0.0735666 0
    outer loop
      vertex -5.99277 -0.294406 0
      vertex -5.99277 -0.294406 2.5
      vertex -5.97111 -0.588103 0
    endloop
  endfacet
  facet normal 0.999699 0.0245403 0
    outer loop
      vertex -6 0 2.5
      vertex -5.99277 -0.294406 2.5
      vertex -5.99277 -0.294406 0
    endloop
  endfacet
  facet normal 0.999699 0.0245403 0
    outer loop
      vertex -6 0 0
      vertex -6 0 2.5
      vertex -5.99277 -0.294406 0
    endloop
  endfacet
  facet normal 0.999699 -0.0245403 0
    outer loop
      vertex -5.99277 0.294406 0
      vertex -5.99277 0.294406 2.5
      vertex -6 0 2.5
    endloop
  endfacet
  facet normal 0.999699 -0.0245403 0
    outer loop
      vertex -6 0 0
      vertex -5.99277 0.294406 0
      vertex -6 0 2.5
    endloop
  endfacet
  facet normal 0.99729 -0.0735666 0
    outer loop
      vertex -5.97111 0.588103 0
      vertex -5.97111 0.588103 2.5
      vertex -5.99277 0.294406 2.5
    endloop
  endfacet
  facet normal 0.99729 -0.0735666 0
    outer loop
      vertex -5.99277 0.294406 0
      vertex -5.97111 0.588103 0
      vertex -5.99277 0.294406 2.5
    endloop
  endfacet
  facet normal 0.99248 -0.12241 0
    outer loop
      vertex -5.93506 0.880383 0
      vertex -5.93506 0.880383 2.5
      vertex -5.97111 0.588103 2.5
    endloop
  endfacet
  facet normal 0.99248 -0.12241 0
    outer loop
      vertex -5.97111 0.588103 0
      vertex -5.93506 0.880383 0
      vertex -5.97111 0.588103 2.5
    endloop
  endfacet
  facet normal 0.985278 -0.170961 0
    outer loop
      vertex -5.88471 1.17054 0
      vertex -5.88471 1.17054 2.5
      vertex -5.93506 0.880383 2.5
    endloop
  endfacet
  facet normal 0.985278 -0.170961 0
    outer loop
      vertex -5.93506 0.880383 0
      vertex -5.88471 1.17054 0
      vertex -5.93506 0.880383 2.5
    endloop
  endfacet
  facet normal 0.975702 -0.219101 0
    outer loop
      vertex -5.82019 1.45788 0
      vertex -5.82019 1.45788 2.5
      vertex -5.88471 1.17054 2.5
    endloop
  endfacet
  facet normal 0.975702 -0.219101 0
    outer loop
      vertex -5.88471 1.17054 0
      vertex -5.82019 1.45788 0
      vertex -5.88471 1.17054 2.5
    endloop
  endfacet
  facet normal 0.963776 -0.266714 0
    outer loop
      vertex -5.74164 1.74171 0
      vertex -5.74164 1.74171 2.5
      vertex -5.82019 1.45788 2.5
    endloop
  endfacet
  facet normal 0.963776 -0.266714 0
    outer loop
      vertex -5.82019 1.45788 0
      vertex -5.74164 1.74171 0
      vertex -5.82019 1.45788 2.5
    endloop
  endfacet
  facet normal 0.949528 -0.313683 0
    outer loop
      vertex -5.64926 2.02134 0
      vertex -5.64926 2.02134 2.5
      vertex -5.74164 1.74171 2.5
    endloop
  endfacet
  facet normal 0.949528 -0.313683 0
    outer loop
      vertex -5.74164 1.74171 0
      vertex -5.64926 2.02134 0
      vertex -5.74164 1.74171 2.5
    endloop
  endfacet
  facet normal 0.932993 -0.359894 0
    outer loop
      vertex -5.54328 2.2961 0
      vertex -5.54328 2.2961 2.5
      vertex -5.64926 2.02134 2.5
    endloop
  endfacet
  facet normal 0.932993 -0.359894 0
    outer loop
      vertex -5.64926 2.02134 0
      vertex -5.54328 2.2961 0
      vertex -5.64926 2.02134 2.5
    endloop
  endfacet
  facet normal 0.91421 -0.40524 0
    outer loop
      vertex -5.42394 2.56533 0
      vertex -5.42394 2.56533 2.5
      vertex -5.54328 2.2961 2.5
    endloop
  endfacet
  facet normal 0.91421 -0.40524 0
    outer loop
      vertex -5.54328 2.2961 0
      vertex -5.42394 2.56533 0
      vertex -5.54328 2.2961 2.5
    endloop
  endfacet
  facet normal 0.893224 -0.449612 0
    outer loop
      vertex -5.29153 2.82838 0
      vertex -5.29153 2.82838 2.5
      vertex -5.42394 2.56533 2.5
    endloop
  endfacet
  facet normal 0.893224 -0.449612 0
    outer loop
      vertex -5.42394 2.56533 0
      vertex -5.29153 2.82838 0
      vertex -5.42394 2.56533 2.5
    endloop
  endfacet
  facet normal 0.870087 -0.492898 0
    outer loop
      vertex -5.14637 3.08462 0
      vertex -5.14637 3.08462 2.5
      vertex -5.29153 2.82838 2.5
    endloop
  endfacet
  facet normal 0.870087 -0.492898 0
    outer loop
      vertex -5.29153 2.82838 0
      vertex -5.14637 3.08462 0
      vertex -5.29153 2.82838 2.5
    endloop
  endfacet
  facet normal 0.844854 -0.534998 0
    outer loop
      vertex -5.02077 3.28296 0
      vertex -5.02077 3.28296 2.5
      vertex -5.14637 3.08462 2.5
    endloop
  endfacet
  facet normal 0.844854 -0.534998 0
    outer loop
      vertex -5.14637 3.08462 0
      vertex -5.02077 3.28296 0
      vertex -5.14637 3.08462 2.5
    endloop
  endfacet
  facet normal 0.965926 0.258819 0
    outer loop
      vertex -7.60473 12.9264 2.5
      vertex -5.02077 3.28296 2.5
      vertex -5.02077 3.28296 0
    endloop
  endfacet
  facet normal 0.965926 0.258819 0
    outer loop
      vertex -7.60473 12.9264 0
      vertex -7.60473 12.9264 2.5
      vertex -5.02077 3.28296 0
    endloop
  endfacet
  facet normal -0.492898 0.870087 0
    outer loop
      vertex -7.71154 12.8659 0
      vertex -7.71154 12.8659 2.5
      vertex -7.60473 12.9264 0
    endloop
  endfacet
  facet normal -0.492898 0.870087 0
    outer loop
      vertex -7.60473 12.9264 0
      vertex -7.71154 12.8659 2.5
      vertex -7.60473 12.9264 2.5
    endloop
  endfacet
  facet normal -0.534998 0.844853 0
    outer loop
      vertex -8.26978 12.5124 0
      vertex -8.26978 12.5124 2.5
      vertex -7.71154 12.8659 0
    endloop
  endfacet
  facet normal -0.534998 0.844853 0
    outer loop
      vertex -7.71154 12.8659 0
      vertex -8.26978 12.5124 2.5
      vertex -7.71154 12.8659 2.5
    endloop
  endfacet
  facet normal 0.707107 0.707107 0
    outer loop
      vertex -8.26978 12.5124 0
      vertex -12.0208 16.2635 0
      vertex -12.0208 16.2635 2.5
    endloop
  endfacet
  facet normal 0.707107 0.707107 0
    outer loop
      vertex -8.26978 12.5124 2.5
      vertex -8.26978 12.5124 0
      vertex -12.0208 16.2635 2.5
    endloop
  endfacet
  facet normal -0.707107 0.707107 0
    outer loop
      vertex -17.6777 10.6066 0
      vertex -17.6777 10.6066 2.5
      vertex -12.0208 16.2635 0
    endloop
  endfacet
  facet normal -0.707107 0.707107 0
    outer loop
      vertex -12.0208 16.2635 0
      vertex -17.6777 10.6066 2.5
      vertex -12.0208 16.2635 2.5
    endloop
  endfacet
  facet normal -0.707107 -0.707107 0
    outer loop
      vertex -17.6777 10.6066 0
      vertex -13.5346 6.46351 0
      vertex -17.6777 10.6066 2.5
    endloop
  endfacet
  facet normal -0.707107 -0.707107 0
    outer loop
      vertex -17.6777 10.6066 2.5
      vertex -13.5346 6.46351 0
      vertex -13.5346 6.46351 2.5
    endloop
  endfacet
  facet normal -0.893225 0.449611 0
    outer loop
      vertex -13.5598 6.41333 0
      vertex -13.5598 6.41333 2.5
      vertex -13.5346 6.46351 0
    endloop
  endfacet
  facet normal -0.893225 0.449611 0
    outer loop
      vertex -13.5346 6.46351 0
      vertex -13.5598 6.41333 2.5
      vertex -13.5346 6.46351 2.5
    endloop
  endfacet
  facet normal -0.91421 0.405242 0
    outer loop
      vertex -13.8582 5.74025 0
      vertex -13.8582 5.74025 2.5
      vertex -13.5598 6.41333 0
    endloop
  endfacet
  facet normal -0.91421 0.405242 0
    outer loop
      vertex -13.5598 6.41333 0
      vertex -13.8582 5.74025 2.5
      vertex -13.5598 6.41333 2.5
    endloop
  endfacet
  facet normal -0.932993 0.359895 0
    outer loop
      vertex -14.1232 5.05335 0
      vertex -14.1232 5.05335 2.5
      vertex -13.8582 5.74025 0
    endloop
  endfacet
  facet normal -0.932993 0.359895 0
    outer loop
      vertex -13.8582 5.74025 0
      vertex -14.1232 5.05335 2.5
      vertex -13.8582 5.74025 2.5
    endloop
  endfacet
  facet normal -0.949528 0.313682 0
    outer loop
      vertex -14.3541 4.35427 0
      vertex -14.3541 4.35427 2.5
      vertex -14.1232 5.05335 0
    endloop
  endfacet
  facet normal -0.949528 0.313682 0
    outer loop
      vertex -14.1232 5.05335 0
      vertex -14.3541 4.35427 2.5
      vertex -14.1232 5.05335 2.5
    endloop
  endfacet
  facet normal -0.963776 0.266713 0
    outer loop
      vertex -14.5505 3.6447 0
      vertex -14.5505 3.6447 2.5
      vertex -14.3541 4.35427 0
    endloop
  endfacet
  facet normal -0.963776 0.266713 0
    outer loop
      vertex -14.3541 4.35427 0
      vertex -14.5505 3.6447 2.5
      vertex -14.3541 4.35427 2.5
    endloop
  endfacet
  facet normal -0.975702 0.219101 0
    outer loop
      vertex -14.6952 3 0
      vertex -14.6952 3 2.5
      vertex -14.5505 3.6447 0
    endloop
  endfacet
  facet normal -0.975702 0.219101 0
    outer loop
      vertex -14.5505 3.6447 0
      vertex -14.6952 3 2.5
      vertex -14.5505 3.6447 2.5
    endloop
  endfacet
endsolid OpenSCAD_Model
