solid OpenSCAD_Model
  facet normal 0 0 -1
    outer loop
      vertex -80.9017 58.7785 0
      vertex 30.9017 95.1057 0
      vertex -80.9017 -58.7785 0
    endloop
  endfacet
  facet normal 0 0 -1
    outer loop
      vertex -80.9017 -58.7785 0
      vertex 30.9017 95.1057 0
      vertex 100 0 0
    endloop
  endfacet
  facet normal 0 0 -1
    outer loop
      vertex -80.9017 -58.7785 0
      vertex 100 0 0
      vertex 30.9017 -95.1057 0
    endloop
  endfacet
  facet normal 0.809017 0.587785 0
    outer loop
      vertex 30.9017 95.1057 0
      vertex 30.9017 95.1057 15
      vertex 100 0 15
    endloop
  endfacet
  facet normal 0.809017 0.587785 0
    outer loop
      vertex 100 0 0
      vertex 30.9017 95.1057 0
      vertex 100 0 15
    endloop
  endfacet
  facet normal -0.309017 0.951057 0
    outer loop
      vertex -80.9017 58.7785 15
      vertex 30.9017 95.1057 15
      vertex -80.9017 58.7785 0
    endloop
  endfacet
  facet normal -0.309017 0.951057 0
    outer loop
      vertex -80.9017 58.7785 0
      vertex 30.9017 95.1057 15
      vertex 30.9017 95.1057 0
    endloop
  endfacet
  facet normal -1 0 0
    outer loop
      vertex -80.9017 -58.7785 15
      vertex -80.9017 58.7785 15
      vertex -80.9017 -58.7785 0
    endloop
  endfacet
  facet normal -1 0 0
    outer loop
      vertex -80.9017 -58.7785 0
      vertex -80.9017 58.7785 15
      vertex -80.9017 58.7785 0
    endloop
  endfacet
  facet normal -0.309017 -0.951057 0
    outer loop
      vertex -80.9017 -58.7785 0
      vertex 30.9017 -95.1057 0
      vertex 30.9017 -95.1057 15
    endloop
  endfacet
  facet normal -0.309017 -0.951057 0
    outer loop
      vertex -80.9017 -58.7785 15
      vertex -80.9017 -58.7785 0
      vertex 30.9017 -95.1057 15
    endloop
  endfacet
  facet normal 0.809017 -0.587785 0
    outer loop
      vertex 30.9017 -95.1057 0
      vertex 100 0 0
      vertex 100 0 15
    endloop
  endfacet
  facet normal 0.809017 -0.587785 0
    outer loop
      vertex 30.9017 -95.1057 15
      vertex 30.9017 -95.1057 0
      vertex 100 0 15
    endloop
  endfacet
  facet normal 0 0 1
    outer loop
      vertex -80.9017 -58.7785 15
      vertex 30.9017 -95.1057 15
      vertex 100 0 15
    endloop
  endfacet
  facet normal 0 0 1
    outer loop
      vertex -80.9017 58.7785 15
      vertex -80.9017 -58.7785 15
      vertex 30.9017 95.1057 15
    endloop
  endfacet
  facet normal 0 0 1
    outer loop
      vertex 30.9017 95.1057 15
      vertex -80.9017 -58.7785 15
      vertex 100 0 15
    endloop
  endfacet
endsolid OpenSCAD_Model

