<?xml version="1.0" encoding="UTF-8" standalone="no"?>
<!-- Created with Inkscape (http://www.inkscape.org/) -->

<svg
   xmlns:dc="http://purl.org/dc/elements/1.1/"
   xmlns:cc="http://creativecommons.org/ns#"
   xmlns:rdf="http://www.w3.org/1999/02/22-rdf-syntax-ns#"
   xmlns:svg="http://www.w3.org/2000/svg"
   xmlns="http://www.w3.org/2000/svg"
   xmlns:sodipodi="http://sodipodi.sourceforge.net/DTD/sodipodi-0.dtd"
   xmlns:inkscape="http://www.inkscape.org/namespaces/inkscape"
   width="744.09448819"
   height="1052.3622047"
   id="svg2"
   version="1.1"
   inkscape:version="0.48.4 r9939"
   sodipodi:docname="SODA.svg">
  <defs
     id="defs4" />
  <sodipodi:namedview
     id="base"
     pagecolor="#ffffff"
     bordercolor="#666666"
     borderopacity="1.0"
     inkscape:pageopacity="0.0"
     inkscape:pageshadow="2"
     inkscape:zoom="0.7"
     inkscape:cx="375"
     inkscape:cy="593.87961"
     inkscape:document-units="px"
     inkscape:current-layer="layer1"
     showgrid="false"
     inkscape:window-width="1853"
     inkscape:window-height="1056"
     inkscape:window-x="67"
     inkscape:window-y="24"
     inkscape:window-maximized="1" />
  <metadata
     id="metadata7">
    <rdf:RDF>
      <cc:Work
         rdf:about="">
        <dc:format>image/svg+xml</dc:format>
        <dc:type
           rdf:resource="http://purl.org/dc/dcmitype/StillImage" />
        <dc:title />
      </cc:Work>
    </rdf:RDF>
  </metadata>
  <g
     inkscape:label="Layer 1"
     inkscape:groupmode="layer"
     id="layer1">
    <rect
       style="fill:#000000"
       id="rect3277"
       width="528.57141"
       height="501.42856"
       x="88.571434"
       y="186.22946"
       ry="21.64131" />
    <g
       id="g3262"
       transform="matrix(0.99999023,0.00442044,-0.00383549,0.86766439,7.2854714,81.993661)">
      <rect
         rx="0"
         ry="23.789898"
         y="427.35995"
         x="421.83142"
         height="155.07491"
         width="40.434093"
         id="rect2993-4"
         style="fill:#00ff00"
         transform="matrix(0.99999289,-0.0037697,-0.00278135,0.99999613,0,0)" />
      <rect
         rx="0"
         ry="23.887987"
         y="224.43439"
         x="215.8812"
         height="155.71429"
         width="41.42857"
         id="rect2993-4-7"
         style="fill:#00ff00" />
      <rect
         rx="0"
         ry="19.285713"
         y="193.92677"
         x="255.73889"
         height="38.571426"
         width="167.14287"
         id="rect3035"
         style="fill:#00ff00" />
      <rect
         rx="0"
         ry="19.285713"
         y="384.50504"
         x="246.42856"
         height="38.571426"
         width="184.28572"
         id="rect3035-8"
         style="fill:#00ff00" />
      <rect
         rx="0"
         ry="20.892857"
         y="235.22247"
         x="414.09619"
         height="111.42857"
         width="38.57143"
         id="rect3064"
         style="fill:#00ff00" />
      <rect
         transform="matrix(0.65831824,-0.75273972,0.59529714,0.80350564,0,0)"
         rx="0"
         ry="21.282078"
         y="456.42218"
         x="187.36021"
         height="50.749573"
         width="41.829685"
         id="rect3084"
         style="fill:#00ff00" />
      <rect
         transform="matrix(0.65863716,-0.75246069,0.59564153,0.80325038,0,0)"
         rx="0"
         ry="21.64131"
         y="590.62323"
         x="76.835831"
         height="51.606205"
         width="42.527172"
         id="rect3084-9"
         style="fill:#00ff00" />
      <rect
         transform="matrix(0.65863716,-0.75246069,0.59564153,0.80325038,0,0)"
         rx="0"
         ry="21.64131"
         y="422.98608"
         x="-54.425068"
         height="51.606205"
         width="42.527172"
         id="rect3084-7"
         style="fill:#00ff00" />
      <rect
         transform="matrix(-0.75246069,-0.65863716,0.80325038,-0.59564153,0,0)"
         rx="0"
         ry="21.64131"
         y="-187.39168"
         x="-758.0343"
         height="51.606205"
         width="42.527172"
         id="rect3084-0"
         style="fill:#00ff00" />
      <rect
         transform="matrix(-0.75246069,-0.65863716,0.80325038,-0.59564153,0,0)"
         rx="0"
         ry="21.64131"
         y="-27.425419"
         x="-358.28455"
         height="51.606205"
         width="42.527172"
         id="rect3084-0-4"
         style="fill:#00ff00" />
      <rect
         rx="0"
         ry="19.285713"
         y="572.0127"
         x="251.85658"
         height="38.571426"
         width="167.14287"
         id="rect3035-5"
         style="fill:#00ff00" />
      <rect
         transform="matrix(0.65863716,-0.75246069,0.59564153,0.80325038,0,0)"
         rx="0"
         ry="21.64131"
         y="554.53796"
         x="-165.26172"
         height="51.606205"
         width="42.527172"
         id="rect3084-3"
         style="fill:#00ff00" />
      <rect
         rx="0"
         ry="20.921978"
         y="456.62225"
         x="217.03925"
         height="111.58389"
         width="40.723789"
         id="rect3064-5"
         style="fill:#00ff00"
         transform="matrix(0.99995465,0.00952357,0.00755943,0.99997143,0,0)" />
    </g>
  </g>
</svg>
