solid OpenSCAD_Model
  facet normal -1 0 0
    outer loop
      vertex 0 0 0
      vertex 0 0 10
      vertex 0 0.095867 0
    endloop
  endfacet
  facet normal -1 0 0
    outer loop
      vertex 0 0.095867 0
      vertex 0 0 10
      vertex 0 0.095867 10
    endloop
  endfacet
  facet normal 0 -1 0
    outer loop
      vertex 0 0 10
      vertex 0 0 0
      vertex 100 0 0
    endloop
  endfacet
  facet normal 0 -1 0
    outer loop
      vertex 100 0 10
      vertex 0 0 10
      vertex 100 0 0
    endloop
  endfacet
  facet normal 0 0 -1
    outer loop
      vertex 0 0 0
      vertex 0 0.095867 0
      vertex 100 0 0
    endloop
  endfacet
  facet normal 0 0 -1
    outer loop
      vertex 100 0 0
      vertex 0 0.095867 0
      vertex 1.82925 0.095867 0
    endloop
  endfacet
  facet normal 0 0 -1
    outer loop
      vertex 100 0 0
      vertex 1.82925 0.095867 0
      vertex 5.4078 0.856511 0
    endloop
  endfacet
  facet normal 0 0 -1
    outer loop
      vertex 5.4078 0.856511 0
      vertex 8.75 2.34456 0
      vertex 100 0 0
    endloop
  endfacet
  facet normal 0 0 -1
    outer loop
      vertex 8.75 2.34456 0
      vertex 11.7098 4.49497 0
      vertex 100 0 0
    endloop
  endfacet
  facet normal 0 0 -1
    outer loop
      vertex 11.7098 4.49497 0
      vertex 14.1578 7.21376 0
      vertex 100 0 0
    endloop
  endfacet
  facet normal 0 0 -1
    outer loop
      vertex 14.1578 7.21376 0
      vertex 15.987 10.3821 0
      vertex 100 0 0
    endloop
  endfacet
  facet normal 0 0 -1
    outer loop
      vertex 15.987 10.3821 0
      vertex 17.1176 13.8615 0
      vertex 100 0 0
    endloop
  endfacet
  facet normal 0 0 -1
    outer loop
      vertex 17.1176 13.8615 0
      vertex 17.5 17.5 0
      vertex 100 0 0
    endloop
  endfacet
  facet normal 0 0 -1
    outer loop
      vertex 17.5 17.5 0
      vertex 17.1176 21.1385 0
      vertex 100 0 0
    endloop
  endfacet
  facet normal 0 0 -1
    outer loop
      vertex 17.1176 21.1385 0
      vertex 15.987 24.6179 0
      vertex 100 0 0
    endloop
  endfacet
  facet normal 0 0 -1
    outer loop
      vertex 15.987 24.6179 0
      vertex 14.1578 27.7862 0
      vertex 100 0 0
    endloop
  endfacet
  facet normal 0 0 -1
    outer loop
      vertex 14.1578 27.7862 0
      vertex 11.7098 30.505 0
      vertex 100 0 0
    endloop
  endfacet
  facet normal 0 0 -1
    outer loop
      vertex 11.7098 30.505 0
      vertex 8.75 32.6554 0
      vertex 100 0 0
    endloop
  endfacet
  facet normal 0 0 -1
    outer loop
      vertex 8.75 32.6554 0
      vertex 5.4078 34.1435 0
      vertex 100 0 0
    endloop
  endfacet
  facet normal 0 0 -1
    outer loop
      vertex 5.4078 34.1435 0
      vertex 100 35 0
      vertex 100 0 0
    endloop
  endfacet
  facet normal 0 0 -1
    outer loop
      vertex 1.82925 34.9041 0
      vertex 0 34.9041 0
      vertex 0 35 0
    endloop
  endfacet
  facet normal 0 0 -1
    outer loop
      vertex 1.82925 34.9041 0
      vertex 0 35 0
      vertex 100 35 0
    endloop
  endfacet
  facet normal 0 0 -1
    outer loop
      vertex 1.82925 34.9041 0
      vertex 100 35 0
      vertex 5.4078 34.1435 0
    endloop
  endfacet
  facet normal 0 1 0
    outer loop
      vertex 1.82925 0.095867 10
      vertex 1.82925 0.095867 0
      vertex 0 0.095867 10
    endloop
  endfacet
  facet normal 0 1 0
    outer loop
      vertex 0 0.095867 10
      vertex 1.82925 0.095867 0
      vertex 0 0.095867 0
    endloop
  endfacet
  facet normal 0 0 1
    outer loop
      vertex 0 0.095867 10
      vertex 0 0 10
      vertex 100 0 10
    endloop
  endfacet
  facet normal 0 0 1
    outer loop
      vertex 1.82925 0.095867 10
      vertex 0 0.095867 10
      vertex 100 0 10
    endloop
  endfacet
  facet normal 0 0 1
    outer loop
      vertex 0 35 10
      vertex 0 34.9041 10
      vertex 100 35 10
    endloop
  endfacet
  facet normal 0 0 1
    outer loop
      vertex 0 34.9041 10
      vertex 1.82925 34.9041 10
      vertex 100 35 10
    endloop
  endfacet
  facet normal 0 0 1
    outer loop
      vertex 1.82925 34.9041 10
      vertex 5.4078 34.1435 10
      vertex 100 35 10
    endloop
  endfacet
  facet normal 0 0 1
    outer loop
      vertex 5.4078 34.1435 10
      vertex 8.75 32.6554 10
      vertex 100 35 10
    endloop
  endfacet
  facet normal 0 0 1
    outer loop
      vertex 8.75 32.6554 10
      vertex 11.7098 30.505 10
      vertex 100 35 10
    endloop
  endfacet
  facet normal 0 0 1
    outer loop
      vertex 11.7098 30.505 10
      vertex 14.1578 27.7862 10
      vertex 100 35 10
    endloop
  endfacet
  facet normal 0 0 1
    outer loop
      vertex 14.1578 27.7862 10
      vertex 15.987 24.6179 10
      vertex 100 35 10
    endloop
  endfacet
  facet normal 0 0 1
    outer loop
      vertex 15.987 24.6179 10
      vertex 17.1176 21.1385 10
      vertex 100 35 10
    endloop
  endfacet
  facet normal 0 0 1
    outer loop
      vertex 17.1176 21.1385 10
      vertex 17.5 17.5 10
      vertex 100 35 10
    endloop
  endfacet
  facet normal 0 0 1
    outer loop
      vertex 17.5 17.5 10
      vertex 17.1176 13.8615 10
      vertex 100 35 10
    endloop
  endfacet
  facet normal 0 0 1
    outer loop
      vertex 17.1176 13.8615 10
      vertex 15.987 10.3821 10
      vertex 100 35 10
    endloop
  endfacet
  facet normal 0 0 1
    outer loop
      vertex 15.987 10.3821 10
      vertex 14.1578 7.21376 10
      vertex 100 35 10
    endloop
  endfacet
  facet normal 0 0 1
    outer loop
      vertex 14.1578 7.21376 10
      vertex 11.7098 4.49497 10
      vertex 100 35 10
    endloop
  endfacet
  facet normal 0 0 1
    outer loop
      vertex 100 35 10
      vertex 8.75 2.34456 10
      vertex 100 0 10
    endloop
  endfacet
  facet normal 0 0 1
    outer loop
      vertex 8.75 2.34456 10
      vertex 5.4078 0.856511 10
      vertex 100 0 10
    endloop
  endfacet
  facet normal 0 0 1
    outer loop
      vertex 5.4078 0.856511 10
      vertex 1.82925 0.095867 10
      vertex 100 0 10
    endloop
  endfacet
  facet normal 0 0 1
    outer loop
      vertex 11.7098 4.49497 10
      vertex 8.75 2.34456 10
      vertex 100 35 10
    endloop
  endfacet
  facet normal 1 0 0
    outer loop
      vertex 100 0 10
      vertex 100 0 0
      vertex 100 35 0
    endloop
  endfacet
  facet normal 1 0 0
    outer loop
      vertex 100 35 10
      vertex 100 0 10
      vertex 100 35 0
    endloop
  endfacet
  facet normal 0 1 0
    outer loop
      vertex 0 35 0
      vertex 0 35 10
      vertex 100 35 0
    endloop
  endfacet
  facet normal 0 1 0
    outer loop
      vertex 100 35 0
      vertex 0 35 10
      vertex 100 35 10
    endloop
  endfacet
  facet normal -1 0 0
    outer loop
      vertex 0 34.9041 0
      vertex 0 34.9041 10
      vertex 0 35 0
    endloop
  endfacet
  facet normal -1 0 0
    outer loop
      vertex 0 35 0
      vertex 0 34.9041 10
      vertex 0 35 10
    endloop
  endfacet
  facet normal 0 -1 0
    outer loop
      vertex 1.82925 34.9041 0
      vertex 1.82925 34.9041 10
      vertex 0 34.9041 10
    endloop
  endfacet
  facet normal 0 -1 0
    outer loop
      vertex 0 34.9041 0
      vertex 1.82925 34.9041 0
      vertex 0 34.9041 10
    endloop
  endfacet
  facet normal -0.207912 -0.978148 0
    outer loop
      vertex 5.4078 34.1435 0
      vertex 5.4078 34.1435 10
      vertex 1.82925 34.9041 10
    endloop
  endfacet
  facet normal -0.207912 -0.978148 0
    outer loop
      vertex 1.82925 34.9041 0
      vertex 5.4078 34.1435 0
      vertex 1.82925 34.9041 10
    endloop
  endfacet
  facet normal -0.406736 -0.913546 0
    outer loop
      vertex 8.75 32.6554 0
      vertex 8.75 32.6554 10
      vertex 5.4078 34.1435 10
    endloop
  endfacet
  facet normal -0.406736 -0.913546 0
    outer loop
      vertex 5.4078 34.1435 0
      vertex 8.75 32.6554 0
      vertex 5.4078 34.1435 10
    endloop
  endfacet
  facet normal -0.587785 -0.809017 0
    outer loop
      vertex 11.7098 30.505 0
      vertex 11.7098 30.505 10
      vertex 8.75 32.6554 10
    endloop
  endfacet
  facet normal -0.587785 -0.809017 0
    outer loop
      vertex 8.75 32.6554 0
      vertex 11.7098 30.505 0
      vertex 8.75 32.6554 10
    endloop
  endfacet
  facet normal -0.743145 -0.669131 0
    outer loop
      vertex 14.1578 27.7862 10
      vertex 11.7098 30.505 10
      vertex 14.1578 27.7862 0
    endloop
  endfacet
  facet normal -0.743145 -0.669131 0
    outer loop
      vertex 14.1578 27.7862 0
      vertex 11.7098 30.505 10
      vertex 11.7098 30.505 0
    endloop
  endfacet
  facet normal -0.866025 -0.5 0
    outer loop
      vertex 15.987 24.6179 10
      vertex 14.1578 27.7862 10
      vertex 15.987 24.6179 0
    endloop
  endfacet
  facet normal -0.866025 -0.5 0
    outer loop
      vertex 15.987 24.6179 0
      vertex 14.1578 27.7862 10
      vertex 14.1578 27.7862 0
    endloop
  endfacet
  facet normal -0.951057 -0.309017 0
    outer loop
      vertex 17.1176 21.1385 10
      vertex 15.987 24.6179 10
      vertex 17.1176 21.1385 0
    endloop
  endfacet
  facet normal -0.951057 -0.309017 0
    outer loop
      vertex 17.1176 21.1385 0
      vertex 15.987 24.6179 10
      vertex 15.987 24.6179 0
    endloop
  endfacet
  facet normal -0.994522 -0.104528 0
    outer loop
      vertex 17.5 17.5 10
      vertex 17.1176 21.1385 10
      vertex 17.5 17.5 0
    endloop
  endfacet
  facet normal -0.994522 -0.104528 0
    outer loop
      vertex 17.5 17.5 0
      vertex 17.1176 21.1385 10
      vertex 17.1176 21.1385 0
    endloop
  endfacet
  facet normal -0.994522 0.104528 0
    outer loop
      vertex 17.5 17.5 10
      vertex 17.5 17.5 0
      vertex 17.1176 13.8615 10
    endloop
  endfacet
  facet normal -0.994522 0.104528 0
    outer loop
      vertex 17.1176 13.8615 10
      vertex 17.5 17.5 0
      vertex 17.1176 13.8615 0
    endloop
  endfacet
  facet normal -0.951057 0.309017 0
    outer loop
      vertex 17.1176 13.8615 10
      vertex 17.1176 13.8615 0
      vertex 15.987 10.3821 10
    endloop
  endfacet
  facet normal -0.951057 0.309017 0
    outer loop
      vertex 15.987 10.3821 10
      vertex 17.1176 13.8615 0
      vertex 15.987 10.3821 0
    endloop
  endfacet
  facet normal -0.866025 0.5 0
    outer loop
      vertex 15.987 10.3821 10
      vertex 15.987 10.3821 0
      vertex 14.1578 7.21376 10
    endloop
  endfacet
  facet normal -0.866025 0.5 0
    outer loop
      vertex 14.1578 7.21376 10
      vertex 15.987 10.3821 0
      vertex 14.1578 7.21376 0
    endloop
  endfacet
  facet normal -0.743145 0.669131 0
    outer loop
      vertex 14.1578 7.21376 10
      vertex 14.1578 7.21376 0
      vertex 11.7098 4.49497 10
    endloop
  endfacet
  facet normal -0.743145 0.669131 0
    outer loop
      vertex 11.7098 4.49497 10
      vertex 14.1578 7.21376 0
      vertex 11.7098 4.49497 0
    endloop
  endfacet
  facet normal -0.587785 0.809017 0
    outer loop
      vertex 11.7098 4.49497 10
      vertex 11.7098 4.49497 0
      vertex 8.75 2.34456 10
    endloop
  endfacet
  facet normal -0.587785 0.809017 0
    outer loop
      vertex 8.75 2.34456 10
      vertex 11.7098 4.49497 0
      vertex 8.75 2.34456 0
    endloop
  endfacet
  facet normal -0.406736 0.913546 0
    outer loop
      vertex 8.75 2.34456 10
      vertex 8.75 2.34456 0
      vertex 5.4078 0.856511 10
    endloop
  endfacet
  facet normal -0.406736 0.913546 0
    outer loop
      vertex 5.4078 0.856511 10
      vertex 8.75 2.34456 0
      vertex 5.4078 0.856511 0
    endloop
  endfacet
  facet normal -0.207912 0.978148 0
    outer loop
      vertex 5.4078 0.856511 10
      vertex 5.4078 0.856511 0
      vertex 1.82925 0.095867 10
    endloop
  endfacet
  facet normal -0.207912 0.978148 0
    outer loop
      vertex 1.82925 0.095867 10
      vertex 5.4078 0.856511 0
      vertex 1.82925 0.095867 0
    endloop
  endfacet
  facet normal 0 0 -1
    outer loop
      vertex -17.4 67.5 0
      vertex -17.0198 71.1177 0
      vertex -17.0198 63.8823 0
    endloop
  endfacet
  facet normal 0 0 -1
    outer loop
      vertex -17.0198 63.8823 0
      vertex -17.0198 71.1177 0
      vertex -15.8957 74.5772 0
    endloop
  endfacet
  facet normal 0 0 -1
    outer loop
      vertex -17.0198 63.8823 0
      vertex -15.8957 74.5772 0
      vertex -14.0769 77.7275 0
    endloop
  endfacet
  facet normal 0 0 -1
    outer loop
      vertex -17.0198 63.8823 0
      vertex -14.0769 77.7275 0
      vertex -11.6429 80.4307 0
    endloop
  endfacet
  facet normal 0 0 -1
    outer loop
      vertex -17.0198 63.8823 0
      vertex -11.6429 80.4307 0
      vertex -8.7 82.5688 0
    endloop
  endfacet
  facet normal 0 0 -1
    outer loop
      vertex -17.0198 63.8823 0
      vertex -8.7 82.5688 0
      vertex -5.3769 84.0484 0
    endloop
  endfacet
  facet normal 0 0 -1
    outer loop
      vertex -17.0198 63.8823 0
      vertex -5.3769 84.0484 0
      vertex -1.81879 84.8047 0
    endloop
  endfacet
  facet normal 0 0 -1
    outer loop
      vertex -17.0198 63.8823 0
      vertex -1.81879 84.8047 0
      vertex 0 84.8047 0
    endloop
  endfacet
  facet normal 0 0 -1
    outer loop
      vertex 0 84.8047 0
      vertex 0 85 0
      vertex 100 85 0
    endloop
  endfacet
  facet normal 0 0 -1
    outer loop
      vertex 0 84.8047 0
      vertex 100 85 0
      vertex -17.0198 63.8823 0
    endloop
  endfacet
  facet normal 0 0 -1
    outer loop
      vertex -17.0198 63.8823 0
      vertex 100 85 0
      vertex 100 50 0
    endloop
  endfacet
  facet normal 0 0 -1
    outer loop
      vertex 0 50.1953 0
      vertex 100 50 0
      vertex 0 50 0
    endloop
  endfacet
  facet normal 0 0 -1
    outer loop
      vertex -17.0198 63.8823 0
      vertex 100 50 0
      vertex 0 50.1953 0
    endloop
  endfacet
  facet normal 0 0 -1
    outer loop
      vertex -17.0198 63.8823 0
      vertex -1.81879 50.1953 0
      vertex -5.3769 50.9516 0
    endloop
  endfacet
  facet normal 0 0 -1
    outer loop
      vertex -17.0198 63.8823 0
      vertex -5.3769 50.9516 0
      vertex -8.7 52.4312 0
    endloop
  endfacet
  facet normal 0 0 -1
    outer loop
      vertex -17.0198 63.8823 0
      vertex -8.7 52.4312 0
      vertex -11.6429 54.5693 0
    endloop
  endfacet
  facet normal 0 0 -1
    outer loop
      vertex -17.0198 63.8823 0
      vertex -11.6429 54.5693 0
      vertex -14.0769 57.2725 0
    endloop
  endfacet
  facet normal 0 0 -1
    outer loop
      vertex -17.0198 63.8823 0
      vertex -14.0769 57.2725 0
      vertex -15.8957 60.4228 0
    endloop
  endfacet
  facet normal 0 0 -1
    outer loop
      vertex -1.81879 50.1953 0
      vertex -17.0198 63.8823 0
      vertex 0 50.1953 0
    endloop
  endfacet
  facet normal -0.994522 0.104529 0
    outer loop
      vertex -17.4 67.5 0
      vertex -17.4 67.5 10
      vertex -17.0198 71.1177 0
    endloop
  endfacet
  facet normal -0.994522 0.104529 0
    outer loop
      vertex -17.0198 71.1177 0
      vertex -17.4 67.5 10
      vertex -17.0198 71.1177 10
    endloop
  endfacet
  facet normal -0.994522 -0.104529 0
    outer loop
      vertex -17.4 67.5 0
      vertex -17.0198 63.8823 0
      vertex -17.4 67.5 10
    endloop
  endfacet
  facet normal -0.994522 -0.104529 0
    outer loop
      vertex -17.4 67.5 10
      vertex -17.0198 63.8823 0
      vertex -17.0198 63.8823 10
    endloop
  endfacet
  facet normal -0.951057 -0.309017 0
    outer loop
      vertex -17.0198 63.8823 0
      vertex -15.8957 60.4228 0
      vertex -17.0198 63.8823 10
    endloop
  endfacet
  facet normal -0.951057 -0.309017 0
    outer loop
      vertex -17.0198 63.8823 10
      vertex -15.8957 60.4228 0
      vertex -15.8957 60.4228 10
    endloop
  endfacet
  facet normal -0.866025 -0.5 0
    outer loop
      vertex -15.8957 60.4228 0
      vertex -14.0769 57.2725 0
      vertex -15.8957 60.4228 10
    endloop
  endfacet
  facet normal -0.866025 -0.5 0
    outer loop
      vertex -15.8957 60.4228 10
      vertex -14.0769 57.2725 0
      vertex -14.0769 57.2725 10
    endloop
  endfacet
  facet normal -0.743145 -0.669131 0
    outer loop
      vertex -14.0769 57.2725 0
      vertex -11.6429 54.5693 0
      vertex -14.0769 57.2725 10
    endloop
  endfacet
  facet normal -0.743145 -0.669131 0
    outer loop
      vertex -14.0769 57.2725 10
      vertex -11.6429 54.5693 0
      vertex -11.6429 54.5693 10
    endloop
  endfacet
  facet normal -0.587785 -0.809017 0
    outer loop
      vertex -11.6429 54.5693 10
      vertex -11.6429 54.5693 0
      vertex -8.7 52.4312 0
    endloop
  endfacet
  facet normal -0.587785 -0.809017 0
    outer loop
      vertex -8.7 52.4312 10
      vertex -11.6429 54.5693 10
      vertex -8.7 52.4312 0
    endloop
  endfacet
  facet normal -0.406737 -0.913545 0
    outer loop
      vertex -8.7 52.4312 10
      vertex -8.7 52.4312 0
      vertex -5.3769 50.9516 0
    endloop
  endfacet
  facet normal -0.406737 -0.913545 0
    outer loop
      vertex -5.3769 50.9516 10
      vertex -8.7 52.4312 10
      vertex -5.3769 50.9516 0
    endloop
  endfacet
  facet normal -0.207912 -0.978148 0
    outer loop
      vertex -5.3769 50.9516 10
      vertex -5.3769 50.9516 0
      vertex -1.81879 50.1953 0
    endloop
  endfacet
  facet normal -0.207912 -0.978148 0
    outer loop
      vertex -1.81879 50.1953 10
      vertex -5.3769 50.9516 10
      vertex -1.81879 50.1953 0
    endloop
  endfacet
  facet normal 0 -1 0
    outer loop
      vertex -1.81879 50.1953 10
      vertex -1.81879 50.1953 0
      vertex 0 50.1953 0
    endloop
  endfacet
  facet normal 0 -1 0
    outer loop
      vertex 0 50.1953 10
      vertex -1.81879 50.1953 10
      vertex 0 50.1953 0
    endloop
  endfacet
  facet normal -1 0 0
    outer loop
      vertex 0 50 0
      vertex 0 50 10
      vertex 0 50.1953 0
    endloop
  endfacet
  facet normal -1 0 0
    outer loop
      vertex 0 50.1953 0
      vertex 0 50 10
      vertex 0 50.1953 10
    endloop
  endfacet
  facet normal 0 -1 0
    outer loop
      vertex 0 50 10
      vertex 0 50 0
      vertex 100 50 0
    endloop
  endfacet
  facet normal 0 -1 0
    outer loop
      vertex 100 50 10
      vertex 0 50 10
      vertex 100 50 0
    endloop
  endfacet
  facet normal 1 0 0
    outer loop
      vertex 100 50 10
      vertex 100 50 0
      vertex 100 85 0
    endloop
  endfacet
  facet normal 1 0 0
    outer loop
      vertex 100 85 10
      vertex 100 50 10
      vertex 100 85 0
    endloop
  endfacet
  facet normal 0 1 0
    outer loop
      vertex 0 85 0
      vertex 0 85 10
      vertex 100 85 0
    endloop
  endfacet
  facet normal 0 1 0
    outer loop
      vertex 100 85 0
      vertex 0 85 10
      vertex 100 85 10
    endloop
  endfacet
  facet normal -1 0 0
    outer loop
      vertex 0 84.8047 0
      vertex 0 84.8047 10
      vertex 0 85 0
    endloop
  endfacet
  facet normal -1 0 0
    outer loop
      vertex 0 85 0
      vertex 0 84.8047 10
      vertex 0 85 10
    endloop
  endfacet
  facet normal 0 1 0
    outer loop
      vertex -1.81879 84.8047 0
      vertex -1.81879 84.8047 10
      vertex 0 84.8047 0
    endloop
  endfacet
  facet normal 0 1 0
    outer loop
      vertex 0 84.8047 0
      vertex -1.81879 84.8047 10
      vertex 0 84.8047 10
    endloop
  endfacet
  facet normal -0.207912 0.978148 0
    outer loop
      vertex -5.3769 84.0484 0
      vertex -5.3769 84.0484 10
      vertex -1.81879 84.8047 0
    endloop
  endfacet
  facet normal -0.207912 0.978148 0
    outer loop
      vertex -1.81879 84.8047 0
      vertex -5.3769 84.0484 10
      vertex -1.81879 84.8047 10
    endloop
  endfacet
  facet normal -0.406737 0.913545 0
    outer loop
      vertex -8.7 82.5688 0
      vertex -8.7 82.5688 10
      vertex -5.3769 84.0484 0
    endloop
  endfacet
  facet normal -0.406737 0.913545 0
    outer loop
      vertex -5.3769 84.0484 0
      vertex -8.7 82.5688 10
      vertex -5.3769 84.0484 10
    endloop
  endfacet
  facet normal -0.587785 0.809017 0
    outer loop
      vertex -11.6429 80.4307 0
      vertex -11.6429 80.4307 10
      vertex -8.7 82.5688 0
    endloop
  endfacet
  facet normal -0.587785 0.809017 0
    outer loop
      vertex -8.7 82.5688 0
      vertex -11.6429 80.4307 10
      vertex -8.7 82.5688 10
    endloop
  endfacet
  facet normal -0.743145 0.669131 0
    outer loop
      vertex -14.0769 77.7275 0
      vertex -14.0769 77.7275 10
      vertex -11.6429 80.4307 0
    endloop
  endfacet
  facet normal -0.743145 0.669131 0
    outer loop
      vertex -11.6429 80.4307 0
      vertex -14.0769 77.7275 10
      vertex -11.6429 80.4307 10
    endloop
  endfacet
  facet normal -0.866025 0.5 0
    outer loop
      vertex -15.8957 74.5772 0
      vertex -15.8957 74.5772 10
      vertex -14.0769 77.7275 0
    endloop
  endfacet
  facet normal -0.866025 0.5 0
    outer loop
      vertex -14.0769 77.7275 0
      vertex -15.8957 74.5772 10
      vertex -14.0769 77.7275 10
    endloop
  endfacet
  facet normal -0.951057 0.309017 0
    outer loop
      vertex -17.0198 71.1177 0
      vertex -17.0198 71.1177 10
      vertex -15.8957 74.5772 0
    endloop
  endfacet
  facet normal -0.951057 0.309017 0
    outer loop
      vertex -15.8957 74.5772 0
      vertex -17.0198 71.1177 10
      vertex -15.8957 74.5772 10
    endloop
  endfacet
  facet normal 0 0 1
    outer loop
      vertex -17.0198 71.1177 10
      vertex -17.4 67.5 10
      vertex -17.0198 63.8823 10
    endloop
  endfacet
  facet normal 0 0 1
    outer loop
      vertex -14.0769 57.2725 10
      vertex -17.0198 71.1177 10
      vertex -15.8957 60.4228 10
    endloop
  endfacet
  facet normal 0 0 1
    outer loop
      vertex -15.8957 60.4228 10
      vertex -17.0198 71.1177 10
      vertex -17.0198 63.8823 10
    endloop
  endfacet
  facet normal 0 0 1
    outer loop
      vertex -11.6429 54.5693 10
      vertex -17.0198 71.1177 10
      vertex -14.0769 57.2725 10
    endloop
  endfacet
  facet normal 0 0 1
    outer loop
      vertex -8.7 52.4312 10
      vertex -17.0198 71.1177 10
      vertex -11.6429 54.5693 10
    endloop
  endfacet
  facet normal 0 0 1
    outer loop
      vertex -5.3769 50.9516 10
      vertex -17.0198 71.1177 10
      vertex -8.7 52.4312 10
    endloop
  endfacet
  facet normal 0 0 1
    outer loop
      vertex -1.81879 50.1953 10
      vertex -17.0198 71.1177 10
      vertex -5.3769 50.9516 10
    endloop
  endfacet
  facet normal 0 0 1
    outer loop
      vertex 0 50.1953 10
      vertex -17.0198 71.1177 10
      vertex -1.81879 50.1953 10
    endloop
  endfacet
  facet normal 0 0 1
    outer loop
      vertex 100 50 10
      vertex -17.0198 71.1177 10
      vertex 0 50.1953 10
    endloop
  endfacet
  facet normal 0 0 1
    outer loop
      vertex 100 50 10
      vertex 0 50.1953 10
      vertex 0 50 10
    endloop
  endfacet
  facet normal 0 0 1
    outer loop
      vertex 100 85 10
      vertex -17.0198 71.1177 10
      vertex 100 50 10
    endloop
  endfacet
  facet normal 0 0 1
    outer loop
      vertex 0 84.8047 10
      vertex -17.0198 71.1177 10
      vertex 100 85 10
    endloop
  endfacet
  facet normal 0 0 1
    outer loop
      vertex 0 85 10
      vertex 0 84.8047 10
      vertex 100 85 10
    endloop
  endfacet
  facet normal 0 0 1
    outer loop
      vertex -5.3769 84.0484 10
      vertex -17.0198 71.1177 10
      vertex -1.81879 84.8047 10
    endloop
  endfacet
  facet normal 0 0 1
    outer loop
      vertex -8.7 82.5688 10
      vertex -17.0198 71.1177 10
      vertex -5.3769 84.0484 10
    endloop
  endfacet
  facet normal 0 0 1
    outer loop
      vertex -11.6429 80.4307 10
      vertex -17.0198 71.1177 10
      vertex -8.7 82.5688 10
    endloop
  endfacet
  facet normal 0 0 1
    outer loop
      vertex -14.0769 77.7275 10
      vertex -17.0198 71.1177 10
      vertex -11.6429 80.4307 10
    endloop
  endfacet
  facet normal 0 0 1
    outer loop
      vertex -15.8957 74.5772 10
      vertex -17.0198 71.1177 10
      vertex -14.0769 77.7275 10
    endloop
  endfacet
  facet normal 0 0 1
    outer loop
      vertex 0 84.8047 10
      vertex -1.81879 84.8047 10
      vertex -17.0198 71.1177 10
    endloop
  endfacet
endsolid OpenSCAD_Model
