solid OpenSCAD_Model
  facet normal -1 0 0
    outer loop
      vertex -20 -5 0
      vertex -20 -5 2.5
      vertex -20 3 0
    endloop
  endfacet
  facet normal -1 0 0
    outer loop
      vertex -20 3 0
      vertex -20 -5 2.5
      vertex -20 3 2.5
    endloop
  endfacet
  facet normal 0 -1 0
    outer loop
      vertex -20 -5 2.5
      vertex -20 -5 0
      vertex -14.0609 -5 0
    endloop
  endfacet
  facet normal 0 -1 0
    outer loop
      vertex -14.0609 -5 2.5
      vertex -20 -5 2.5
      vertex -14.0609 -5 0
    endloop
  endfacet
  facet normal 0 0 -1
    outer loop
      vertex -20 -5 0
      vertex -20 3 0
      vertex -14.0609 -5 0
    endloop
  endfacet
  facet normal 0 0 -1
    outer loop
      vertex -14.0609 -5 0
      vertex -20 3 0
      vertex -14.6847 3 0
    endloop
  endfacet
  facet normal 0 0 -1
    outer loop
      vertex -14.0609 -5 0
      vertex -14.6847 3 0
      vertex -14.6722 3.11867 0
    endloop
  endfacet
  facet normal 0 0 -1
    outer loop
      vertex -14.0609 -5 0
      vertex -14.6722 3.11867 0
      vertex -13.7032 6.10105 0
    endloop
  endfacet
  facet normal 0 0 -1
    outer loop
      vertex -14.0609 -5 0
      vertex -13.7032 6.10105 0
      vertex -13.5088 6.43773 0
    endloop
  endfacet
  facet normal 0 0 -1
    outer loop
      vertex -13.5088 6.43773 0
      vertex -17.6777 10.6066 0
      vertex -12.0208 16.2635 0
    endloop
  endfacet
  facet normal 0 0 -1
    outer loop
      vertex -13.5088 6.43773 0
      vertex -12.0208 16.2635 0
      vertex -14.0609 -5 0
    endloop
  endfacet
  facet normal 0 0 -1
    outer loop
      vertex -14.0609 -5 0
      vertex -12.0208 16.2635 0
      vertex -8.22268 12.4653 0
    endloop
  endfacet
  facet normal 0 0 -1
    outer loop
      vertex -14.0609 -5 0
      vertex -8.22268 12.4653 0
      vertex -7.60201 12.9163 0
    endloop
  endfacet
  facet normal 0 0 -1
    outer loop
      vertex -14.0609 -5 0
      vertex -7.60201 12.9163 0
      vertex -5.00118 3.20985 0
    endloop
  endfacet
  facet normal 0 0 -1
    outer loop
      vertex -14.0609 -5 0
      vertex -5.00118 3.20985 0
      vertex -5.27684 2.85568 0
    endloop
  endfacet
  facet normal 0 0 -1
    outer loop
      vertex -14.0609 -5 0
      vertex -5.27684 2.85568 0
      vertex -5.91817 0.987568 0
    endloop
  endfacet
  facet normal 0 0 -1
    outer loop
      vertex 13.7032 6.10105 0
      vertex 4.73484 -3.68528 0
      vertex 5.6749 -1.9482 0
    endloop
  endfacet
  facet normal 0 0 -1
    outer loop
      vertex -5.91817 0.987568 0
      vertex -5.91817 -0.987568 0
      vertex -14.0609 -5 0
    endloop
  endfacet
  facet normal 0 0 -1
    outer loop
      vertex -5.91817 -0.987568 0
      vertex -5.27684 -2.85568 0
      vertex -14.0609 -5 0
    endloop
  endfacet
  facet normal 0 0 -1
    outer loop
      vertex -5.27684 -2.85568 0
      vertex -4.06369 -4.41434 0
      vertex -14.0609 -5 0
    endloop
  endfacet
  facet normal 0 0 -1
    outer loop
      vertex -4.06369 -4.41434 0
      vertex -2.41017 -5.49464 0
      vertex -14.0609 -5 0
    endloop
  endfacet
  facet normal 0 0 -1
    outer loop
      vertex 13.7032 6.10105 0
      vertex 5.6749 -1.9482 0
      vertex 13.5088 6.43773 0
    endloop
  endfacet
  facet normal 0 0 -1
    outer loop
      vertex 5.6749 1.9482 0
      vertex 4.99818 3.19866 0
      vertex 7.60201 12.9163 0
    endloop
  endfacet
  facet normal 0 0 -1
    outer loop
      vertex 5.6749 1.9482 0
      vertex 7.60201 12.9163 0
      vertex 6 0 0
    endloop
  endfacet
  facet normal 0 0 -1
    outer loop
      vertex 6 0 0
      vertex 7.60201 12.9163 0
      vertex 8.22268 12.4653 0
    endloop
  endfacet
  facet normal 0 0 -1
    outer loop
      vertex 6 0 0
      vertex 8.22268 12.4653 0
      vertex 5.6749 -1.9482 0
    endloop
  endfacet
  facet normal 0 0 -1
    outer loop
      vertex 5.6749 -1.9482 0
      vertex 8.22268 12.4653 0
      vertex 12.0208 16.2635 0
    endloop
  endfacet
  facet normal 0 0 -1
    outer loop
      vertex 13.5088 6.43773 0
      vertex 12.0208 16.2635 0
      vertex 17.6777 10.6066 0
    endloop
  endfacet
  facet normal 0 0 -1
    outer loop
      vertex 13.7032 -6.10105 0
      vertex 1.47291 -5.8164 0
      vertex 3.28169 -5.023 0
    endloop
  endfacet
  facet normal 0 0 -1
    outer loop
      vertex 5.6749 -1.9482 0
      vertex 12.0208 16.2635 0
      vertex 13.5088 6.43773 0
    endloop
  endfacet
  facet normal 0 0 -1
    outer loop
      vertex 13.7032 -6.10105 0
      vertex 3.28169 -5.023 0
      vertex 14.0609 -5 0
    endloop
  endfacet
  facet normal 0 0 -1
    outer loop
      vertex 13.7032 -6.10105 0
      vertex -0.495476 -5.97951 0
      vertex 1.47291 -5.8164 0
    endloop
  endfacet
  facet normal 0 0 -1
    outer loop
      vertex 4.73484 -3.68528 0
      vertex 13.7032 6.10105 0
      vertex 14.6722 3.11867 0
    endloop
  endfacet
  facet normal 0 0 -1
    outer loop
      vertex 4.73484 -3.68528 0
      vertex 14.6722 3.11867 0
      vertex 3.28169 -5.023 0
    endloop
  endfacet
  facet normal 0 0 -1
    outer loop
      vertex 3.28169 -5.023 0
      vertex 14.6722 3.11867 0
      vertex 14.6847 3 0
    endloop
  endfacet
  facet normal 0 0 -1
    outer loop
      vertex 14.6847 3 0
      vertex 20 3 0
      vertex 3.28169 -5.023 0
    endloop
  endfacet
  facet normal 0 0 -1
    outer loop
      vertex 14.0609 -5 0
      vertex 20 3 0
      vertex 20 -5 0
    endloop
  endfacet
  facet normal 0 0 -1
    outer loop
      vertex 4 -20 0
      vertex -12.4735 -8.23088 0
      vertex 4 -14.4009 0
    endloop
  endfacet
  facet normal 0 0 -1
    outer loop
      vertex 3.28169 -5.023 0
      vertex 20 3 0
      vertex 14.0609 -5 0
    endloop
  endfacet
  facet normal 0 0 -1
    outer loop
      vertex 4 -20 0
      vertex -4 -14.4009 0
      vertex -12.4735 -8.23088 0
    endloop
  endfacet
  facet normal 0 0 -1
    outer loop
      vertex -0.495476 -5.97951 0
      vertex 13.7032 -6.10105 0
      vertex 12.4735 -8.23088 0
    endloop
  endfacet
  facet normal 0 0 -1
    outer loop
      vertex 16.2635 -12.0208 0
      vertex 10.6066 -17.6777 0
      vertex 6.40627 -13.4773 0
    endloop
  endfacet
  facet normal 0 0 -1
    outer loop
      vertex -12.4735 -8.23088 0
      vertex -6.40627 -13.4773 0
      vertex -10.6066 -17.6777 0
    endloop
  endfacet
  facet normal 0 0 -1
    outer loop
      vertex -12.4735 -8.23088 0
      vertex -10.6066 -17.6777 0
      vertex -16.2635 -12.0208 0
    endloop
  endfacet
  facet normal 0 0 -1
    outer loop
      vertex -4 -14.4009 0
      vertex 4 -20 0
      vertex -4 -20 0
    endloop
  endfacet
  facet normal 0 0 -1
    outer loop
      vertex -13.7032 -6.10105 0
      vertex 16.2635 -12.0208 0
      vertex 6.40627 -13.4773 0
    endloop
  endfacet
  facet normal 0 0 -1
    outer loop
      vertex -13.7032 -6.10105 0
      vertex 4 -14.4009 0
      vertex -12.4735 -8.23088 0
    endloop
  endfacet
  facet normal 0 0 -1
    outer loop
      vertex -13.7032 -6.10105 0
      vertex 6.40627 -13.4773 0
      vertex 4.63525 -14.2658 0
    endloop
  endfacet
  facet normal 0 0 -1
    outer loop
      vertex -13.7032 -6.10105 0
      vertex 4.63525 -14.2658 0
      vertex 4 -14.4009 0
    endloop
  endfacet
  facet normal 0 0 -1
    outer loop
      vertex -12.4735 -8.23088 0
      vertex -4 -14.4009 0
      vertex -4.63525 -14.2658 0
    endloop
  endfacet
  facet normal 0 0 -1
    outer loop
      vertex -12.4735 -8.23088 0
      vertex -4.63525 -14.2658 0
      vertex -6.40627 -13.4773 0
    endloop
  endfacet
  facet normal 0 0 -1
    outer loop
      vertex 12.4735 -8.23088 0
      vertex 16.2635 -12.0208 0
      vertex -13.7032 -6.10105 0
    endloop
  endfacet
  facet normal 0 0 -1
    outer loop
      vertex -14.0609 -5 0
      vertex -2.41017 -5.49464 0
      vertex -0.495476 -5.97951 0
    endloop
  endfacet
  facet normal 0 0 -1
    outer loop
      vertex -14.0609 -5 0
      vertex -0.495476 -5.97951 0
      vertex 12.4735 -8.23088 0
    endloop
  endfacet
  facet normal 0 0 -1
    outer loop
      vertex -14.0609 -5 0
      vertex 12.4735 -8.23088 0
      vertex -13.7032 -6.10105 0
    endloop
  endfacet
  facet normal 0 1 0
    outer loop
      vertex -20 3 0
      vertex -20 3 2.5
      vertex -14.6847 3 0
    endloop
  endfacet
  facet normal 0 1 0
    outer loop
      vertex -14.6847 3 0
      vertex -20 3 2.5
      vertex -14.6847 3 2.5
    endloop
  endfacet
  facet normal 0 0 1
    outer loop
      vertex -13.7032 -6.10105 2.5
      vertex -12.4735 -8.23088 2.5
      vertex -14.0609 -5 2.5
    endloop
  endfacet
  facet normal 0 0 1
    outer loop
      vertex -20 3 2.5
      vertex -20 -5 2.5
      vertex -14.0609 -5 2.5
    endloop
  endfacet
  facet normal 0 0 1
    outer loop
      vertex -12.4735 -8.23088 2.5
      vertex -6.40627 -13.4773 2.5
      vertex -14.0609 -5 2.5
    endloop
  endfacet
  facet normal 0 0 1
    outer loop
      vertex -6.40627 -13.4773 2.5
      vertex -20 3 2.5
      vertex -14.0609 -5 2.5
    endloop
  endfacet
  facet normal 0 0 1
    outer loop
      vertex -4 -14.4009 2.5
      vertex 4 -20 2.5
      vertex -20 3 2.5
    endloop
  endfacet
  facet normal 0 0 1
    outer loop
      vertex -16.2635 -12.0208 2.5
      vertex -10.6066 -17.6777 2.5
      vertex -12.4735 -8.23088 2.5
    endloop
  endfacet
  facet normal 0 0 1
    outer loop
      vertex -10.6066 -17.6777 2.5
      vertex -6.40627 -13.4773 2.5
      vertex -12.4735 -8.23088 2.5
    endloop
  endfacet
  facet normal 0 0 1
    outer loop
      vertex 4 -14.4009 2.5
      vertex 4.63525 -14.2658 2.5
      vertex -20 3 2.5
    endloop
  endfacet
  facet normal 0 0 1
    outer loop
      vertex -6.40627 -13.4773 2.5
      vertex -4.63525 -14.2658 2.5
      vertex -20 3 2.5
    endloop
  endfacet
  facet normal 0 0 1
    outer loop
      vertex -4.63525 -14.2658 2.5
      vertex -4 -14.4009 2.5
      vertex -20 3 2.5
    endloop
  endfacet
  facet normal 0 0 1
    outer loop
      vertex -4 -20 2.5
      vertex 4 -20 2.5
      vertex -4 -14.4009 2.5
    endloop
  endfacet
  facet normal 0 0 1
    outer loop
      vertex 4 -20 2.5
      vertex 4 -14.4009 2.5
      vertex -20 3 2.5
    endloop
  endfacet
  facet normal 0 0 1
    outer loop
      vertex 4.63525 -14.2658 2.5
      vertex 6.40627 -13.4773 2.5
      vertex -20 3 2.5
    endloop
  endfacet
  facet normal 0 0 1
    outer loop
      vertex 10.6066 -17.6777 2.5
      vertex 16.2635 -12.0208 2.5
      vertex 6.40627 -13.4773 2.5
    endloop
  endfacet
  facet normal 0 0 1
    outer loop
      vertex 1.47291 -5.8164 2.5
      vertex -0.495476 -5.97951 2.5
      vertex 16.2635 -12.0208 2.5
    endloop
  endfacet
  facet normal 0 0 1
    outer loop
      vertex 3.28169 -5.023 2.5
      vertex 1.47291 -5.8164 2.5
      vertex 12.4735 -8.23088 2.5
    endloop
  endfacet
  facet normal 0 0 1
    outer loop
      vertex 5.6749 -1.9482 2.5
      vertex 4.73484 -3.68528 2.5
      vertex 13.7032 -6.10105 2.5
    endloop
  endfacet
  facet normal 0 0 1
    outer loop
      vertex 5.6749 -1.9482 2.5
      vertex 14.0609 -5 2.5
      vertex 20 -5 2.5
    endloop
  endfacet
  facet normal 0 0 1
    outer loop
      vertex 20 -5 2.5
      vertex 20 3 2.5
      vertex 14.6847 3 2.5
    endloop
  endfacet
  facet normal 0 0 1
    outer loop
      vertex 4.99818 3.19866 2.5
      vertex 14.6722 3.11867 2.5
      vertex 13.7032 6.10105 2.5
    endloop
  endfacet
  facet normal 0 0 1
    outer loop
      vertex 4.99818 3.19866 2.5
      vertex 14.6847 3 2.5
      vertex 14.6722 3.11867 2.5
    endloop
  endfacet
  facet normal 0 0 1
    outer loop
      vertex 4.99818 3.19866 2.5
      vertex 5.6749 1.9482 2.5
      vertex 14.6847 3 2.5
    endloop
  endfacet
  facet normal 0 0 1
    outer loop
      vertex 8.22268 12.4653 2.5
      vertex 17.6777 10.6066 2.5
      vertex 12.0208 16.2635 2.5
    endloop
  endfacet
  facet normal 0 0 1
    outer loop
      vertex -5.00118 3.20985 2.5
      vertex -7.60201 12.9163 2.5
      vertex -13.5088 6.43773 2.5
    endloop
  endfacet
  facet normal 0 0 1
    outer loop
      vertex -17.6777 10.6066 2.5
      vertex -13.5088 6.43773 2.5
      vertex -8.22268 12.4653 2.5
    endloop
  endfacet
  facet normal 0 0 1
    outer loop
      vertex -5.00118 3.20985 2.5
      vertex -13.5088 6.43773 2.5
      vertex -13.7032 6.10105 2.5
    endloop
  endfacet
  facet normal 0 0 1
    outer loop
      vertex 20 -5 2.5
      vertex 14.6847 3 2.5
      vertex 5.6749 1.9482 2.5
    endloop
  endfacet
  facet normal 0 0 1
    outer loop
      vertex -5.27684 2.85568 2.5
      vertex -5.00118 3.20985 2.5
      vertex -14.6847 3 2.5
    endloop
  endfacet
  facet normal 0 0 1
    outer loop
      vertex 20 -5 2.5
      vertex 5.6749 1.9482 2.5
      vertex 6 0 2.5
    endloop
  endfacet
  facet normal 0 0 1
    outer loop
      vertex -5.00118 3.20985 2.5
      vertex -13.7032 6.10105 2.5
      vertex -14.6722 3.11867 2.5
    endloop
  endfacet
  facet normal 0 0 1
    outer loop
      vertex 20 -5 2.5
      vertex 6 0 2.5
      vertex 5.6749 -1.9482 2.5
    endloop
  endfacet
  facet normal 0 0 1
    outer loop
      vertex -5.91817 0.987568 2.5
      vertex -5.27684 2.85568 2.5
      vertex -20 3 2.5
    endloop
  endfacet
  facet normal 0 0 1
    outer loop
      vertex 12.4735 -8.23088 2.5
      vertex 13.7032 -6.10105 2.5
      vertex 4.73484 -3.68528 2.5
    endloop
  endfacet
  facet normal 0 0 1
    outer loop
      vertex -4.06369 -4.41434 2.5
      vertex -5.27684 -2.85568 2.5
      vertex -20 3 2.5
    endloop
  endfacet
  facet normal 0 0 1
    outer loop
      vertex 12.4735 -8.23088 2.5
      vertex 4.73484 -3.68528 2.5
      vertex 3.28169 -5.023 2.5
    endloop
  endfacet
  facet normal 0 0 1
    outer loop
      vertex 16.2635 -12.0208 2.5
      vertex 12.4735 -8.23088 2.5
      vertex 1.47291 -5.8164 2.5
    endloop
  endfacet
  facet normal 0 0 1
    outer loop
      vertex -5.91817 -0.987568 2.5
      vertex -5.91817 0.987568 2.5
      vertex -20 3 2.5
    endloop
  endfacet
  facet normal 0 0 1
    outer loop
      vertex 6.40627 -13.4773 2.5
      vertex 16.2635 -12.0208 2.5
      vertex -0.495476 -5.97951 2.5
    endloop
  endfacet
  facet normal 0 0 1
    outer loop
      vertex 6.40627 -13.4773 2.5
      vertex -2.41017 -5.49464 2.5
      vertex -20 3 2.5
    endloop
  endfacet
  facet normal 0 0 1
    outer loop
      vertex 6.40627 -13.4773 2.5
      vertex -0.495476 -5.97951 2.5
      vertex -2.41017 -5.49464 2.5
    endloop
  endfacet
  facet normal 0 0 1
    outer loop
      vertex -2.41017 -5.49464 2.5
      vertex -4.06369 -4.41434 2.5
      vertex -20 3 2.5
    endloop
  endfacet
  facet normal 0 0 1
    outer loop
      vertex -5.27684 -2.85568 2.5
      vertex -5.91817 -0.987568 2.5
      vertex -20 3 2.5
    endloop
  endfacet
  facet normal 0 0 1
    outer loop
      vertex -14.6722 3.11867 2.5
      vertex -14.6847 3 2.5
      vertex -5.00118 3.20985 2.5
    endloop
  endfacet
  facet normal 0 0 1
    outer loop
      vertex -17.6777 10.6066 2.5
      vertex -8.22268 12.4653 2.5
      vertex -12.0208 16.2635 2.5
    endloop
  endfacet
  facet normal 0 0 1
    outer loop
      vertex -8.22268 12.4653 2.5
      vertex -13.5088 6.43773 2.5
      vertex -7.60201 12.9163 2.5
    endloop
  endfacet
  facet normal 0 0 1
    outer loop
      vertex -5.27684 2.85568 2.5
      vertex -14.6847 3 2.5
      vertex -20 3 2.5
    endloop
  endfacet
  facet normal 0 0 1
    outer loop
      vertex 5.6749 -1.9482 2.5
      vertex 13.7032 -6.10105 2.5
      vertex 14.0609 -5 2.5
    endloop
  endfacet
  facet normal 0 0 1
    outer loop
      vertex 8.22268 12.4653 2.5
      vertex 13.5088 6.43773 2.5
      vertex 17.6777 10.6066 2.5
    endloop
  endfacet
  facet normal 0 0 1
    outer loop
      vertex 7.60201 12.9163 2.5
      vertex 13.5088 6.43773 2.5
      vertex 8.22268 12.4653 2.5
    endloop
  endfacet
  facet normal 0 0 1
    outer loop
      vertex 7.60201 12.9163 2.5
      vertex 13.7032 6.10105 2.5
      vertex 13.5088 6.43773 2.5
    endloop
  endfacet
  facet normal 0 0 1
    outer loop
      vertex 7.60201 12.9163 2.5
      vertex 4.99818 3.19866 2.5
      vertex 13.7032 6.10105 2.5
    endloop
  endfacet
  facet normal -0.951057 -0.309017 0
    outer loop
      vertex -14.0609 -5 0
      vertex -13.7032 -6.10105 0
      vertex -14.0609 -5 2.5
    endloop
  endfacet
  facet normal -0.951057 -0.309017 0
    outer loop
      vertex -14.0609 -5 2.5
      vertex -13.7032 -6.10105 0
      vertex -13.7032 -6.10105 2.5
    endloop
  endfacet
  facet normal -0.866025 -0.5 0
    outer loop
      vertex -13.7032 -6.10105 0
      vertex -12.4735 -8.23088 0
      vertex -13.7032 -6.10105 2.5
    endloop
  endfacet
  facet normal -0.866025 -0.5 0
    outer loop
      vertex -13.7032 -6.10105 2.5
      vertex -12.4735 -8.23088 0
      vertex -12.4735 -8.23088 2.5
    endloop
  endfacet
  facet normal -0.707107 0.707107 0
    outer loop
      vertex -16.2635 -12.0208 0
      vertex -16.2635 -12.0208 2.5
      vertex -12.4735 -8.23088 0
    endloop
  endfacet
  facet normal -0.707107 0.707107 0
    outer loop
      vertex -12.4735 -8.23088 0
      vertex -16.2635 -12.0208 2.5
      vertex -12.4735 -8.23088 2.5
    endloop
  endfacet
  facet normal -0.707107 -0.707107 0
    outer loop
      vertex -16.2635 -12.0208 2.5
      vertex -16.2635 -12.0208 0
      vertex -10.6066 -17.6777 0
    endloop
  endfacet
  facet normal -0.707107 -0.707107 0
    outer loop
      vertex -10.6066 -17.6777 2.5
      vertex -16.2635 -12.0208 2.5
      vertex -10.6066 -17.6777 0
    endloop
  endfacet
  facet normal 0.707107 -0.707107 0
    outer loop
      vertex -10.6066 -17.6777 2.5
      vertex -10.6066 -17.6777 0
      vertex -6.40627 -13.4773 0
    endloop
  endfacet
  facet normal 0.707107 -0.707107 0
    outer loop
      vertex -6.40627 -13.4773 2.5
      vertex -10.6066 -17.6777 2.5
      vertex -6.40627 -13.4773 0
    endloop
  endfacet
  facet normal -0.406737 -0.913545 0
    outer loop
      vertex -6.40627 -13.4773 2.5
      vertex -6.40627 -13.4773 0
      vertex -4.63525 -14.2658 0
    endloop
  endfacet
  facet normal -0.406737 -0.913545 0
    outer loop
      vertex -4.63525 -14.2658 2.5
      vertex -6.40627 -13.4773 2.5
      vertex -4.63525 -14.2658 0
    endloop
  endfacet
  facet normal -0.207911 -0.978148 0
    outer loop
      vertex -4.63525 -14.2658 2.5
      vertex -4.63525 -14.2658 0
      vertex -4 -14.4009 0
    endloop
  endfacet
  facet normal -0.207911 -0.978148 0
    outer loop
      vertex -4 -14.4009 2.5
      vertex -4.63525 -14.2658 2.5
      vertex -4 -14.4009 0
    endloop
  endfacet
  facet normal -1 0 0
    outer loop
      vertex -4 -20 0
      vertex -4 -20 2.5
      vertex -4 -14.4009 0
    endloop
  endfacet
  facet normal -1 0 0
    outer loop
      vertex -4 -14.4009 0
      vertex -4 -20 2.5
      vertex -4 -14.4009 2.5
    endloop
  endfacet
  facet normal 0 -1 0
    outer loop
      vertex -4 -20 2.5
      vertex -4 -20 0
      vertex 4 -20 0
    endloop
  endfacet
  facet normal 0 -1 0
    outer loop
      vertex 4 -20 2.5
      vertex -4 -20 2.5
      vertex 4 -20 0
    endloop
  endfacet
  facet normal 1 0 0
    outer loop
      vertex 4 -20 2.5
      vertex 4 -20 0
      vertex 4 -14.4009 0
    endloop
  endfacet
  facet normal 1 0 0
    outer loop
      vertex 4 -14.4009 2.5
      vertex 4 -20 2.5
      vertex 4 -14.4009 0
    endloop
  endfacet
  facet normal 0.207911 -0.978148 0
    outer loop
      vertex 4 -14.4009 2.5
      vertex 4 -14.4009 0
      vertex 4.63525 -14.2658 0
    endloop
  endfacet
  facet normal 0.207911 -0.978148 0
    outer loop
      vertex 4.63525 -14.2658 2.5
      vertex 4 -14.4009 2.5
      vertex 4.63525 -14.2658 0
    endloop
  endfacet
  facet normal 0.406737 -0.913545 0
    outer loop
      vertex 4.63525 -14.2658 2.5
      vertex 4.63525 -14.2658 0
      vertex 6.40627 -13.4773 0
    endloop
  endfacet
  facet normal 0.406737 -0.913545 0
    outer loop
      vertex 6.40627 -13.4773 2.5
      vertex 4.63525 -14.2658 2.5
      vertex 6.40627 -13.4773 0
    endloop
  endfacet
  facet normal -0.707107 -0.707107 0
    outer loop
      vertex 6.40627 -13.4773 0
      vertex 10.6066 -17.6777 0
      vertex 6.40627 -13.4773 2.5
    endloop
  endfacet
  facet normal -0.707107 -0.707107 0
    outer loop
      vertex 6.40627 -13.4773 2.5
      vertex 10.6066 -17.6777 0
      vertex 10.6066 -17.6777 2.5
    endloop
  endfacet
  facet normal 0.707107 -0.707107 0
    outer loop
      vertex 10.6066 -17.6777 2.5
      vertex 10.6066 -17.6777 0
      vertex 16.2635 -12.0208 0
    endloop
  endfacet
  facet normal 0.707107 -0.707107 0
    outer loop
      vertex 16.2635 -12.0208 2.5
      vertex 10.6066 -17.6777 2.5
      vertex 16.2635 -12.0208 0
    endloop
  endfacet
  facet normal 0.707107 0.707107 0
    outer loop
      vertex 16.2635 -12.0208 0
      vertex 12.4735 -8.23088 0
      vertex 12.4735 -8.23088 2.5
    endloop
  endfacet
  facet normal 0.707107 0.707107 0
    outer loop
      vertex 16.2635 -12.0208 2.5
      vertex 16.2635 -12.0208 0
      vertex 12.4735 -8.23088 2.5
    endloop
  endfacet
  facet normal 0.866025 -0.5 0
    outer loop
      vertex 12.4735 -8.23088 2.5
      vertex 12.4735 -8.23088 0
      vertex 13.7032 -6.10105 0
    endloop
  endfacet
  facet normal 0.866025 -0.5 0
    outer loop
      vertex 13.7032 -6.10105 2.5
      vertex 12.4735 -8.23088 2.5
      vertex 13.7032 -6.10105 0
    endloop
  endfacet
  facet normal 0.951057 -0.309017 0
    outer loop
      vertex 13.7032 -6.10105 2.5
      vertex 13.7032 -6.10105 0
      vertex 14.0609 -5 0
    endloop
  endfacet
  facet normal 0.951057 -0.309017 0
    outer loop
      vertex 14.0609 -5 2.5
      vertex 13.7032 -6.10105 2.5
      vertex 14.0609 -5 0
    endloop
  endfacet
  facet normal 0 -1 0
    outer loop
      vertex 14.0609 -5 2.5
      vertex 14.0609 -5 0
      vertex 20 -5 0
    endloop
  endfacet
  facet normal 0 -1 0
    outer loop
      vertex 20 -5 2.5
      vertex 14.0609 -5 2.5
      vertex 20 -5 0
    endloop
  endfacet
  facet normal 1 0 0
    outer loop
      vertex 20 -5 2.5
      vertex 20 -5 0
      vertex 20 3 0
    endloop
  endfacet
  facet normal 1 0 0
    outer loop
      vertex 20 3 2.5
      vertex 20 -5 2.5
      vertex 20 3 0
    endloop
  endfacet
  facet normal 0 1 0
    outer loop
      vertex 14.6847 3 0
      vertex 14.6847 3 2.5
      vertex 20 3 0
    endloop
  endfacet
  facet normal 0 1 0
    outer loop
      vertex 20 3 0
      vertex 14.6847 3 2.5
      vertex 20 3 2.5
    endloop
  endfacet
  facet normal 0.994522 0.104528 0
    outer loop
      vertex 14.6847 3 0
      vertex 14.6722 3.11867 0
      vertex 14.6722 3.11867 2.5
    endloop
  endfacet
  facet normal 0.994522 0.104528 0
    outer loop
      vertex 14.6847 3 2.5
      vertex 14.6847 3 0
      vertex 14.6722 3.11867 2.5
    endloop
  endfacet
  facet normal 0.951057 0.309017 0
    outer loop
      vertex 14.6722 3.11867 0
      vertex 13.7032 6.10105 0
      vertex 13.7032 6.10105 2.5
    endloop
  endfacet
  facet normal 0.951057 0.309017 0
    outer loop
      vertex 14.6722 3.11867 2.5
      vertex 14.6722 3.11867 0
      vertex 13.7032 6.10105 2.5
    endloop
  endfacet
  facet normal 0.866025 0.5 0
    outer loop
      vertex 13.7032 6.10105 0
      vertex 13.5088 6.43773 0
      vertex 13.5088 6.43773 2.5
    endloop
  endfacet
  facet normal 0.866025 0.5 0
    outer loop
      vertex 13.7032 6.10105 2.5
      vertex 13.7032 6.10105 0
      vertex 13.5088 6.43773 2.5
    endloop
  endfacet
  facet normal 0.707107 -0.707107 0
    outer loop
      vertex 13.5088 6.43773 2.5
      vertex 13.5088 6.43773 0
      vertex 17.6777 10.6066 0
    endloop
  endfacet
  facet normal 0.707107 -0.707107 0
    outer loop
      vertex 17.6777 10.6066 2.5
      vertex 13.5088 6.43773 2.5
      vertex 17.6777 10.6066 0
    endloop
  endfacet
  facet normal 0.707107 0.707107 0
    outer loop
      vertex 12.0208 16.2635 0
      vertex 12.0208 16.2635 2.5
      vertex 17.6777 10.6066 0
    endloop
  endfacet
  facet normal 0.707107 0.707107 0
    outer loop
      vertex 17.6777 10.6066 0
      vertex 12.0208 16.2635 2.5
      vertex 17.6777 10.6066 2.5
    endloop
  endfacet
  facet normal -0.707107 0.707107 0
    outer loop
      vertex 8.22268 12.4653 0
      vertex 8.22268 12.4653 2.5
      vertex 12.0208 16.2635 0
    endloop
  endfacet
  facet normal -0.707107 0.707107 0
    outer loop
      vertex 12.0208 16.2635 0
      vertex 8.22268 12.4653 2.5
      vertex 12.0208 16.2635 2.5
    endloop
  endfacet
  facet normal 0.587785 0.809017 0
    outer loop
      vertex 7.60201 12.9163 0
      vertex 7.60201 12.9163 2.5
      vertex 8.22268 12.4653 0
    endloop
  endfacet
  facet normal 0.587785 0.809017 0
    outer loop
      vertex 8.22268 12.4653 0
      vertex 7.60201 12.9163 2.5
      vertex 8.22268 12.4653 2.5
    endloop
  endfacet
  facet normal -0.965926 0.258819 0
    outer loop
      vertex 7.60201 12.9163 2.5
      vertex 7.60201 12.9163 0
      vertex 4.99818 3.19866 2.5
    endloop
  endfacet
  facet normal -0.965926 0.258819 0
    outer loop
      vertex 4.99818 3.19866 2.5
      vertex 7.60201 12.9163 0
      vertex 4.99818 3.19866 0
    endloop
  endfacet
  facet normal -0.879474 -0.475947 0
    outer loop
      vertex 5.6749 1.9482 2.5
      vertex 4.99818 3.19866 2.5
      vertex 5.6749 1.9482 0
    endloop
  endfacet
  facet normal -0.879474 -0.475947 0
    outer loop
      vertex 5.6749 1.9482 0
      vertex 4.99818 3.19866 2.5
      vertex 4.99818 3.19866 0
    endloop
  endfacet
  facet normal -0.986361 -0.164595 0
    outer loop
      vertex 6 0 2.5
      vertex 5.6749 1.9482 2.5
      vertex 6 0 0
    endloop
  endfacet
  facet normal -0.986361 -0.164595 0
    outer loop
      vertex 6 0 0
      vertex 5.6749 1.9482 2.5
      vertex 5.6749 1.9482 0
    endloop
  endfacet
  facet normal -0.986361 0.164595 0
    outer loop
      vertex 6 0 2.5
      vertex 6 0 0
      vertex 5.6749 -1.9482 2.5
    endloop
  endfacet
  facet normal -0.986361 0.164595 0
    outer loop
      vertex 5.6749 -1.9482 2.5
      vertex 6 0 0
      vertex 5.6749 -1.9482 0
    endloop
  endfacet
  facet normal -0.879474 0.475947 0
    outer loop
      vertex 5.6749 -1.9482 2.5
      vertex 5.6749 -1.9482 0
      vertex 4.73484 -3.68528 2.5
    endloop
  endfacet
  facet normal -0.879474 0.475947 0
    outer loop
      vertex 4.73484 -3.68528 2.5
      vertex 5.6749 -1.9482 0
      vertex 4.73484 -3.68528 0
    endloop
  endfacet
  facet normal -0.677282 0.735724 0
    outer loop
      vertex 4.73484 -3.68528 2.5
      vertex 4.73484 -3.68528 0
      vertex 3.28169 -5.023 2.5
    endloop
  endfacet
  facet normal -0.677282 0.735724 0
    outer loop
      vertex 3.28169 -5.023 2.5
      vertex 4.73484 -3.68528 0
      vertex 3.28169 -5.023 0
    endloop
  endfacet
  facet normal -0.401696 0.915773 0
    outer loop
      vertex 3.28169 -5.023 2.5
      vertex 3.28169 -5.023 0
      vertex 1.47291 -5.8164 2.5
    endloop
  endfacet
  facet normal -0.401696 0.915773 0
    outer loop
      vertex 1.47291 -5.8164 2.5
      vertex 3.28169 -5.023 0
      vertex 1.47291 -5.8164 0
    endloop
  endfacet
  facet normal -0.0825792 0.996585 0
    outer loop
      vertex 1.47291 -5.8164 2.5
      vertex 1.47291 -5.8164 0
      vertex -0.495476 -5.97951 2.5
    endloop
  endfacet
  facet normal -0.0825792 0.996585 0
    outer loop
      vertex -0.495476 -5.97951 2.5
      vertex 1.47291 -5.8164 0
      vertex -0.495476 -5.97951 0
    endloop
  endfacet
  facet normal 0.245485 0.9694 0
    outer loop
      vertex -0.495476 -5.97951 2.5
      vertex -0.495476 -5.97951 0
      vertex -2.41017 -5.49464 2.5
    endloop
  endfacet
  facet normal 0.245485 0.9694 0
    outer loop
      vertex -2.41017 -5.49464 2.5
      vertex -0.495476 -5.97951 0
      vertex -2.41017 -5.49464 0
    endloop
  endfacet
  facet normal 0.546949 0.837166 0
    outer loop
      vertex -2.41017 -5.49464 2.5
      vertex -2.41017 -5.49464 0
      vertex -4.06369 -4.41434 2.5
    endloop
  endfacet
  facet normal 0.546949 0.837166 0
    outer loop
      vertex -4.06369 -4.41434 2.5
      vertex -2.41017 -5.49464 0
      vertex -4.06369 -4.41434 0
    endloop
  endfacet
  facet normal 0.78914 0.614213 0
    outer loop
      vertex -5.27684 -2.85568 2.5
      vertex -4.06369 -4.41434 2.5
      vertex -4.06369 -4.41434 0
    endloop
  endfacet
  facet normal 0.78914 0.614213 0
    outer loop
      vertex -5.27684 -2.85568 0
      vertex -5.27684 -2.85568 2.5
      vertex -4.06369 -4.41434 0
    endloop
  endfacet
  facet normal 0.945817 0.324699 0
    outer loop
      vertex -5.91817 -0.987568 2.5
      vertex -5.27684 -2.85568 2.5
      vertex -5.27684 -2.85568 0
    endloop
  endfacet
  facet normal 0.945817 0.324699 0
    outer loop
      vertex -5.91817 -0.987568 0
      vertex -5.91817 -0.987568 2.5
      vertex -5.27684 -2.85568 0
    endloop
  endfacet
  facet normal 1 0 0
    outer loop
      vertex -5.91817 0.987568 0
      vertex -5.91817 0.987568 2.5
      vertex -5.91817 -0.987568 2.5
    endloop
  endfacet
  facet normal 1 0 0
    outer loop
      vertex -5.91817 -0.987568 0
      vertex -5.91817 0.987568 0
      vertex -5.91817 -0.987568 2.5
    endloop
  endfacet
  facet normal 0.945817 -0.324699 0
    outer loop
      vertex -5.27684 2.85568 0
      vertex -5.27684 2.85568 2.5
      vertex -5.91817 0.987568 2.5
    endloop
  endfacet
  facet normal 0.945817 -0.324699 0
    outer loop
      vertex -5.91817 0.987568 0
      vertex -5.27684 2.85568 0
      vertex -5.91817 0.987568 2.5
    endloop
  endfacet
  facet normal 0.78914 -0.614213 0
    outer loop
      vertex -5.00118 3.20985 0
      vertex -5.00118 3.20985 2.5
      vertex -5.27684 2.85568 2.5
    endloop
  endfacet
  facet normal 0.78914 -0.614213 0
    outer loop
      vertex -5.27684 2.85568 0
      vertex -5.00118 3.20985 0
      vertex -5.27684 2.85568 2.5
    endloop
  endfacet
  facet normal 0.965926 0.258819 0
    outer loop
      vertex -7.60201 12.9163 2.5
      vertex -5.00118 3.20985 2.5
      vertex -5.00118 3.20985 0
    endloop
  endfacet
  facet normal 0.965926 0.258819 0
    outer loop
      vertex -7.60201 12.9163 0
      vertex -7.60201 12.9163 2.5
      vertex -5.00118 3.20985 0
    endloop
  endfacet
  facet normal -0.587785 0.809017 0
    outer loop
      vertex -8.22268 12.4653 0
      vertex -8.22268 12.4653 2.5
      vertex -7.60201 12.9163 0
    endloop
  endfacet
  facet normal -0.587785 0.809017 0
    outer loop
      vertex -7.60201 12.9163 0
      vertex -8.22268 12.4653 2.5
      vertex -7.60201 12.9163 2.5
    endloop
  endfacet
  facet normal 0.707107 0.707107 0
    outer loop
      vertex -8.22268 12.4653 0
      vertex -12.0208 16.2635 0
      vertex -12.0208 16.2635 2.5
    endloop
  endfacet
  facet normal 0.707107 0.707107 0
    outer loop
      vertex -8.22268 12.4653 2.5
      vertex -8.22268 12.4653 0
      vertex -12.0208 16.2635 2.5
    endloop
  endfacet
  facet normal -0.707107 0.707107 0
    outer loop
      vertex -17.6777 10.6066 0
      vertex -17.6777 10.6066 2.5
      vertex -12.0208 16.2635 0
    endloop
  endfacet
  facet normal -0.707107 0.707107 0
    outer loop
      vertex -12.0208 16.2635 0
      vertex -17.6777 10.6066 2.5
      vertex -12.0208 16.2635 2.5
    endloop
  endfacet
  facet normal -0.707107 -0.707107 0
    outer loop
      vertex -17.6777 10.6066 0
      vertex -13.5088 6.43773 0
      vertex -17.6777 10.6066 2.5
    endloop
  endfacet
  facet normal -0.707107 -0.707107 0
    outer loop
      vertex -17.6777 10.6066 2.5
      vertex -13.5088 6.43773 0
      vertex -13.5088 6.43773 2.5
    endloop
  endfacet
  facet normal -0.866025 0.5 0
    outer loop
      vertex -13.7032 6.10105 0
      vertex -13.7032 6.10105 2.5
      vertex -13.5088 6.43773 0
    endloop
  endfacet
  facet normal -0.866025 0.5 0
    outer loop
      vertex -13.5088 6.43773 0
      vertex -13.7032 6.10105 2.5
      vertex -13.5088 6.43773 2.5
    endloop
  endfacet
  facet normal -0.951057 0.309017 0
    outer loop
      vertex -14.6722 3.11867 0
      vertex -14.6722 3.11867 2.5
      vertex -13.7032 6.10105 0
    endloop
  endfacet
  facet normal -0.951057 0.309017 0
    outer loop
      vertex -13.7032 6.10105 0
      vertex -14.6722 3.11867 2.5
      vertex -13.7032 6.10105 2.5
    endloop
  endfacet
  facet normal -0.994522 0.104528 0
    outer loop
      vertex -14.6847 3 0
      vertex -14.6847 3 2.5
      vertex -14.6722 3.11867 0
    endloop
  endfacet
  facet normal -0.994522 0.104528 0
    outer loop
      vertex -14.6722 3.11867 0
      vertex -14.6847 3 2.5
      vertex -14.6722 3.11867 2.5
    endloop
  endfacet
endsolid OpenSCAD_Model
