solid OpenSCAD_Model
  facet normal -1 0 0
    outer loop
      vertex 0 0 0
      vertex 0 0 6
      vertex 0 100 0
    endloop
  endfacet
  facet normal -1 0 0
    outer loop
      vertex 0 100 0
      vertex 0 0 6
      vertex 0 100 6
    endloop
  endfacet
  facet normal 0 -1 0
    outer loop
      vertex 0 0 6
      vertex 0 0 0
      vertex 35 0 0
    endloop
  endfacet
  facet normal 0 -1 0
    outer loop
      vertex 4.5 0 6
      vertex 0 0 6
      vertex 35 0 0
    endloop
  endfacet
  facet normal 0 -1 0
    outer loop
      vertex 35 0 6
      vertex 4.5 0 6
      vertex 35 0 0
    endloop
  endfacet
  facet normal 0 0 -1
    outer loop
      vertex 0 0 0
      vertex 0 100 0
      vertex 35 0 0
    endloop
  endfacet
  facet normal 0 0 -1
    outer loop
      vertex 35 0 0
      vertex 0 100 0
      vertex 35 100 0
    endloop
  endfacet
  facet normal 0 1 0
    outer loop
      vertex 0 100 0
      vertex 0 100 6
      vertex 35 100 0
    endloop
  endfacet
  facet normal 0 1 0
    outer loop
      vertex 35 100 0
      vertex 0 100 6
      vertex 35 100 6
    endloop
  endfacet
  facet normal 0 0 1
    outer loop
      vertex 2.7899 4.69846 6
      vertex 0 0 6
      vertex 4.5 0 6
    endloop
  endfacet
  facet normal 0 0 1
    outer loop
      vertex 0 100 6
      vertex 0 0 6
      vertex 2.7899 4.69846 6
    endloop
  endfacet
  facet normal 0 0 1
    outer loop
      vertex 0 100 6
      vertex 2.7899 4.69846 6
      vertex 3 20 6
    endloop
  endfacet
  facet normal 0 0 1
    outer loop
      vertex 2.7899 74.6985 6
      vertex 3 90 6
      vertex 0 100 6
    endloop
  endfacet
  facet normal 0 0 1
    outer loop
      vertex 15 63 6
      vertex 3 58 6
      vertex 15 58 6
    endloop
  endfacet
  facet normal 0 0 1
    outer loop
      vertex 32.9009 14.4379 6
      vertex 20 20 6
      vertex 20 19.1334 6
    endloop
  endfacet
  facet normal 0 0 1
    outer loop
      vertex 33 53 6
      vertex 3 53 6
      vertex 3 43 6
    endloop
  endfacet
  facet normal 0 0 1
    outer loop
      vertex 20 5 6
      vertex 32.6908 10.2606 6
      vertex 20 5.64154 6
    endloop
  endfacet
  facet normal 0 0 1
    outer loop
      vertex 32.6908 10.2606 6
      vertex 32.9009 14.4379 6
      vertex 32.0356 12.0606 6
    endloop
  endfacet
  facet normal 0 0 1
    outer loop
      vertex 35 0 6
      vertex 32.9009 14.4379 6
      vertex 32.6908 10.2606 6
    endloop
  endfacet
  facet normal 0 0 1
    outer loop
      vertex 35 0 6
      vertex 32.6908 10.2606 6
      vertex 20 5 6
    endloop
  endfacet
  facet normal 0 0 1
    outer loop
      vertex 4.5 0 6
      vertex 20 5 6
      vertex 18.2374 5 6
    endloop
  endfacet
  facet normal 0 0 1
    outer loop
      vertex 4.5 0 6
      vertex 35 0 6
      vertex 20 5 6
    endloop
  endfacet
  facet normal 0 0 1
    outer loop
      vertex 35 0 6
      vertex 35 100 6
      vertex 32.9009 14.4379 6
    endloop
  endfacet
  facet normal 0 0 1
    outer loop
      vertex 32.6908 80.2606 6
      vertex 33 68 6
      vertex 32.9009 84.4379 6
    endloop
  endfacet
  facet normal 0 0 1
    outer loop
      vertex 15 85.6324 6
      vertex 3 90 6
      vertex 15 79.1426 6
    endloop
  endfacet
  facet normal 0 0 1
    outer loop
      vertex 4.7101 94.6985 6
      vertex 17.619 90 6
      vertex 0 100 6
    endloop
  endfacet
  facet normal 0 0 1
    outer loop
      vertex 3 68 6
      vertex 18.2374 75 6
      vertex 4.5 70 6
    endloop
  endfacet
  facet normal 0 0 1
    outer loop
      vertex 20 90 6
      vertex 20 89.1334 6
      vertex 35 100 6
    endloop
  endfacet
  facet normal 0 0 1
    outer loop
      vertex 35 100 6
      vertex 0 100 6
      vertex 17.619 90 6
    endloop
  endfacet
  facet normal 0 0 1
    outer loop
      vertex 20 89.1334 6
      vertex 32.9009 84.4379 6
      vertex 35 100 6
    endloop
  endfacet
  facet normal 0 0 1
    outer loop
      vertex 35 100 6
      vertex 17.619 90 6
      vertex 20 90 6
    endloop
  endfacet
  facet normal 0 0 1
    outer loop
      vertex 3 68 6
      vertex 4.5 70 6
      vertex 2.7899 74.6985 6
    endloop
  endfacet
  facet normal 0 0 1
    outer loop
      vertex 32.9009 84.4379 6
      vertex 32.0356 82.0606 6
      vertex 32.6908 80.2606 6
    endloop
  endfacet
  facet normal 0 0 1
    outer loop
      vertex 3 43 6
      vertex 3 53 6
      vertex 0 100 6
    endloop
  endfacet
  facet normal 0 0 1
    outer loop
      vertex 15 15.6324 6
      vertex 3 20 6
      vertex 2.7899 4.69846 6
    endloop
  endfacet
  facet normal 0 0 1
    outer loop
      vertex 0 100 6
      vertex 3 20 6
      vertex 3 28 6
    endloop
  endfacet
  facet normal 0 0 1
    outer loop
      vertex 15 15.6324 6
      vertex 2.7899 4.69846 6
      vertex 15 9.14258 6
    endloop
  endfacet
  facet normal 0 0 1
    outer loop
      vertex 0 100 6
      vertex 3 28 6
      vertex 3 33 6
    endloop
  endfacet
  facet normal 0 0 1
    outer loop
      vertex 3 68 6
      vertex 33 68 6
      vertex 20 75 6
    endloop
  endfacet
  facet normal 0 0 1
    outer loop
      vertex 2.7899 74.6985 6
      vertex 15 79.1426 6
      vertex 3 90 6
    endloop
  endfacet
  facet normal 0 0 1
    outer loop
      vertex 3 90 6
      vertex 4.7101 94.6985 6
      vertex 0 100 6
    endloop
  endfacet
  facet normal 0 0 1
    outer loop
      vertex 3 43 6
      vertex 0 100 6
      vertex 3 38 6
    endloop
  endfacet
  facet normal 0 0 1
    outer loop
      vertex 15 38 6
      vertex 3 38 6
      vertex 3 33 6
    endloop
  endfacet
  facet normal 0 0 1
    outer loop
      vertex 35 100 6
      vertex 33 43 6
      vertex 33 38 6
    endloop
  endfacet
  facet normal 0 0 1
    outer loop
      vertex 3 68 6
      vertex 20 75 6
      vertex 18.2374 75 6
    endloop
  endfacet
  facet normal 0 0 1
    outer loop
      vertex 35 100 6
      vertex 33 38 6
      vertex 33 33 6
    endloop
  endfacet
  facet normal 0 0 1
    outer loop
      vertex 35 100 6
      vertex 33 28 6
      vertex 32.9009 14.4379 6
    endloop
  endfacet
  facet normal 0 0 1
    outer loop
      vertex 35 100 6
      vertex 33 33 6
      vertex 33 28 6
    endloop
  endfacet
  facet normal 0 0 1
    outer loop
      vertex 33 63 6
      vertex 20 58 6
      vertex 33 58 6
    endloop
  endfacet
  facet normal 0 0 1
    outer loop
      vertex 2.7899 74.6985 6
      vertex 0 100 6
      vertex 3 53 6
    endloop
  endfacet
  facet normal 0 0 1
    outer loop
      vertex 2.7899 74.6985 6
      vertex 3 53 6
      vertex 3 58 6
    endloop
  endfacet
  facet normal 0 0 1
    outer loop
      vertex 15 38 6
      vertex 3 33 6
      vertex 15 33 6
    endloop
  endfacet
  facet normal 0 0 1
    outer loop
      vertex 15 63 6
      vertex 3 63 6
      vertex 3 58 6
    endloop
  endfacet
  facet normal 0 0 1
    outer loop
      vertex 2.7899 74.6985 6
      vertex 3 58 6
      vertex 3 63 6
    endloop
  endfacet
  facet normal 0 0 1
    outer loop
      vertex 2.7899 74.6985 6
      vertex 3 63 6
      vertex 3 68 6
    endloop
  endfacet
  facet normal 0 0 1
    outer loop
      vertex 35 100 6
      vertex 33 68 6
      vertex 33 63 6
    endloop
  endfacet
  facet normal 0 0 1
    outer loop
      vertex 35 100 6
      vertex 32.9009 84.4379 6
      vertex 33 68 6
    endloop
  endfacet
  facet normal 0 0 1
    outer loop
      vertex 35 100 6
      vertex 33 63 6
      vertex 33 58 6
    endloop
  endfacet
  facet normal 0 0 1
    outer loop
      vertex 35 100 6
      vertex 33 58 6
      vertex 33 53 6
    endloop
  endfacet
  facet normal 0 0 1
    outer loop
      vertex 33 63 6
      vertex 20 63 6
      vertex 20 58 6
    endloop
  endfacet
  facet normal 0 0 1
    outer loop
      vertex 35 100 6
      vertex 33 53 6
      vertex 33 43 6
    endloop
  endfacet
  facet normal 0 0 1
    outer loop
      vertex 3 33 6
      vertex 3 38 6
      vertex 0 100 6
    endloop
  endfacet
  facet normal 0 0 1
    outer loop
      vertex 3 20 6
      vertex 4.7101 24.6985 6
      vertex 3 28 6
    endloop
  endfacet
  facet normal 0 0 1
    outer loop
      vertex 33 53 6
      vertex 3 43 6
      vertex 33 43 6
    endloop
  endfacet
  facet normal 0 0 1
    outer loop
      vertex 20 75 6
      vertex 33 68 6
      vertex 32.6908 80.2606 6
    endloop
  endfacet
  facet normal 0 0 1
    outer loop
      vertex 20 75 6
      vertex 32.6908 80.2606 6
      vertex 20 75.6415 6
    endloop
  endfacet
  facet normal 0 0 1
    outer loop
      vertex 33 38 6
      vertex 20 38 6
      vertex 20 33 6
    endloop
  endfacet
  facet normal 0 0 1
    outer loop
      vertex 20 33 6
      vertex 33 33 6
      vertex 33 38 6
    endloop
  endfacet
  facet normal 0 0 1
    outer loop
      vertex 33 28 6
      vertex 20 20 6
      vertex 32.9009 14.4379 6
    endloop
  endfacet
  facet normal 0 0 1
    outer loop
      vertex 33 28 6
      vertex 17.619 20 6
      vertex 20 20 6
    endloop
  endfacet
  facet normal 0 0 1
    outer loop
      vertex 33 28 6
      vertex 4.7101 24.6985 6
      vertex 17.619 20 6
    endloop
  endfacet
  facet normal 0 0 1
    outer loop
      vertex 33 28 6
      vertex 3 28 6
      vertex 4.7101 24.6985 6
    endloop
  endfacet
  facet normal -0.939693 -0.34202 0
    outer loop
      vertex 2.7899 4.69846 6
      vertex 4.5 0 6
      vertex 2.7899 4.69846 8
    endloop
  endfacet
  facet normal -0.939693 -0.34202 0
    outer loop
      vertex 2.7899 4.69846 8
      vertex 4.5 0 6
      vertex 4.5 0 8
    endloop
  endfacet
  facet normal 0.34202 -0.939693 0
    outer loop
      vertex 4.5 0 8
      vertex 4.5 0 6
      vertex 18.2374 5 6
    endloop
  endfacet
  facet normal 0.34202 -0.939693 0
    outer loop
      vertex 18.2374 5 8
      vertex 4.5 0 8
      vertex 18.2374 5 6
    endloop
  endfacet
  facet normal 1 0 0
    outer loop
      vertex 35 0 6
      vertex 35 0 0
      vertex 35 100 0
    endloop
  endfacet
  facet normal 1 0 0
    outer loop
      vertex 35 100 6
      vertex 35 0 6
      vertex 35 100 0
    endloop
  endfacet
  facet normal 0 -1 0
    outer loop
      vertex 18.2374 5 8
      vertex 18.2374 5 6
      vertex 20 5 6
    endloop
  endfacet
  facet normal 0 -1 0
    outer loop
      vertex 20 5 8
      vertex 18.2374 5 8
      vertex 20 5 6
    endloop
  endfacet
  facet normal 1 0 0
    outer loop
      vertex 20 5 8
      vertex 20 5 6
      vertex 20 5.64154 6
    endloop
  endfacet
  facet normal 1 0 0
    outer loop
      vertex 20 5.64154 8
      vertex 20 5 8
      vertex 20 5.64154 6
    endloop
  endfacet
  facet normal 0.34202 -0.939693 0
    outer loop
      vertex 20 5.64154 8
      vertex 20 5.64154 6
      vertex 32.6908 10.2606 6
    endloop
  endfacet
  facet normal 0.34202 -0.939693 0
    outer loop
      vertex 32.6908 10.2606 8
      vertex 20 5.64154 8
      vertex 32.6908 10.2606 6
    endloop
  endfacet
  facet normal 0.939693 0.34202 0
    outer loop
      vertex 32.6908 10.2606 6
      vertex 32.0356 12.0606 6
      vertex 32.0356 12.0606 8
    endloop
  endfacet
  facet normal 0.939693 0.34202 0
    outer loop
      vertex 32.6908 10.2606 8
      vertex 32.6908 10.2606 6
      vertex 32.0356 12.0606 8
    endloop
  endfacet
  facet normal 0.939693 -0.34202 0
    outer loop
      vertex 32.0356 12.0606 8
      vertex 32.0356 12.0606 6
      vertex 32.9009 14.4379 6
    endloop
  endfacet
  facet normal 0.939693 -0.34202 0
    outer loop
      vertex 32.9009 14.4379 8
      vertex 32.0356 12.0606 8
      vertex 32.9009 14.4379 6
    endloop
  endfacet
  facet normal 0.34202 0.939693 0
    outer loop
      vertex 20 19.1334 6
      vertex 20 19.1334 8
      vertex 32.9009 14.4379 6
    endloop
  endfacet
  facet normal 0.34202 0.939693 0
    outer loop
      vertex 32.9009 14.4379 6
      vertex 20 19.1334 8
      vertex 32.9009 14.4379 8
    endloop
  endfacet
  facet normal 1 0 0
    outer loop
      vertex 20 19.1334 8
      vertex 20 19.1334 6
      vertex 20 20 6
    endloop
  endfacet
  facet normal 1 0 0
    outer loop
      vertex 20 20 8
      vertex 20 19.1334 8
      vertex 20 20 6
    endloop
  endfacet
  facet normal 0 1 0
    outer loop
      vertex 17.619 20 6
      vertex 17.619 20 8
      vertex 20 20 6
    endloop
  endfacet
  facet normal 0 1 0
    outer loop
      vertex 20 20 6
      vertex 17.619 20 8
      vertex 20 20 8
    endloop
  endfacet
  facet normal 0.34202 0.939693 0
    outer loop
      vertex 4.7101 24.6985 6
      vertex 4.7101 24.6985 8
      vertex 17.619 20 6
    endloop
  endfacet
  facet normal 0.34202 0.939693 0
    outer loop
      vertex 17.619 20 6
      vertex 4.7101 24.6985 8
      vertex 17.619 20 8
    endloop
  endfacet
  facet normal -0.939693 0.34202 0
    outer loop
      vertex 3 20 6
      vertex 3 20 8
      vertex 4.7101 24.6985 6
    endloop
  endfacet
  facet normal -0.939693 0.34202 0
    outer loop
      vertex 4.7101 24.6985 6
      vertex 3 20 8
      vertex 4.7101 24.6985 8
    endloop
  endfacet
  facet normal -0.34202 -0.939693 0
    outer loop
      vertex 3 20 8
      vertex 3 20 6
      vertex 15 15.6324 6
    endloop
  endfacet
  facet normal -0.34202 -0.939693 0
    outer loop
      vertex 15 15.6324 8
      vertex 3 20 8
      vertex 15 15.6324 6
    endloop
  endfacet
  facet normal -1 0 0
    outer loop
      vertex 15 9.14258 6
      vertex 15 9.14258 8
      vertex 15 15.6324 6
    endloop
  endfacet
  facet normal -1 0 0
    outer loop
      vertex 15 15.6324 6
      vertex 15 9.14258 8
      vertex 15 15.6324 8
    endloop
  endfacet
  facet normal -0.34202 0.939693 0
    outer loop
      vertex 2.7899 4.69846 6
      vertex 2.7899 4.69846 8
      vertex 15 9.14258 6
    endloop
  endfacet
  facet normal -0.34202 0.939693 0
    outer loop
      vertex 15 9.14258 6
      vertex 2.7899 4.69846 8
      vertex 15 9.14258 8
    endloop
  endfacet
  facet normal -0.939693 -0.34202 0
    outer loop
      vertex 2.7899 74.6985 6
      vertex 4.5 70 6
      vertex 2.7899 74.6985 8
    endloop
  endfacet
  facet normal -0.939693 -0.34202 0
    outer loop
      vertex 2.7899 74.6985 8
      vertex 4.5 70 6
      vertex 4.5 70 8
    endloop
  endfacet
  facet normal 0.34202 -0.939693 0
    outer loop
      vertex 4.5 70 8
      vertex 4.5 70 6
      vertex 18.2374 75 6
    endloop
  endfacet
  facet normal 0.34202 -0.939693 0
    outer loop
      vertex 18.2374 75 8
      vertex 4.5 70 8
      vertex 18.2374 75 6
    endloop
  endfacet
  facet normal 0 -1 0
    outer loop
      vertex 18.2374 75 8
      vertex 18.2374 75 6
      vertex 20 75 6
    endloop
  endfacet
  facet normal 0 -1 0
    outer loop
      vertex 20 75 8
      vertex 18.2374 75 8
      vertex 20 75 6
    endloop
  endfacet
  facet normal 1 0 0
    outer loop
      vertex 20 75 8
      vertex 20 75 6
      vertex 20 75.6415 6
    endloop
  endfacet
  facet normal 1 0 0
    outer loop
      vertex 20 75.6415 8
      vertex 20 75 8
      vertex 20 75.6415 6
    endloop
  endfacet
  facet normal 0.34202 -0.939693 0
    outer loop
      vertex 20 75.6415 8
      vertex 20 75.6415 6
      vertex 32.6908 80.2606 6
    endloop
  endfacet
  facet normal 0.34202 -0.939693 0
    outer loop
      vertex 32.6908 80.2606 8
      vertex 20 75.6415 8
      vertex 32.6908 80.2606 6
    endloop
  endfacet
  facet normal 0.939693 0.34202 0
    outer loop
      vertex 32.6908 80.2606 6
      vertex 32.0356 82.0606 6
      vertex 32.0356 82.0606 8
    endloop
  endfacet
  facet normal 0.939693 0.34202 0
    outer loop
      vertex 32.6908 80.2606 8
      vertex 32.6908 80.2606 6
      vertex 32.0356 82.0606 8
    endloop
  endfacet
  facet normal 0.939693 -0.34202 0
    outer loop
      vertex 32.0356 82.0606 8
      vertex 32.0356 82.0606 6
      vertex 32.9009 84.4379 6
    endloop
  endfacet
  facet normal 0.939693 -0.34202 0
    outer loop
      vertex 32.9009 84.4379 8
      vertex 32.0356 82.0606 8
      vertex 32.9009 84.4379 6
    endloop
  endfacet
  facet normal 0.34202 0.939693 0
    outer loop
      vertex 20 89.1334 6
      vertex 20 89.1334 8
      vertex 32.9009 84.4379 6
    endloop
  endfacet
  facet normal 0.34202 0.939693 0
    outer loop
      vertex 32.9009 84.4379 6
      vertex 20 89.1334 8
      vertex 32.9009 84.4379 8
    endloop
  endfacet
  facet normal 1 0 0
    outer loop
      vertex 20 89.1334 8
      vertex 20 89.1334 6
      vertex 20 90 6
    endloop
  endfacet
  facet normal 1 0 0
    outer loop
      vertex 20 90 8
      vertex 20 89.1334 8
      vertex 20 90 6
    endloop
  endfacet
  facet normal 0 1 0
    outer loop
      vertex 17.619 90 6
      vertex 17.619 90 8
      vertex 20 90 6
    endloop
  endfacet
  facet normal 0 1 0
    outer loop
      vertex 20 90 6
      vertex 17.619 90 8
      vertex 20 90 8
    endloop
  endfacet
  facet normal 0.34202 0.939693 0
    outer loop
      vertex 4.7101 94.6985 6
      vertex 4.7101 94.6985 8
      vertex 17.619 90 6
    endloop
  endfacet
  facet normal 0.34202 0.939693 0
    outer loop
      vertex 17.619 90 6
      vertex 4.7101 94.6985 8
      vertex 17.619 90 8
    endloop
  endfacet
  facet normal -0.939693 0.34202 0
    outer loop
      vertex 3 90 6
      vertex 3 90 8
      vertex 4.7101 94.6985 6
    endloop
  endfacet
  facet normal -0.939693 0.34202 0
    outer loop
      vertex 4.7101 94.6985 6
      vertex 3 90 8
      vertex 4.7101 94.6985 8
    endloop
  endfacet
  facet normal -0.34202 -0.939693 0
    outer loop
      vertex 3 90 8
      vertex 3 90 6
      vertex 15 85.6324 6
    endloop
  endfacet
  facet normal -0.34202 -0.939693 0
    outer loop
      vertex 15 85.6324 8
      vertex 3 90 8
      vertex 15 85.6324 6
    endloop
  endfacet
  facet normal -1 0 0
    outer loop
      vertex 15 79.1426 6
      vertex 15 79.1426 8
      vertex 15 85.6324 6
    endloop
  endfacet
  facet normal -1 0 0
    outer loop
      vertex 15 85.6324 6
      vertex 15 79.1426 8
      vertex 15 85.6324 8
    endloop
  endfacet
  facet normal -0.34202 0.939693 0
    outer loop
      vertex 2.7899 74.6985 6
      vertex 2.7899 74.6985 8
      vertex 15 79.1426 6
    endloop
  endfacet
  facet normal -0.34202 0.939693 0
    outer loop
      vertex 15 79.1426 6
      vertex 2.7899 74.6985 8
      vertex 15 79.1426 8
    endloop
  endfacet
  facet normal -1 0 0
    outer loop
      vertex 3 28 6
      vertex 3 28 8
      vertex 3 33 6
    endloop
  endfacet
  facet normal -1 0 0
    outer loop
      vertex 3 33 6
      vertex 3 28 8
      vertex 3 33 8
    endloop
  endfacet
  facet normal 0 -1 0
    outer loop
      vertex 3 28 8
      vertex 3 28 6
      vertex 33 28 6
    endloop
  endfacet
  facet normal 0 -1 0
    outer loop
      vertex 33 28 8
      vertex 3 28 8
      vertex 33 28 6
    endloop
  endfacet
  facet normal 1 0 0
    outer loop
      vertex 33 28 8
      vertex 33 28 6
      vertex 33 33 6
    endloop
  endfacet
  facet normal 1 0 0
    outer loop
      vertex 33 33 8
      vertex 33 28 8
      vertex 33 33 6
    endloop
  endfacet
  facet normal 0 1 0
    outer loop
      vertex 20 33 6
      vertex 20 33 8
      vertex 33 33 6
    endloop
  endfacet
  facet normal 0 1 0
    outer loop
      vertex 33 33 6
      vertex 20 33 8
      vertex 33 33 8
    endloop
  endfacet
  facet normal 1 0 0
    outer loop
      vertex 20 33 8
      vertex 20 33 6
      vertex 20 38 6
    endloop
  endfacet
  facet normal 1 0 0
    outer loop
      vertex 20 38 8
      vertex 20 33 8
      vertex 20 38 6
    endloop
  endfacet
  facet normal 0 -1 0
    outer loop
      vertex 20 38 8
      vertex 20 38 6
      vertex 33 38 6
    endloop
  endfacet
  facet normal 0 -1 0
    outer loop
      vertex 33 38 8
      vertex 20 38 8
      vertex 33 38 6
    endloop
  endfacet
  facet normal 1 0 0
    outer loop
      vertex 33 38 8
      vertex 33 38 6
      vertex 33 43 6
    endloop
  endfacet
  facet normal 1 0 0
    outer loop
      vertex 33 43 8
      vertex 33 38 8
      vertex 33 43 6
    endloop
  endfacet
  facet normal 0 1 0
    outer loop
      vertex 3 43 6
      vertex 3 43 8
      vertex 33 43 6
    endloop
  endfacet
  facet normal 0 1 0
    outer loop
      vertex 33 43 6
      vertex 3 43 8
      vertex 33 43 8
    endloop
  endfacet
  facet normal -1 0 0
    outer loop
      vertex 3 38 6
      vertex 3 38 8
      vertex 3 43 6
    endloop
  endfacet
  facet normal -1 0 0
    outer loop
      vertex 3 43 6
      vertex 3 38 8
      vertex 3 43 8
    endloop
  endfacet
  facet normal 0 -1 0
    outer loop
      vertex 3 38 8
      vertex 3 38 6
      vertex 15 38 6
    endloop
  endfacet
  facet normal 0 -1 0
    outer loop
      vertex 15 38 8
      vertex 3 38 8
      vertex 15 38 6
    endloop
  endfacet
  facet normal -1 0 0
    outer loop
      vertex 15 33 6
      vertex 15 33 8
      vertex 15 38 6
    endloop
  endfacet
  facet normal -1 0 0
    outer loop
      vertex 15 38 6
      vertex 15 33 8
      vertex 15 38 8
    endloop
  endfacet
  facet normal 0 1 0
    outer loop
      vertex 3 33 6
      vertex 3 33 8
      vertex 15 33 6
    endloop
  endfacet
  facet normal 0 1 0
    outer loop
      vertex 15 33 6
      vertex 3 33 8
      vertex 15 33 8
    endloop
  endfacet
  facet normal -1 0 0
    outer loop
      vertex 3 53 6
      vertex 3 53 8
      vertex 3 58 6
    endloop
  endfacet
  facet normal -1 0 0
    outer loop
      vertex 3 58 6
      vertex 3 53 8
      vertex 3 58 8
    endloop
  endfacet
  facet normal 0 -1 0
    outer loop
      vertex 3 53 8
      vertex 3 53 6
      vertex 33 53 6
    endloop
  endfacet
  facet normal 0 -1 0
    outer loop
      vertex 33 53 8
      vertex 3 53 8
      vertex 33 53 6
    endloop
  endfacet
  facet normal 1 0 0
    outer loop
      vertex 33 53 8
      vertex 33 53 6
      vertex 33 58 6
    endloop
  endfacet
  facet normal 1 0 0
    outer loop
      vertex 33 58 8
      vertex 33 53 8
      vertex 33 58 6
    endloop
  endfacet
  facet normal 0 1 0
    outer loop
      vertex 20 58 6
      vertex 20 58 8
      vertex 33 58 6
    endloop
  endfacet
  facet normal 0 1 0
    outer loop
      vertex 33 58 6
      vertex 20 58 8
      vertex 33 58 8
    endloop
  endfacet
  facet normal 1 0 0
    outer loop
      vertex 20 58 8
      vertex 20 58 6
      vertex 20 63 6
    endloop
  endfacet
  facet normal 1 0 0
    outer loop
      vertex 20 63 8
      vertex 20 58 8
      vertex 20 63 6
    endloop
  endfacet
  facet normal 0 -1 0
    outer loop
      vertex 20 63 8
      vertex 20 63 6
      vertex 33 63 6
    endloop
  endfacet
  facet normal 0 -1 0
    outer loop
      vertex 33 63 8
      vertex 20 63 8
      vertex 33 63 6
    endloop
  endfacet
  facet normal 1 0 0
    outer loop
      vertex 33 63 8
      vertex 33 63 6
      vertex 33 68 6
    endloop
  endfacet
  facet normal 1 0 0
    outer loop
      vertex 33 68 8
      vertex 33 63 8
      vertex 33 68 6
    endloop
  endfacet
  facet normal 0 1 0
    outer loop
      vertex 3 68 6
      vertex 3 68 8
      vertex 33 68 6
    endloop
  endfacet
  facet normal 0 1 0
    outer loop
      vertex 33 68 6
      vertex 3 68 8
      vertex 33 68 8
    endloop
  endfacet
  facet normal -1 0 0
    outer loop
      vertex 3 63 6
      vertex 3 63 8
      vertex 3 68 6
    endloop
  endfacet
  facet normal -1 0 0
    outer loop
      vertex 3 68 6
      vertex 3 63 8
      vertex 3 68 8
    endloop
  endfacet
  facet normal 0 -1 0
    outer loop
      vertex 3 63 8
      vertex 3 63 6
      vertex 15 63 6
    endloop
  endfacet
  facet normal 0 -1 0
    outer loop
      vertex 15 63 8
      vertex 3 63 8
      vertex 15 63 6
    endloop
  endfacet
  facet normal -1 0 0
    outer loop
      vertex 15 58 6
      vertex 15 58 8
      vertex 15 63 6
    endloop
  endfacet
  facet normal -1 0 0
    outer loop
      vertex 15 63 6
      vertex 15 58 8
      vertex 15 63 8
    endloop
  endfacet
  facet normal 0 1 0
    outer loop
      vertex 3 58 6
      vertex 3 58 8
      vertex 15 58 6
    endloop
  endfacet
  facet normal 0 1 0
    outer loop
      vertex 15 58 6
      vertex 3 58 8
      vertex 15 58 8
    endloop
  endfacet
  facet normal 0 0 1
    outer loop
      vertex 15 9.14258 8
      vertex 2.7899 4.69846 8
      vertex 4.5 0 8
    endloop
  endfacet
  facet normal 0 0 1
    outer loop
      vertex 20 5 8
      vertex 15 9.14258 8
      vertex 18.2374 5 8
    endloop
  endfacet
  facet normal 0 0 1
    outer loop
      vertex 18.2374 5 8
      vertex 15 9.14258 8
      vertex 4.5 0 8
    endloop
  endfacet
  facet normal 0 0 1
    outer loop
      vertex 20 5.64154 8
      vertex 15 9.14258 8
      vertex 20 5 8
    endloop
  endfacet
  facet normal 0 0 1
    outer loop
      vertex 32.6908 10.2606 8
      vertex 15 9.14258 8
      vertex 20 5.64154 8
    endloop
  endfacet
  facet normal 0 0 1
    outer loop
      vertex 32.0356 12.0606 8
      vertex 15 9.14258 8
      vertex 32.6908 10.2606 8
    endloop
  endfacet
  facet normal 0 0 1
    outer loop
      vertex 32.9009 14.4379 8
      vertex 15 9.14258 8
      vertex 32.0356 12.0606 8
    endloop
  endfacet
  facet normal 0 0 1
    outer loop
      vertex 20 10.9624 8
      vertex 15 9.14258 8
      vertex 32.9009 14.4379 8
    endloop
  endfacet
  facet normal 0 0 1
    outer loop
      vertex 3 20 8
      vertex 17.619 20 8
      vertex 4.7101 24.6985 8
    endloop
  endfacet
  facet normal 0 0 1
    outer loop
      vertex 3 20 8
      vertex 15 15.6324 8
      vertex 17.619 20 8
    endloop
  endfacet
  facet normal 0 0 1
    outer loop
      vertex 17.619 20 8
      vertex 15 15.6324 8
      vertex 20 20 8
    endloop
  endfacet
  facet normal 0 0 1
    outer loop
      vertex 20 19.1334 8
      vertex 20 13.8125 8
      vertex 32.9009 14.4379 8
    endloop
  endfacet
  facet normal 0 0 1
    outer loop
      vertex 20 13.8125 8
      vertex 15 9.14258 8
      vertex 20 10.9624 8
    endloop
  endfacet
  facet normal 0 0 1
    outer loop
      vertex 20 19.1334 8
      vertex 15 9.14258 8
      vertex 20 13.8125 8
    endloop
  endfacet
  facet normal 0 0 1
    outer loop
      vertex 32.9009 14.4379 8
      vertex 23.9153 12.3875 8
      vertex 20 10.9624 8
    endloop
  endfacet
  facet normal 0 0 1
    outer loop
      vertex 32.9009 14.4379 8
      vertex 20 13.8125 8
      vertex 23.9153 12.3875 8
    endloop
  endfacet
  facet normal 0 0 1
    outer loop
      vertex 15 15.6324 8
      vertex 20 19.1334 8
      vertex 20 20 8
    endloop
  endfacet
  facet normal 0 0 1
    outer loop
      vertex 15 15.6324 8
      vertex 15 9.14258 8
      vertex 20 19.1334 8
    endloop
  endfacet
  facet normal 0 0 1
    outer loop
      vertex 15 79.1426 8
      vertex 2.7899 74.6985 8
      vertex 4.5 70 8
    endloop
  endfacet
  facet normal 0 0 1
    outer loop
      vertex 20 75 8
      vertex 15 79.1426 8
      vertex 18.2374 75 8
    endloop
  endfacet
  facet normal 0 0 1
    outer loop
      vertex 18.2374 75 8
      vertex 15 79.1426 8
      vertex 4.5 70 8
    endloop
  endfacet
  facet normal 0 0 1
    outer loop
      vertex 20 75.6415 8
      vertex 15 79.1426 8
      vertex 20 75 8
    endloop
  endfacet
  facet normal 0 0 1
    outer loop
      vertex 32.6908 80.2606 8
      vertex 15 79.1426 8
      vertex 20 75.6415 8
    endloop
  endfacet
  facet normal 0 0 1
    outer loop
      vertex 32.0356 82.0606 8
      vertex 15 79.1426 8
      vertex 32.6908 80.2606 8
    endloop
  endfacet
  facet normal 0 0 1
    outer loop
      vertex 32.9009 84.4379 8
      vertex 15 79.1426 8
      vertex 32.0356 82.0606 8
    endloop
  endfacet
  facet normal 0 0 1
    outer loop
      vertex 20 80.9624 8
      vertex 15 79.1426 8
      vertex 32.9009 84.4379 8
    endloop
  endfacet
  facet normal 0 0 1
    outer loop
      vertex 3 90 8
      vertex 17.619 90 8
      vertex 4.7101 94.6985 8
    endloop
  endfacet
  facet normal 0 0 1
    outer loop
      vertex 3 90 8
      vertex 15 85.6324 8
      vertex 17.619 90 8
    endloop
  endfacet
  facet normal 0 0 1
    outer loop
      vertex 17.619 90 8
      vertex 15 85.6324 8
      vertex 20 90 8
    endloop
  endfacet
  facet normal 0 0 1
    outer loop
      vertex 20 89.1334 8
      vertex 20 83.8125 8
      vertex 32.9009 84.4379 8
    endloop
  endfacet
  facet normal 0 0 1
    outer loop
      vertex 20 83.8125 8
      vertex 15 79.1426 8
      vertex 20 80.9624 8
    endloop
  endfacet
  facet normal 0 0 1
    outer loop
      vertex 20 89.1334 8
      vertex 15 79.1426 8
      vertex 20 83.8125 8
    endloop
  endfacet
  facet normal 0 0 1
    outer loop
      vertex 32.9009 84.4379 8
      vertex 23.9153 82.3875 8
      vertex 20 80.9624 8
    endloop
  endfacet
  facet normal 0 0 1
    outer loop
      vertex 32.9009 84.4379 8
      vertex 20 83.8125 8
      vertex 23.9153 82.3875 8
    endloop
  endfacet
  facet normal 0 0 1
    outer loop
      vertex 15 85.6324 8
      vertex 20 89.1334 8
      vertex 20 90 8
    endloop
  endfacet
  facet normal 0 0 1
    outer loop
      vertex 15 85.6324 8
      vertex 15 79.1426 8
      vertex 20 89.1334 8
    endloop
  endfacet
  facet normal 0 0 1
    outer loop
      vertex 3 33 8
      vertex 3 28 8
      vertex 33 28 8
    endloop
  endfacet
  facet normal 0 0 1
    outer loop
      vertex 15 33 8
      vertex 3 33 8
      vertex 33 28 8
    endloop
  endfacet
  facet normal 0 0 1
    outer loop
      vertex 20 33 8
      vertex 15 33 8
      vertex 33 28 8
    endloop
  endfacet
  facet normal 0 0 1
    outer loop
      vertex 33 33 8
      vertex 20 33 8
      vertex 33 28 8
    endloop
  endfacet
  facet normal 0 0 1
    outer loop
      vertex 33 38 8
      vertex 33 43 8
      vertex 20 38 8
    endloop
  endfacet
  facet normal 0 0 1
    outer loop
      vertex 33 43 8
      vertex 3 43 8
      vertex 3 38 8
    endloop
  endfacet
  facet normal 0 0 1
    outer loop
      vertex 33 43 8
      vertex 3 38 8
      vertex 15 38 8
    endloop
  endfacet
  facet normal 0 0 1
    outer loop
      vertex 20 38 8
      vertex 15 33 8
      vertex 20 33 8
    endloop
  endfacet
  facet normal 0 0 1
    outer loop
      vertex 15 38 8
      vertex 20 38 8
      vertex 33 43 8
    endloop
  endfacet
  facet normal 0 0 1
    outer loop
      vertex 15 38 8
      vertex 15 33 8
      vertex 20 38 8
    endloop
  endfacet
  facet normal 0 0 1
    outer loop
      vertex 3 58 8
      vertex 3 53 8
      vertex 33 53 8
    endloop
  endfacet
  facet normal 0 0 1
    outer loop
      vertex 15 58 8
      vertex 3 58 8
      vertex 33 53 8
    endloop
  endfacet
  facet normal 0 0 1
    outer loop
      vertex 20 58 8
      vertex 15 58 8
      vertex 33 53 8
    endloop
  endfacet
  facet normal 0 0 1
    outer loop
      vertex 33 58 8
      vertex 20 58 8
      vertex 33 53 8
    endloop
  endfacet
  facet normal 0 0 1
    outer loop
      vertex 33 63 8
      vertex 33 68 8
      vertex 20 63 8
    endloop
  endfacet
  facet normal 0 0 1
    outer loop
      vertex 33 68 8
      vertex 3 68 8
      vertex 3 63 8
    endloop
  endfacet
  facet normal 0 0 1
    outer loop
      vertex 33 68 8
      vertex 3 63 8
      vertex 15 63 8
    endloop
  endfacet
  facet normal 0 0 1
    outer loop
      vertex 20 63 8
      vertex 15 58 8
      vertex 20 58 8
    endloop
  endfacet
  facet normal 0 0 1
    outer loop
      vertex 15 63 8
      vertex 20 63 8
      vertex 33 68 8
    endloop
  endfacet
  facet normal 0 0 1
    outer loop
      vertex 15 63 8
      vertex 15 58 8
      vertex 20 63 8
    endloop
  endfacet
  facet normal 1 0 0
    outer loop
      vertex 20 10.9624 8
      vertex 20 10.9624 6
      vertex 20 13.8125 6
    endloop
  endfacet
  facet normal 1 0 0
    outer loop
      vertex 20 13.8125 8
      vertex 20 10.9624 8
      vertex 20 13.8125 6
    endloop
  endfacet
  facet normal -0.34202 0.939693 0
    outer loop
      vertex 20 10.9624 6
      vertex 20 10.9624 8
      vertex 23.9153 12.3875 6
    endloop
  endfacet
  facet normal -0.34202 0.939693 0
    outer loop
      vertex 23.9153 12.3875 6
      vertex 20 10.9624 8
      vertex 23.9153 12.3875 8
    endloop
  endfacet
  facet normal -0.34202 -0.939693 0
    outer loop
      vertex 20 13.8125 8
      vertex 20 13.8125 6
      vertex 23.9153 12.3875 6
    endloop
  endfacet
  facet normal -0.34202 -0.939693 0
    outer loop
      vertex 23.9153 12.3875 8
      vertex 20 13.8125 8
      vertex 23.9153 12.3875 6
    endloop
  endfacet
  facet normal 1 0 0
    outer loop
      vertex 20 80.9624 8
      vertex 20 80.9624 6
      vertex 20 83.8125 6
    endloop
  endfacet
  facet normal 1 0 0
    outer loop
      vertex 20 83.8125 8
      vertex 20 80.9624 8
      vertex 20 83.8125 6
    endloop
  endfacet
  facet normal -0.34202 0.939693 0
    outer loop
      vertex 20 80.9624 6
      vertex 20 80.9624 8
      vertex 23.9153 82.3875 6
    endloop
  endfacet
  facet normal -0.34202 0.939693 0
    outer loop
      vertex 23.9153 82.3875 6
      vertex 20 80.9624 8
      vertex 23.9153 82.3875 8
    endloop
  endfacet
  facet normal -0.34202 -0.939693 0
    outer loop
      vertex 20 83.8125 8
      vertex 20 83.8125 6
      vertex 23.9153 82.3875 6
    endloop
  endfacet
  facet normal -0.34202 -0.939693 0
    outer loop
      vertex 23.9153 82.3875 8
      vertex 20 83.8125 8
      vertex 23.9153 82.3875 6
    endloop
  endfacet
  facet normal 0 0 1
    outer loop
      vertex 20 13.8125 6
      vertex 20 10.9624 6
      vertex 23.9153 12.3875 6
    endloop
  endfacet
  facet normal 0 0 1
    outer loop
      vertex 20 83.8125 6
      vertex 20 80.9624 6
      vertex 23.9153 82.3875 6
    endloop
  endfacet
endsolid OpenSCAD_Model
