solid OpenSCAD_Model
  facet normal 0 0 -1
    outer loop
      vertex -1.99203 1.91116 1
      vertex -0.567294 3.04735 1
      vertex -1.99203 0.088844 1
    endloop
  endfacet
  facet normal 0 0 -1
    outer loop
      vertex -1.99203 0.088844 1
      vertex -0.567294 3.04735 1
      vertex 1.20933 2.64185 1
    endloop
  endfacet
  facet normal 0 0 -1
    outer loop
      vertex -1.99203 0.088844 1
      vertex 1.20933 2.64185 1
      vertex 2 1 1
    endloop
  endfacet
  facet normal 0 0 -1
    outer loop
      vertex -1.99203 0.088844 1
      vertex 2 1 1
      vertex 1.20933 -0.641846 1
    endloop
  endfacet
  facet normal 0 0 -1
    outer loop
      vertex -1.99203 0.088844 1
      vertex 1.20933 -0.641846 1
      vertex -0.567294 -1.04735 1
    endloop
  endfacet
  facet normal 0.900969 0.433884 0
    outer loop
      vertex 1.20933 2.64185 1
      vertex 1.20933 2.64185 2
      vertex 2 1 2
    endloop
  endfacet
  facet normal 0.900969 0.433884 0
    outer loop
      vertex 2 1 1
      vertex 1.20933 2.64185 1
      vertex 2 1 2
    endloop
  endfacet
  facet normal 0.222521 0.974928 0
    outer loop
      vertex -0.567294 3.04735 2
      vertex 1.20933 2.64185 2
      vertex -0.567294 3.04735 1
    endloop
  endfacet
  facet normal 0.222521 0.974928 0
    outer loop
      vertex -0.567294 3.04735 1
      vertex 1.20933 2.64185 2
      vertex 1.20933 2.64185 1
    endloop
  endfacet
  facet normal -1 0 0
    outer loop
      vertex -1.99203 0.088844 2
      vertex -1.99203 1.91116 2
      vertex -1.99203 0.088844 1
    endloop
  endfacet
  facet normal -1 0 0
    outer loop
      vertex -1.99203 0.088844 1
      vertex -1.99203 1.91116 2
      vertex -1.99203 1.91116 1
    endloop
  endfacet
  facet normal -0.62349 -0.781831 0
    outer loop
      vertex -1.99203 0.088844 1
      vertex -0.567294 -1.04735 1
      vertex -0.567294 -1.04735 2
    endloop
  endfacet
  facet normal -0.62349 -0.781831 0
    outer loop
      vertex -1.99203 0.088844 2
      vertex -1.99203 0.088844 1
      vertex -0.567294 -1.04735 2
    endloop
  endfacet
  facet normal 0.222521 -0.974928 0
    outer loop
      vertex -0.567294 -1.04735 1
      vertex 1.20933 -0.641846 1
      vertex 1.20933 -0.641846 2
    endloop
  endfacet
  facet normal 0.222521 -0.974928 0
    outer loop
      vertex -0.567294 -1.04735 2
      vertex -0.567294 -1.04735 1
      vertex 1.20933 -0.641846 2
    endloop
  endfacet
  facet normal 0.900969 -0.433884 0
    outer loop
      vertex 1.20933 -0.641846 1
      vertex 2 1 1
      vertex 2 1 2
    endloop
  endfacet
  facet normal 0.900969 -0.433884 0
    outer loop
      vertex 1.20933 -0.641846 2
      vertex 1.20933 -0.641846 1
      vertex 2 1 2
    endloop
  endfacet
  facet normal -0.62349 0.781831 0
    outer loop
      vertex -1.99203 1.91116 2
      vertex -0.567294 3.04735 2
      vertex -1.99203 1.91116 1
    endloop
  endfacet
  facet normal -0.62349 0.781831 0
    outer loop
      vertex -1.99203 1.91116 1
      vertex -0.567294 3.04735 2
      vertex -0.567294 3.04735 1
    endloop
  endfacet
  facet normal 0 0 1
    outer loop
      vertex -1.99203 0.088844 2
      vertex -0.567294 -1.04735 2
      vertex 1.20933 -0.641846 2
    endloop
  endfacet
  facet normal 0 0 1
    outer loop
      vertex 1.20933 2.64185 2
      vertex -1.99203 0.088844 2
      vertex 2 1 2
    endloop
  endfacet
  facet normal 0 0 1
    outer loop
      vertex 2 1 2
      vertex -1.99203 0.088844 2
      vertex 1.20933 -0.641846 2
    endloop
  endfacet
  facet normal 0 0 1
    outer loop
      vertex -0.567294 3.04735 2
      vertex -1.99203 0.088844 2
      vertex 1.20933 2.64185 2
    endloop
  endfacet
  facet normal 0 0 1
    outer loop
      vertex -1.99203 1.91116 2
      vertex -1.99203 0.088844 2
      vertex -0.567294 3.04735 2
    endloop
  endfacet
endsolid OpenSCAD_Model
