solid OpenSCAD_Model
  facet normal 0 0 -1
    outer loop
      vertex -7.5 7.5 0
      vertex -7.24444 9.44114 0
      vertex -7.24444 5.55886 0
    endloop
  endfacet
  facet normal 0 0 -1
    outer loop
      vertex -7.24444 5.55886 0
      vertex -7.24444 9.44114 0
      vertex -6.49519 11.25 0
    endloop
  endfacet
  facet normal 0 0 -1
    outer loop
      vertex -7.24444 5.55886 0
      vertex -6.49519 11.25 0
      vertex -5.3033 12.8033 0
    endloop
  endfacet
  facet normal 0 0 -1
    outer loop
      vertex -7.24444 5.55886 0
      vertex -5.3033 12.8033 0
      vertex -3.75 13.9952 0
    endloop
  endfacet
  facet normal 0 0 -1
    outer loop
      vertex -7.24444 5.55886 0
      vertex -3.75 13.9952 0
      vertex -1.94114 14.7444 0
    endloop
  endfacet
  facet normal 0 0 -1
    outer loop
      vertex -7.24444 5.55886 0
      vertex -1.94114 14.7444 0
      vertex 0 15 0
    endloop
  endfacet
  facet normal 0 0 -1
    outer loop
      vertex -7.24444 5.55886 0
      vertex 0 15 0
      vertex 40 15 0
    endloop
  endfacet
  facet normal 0 0 -1
    outer loop
      vertex -7.24444 5.55886 0
      vertex 40 15 0
      vertex 41.9411 14.7444 0
    endloop
  endfacet
  facet normal 0 0 -1
    outer loop
      vertex -7.24444 5.55886 0
      vertex 41.9411 14.7444 0
      vertex 43.75 13.9952 0
    endloop
  endfacet
  facet normal 0 0 -1
    outer loop
      vertex -7.24444 5.55886 0
      vertex 43.75 13.9952 0
      vertex 45.3033 12.8033 0
    endloop
  endfacet
  facet normal 0 0 -1
    outer loop
      vertex -7.24444 5.55886 0
      vertex 45.3033 12.8033 0
      vertex 46.4952 11.25 0
    endloop
  endfacet
  facet normal 0 0 -1
    outer loop
      vertex -7.24444 5.55886 0
      vertex 46.4952 11.25 0
      vertex 47.2444 9.44114 0
    endloop
  endfacet
  facet normal 0 0 -1
    outer loop
      vertex -7.24444 5.55886 0
      vertex 47.2444 9.44114 0
      vertex 47.5 7.5 0
    endloop
  endfacet
  facet normal 0 0 -1
    outer loop
      vertex -7.24444 5.55886 0
      vertex 47.5 7.5 0
      vertex 47.2444 5.55886 0
    endloop
  endfacet
  facet normal 0 0 -1
    outer loop
      vertex -7.24444 5.55886 0
      vertex 47.2444 5.55886 0
      vertex 46.4952 3.75 0
    endloop
  endfacet
  facet normal 0 0 -1
    outer loop
      vertex -7.24444 5.55886 0
      vertex 46.4952 3.75 0
      vertex 45.3033 2.1967 0
    endloop
  endfacet
  facet normal 0 0 -1
    outer loop
      vertex -7.24444 5.55886 0
      vertex 45.3033 2.1967 0
      vertex 43.75 1.00481 0
    endloop
  endfacet
  facet normal 0 0 -1
    outer loop
      vertex -7.24444 5.55886 0
      vertex 43.75 1.00481 0
      vertex 41.9411 0.255556 0
    endloop
  endfacet
  facet normal 0 0 -1
    outer loop
      vertex -7.24444 5.55886 0
      vertex 41.9411 0.255556 0
      vertex 40 0 0
    endloop
  endfacet
  facet normal 0 0 -1
    outer loop
      vertex -7.24444 5.55886 0
      vertex 40 0 0
      vertex 0 0 0
    endloop
  endfacet
  facet normal 0 0 -1
    outer loop
      vertex -7.24444 5.55886 0
      vertex 0 0 0
      vertex -1.94114 0.255556 0
    endloop
  endfacet
  facet normal 0 0 -1
    outer loop
      vertex -7.24444 5.55886 0
      vertex -1.94114 0.255556 0
      vertex -3.75 1.00481 0
    endloop
  endfacet
  facet normal 0 0 -1
    outer loop
      vertex -7.24444 5.55886 0
      vertex -3.75 1.00481 0
      vertex -5.3033 2.1967 0
    endloop
  endfacet
  facet normal 0 0 -1
    outer loop
      vertex -7.24444 5.55886 0
      vertex -5.3033 2.1967 0
      vertex -6.49519 3.75 0
    endloop
  endfacet
  facet normal -0.991445 0.130526 0
    outer loop
      vertex -7.5 7.5 0
      vertex -7.5 7.5 3
      vertex -7.24444 9.44114 0
    endloop
  endfacet
  facet normal -0.991445 0.130526 0
    outer loop
      vertex -7.24444 9.44114 0
      vertex -7.5 7.5 3
      vertex -7.24444 9.44114 3
    endloop
  endfacet
  facet normal -0.991445 -0.130526 0
    outer loop
      vertex -7.5 7.5 0
      vertex -7.24444 5.55886 0
      vertex -7.5 7.5 3
    endloop
  endfacet
  facet normal -0.991445 -0.130526 0
    outer loop
      vertex -7.5 7.5 3
      vertex -7.24444 5.55886 0
      vertex -7.24444 5.55886 3
    endloop
  endfacet
  facet normal -0.92388 -0.382683 0
    outer loop
      vertex -7.24444 5.55886 0
      vertex -6.49519 3.75 0
      vertex -7.24444 5.55886 3
    endloop
  endfacet
  facet normal -0.92388 -0.382683 0
    outer loop
      vertex -7.24444 5.55886 3
      vertex -6.49519 3.75 0
      vertex -6.49519 3.75 3
    endloop
  endfacet
  facet normal -0.793353 -0.608762 0
    outer loop
      vertex -6.49519 3.75 0
      vertex -5.3033 2.1967 0
      vertex -6.49519 3.75 3
    endloop
  endfacet
  facet normal -0.793353 -0.608762 0
    outer loop
      vertex -6.49519 3.75 3
      vertex -5.3033 2.1967 0
      vertex -5.3033 2.1967 3
    endloop
  endfacet
  facet normal -0.608762 -0.793353 0
    outer loop
      vertex -5.3033 2.1967 3
      vertex -5.3033 2.1967 0
      vertex -3.75 1.00481 0
    endloop
  endfacet
  facet normal -0.608762 -0.793353 0
    outer loop
      vertex -3.75 1.00481 3
      vertex -5.3033 2.1967 3
      vertex -3.75 1.00481 0
    endloop
  endfacet
  facet normal -0.382683 -0.92388 0
    outer loop
      vertex -3.75 1.00481 3
      vertex -3.75 1.00481 0
      vertex -1.94114 0.255556 0
    endloop
  endfacet
  facet normal -0.382683 -0.92388 0
    outer loop
      vertex -1.94114 0.255556 3
      vertex -3.75 1.00481 3
      vertex -1.94114 0.255556 0
    endloop
  endfacet
  facet normal -0.130526 -0.991445 0
    outer loop
      vertex -1.94114 0.255556 3
      vertex -1.94114 0.255556 0
      vertex 0 0 0
    endloop
  endfacet
  facet normal -0.130526 -0.991445 0
    outer loop
      vertex 0 0 3
      vertex -1.94114 0.255556 3
      vertex 0 0 0
    endloop
  endfacet
  facet normal 0 -1 0
    outer loop
      vertex 0 0 3
      vertex 0 0 0
      vertex 40 0 0
    endloop
  endfacet
  facet normal 0 -1 0
    outer loop
      vertex 40 0 3
      vertex 0 0 3
      vertex 40 0 0
    endloop
  endfacet
  facet normal 0.130526 -0.991445 0
    outer loop
      vertex 40 0 3
      vertex 40 0 0
      vertex 41.9411 0.255556 0
    endloop
  endfacet
  facet normal 0.130526 -0.991445 0
    outer loop
      vertex 41.9411 0.255556 3
      vertex 40 0 3
      vertex 41.9411 0.255556 0
    endloop
  endfacet
  facet normal 0.382683 -0.92388 0
    outer loop
      vertex 41.9411 0.255556 3
      vertex 41.9411 0.255556 0
      vertex 43.75 1.00481 0
    endloop
  endfacet
  facet normal 0.382683 -0.92388 0
    outer loop
      vertex 43.75 1.00481 3
      vertex 41.9411 0.255556 3
      vertex 43.75 1.00481 0
    endloop
  endfacet
  facet normal 0.608762 -0.793353 0
    outer loop
      vertex 43.75 1.00481 3
      vertex 43.75 1.00481 0
      vertex 45.3033 2.1967 0
    endloop
  endfacet
  facet normal 0.608762 -0.793353 0
    outer loop
      vertex 45.3033 2.1967 3
      vertex 43.75 1.00481 3
      vertex 45.3033 2.1967 0
    endloop
  endfacet
  facet normal 0.793353 -0.608762 0
    outer loop
      vertex 45.3033 2.1967 3
      vertex 45.3033 2.1967 0
      vertex 46.4952 3.75 0
    endloop
  endfacet
  facet normal 0.793353 -0.608762 0
    outer loop
      vertex 46.4952 3.75 3
      vertex 45.3033 2.1967 3
      vertex 46.4952 3.75 0
    endloop
  endfacet
  facet normal 0.92388 -0.382683 0
    outer loop
      vertex 46.4952 3.75 3
      vertex 46.4952 3.75 0
      vertex 47.2444 5.55886 0
    endloop
  endfacet
  facet normal 0.92388 -0.382683 0
    outer loop
      vertex 47.2444 5.55886 3
      vertex 46.4952 3.75 3
      vertex 47.2444 5.55886 0
    endloop
  endfacet
  facet normal 0.991445 -0.130526 0
    outer loop
      vertex 47.2444 5.55886 3
      vertex 47.2444 5.55886 0
      vertex 47.5 7.5 0
    endloop
  endfacet
  facet normal 0.991445 -0.130526 0
    outer loop
      vertex 47.5 7.5 3
      vertex 47.2444 5.55886 3
      vertex 47.5 7.5 0
    endloop
  endfacet
  facet normal 0.991445 0.130526 0
    outer loop
      vertex 47.5 7.5 0
      vertex 47.2444 9.44114 0
      vertex 47.2444 9.44114 3
    endloop
  endfacet
  facet normal 0.991445 0.130526 0
    outer loop
      vertex 47.5 7.5 3
      vertex 47.5 7.5 0
      vertex 47.2444 9.44114 3
    endloop
  endfacet
  facet normal 0.92388 0.382683 0
    outer loop
      vertex 47.2444 9.44114 0
      vertex 46.4952 11.25 0
      vertex 46.4952 11.25 3
    endloop
  endfacet
  facet normal 0.92388 0.382683 0
    outer loop
      vertex 47.2444 9.44114 3
      vertex 47.2444 9.44114 0
      vertex 46.4952 11.25 3
    endloop
  endfacet
  facet normal 0.793353 0.608762 0
    outer loop
      vertex 46.4952 11.25 0
      vertex 45.3033 12.8033 0
      vertex 45.3033 12.8033 3
    endloop
  endfacet
  facet normal 0.793353 0.608762 0
    outer loop
      vertex 46.4952 11.25 3
      vertex 46.4952 11.25 0
      vertex 45.3033 12.8033 3
    endloop
  endfacet
  facet normal 0.608762 0.793353 0
    outer loop
      vertex 43.75 13.9952 0
      vertex 43.75 13.9952 3
      vertex 45.3033 12.8033 0
    endloop
  endfacet
  facet normal 0.608762 0.793353 0
    outer loop
      vertex 45.3033 12.8033 0
      vertex 43.75 13.9952 3
      vertex 45.3033 12.8033 3
    endloop
  endfacet
  facet normal 0.382683 0.92388 0
    outer loop
      vertex 41.9411 14.7444 0
      vertex 41.9411 14.7444 3
      vertex 43.75 13.9952 0
    endloop
  endfacet
  facet normal 0.382683 0.92388 0
    outer loop
      vertex 43.75 13.9952 0
      vertex 41.9411 14.7444 3
      vertex 43.75 13.9952 3
    endloop
  endfacet
  facet normal 0.130526 0.991445 0
    outer loop
      vertex 40 15 0
      vertex 40 15 3
      vertex 41.9411 14.7444 0
    endloop
  endfacet
  facet normal 0.130526 0.991445 0
    outer loop
      vertex 41.9411 14.7444 0
      vertex 40 15 3
      vertex 41.9411 14.7444 3
    endloop
  endfacet
  facet normal 0 1 0
    outer loop
      vertex 0 15 0
      vertex 0 15 3
      vertex 40 15 0
    endloop
  endfacet
  facet normal 0 1 0
    outer loop
      vertex 40 15 0
      vertex 0 15 3
      vertex 40 15 3
    endloop
  endfacet
  facet normal -0.130526 0.991445 0
    outer loop
      vertex -1.94114 14.7444 0
      vertex -1.94114 14.7444 3
      vertex 0 15 0
    endloop
  endfacet
  facet normal -0.130526 0.991445 0
    outer loop
      vertex 0 15 0
      vertex -1.94114 14.7444 3
      vertex 0 15 3
    endloop
  endfacet
  facet normal -0.382683 0.92388 0
    outer loop
      vertex -3.75 13.9952 0
      vertex -3.75 13.9952 3
      vertex -1.94114 14.7444 0
    endloop
  endfacet
  facet normal -0.382683 0.92388 0
    outer loop
      vertex -1.94114 14.7444 0
      vertex -3.75 13.9952 3
      vertex -1.94114 14.7444 3
    endloop
  endfacet
  facet normal -0.608762 0.793353 0
    outer loop
      vertex -5.3033 12.8033 0
      vertex -5.3033 12.8033 3
      vertex -3.75 13.9952 0
    endloop
  endfacet
  facet normal -0.608762 0.793353 0
    outer loop
      vertex -3.75 13.9952 0
      vertex -5.3033 12.8033 3
      vertex -3.75 13.9952 3
    endloop
  endfacet
  facet normal -0.793353 0.608762 0
    outer loop
      vertex -6.49519 11.25 0
      vertex -6.49519 11.25 3
      vertex -5.3033 12.8033 0
    endloop
  endfacet
  facet normal -0.793353 0.608762 0
    outer loop
      vertex -5.3033 12.8033 0
      vertex -6.49519 11.25 3
      vertex -5.3033 12.8033 3
    endloop
  endfacet
  facet normal -0.92388 0.382683 0
    outer loop
      vertex -7.24444 9.44114 0
      vertex -7.24444 9.44114 3
      vertex -6.49519 11.25 0
    endloop
  endfacet
  facet normal -0.92388 0.382683 0
    outer loop
      vertex -6.49519 11.25 0
      vertex -7.24444 9.44114 3
      vertex -6.49519 11.25 3
    endloop
  endfacet
  facet normal 0 0 1
    outer loop
      vertex -7.24444 9.44114 3
      vertex -7.5 7.5 3
      vertex -7.24444 5.55886 3
    endloop
  endfacet
  facet normal 0 0 1
    outer loop
      vertex -5.3033 2.1967 3
      vertex -7.24444 9.44114 3
      vertex -6.49519 3.75 3
    endloop
  endfacet
  facet normal 0 0 1
    outer loop
      vertex -6.49519 3.75 3
      vertex -7.24444 9.44114 3
      vertex -7.24444 5.55886 3
    endloop
  endfacet
  facet normal 0 0 1
    outer loop
      vertex -3.75 1.00481 3
      vertex -7.24444 9.44114 3
      vertex -5.3033 2.1967 3
    endloop
  endfacet
  facet normal 0 0 1
    outer loop
      vertex -1.94114 0.255556 3
      vertex -7.24444 9.44114 3
      vertex -3.75 1.00481 3
    endloop
  endfacet
  facet normal 0 0 1
    outer loop
      vertex 0 0 3
      vertex -7.24444 9.44114 3
      vertex -1.94114 0.255556 3
    endloop
  endfacet
  facet normal 0 0 1
    outer loop
      vertex 0 1 3
      vertex -7.24444 9.44114 3
      vertex 0 0 3
    endloop
  endfacet
  facet normal 0 0 1
    outer loop
      vertex 20 1 3
      vertex 17 8.5 3
      vertex 17 6.5 3
    endloop
  endfacet
  facet normal 0 0 1
    outer loop
      vertex 18 3 3
      vertex 17 6.5 3
      vertex 11 6.5 3
    endloop
  endfacet
  facet normal 0 0 1
    outer loop
      vertex 44.0032 12.717 3
      vertex 47.5 7.5 3
      vertex 47.2444 9.44114 3
    endloop
  endfacet
  facet normal 0 0 1
    outer loop
      vertex 27 1 3
      vertex 27 7 3
      vertex 22 7 3
    endloop
  endfacet
  facet normal 0 0 1
    outer loop
      vertex 44.0032 12.717 3
      vertex 47.2444 5.55886 3
      vertex 47.5 7.5 3
    endloop
  endfacet
  facet normal 0 0 1
    outer loop
      vertex 44.0032 12.717 3
      vertex 43.75 1.00481 3
      vertex 45.3033 2.1967 3
    endloop
  endfacet
  facet normal 0 0 1
    outer loop
      vertex 8 3 3
      vertex 9 14 3
      vertex 2 14 3
    endloop
  endfacet
  facet normal 0 0 1
    outer loop
      vertex 29 14 3
      vertex 43.75 13.9952 3
      vertex 41.9411 14.7444 3
    endloop
  endfacet
  facet normal 0 0 1
    outer loop
      vertex 2 14 3
      vertex 2 3 3
      vertex 8 3 3
    endloop
  endfacet
  facet normal 0 0 1
    outer loop
      vertex -1.94114 14.7444 3
      vertex -7.24444 9.44114 3
      vertex 0 15 3
    endloop
  endfacet
  facet normal 0 0 1
    outer loop
      vertex -3.75 13.9952 3
      vertex -7.24444 9.44114 3
      vertex -1.94114 14.7444 3
    endloop
  endfacet
  facet normal 0 0 1
    outer loop
      vertex -5.3033 12.8033 3
      vertex -7.24444 9.44114 3
      vertex -3.75 13.9952 3
    endloop
  endfacet
  facet normal 0 0 1
    outer loop
      vertex -6.49519 11.25 3
      vertex -7.24444 9.44114 3
      vertex -5.3033 12.8033 3
    endloop
  endfacet
  facet normal 0 0 1
    outer loop
      vertex 40 0 3
      vertex 0 1 3
      vertex 0 0 3
    endloop
  endfacet
  facet normal 0 0 1
    outer loop
      vertex 0 15 3
      vertex 0 14 3
      vertex 40 15 3
    endloop
  endfacet
  facet normal 0 0 1
    outer loop
      vertex 0 15 3
      vertex -7.24444 9.44114 3
      vertex 0 14 3
    endloop
  endfacet
  facet normal 0 0 1
    outer loop
      vertex 0 14 3
      vertex 2 14 3
      vertex 40 15 3
    endloop
  endfacet
  facet normal 0 0 1
    outer loop
      vertex 20 1 3
      vertex 20 14 3
      vertex 18 12 3
    endloop
  endfacet
  facet normal 0 0 1
    outer loop
      vertex 40 0 3
      vertex 8 1 3
      vertex 0 1 3
    endloop
  endfacet
  facet normal 0 0 1
    outer loop
      vertex 40 0 3
      vertex 9 1 3
      vertex 8 1 3
    endloop
  endfacet
  facet normal 0 0 1
    outer loop
      vertex 11 12 3
      vertex 11 8.5 3
      vertex 17 8.5 3
    endloop
  endfacet
  facet normal 0 0 1
    outer loop
      vertex 2 14 3
      vertex 9 14 3
      vertex 40 15 3
    endloop
  endfacet
  facet normal 0 0 1
    outer loop
      vertex 29 14 3
      vertex 41.9411 14.7444 3
      vertex 40 15 3
    endloop
  endfacet
  facet normal 0 0 1
    outer loop
      vertex 9 14 3
      vertex 18 14 3
      vertex 40 15 3
    endloop
  endfacet
  facet normal 0 0 1
    outer loop
      vertex 18 14 3
      vertex 18 12 3
      vertex 20 14 3
    endloop
  endfacet
  facet normal 0 0 1
    outer loop
      vertex 44.0032 12.717 3
      vertex 46.4952 3.75 3
      vertex 47.2444 5.55886 3
    endloop
  endfacet
  facet normal 0 0 1
    outer loop
      vertex 18 3 3
      vertex 18 1 3
      vertex 20 1 3
    endloop
  endfacet
  facet normal 0 0 1
    outer loop
      vertex 22 7 3
      vertex 22 1 3
      vertex 27 1 3
    endloop
  endfacet
  facet normal 0 0 1
    outer loop
      vertex 20 1 3
      vertex 18 12 3
      vertex 17 8.5 3
    endloop
  endfacet
  facet normal 0 0 1
    outer loop
      vertex 17 8.5 3
      vertex 18 12 3
      vertex 11 12 3
    endloop
  endfacet
  facet normal 0 0 1
    outer loop
      vertex 40 0 3
      vertex 18 1 3
      vertex 9 1 3
    endloop
  endfacet
  facet normal 0 0 1
    outer loop
      vertex 40 0 3
      vertex 20 1 3
      vertex 18 1 3
    endloop
  endfacet
  facet normal 0 0 1
    outer loop
      vertex 18 14 3
      vertex 20 14 3
      vertex 40 15 3
    endloop
  endfacet
  facet normal 0 0 1
    outer loop
      vertex 20 14 3
      vertex 22 14 3
      vertex 40 15 3
    endloop
  endfacet
  facet normal 0 0 1
    outer loop
      vertex 37.6775 1.18499 3
      vertex 29 1 3
      vertex 40 0 3
    endloop
  endfacet
  facet normal 0 0 1
    outer loop
      vertex 22 14 3
      vertex 27 14 3
      vertex 40 15 3
    endloop
  endfacet
  facet normal 0 0 1
    outer loop
      vertex 29 14 3
      vertex 37.6775 1.18499 3
      vertex 39.0059 4.83471 3
    endloop
  endfacet
  facet normal 0 0 1
    outer loop
      vertex 27 14 3
      vertex 29 14 3
      vertex 40 15 3
    endloop
  endfacet
  facet normal 0 0 1
    outer loop
      vertex 44.0032 12.717 3
      vertex 45.3033 2.1967 3
      vertex 46.4952 3.75 3
    endloop
  endfacet
  facet normal 0 0 1
    outer loop
      vertex 37.6775 1.18499 3
      vertex 40 0 3
      vertex 39.5569 0.500951 3
    endloop
  endfacet
  facet normal 0 0 1
    outer loop
      vertex 40 0 3
      vertex 22 1 3
      vertex 20 1 3
    endloop
  endfacet
  facet normal 0 0 1
    outer loop
      vertex 40 0 3
      vertex 27 1 3
      vertex 22 1 3
    endloop
  endfacet
  facet normal 0 0 1
    outer loop
      vertex 9 1 3
      vertex 9 14 3
      vertex 8 3 3
    endloop
  endfacet
  facet normal 0 0 1
    outer loop
      vertex 44.0032 12.717 3
      vertex 47.2444 9.44114 3
      vertex 46.4952 11.25 3
    endloop
  endfacet
  facet normal 0 0 1
    outer loop
      vertex 43.75 13.9952 3
      vertex 42.1238 13.401 3
      vertex 45.3033 12.8033 3
    endloop
  endfacet
  facet normal 0 0 1
    outer loop
      vertex 41.9411 0.255556 3
      vertex 39.5569 0.500951 3
      vertex 40 0 3
    endloop
  endfacet
  facet normal 0 0 1
    outer loop
      vertex 20 1 3
      vertex 17 6.5 3
      vertex 18 3 3
    endloop
  endfacet
  facet normal 0 0 1
    outer loop
      vertex 39.7607 6.90838 3
      vertex 42.1238 13.401 3
      vertex 34.6482 12.0208 3
    endloop
  endfacet
  facet normal 0 0 1
    outer loop
      vertex 34.6482 12.0208 3
      vertex 42.1238 13.401 3
      vertex 29 14 3
    endloop
  endfacet
  facet normal 0 0 1
    outer loop
      vertex 8 3 3
      vertex 8 1 3
      vertex 9 1 3
    endloop
  endfacet
  facet normal 0 0 1
    outer loop
      vertex 29 14 3
      vertex 42.1238 13.401 3
      vertex 43.75 13.9952 3
    endloop
  endfacet
  facet normal 0 0 1
    outer loop
      vertex 27 9 3
      vertex 22 14 3
      vertex 22 9 3
    endloop
  endfacet
  facet normal 0 0 1
    outer loop
      vertex 27 9 3
      vertex 27 14 3
      vertex 22 14 3
    endloop
  endfacet
  facet normal 0 0 1
    outer loop
      vertex 29 14 3
      vertex 33.234 10.6066 3
      vertex 34.6482 12.0208 3
    endloop
  endfacet
  facet normal 0 0 1
    outer loop
      vertex 44.0032 12.717 3
      vertex 46.4952 11.25 3
      vertex 45.3033 12.8033 3
    endloop
  endfacet
  facet normal 0 0 1
    outer loop
      vertex 42.1238 13.401 3
      vertex 44.0032 12.717 3
      vertex 45.3033 12.8033 3
    endloop
  endfacet
  facet normal 0 0 1
    outer loop
      vertex 44.0032 12.717 3
      vertex 41.9411 0.255556 3
      vertex 43.75 1.00481 3
    endloop
  endfacet
  facet normal 0 0 1
    outer loop
      vertex 29 14 3
      vertex 39.0059 4.83471 3
      vertex 33.234 10.6066 3
    endloop
  endfacet
  facet normal 0 0 1
    outer loop
      vertex 44.0032 12.717 3
      vertex 39.5569 0.500951 3
      vertex 41.9411 0.255556 3
    endloop
  endfacet
  facet normal 0 0 1
    outer loop
      vertex 29 14 3
      vertex 29 1 3
      vertex 37.6775 1.18499 3
    endloop
  endfacet
  facet normal 0 0 1
    outer loop
      vertex 11 6.5 3
      vertex 11 3 3
      vertex 18 3 3
    endloop
  endfacet
  facet normal 0 0 1
    outer loop
      vertex 29 1 3
      vertex 27 1 3
      vertex 40 0 3
    endloop
  endfacet
  facet normal 0 0 1
    outer loop
      vertex 0 1 3
      vertex 0 14 3
      vertex -7.24444 9.44114 3
    endloop
  endfacet
  facet normal -1 0 0
    outer loop
      vertex 0 1 3
      vertex 0 1 3.5
      vertex 0 14 3
    endloop
  endfacet
  facet normal -1 0 0
    outer loop
      vertex 0 14 3
      vertex 0 1 3.5
      vertex 0 14 3.5
    endloop
  endfacet
  facet normal 0 -1 0
    outer loop
      vertex 0 1 3.5
      vertex 0 1 3
      vertex 8 1 3
    endloop
  endfacet
  facet normal 0 -1 0
    outer loop
      vertex 8 1 3.5
      vertex 0 1 3.5
      vertex 8 1 3
    endloop
  endfacet
  facet normal 1 0 0
    outer loop
      vertex 8 1 3.5
      vertex 8 1 3
      vertex 8 3 3
    endloop
  endfacet
  facet normal 1 0 0
    outer loop
      vertex 8 3 3.5
      vertex 8 1 3.5
      vertex 8 3 3
    endloop
  endfacet
  facet normal 0 1 0
    outer loop
      vertex 2 3 3
      vertex 2 3 3.5
      vertex 8 3 3
    endloop
  endfacet
  facet normal 0 1 0
    outer loop
      vertex 8 3 3
      vertex 2 3 3.5
      vertex 8 3 3.5
    endloop
  endfacet
  facet normal 1 0 0
    outer loop
      vertex 2 3 3.5
      vertex 2 3 3
      vertex 2 14 3
    endloop
  endfacet
  facet normal 1 0 0
    outer loop
      vertex 2 14 3.5
      vertex 2 3 3.5
      vertex 2 14 3
    endloop
  endfacet
  facet normal 0 1 0
    outer loop
      vertex 0 14 3
      vertex 0 14 3.5
      vertex 2 14 3
    endloop
  endfacet
  facet normal 0 1 0
    outer loop
      vertex 2 14 3
      vertex 0 14 3.5
      vertex 2 14 3.5
    endloop
  endfacet
  facet normal -1 0 0
    outer loop
      vertex 9 1 3
      vertex 9 1 3.5
      vertex 9 14 3
    endloop
  endfacet
  facet normal -1 0 0
    outer loop
      vertex 9 14 3
      vertex 9 1 3.5
      vertex 9 14 3.5
    endloop
  endfacet
  facet normal 0 -1 0
    outer loop
      vertex 9 1 3.5
      vertex 9 1 3
      vertex 18 1 3
    endloop
  endfacet
  facet normal 0 -1 0
    outer loop
      vertex 18 1 3.5
      vertex 9 1 3.5
      vertex 18 1 3
    endloop
  endfacet
  facet normal 1 0 0
    outer loop
      vertex 18 1 3.5
      vertex 18 1 3
      vertex 18 3 3
    endloop
  endfacet
  facet normal 1 0 0
    outer loop
      vertex 18 3 3.5
      vertex 18 1 3.5
      vertex 18 3 3
    endloop
  endfacet
  facet normal 0 1 0
    outer loop
      vertex 11 3 3
      vertex 11 3 3.5
      vertex 18 3 3
    endloop
  endfacet
  facet normal 0 1 0
    outer loop
      vertex 18 3 3
      vertex 11 3 3.5
      vertex 18 3 3.5
    endloop
  endfacet
  facet normal 1 0 0
    outer loop
      vertex 11 3 3.5
      vertex 11 3 3
      vertex 11 6.5 3
    endloop
  endfacet
  facet normal 1 0 0
    outer loop
      vertex 11 6.5 3.5
      vertex 11 3 3.5
      vertex 11 6.5 3
    endloop
  endfacet
  facet normal 0 -1 0
    outer loop
      vertex 11 6.5 3.5
      vertex 11 6.5 3
      vertex 17 6.5 3
    endloop
  endfacet
  facet normal 0 -1 0
    outer loop
      vertex 17 6.5 3.5
      vertex 11 6.5 3.5
      vertex 17 6.5 3
    endloop
  endfacet
  facet normal 1 0 0
    outer loop
      vertex 17 6.5 3.5
      vertex 17 6.5 3
      vertex 17 8.5 3
    endloop
  endfacet
  facet normal 1 0 0
    outer loop
      vertex 17 8.5 3.5
      vertex 17 6.5 3.5
      vertex 17 8.5 3
    endloop
  endfacet
  facet normal 0 1 0
    outer loop
      vertex 11 8.5 3
      vertex 11 8.5 3.5
      vertex 17 8.5 3
    endloop
  endfacet
  facet normal 0 1 0
    outer loop
      vertex 17 8.5 3
      vertex 11 8.5 3.5
      vertex 17 8.5 3.5
    endloop
  endfacet
  facet normal 1 0 0
    outer loop
      vertex 11 8.5 3.5
      vertex 11 8.5 3
      vertex 11 12 3
    endloop
  endfacet
  facet normal 1 0 0
    outer loop
      vertex 11 12 3.5
      vertex 11 8.5 3.5
      vertex 11 12 3
    endloop
  endfacet
  facet normal 0 -1 0
    outer loop
      vertex 11 12 3.5
      vertex 11 12 3
      vertex 18 12 3
    endloop
  endfacet
  facet normal 0 -1 0
    outer loop
      vertex 18 12 3.5
      vertex 11 12 3.5
      vertex 18 12 3
    endloop
  endfacet
  facet normal 1 0 0
    outer loop
      vertex 18 12 3.5
      vertex 18 12 3
      vertex 18 14 3
    endloop
  endfacet
  facet normal 1 0 0
    outer loop
      vertex 18 14 3.5
      vertex 18 12 3.5
      vertex 18 14 3
    endloop
  endfacet
  facet normal 0 1 0
    outer loop
      vertex 9 14 3
      vertex 9 14 3.5
      vertex 18 14 3
    endloop
  endfacet
  facet normal 0 1 0
    outer loop
      vertex 18 14 3
      vertex 9 14 3.5
      vertex 18 14 3.5
    endloop
  endfacet
  facet normal -1 0 0
    outer loop
      vertex 20 1 3
      vertex 20 1 3.5
      vertex 20 14 3
    endloop
  endfacet
  facet normal -1 0 0
    outer loop
      vertex 20 14 3
      vertex 20 1 3.5
      vertex 20 14 3.5
    endloop
  endfacet
  facet normal 0 -1 0
    outer loop
      vertex 20 1 3.5
      vertex 20 1 3
      vertex 22 1 3
    endloop
  endfacet
  facet normal 0 -1 0
    outer loop
      vertex 22 1 3.5
      vertex 20 1 3.5
      vertex 22 1 3
    endloop
  endfacet
  facet normal 1 0 0
    outer loop
      vertex 22 1 3.5
      vertex 22 1 3
      vertex 22 7 3
    endloop
  endfacet
  facet normal 1 0 0
    outer loop
      vertex 22 7 3.5
      vertex 22 1 3.5
      vertex 22 7 3
    endloop
  endfacet
  facet normal 0 -1 0
    outer loop
      vertex 22 7 3.5
      vertex 22 7 3
      vertex 27 7 3
    endloop
  endfacet
  facet normal 0 -1 0
    outer loop
      vertex 27 7 3.5
      vertex 22 7 3.5
      vertex 27 7 3
    endloop
  endfacet
  facet normal -1 0 0
    outer loop
      vertex 27 1 3
      vertex 27 1 3.5
      vertex 27 7 3
    endloop
  endfacet
  facet normal -1 0 0
    outer loop
      vertex 27 7 3
      vertex 27 1 3.5
      vertex 27 7 3.5
    endloop
  endfacet
  facet normal 0 -1 0
    outer loop
      vertex 27 1 3.5
      vertex 27 1 3
      vertex 29 1 3
    endloop
  endfacet
  facet normal 0 -1 0
    outer loop
      vertex 29 1 3.5
      vertex 27 1 3.5
      vertex 29 1 3
    endloop
  endfacet
  facet normal 1 0 0
    outer loop
      vertex 29 1 3.5
      vertex 29 1 3
      vertex 29 14 3
    endloop
  endfacet
  facet normal 1 0 0
    outer loop
      vertex 29 14 3.5
      vertex 29 1 3.5
      vertex 29 14 3
    endloop
  endfacet
  facet normal 0 1 0
    outer loop
      vertex 27 14 3
      vertex 27 14 3.5
      vertex 29 14 3
    endloop
  endfacet
  facet normal 0 1 0
    outer loop
      vertex 29 14 3
      vertex 27 14 3.5
      vertex 29 14 3.5
    endloop
  endfacet
  facet normal -1 0 0
    outer loop
      vertex 27 9 3
      vertex 27 9 3.5
      vertex 27 14 3
    endloop
  endfacet
  facet normal -1 0 0
    outer loop
      vertex 27 14 3
      vertex 27 9 3.5
      vertex 27 14 3.5
    endloop
  endfacet
  facet normal 0 1 0
    outer loop
      vertex 22 9 3
      vertex 22 9 3.5
      vertex 27 9 3
    endloop
  endfacet
  facet normal 0 1 0
    outer loop
      vertex 27 9 3
      vertex 22 9 3.5
      vertex 27 9 3.5
    endloop
  endfacet
  facet normal 1 0 0
    outer loop
      vertex 22 9 3.5
      vertex 22 9 3
      vertex 22 14 3
    endloop
  endfacet
  facet normal 1 0 0
    outer loop
      vertex 22 14 3.5
      vertex 22 9 3.5
      vertex 22 14 3
    endloop
  endfacet
  facet normal 0 1 0
    outer loop
      vertex 20 14 3
      vertex 20 14 3.5
      vertex 22 14 3
    endloop
  endfacet
  facet normal 0 1 0
    outer loop
      vertex 22 14 3
      vertex 20 14 3.5
      vertex 22 14 3.5
    endloop
  endfacet
  facet normal -0.707107 -0.707107 0
    outer loop
      vertex 33.234 10.6066 3
      vertex 39.0059 4.83471 3
      vertex 33.234 10.6066 3.5
    endloop
  endfacet
  facet normal -0.707107 -0.707107 0
    outer loop
      vertex 33.234 10.6066 3.5
      vertex 39.0059 4.83471 3
      vertex 39.0059 4.83471 3.5
    endloop
  endfacet
  facet normal -0.707107 0.707107 0
    outer loop
      vertex 33.234 10.6066 3
      vertex 33.234 10.6066 3.5
      vertex 34.6482 12.0208 3
    endloop
  endfacet
  facet normal -0.707107 0.707107 0
    outer loop
      vertex 34.6482 12.0208 3
      vertex 33.234 10.6066 3.5
      vertex 34.6482 12.0208 3.5
    endloop
  endfacet
  facet normal -0.939693 0.34202 0
    outer loop
      vertex 37.6775 1.18499 3
      vertex 37.6775 1.18499 3.5
      vertex 39.0059 4.83471 3
    endloop
  endfacet
  facet normal -0.939693 0.34202 0
    outer loop
      vertex 39.0059 4.83471 3
      vertex 37.6775 1.18499 3.5
      vertex 39.0059 4.83471 3.5
    endloop
  endfacet
  facet normal -0.34202 -0.939693 0
    outer loop
      vertex 37.6775 1.18499 3.5
      vertex 37.6775 1.18499 3
      vertex 39.5569 0.500951 3
    endloop
  endfacet
  facet normal -0.34202 -0.939693 0
    outer loop
      vertex 39.5569 0.500951 3.5
      vertex 37.6775 1.18499 3.5
      vertex 39.5569 0.500951 3
    endloop
  endfacet
  facet normal 0.939693 -0.34202 0
    outer loop
      vertex 39.5569 0.500951 3.5
      vertex 39.5569 0.500951 3
      vertex 44.0032 12.717 3
    endloop
  endfacet
  facet normal 0.939693 -0.34202 0
    outer loop
      vertex 44.0032 12.717 3.5
      vertex 39.5569 0.500951 3.5
      vertex 44.0032 12.717 3
    endloop
  endfacet
  facet normal 0.34202 0.939693 0
    outer loop
      vertex 42.1238 13.401 3
      vertex 42.1238 13.401 3.5
      vertex 44.0032 12.717 3
    endloop
  endfacet
  facet normal 0.34202 0.939693 0
    outer loop
      vertex 44.0032 12.717 3
      vertex 42.1238 13.401 3.5
      vertex 44.0032 12.717 3.5
    endloop
  endfacet
  facet normal -0.939693 0.34202 0
    outer loop
      vertex 39.7607 6.90838 3
      vertex 39.7607 6.90838 3.5
      vertex 42.1238 13.401 3
    endloop
  endfacet
  facet normal -0.939693 0.34202 0
    outer loop
      vertex 42.1238 13.401 3
      vertex 39.7607 6.90838 3.5
      vertex 42.1238 13.401 3.5
    endloop
  endfacet
  facet normal 0.707107 0.707107 0
    outer loop
      vertex 39.7607 6.90838 3
      vertex 34.6482 12.0208 3
      vertex 34.6482 12.0208 3.5
    endloop
  endfacet
  facet normal 0.707107 0.707107 0
    outer loop
      vertex 39.7607 6.90838 3.5
      vertex 39.7607 6.90838 3
      vertex 34.6482 12.0208 3.5
    endloop
  endfacet
  facet normal 0 0 1
    outer loop
      vertex 2 3 3.5
      vertex 0 1 3.5
      vertex 8 1 3.5
    endloop
  endfacet
  facet normal 0 0 1
    outer loop
      vertex 2 3 3.5
      vertex 2 14 3.5
      vertex 0 14 3.5
    endloop
  endfacet
  facet normal 0 0 1
    outer loop
      vertex 0 14 3.5
      vertex 0 1 3.5
      vertex 2 3 3.5
    endloop
  endfacet
  facet normal 0 0 1
    outer loop
      vertex 8 3 3.5
      vertex 2 3 3.5
      vertex 8 1 3.5
    endloop
  endfacet
  facet normal 0 0 1
    outer loop
      vertex 11 3 3.5
      vertex 9 1 3.5
      vertex 18 1 3.5
    endloop
  endfacet
  facet normal 0 0 1
    outer loop
      vertex 11 6.5 3.5
      vertex 17 6.5 3.5
      vertex 11 8.5 3.5
    endloop
  endfacet
  facet normal 0 0 1
    outer loop
      vertex 9 14 3.5
      vertex 9 1 3.5
      vertex 11 3 3.5
    endloop
  endfacet
  facet normal 0 0 1
    outer loop
      vertex 11 8.5 3.5
      vertex 11 12 3.5
      vertex 9 14 3.5
    endloop
  endfacet
  facet normal 0 0 1
    outer loop
      vertex 9 14 3.5
      vertex 11 3 3.5
      vertex 11 6.5 3.5
    endloop
  endfacet
  facet normal 0 0 1
    outer loop
      vertex 9 14 3.5
      vertex 11 6.5 3.5
      vertex 11 8.5 3.5
    endloop
  endfacet
  facet normal 0 0 1
    outer loop
      vertex 11 12 3.5
      vertex 18 12 3.5
      vertex 9 14 3.5
    endloop
  endfacet
  facet normal 0 0 1
    outer loop
      vertex 18 14 3.5
      vertex 9 14 3.5
      vertex 18 12 3.5
    endloop
  endfacet
  facet normal 0 0 1
    outer loop
      vertex 17 8.5 3.5
      vertex 11 8.5 3.5
      vertex 17 6.5 3.5
    endloop
  endfacet
  facet normal 0 0 1
    outer loop
      vertex 18 3 3.5
      vertex 11 3 3.5
      vertex 18 1 3.5
    endloop
  endfacet
  facet normal 0 0 1
    outer loop
      vertex 20 14 3.5
      vertex 20 1 3.5
      vertex 22 1 3.5
    endloop
  endfacet
  facet normal 0 0 1
    outer loop
      vertex 22 9 3.5
      vertex 20 14 3.5
      vertex 22 7 3.5
    endloop
  endfacet
  facet normal 0 0 1
    outer loop
      vertex 22 7 3.5
      vertex 20 14 3.5
      vertex 22 1 3.5
    endloop
  endfacet
  facet normal 0 0 1
    outer loop
      vertex 22 9 3.5
      vertex 22 14 3.5
      vertex 20 14 3.5
    endloop
  endfacet
  facet normal 0 0 1
    outer loop
      vertex 29 1 3.5
      vertex 27 7 3.5
      vertex 27 1 3.5
    endloop
  endfacet
  facet normal 0 0 1
    outer loop
      vertex 29 14 3.5
      vertex 27 7 3.5
      vertex 29 1 3.5
    endloop
  endfacet
  facet normal 0 0 1
    outer loop
      vertex 29 14 3.5
      vertex 27 9 3.5
      vertex 27 7 3.5
    endloop
  endfacet
  facet normal 0 0 1
    outer loop
      vertex 29 14 3.5
      vertex 27 14 3.5
      vertex 27 9 3.5
    endloop
  endfacet
  facet normal 0 0 1
    outer loop
      vertex 27 7 3.5
      vertex 22 9 3.5
      vertex 22 7 3.5
    endloop
  endfacet
  facet normal 0 0 1
    outer loop
      vertex 27 9 3.5
      vertex 22 9 3.5
      vertex 27 7 3.5
    endloop
  endfacet
  facet normal 0 0 1
    outer loop
      vertex 34.6482 12.0208 3.5
      vertex 33.234 10.6066 3.5
      vertex 39.0059 4.83471 3.5
    endloop
  endfacet
  facet normal 0 0 1
    outer loop
      vertex 39.7607 6.90838 3.5
      vertex 34.6482 12.0208 3.5
      vertex 39.0059 4.83471 3.5
    endloop
  endfacet
  facet normal 0 0 1
    outer loop
      vertex 37.6775 1.18499 3.5
      vertex 39.5569 0.500951 3.5
      vertex 39.0059 4.83471 3.5
    endloop
  endfacet
  facet normal 0 0 1
    outer loop
      vertex 39.5569 0.500951 3.5
      vertex 44.0032 12.717 3.5
      vertex 39.0059 4.83471 3.5
    endloop
  endfacet
  facet normal 0 0 1
    outer loop
      vertex 44.0032 12.717 3.5
      vertex 39.7607 6.90838 3.5
      vertex 39.0059 4.83471 3.5
    endloop
  endfacet
  facet normal 0 0 1
    outer loop
      vertex 42.1238 13.401 3.5
      vertex 39.7607 6.90838 3.5
      vertex 44.0032 12.717 3.5
    endloop
  endfacet
endsolid OpenSCAD_Model
